G04*
G04 #@! TF.GenerationSoftware,Altium Limited,Altium Designer,23.11.1 (41)*
G04*
G04 Layer_Color=65535*
%FSLAX44Y44*%
%MOMM*%
G71*
G04*
G04 #@! TF.SameCoordinates,E756FA19-21DF-4648-B389-9DDB0D33ADA7*
G04*
G04*
G04 #@! TF.FilePolarity,Positive*
G04*
G01*
G75*
%ADD10C,0.4000*%
%ADD11C,0.1000*%
%ADD12C,0.2540*%
G36*
X1041277Y983359D02*
Y983347D01*
Y983300D01*
Y983242D01*
Y983160D01*
X1041265Y983054D01*
Y982937D01*
X1041253Y982796D01*
X1041242Y982655D01*
X1041206Y982338D01*
X1041159Y982010D01*
X1041089Y981693D01*
X1041042Y981540D01*
X1040995Y981399D01*
Y981388D01*
X1040983Y981364D01*
X1040960Y981329D01*
X1040937Y981282D01*
X1040866Y981153D01*
X1040760Y980989D01*
X1040620Y980801D01*
X1040455Y980613D01*
X1040244Y980414D01*
X1039986Y980238D01*
X1039974D01*
X1039951Y980214D01*
X1039915Y980202D01*
X1039857Y980167D01*
X1039787Y980132D01*
X1039693Y980097D01*
X1039599Y980062D01*
X1039481Y980015D01*
X1039352Y979968D01*
X1039212Y979932D01*
X1039059Y979897D01*
X1038883Y979862D01*
X1038707Y979839D01*
X1038519Y979815D01*
X1038097Y979792D01*
X1037991D01*
X1037909Y979803D01*
X1037815D01*
X1037698Y979815D01*
X1037569Y979827D01*
X1037439Y979839D01*
X1037146Y979886D01*
X1036829Y979956D01*
X1036524Y980050D01*
X1036231Y980179D01*
X1036219D01*
X1036196Y980202D01*
X1036160Y980226D01*
X1036114Y980249D01*
X1035984Y980343D01*
X1035832Y980472D01*
X1035656Y980637D01*
X1035491Y980824D01*
X1035327Y981059D01*
X1035198Y981317D01*
Y981329D01*
X1035186Y981352D01*
X1035175Y981399D01*
X1035151Y981458D01*
X1035128Y981528D01*
X1035104Y981622D01*
X1035069Y981728D01*
X1035046Y981857D01*
X1035022Y981998D01*
X1034987Y982150D01*
X1034964Y982315D01*
X1034940Y982491D01*
X1034917Y982690D01*
X1034905Y982901D01*
X1034893Y983124D01*
Y983359D01*
Y988053D01*
X1035973D01*
Y983359D01*
Y983347D01*
Y983312D01*
Y983253D01*
Y983183D01*
X1035984Y983101D01*
Y982995D01*
X1035996Y982772D01*
X1036020Y982514D01*
X1036055Y982256D01*
X1036102Y982010D01*
X1036125Y981904D01*
X1036160Y981798D01*
X1036172Y981775D01*
X1036196Y981716D01*
X1036254Y981634D01*
X1036325Y981517D01*
X1036407Y981399D01*
X1036524Y981270D01*
X1036665Y981141D01*
X1036829Y981036D01*
X1036853Y981024D01*
X1036911Y980989D01*
X1037017Y980954D01*
X1037158Y980907D01*
X1037322Y980848D01*
X1037533Y980813D01*
X1037756Y980777D01*
X1038003Y980766D01*
X1038120D01*
X1038191Y980777D01*
X1038296D01*
X1038402Y980789D01*
X1038660Y980836D01*
X1038942Y980895D01*
X1039212Y980989D01*
X1039470Y981118D01*
X1039587Y981200D01*
X1039693Y981294D01*
X1039704Y981305D01*
X1039716Y981317D01*
X1039740Y981352D01*
X1039775Y981399D01*
X1039810Y981470D01*
X1039857Y981540D01*
X1039904Y981646D01*
X1039951Y981751D01*
X1039998Y981880D01*
X1040033Y982033D01*
X1040080Y982209D01*
X1040115Y982397D01*
X1040150Y982608D01*
X1040174Y982831D01*
X1040197Y983089D01*
Y983359D01*
Y988053D01*
X1041277D01*
Y983359D01*
D02*
G37*
G36*
X1045548Y988076D02*
X1045642Y988065D01*
X1045760Y988053D01*
X1045889Y988029D01*
X1046018Y988006D01*
X1046323Y987924D01*
X1046628Y987807D01*
X1046780Y987736D01*
X1046933Y987654D01*
X1047074Y987548D01*
X1047203Y987431D01*
X1047215Y987419D01*
X1047238Y987408D01*
X1047262Y987361D01*
X1047309Y987314D01*
X1047367Y987255D01*
X1047426Y987173D01*
X1047485Y987091D01*
X1047555Y986985D01*
X1047672Y986762D01*
X1047790Y986481D01*
X1047837Y986340D01*
X1047860Y986175D01*
X1047884Y986011D01*
X1047895Y985835D01*
Y985812D01*
Y985753D01*
X1047884Y985659D01*
X1047872Y985530D01*
X1047848Y985389D01*
X1047801Y985225D01*
X1047754Y985049D01*
X1047684Y984873D01*
X1047672Y984849D01*
X1047649Y984791D01*
X1047602Y984697D01*
X1047531Y984568D01*
X1047438Y984427D01*
X1047320Y984251D01*
X1047179Y984075D01*
X1047015Y983875D01*
X1046992Y983852D01*
X1046933Y983782D01*
X1046874Y983723D01*
X1046816Y983664D01*
X1046745Y983594D01*
X1046651Y983500D01*
X1046557Y983406D01*
X1046440Y983300D01*
X1046323Y983183D01*
X1046182Y983054D01*
X1046029Y982925D01*
X1045865Y982772D01*
X1045677Y982620D01*
X1045490Y982456D01*
X1045478Y982444D01*
X1045454Y982420D01*
X1045407Y982385D01*
X1045349Y982338D01*
X1045278Y982268D01*
X1045196Y982197D01*
X1045008Y982045D01*
X1044809Y981869D01*
X1044621Y981693D01*
X1044457Y981540D01*
X1044387Y981481D01*
X1044328Y981423D01*
X1044316Y981411D01*
X1044281Y981376D01*
X1044234Y981329D01*
X1044175Y981259D01*
X1044117Y981176D01*
X1044046Y981094D01*
X1043905Y980895D01*
X1047907D01*
Y979932D01*
X1042521D01*
Y979944D01*
Y979991D01*
Y980062D01*
X1042532Y980155D01*
X1042544Y980261D01*
X1042568Y980378D01*
X1042591Y980496D01*
X1042638Y980625D01*
Y980637D01*
X1042650Y980648D01*
X1042673Y980719D01*
X1042720Y980824D01*
X1042791Y980965D01*
X1042885Y981130D01*
X1043002Y981317D01*
X1043131Y981505D01*
X1043295Y981704D01*
Y981716D01*
X1043319Y981728D01*
X1043377Y981798D01*
X1043483Y981904D01*
X1043635Y982057D01*
X1043811Y982233D01*
X1044035Y982444D01*
X1044304Y982679D01*
X1044598Y982925D01*
X1044610Y982937D01*
X1044656Y982972D01*
X1044727Y983030D01*
X1044809Y983101D01*
X1044915Y983195D01*
X1045044Y983300D01*
X1045173Y983418D01*
X1045325Y983547D01*
X1045619Y983829D01*
X1045912Y984110D01*
X1046053Y984251D01*
X1046182Y984392D01*
X1046299Y984521D01*
X1046393Y984650D01*
Y984662D01*
X1046417Y984673D01*
X1046440Y984709D01*
X1046464Y984755D01*
X1046546Y984885D01*
X1046640Y985037D01*
X1046722Y985225D01*
X1046804Y985424D01*
X1046851Y985647D01*
X1046874Y985859D01*
Y985870D01*
Y985882D01*
X1046862Y985953D01*
X1046851Y986070D01*
X1046816Y986199D01*
X1046769Y986363D01*
X1046686Y986527D01*
X1046581Y986692D01*
X1046440Y986856D01*
X1046417Y986880D01*
X1046358Y986926D01*
X1046276Y986985D01*
X1046147Y987067D01*
X1045982Y987138D01*
X1045795Y987208D01*
X1045572Y987255D01*
X1045325Y987267D01*
X1045255D01*
X1045208Y987255D01*
X1045067Y987243D01*
X1044903Y987208D01*
X1044727Y987161D01*
X1044527Y987079D01*
X1044340Y986973D01*
X1044164Y986833D01*
X1044140Y986809D01*
X1044093Y986750D01*
X1044023Y986657D01*
X1043952Y986516D01*
X1043870Y986351D01*
X1043800Y986140D01*
X1043753Y985906D01*
X1043729Y985636D01*
X1042708Y985741D01*
Y985753D01*
X1042720Y985788D01*
Y985847D01*
X1042732Y985929D01*
X1042755Y986023D01*
X1042779Y986128D01*
X1042814Y986258D01*
X1042849Y986387D01*
X1042943Y986668D01*
X1043084Y986950D01*
X1043166Y987091D01*
X1043272Y987232D01*
X1043377Y987361D01*
X1043495Y987478D01*
X1043506Y987490D01*
X1043530Y987502D01*
X1043565Y987537D01*
X1043624Y987572D01*
X1043694Y987619D01*
X1043776Y987666D01*
X1043870Y987724D01*
X1043988Y987783D01*
X1044117Y987842D01*
X1044257Y987900D01*
X1044410Y987947D01*
X1044574Y987994D01*
X1044750Y988029D01*
X1044938Y988065D01*
X1045137Y988076D01*
X1045349Y988088D01*
X1045466D01*
X1045548Y988076D01*
D02*
G37*
G36*
X848982Y884031D02*
Y884020D01*
Y883973D01*
Y883914D01*
Y883832D01*
X848970Y883726D01*
Y883609D01*
X848959Y883468D01*
X848947Y883327D01*
X848912Y883010D01*
X848865Y882682D01*
X848794Y882365D01*
X848747Y882213D01*
X848700Y882072D01*
Y882060D01*
X848689Y882037D01*
X848665Y882001D01*
X848642Y881954D01*
X848571Y881825D01*
X848466Y881661D01*
X848325Y881473D01*
X848160Y881285D01*
X847949Y881086D01*
X847691Y880910D01*
X847679D01*
X847656Y880887D01*
X847621Y880875D01*
X847562Y880839D01*
X847492Y880804D01*
X847398Y880769D01*
X847304Y880734D01*
X847187Y880687D01*
X847057Y880640D01*
X846917Y880605D01*
X846764Y880570D01*
X846588Y880534D01*
X846412Y880511D01*
X846224Y880488D01*
X845802Y880464D01*
X845696D01*
X845614Y880476D01*
X845520D01*
X845403Y880488D01*
X845274Y880499D01*
X845145Y880511D01*
X844851Y880558D01*
X844535Y880628D01*
X844229Y880722D01*
X843936Y880851D01*
X843924D01*
X843901Y880875D01*
X843866Y880898D01*
X843819Y880922D01*
X843689Y881015D01*
X843537Y881145D01*
X843361Y881309D01*
X843197Y881497D01*
X843032Y881731D01*
X842903Y881990D01*
Y882001D01*
X842892Y882025D01*
X842880Y882072D01*
X842856Y882130D01*
X842833Y882201D01*
X842809Y882295D01*
X842774Y882400D01*
X842751Y882529D01*
X842727Y882670D01*
X842692Y882823D01*
X842669Y882987D01*
X842645Y883163D01*
X842622Y883363D01*
X842610Y883574D01*
X842598Y883797D01*
Y884031D01*
Y888725D01*
X843678D01*
Y884031D01*
Y884020D01*
Y883984D01*
Y883926D01*
Y883855D01*
X843689Y883773D01*
Y883668D01*
X843701Y883445D01*
X843725Y883186D01*
X843760Y882928D01*
X843807Y882682D01*
X843830Y882576D01*
X843866Y882471D01*
X843877Y882447D01*
X843901Y882389D01*
X843959Y882306D01*
X844030Y882189D01*
X844112Y882072D01*
X844229Y881943D01*
X844370Y881814D01*
X844535Y881708D01*
X844558Y881696D01*
X844617Y881661D01*
X844722Y881626D01*
X844863Y881579D01*
X845027Y881520D01*
X845238Y881485D01*
X845462Y881450D01*
X845708Y881438D01*
X845825D01*
X845896Y881450D01*
X846001D01*
X846107Y881461D01*
X846365Y881508D01*
X846647Y881567D01*
X846917Y881661D01*
X847175Y881790D01*
X847292Y881872D01*
X847398Y881966D01*
X847410Y881978D01*
X847421Y881990D01*
X847445Y882025D01*
X847480Y882072D01*
X847515Y882142D01*
X847562Y882213D01*
X847609Y882318D01*
X847656Y882424D01*
X847703Y882553D01*
X847738Y882705D01*
X847785Y882881D01*
X847820Y883069D01*
X847855Y883280D01*
X847879Y883503D01*
X847902Y883762D01*
Y884031D01*
Y888725D01*
X848982D01*
Y884031D01*
D02*
G37*
G36*
X854122Y880605D02*
X853124D01*
Y886953D01*
X853113Y886942D01*
X853054Y886895D01*
X852983Y886824D01*
X852866Y886742D01*
X852737Y886637D01*
X852573Y886519D01*
X852385Y886390D01*
X852174Y886261D01*
X852162D01*
X852150Y886249D01*
X852080Y886202D01*
X851963Y886144D01*
X851822Y886073D01*
X851657Y885991D01*
X851481Y885909D01*
X851305Y885827D01*
X851129Y885756D01*
Y886719D01*
X851141D01*
X851165Y886742D01*
X851212Y886754D01*
X851270Y886789D01*
X851341Y886824D01*
X851423Y886871D01*
X851622Y886989D01*
X851857Y887118D01*
X852092Y887282D01*
X852338Y887470D01*
X852585Y887669D01*
X852596Y887681D01*
X852608Y887693D01*
X852643Y887728D01*
X852690Y887763D01*
X852796Y887880D01*
X852937Y888021D01*
X853077Y888186D01*
X853230Y888373D01*
X853359Y888561D01*
X853476Y888761D01*
X854122D01*
Y880605D01*
D02*
G37*
G36*
X1095814Y991637D02*
X1095802D01*
X1095755D01*
X1095685D01*
X1095591Y991649D01*
X1095485Y991661D01*
X1095368Y991684D01*
X1095250Y991707D01*
X1095121Y991754D01*
X1095110D01*
X1095098Y991766D01*
X1095027Y991790D01*
X1094922Y991836D01*
X1094781Y991907D01*
X1094617Y992001D01*
X1094429Y992118D01*
X1094241Y992247D01*
X1094042Y992411D01*
X1094030D01*
X1094018Y992435D01*
X1093948Y992494D01*
X1093842Y992599D01*
X1093690Y992752D01*
X1093514Y992928D01*
X1093303Y993151D01*
X1093068Y993421D01*
X1092821Y993714D01*
X1092810Y993726D01*
X1092774Y993773D01*
X1092716Y993843D01*
X1092645Y993925D01*
X1092551Y994031D01*
X1092446Y994160D01*
X1092328Y994289D01*
X1092199Y994442D01*
X1091918Y994735D01*
X1091636Y995028D01*
X1091495Y995169D01*
X1091355Y995298D01*
X1091225Y995416D01*
X1091096Y995509D01*
X1091085D01*
X1091073Y995533D01*
X1091038Y995556D01*
X1090991Y995580D01*
X1090862Y995662D01*
X1090709Y995756D01*
X1090521Y995838D01*
X1090322Y995920D01*
X1090099Y995967D01*
X1089888Y995991D01*
X1089876D01*
X1089864D01*
X1089794Y995979D01*
X1089676Y995967D01*
X1089547Y995932D01*
X1089383Y995885D01*
X1089219Y995803D01*
X1089054Y995697D01*
X1088890Y995556D01*
X1088867Y995533D01*
X1088820Y995474D01*
X1088761Y995392D01*
X1088679Y995263D01*
X1088609Y995099D01*
X1088538Y994911D01*
X1088491Y994688D01*
X1088480Y994442D01*
Y994371D01*
X1088491Y994324D01*
X1088503Y994184D01*
X1088538Y994019D01*
X1088585Y993843D01*
X1088667Y993644D01*
X1088773Y993456D01*
X1088914Y993280D01*
X1088937Y993256D01*
X1088996Y993210D01*
X1089090Y993139D01*
X1089230Y993069D01*
X1089395Y992987D01*
X1089606Y992916D01*
X1089841Y992869D01*
X1090111Y992846D01*
X1090005Y991825D01*
X1089993D01*
X1089958Y991836D01*
X1089899D01*
X1089817Y991848D01*
X1089723Y991872D01*
X1089618Y991895D01*
X1089489Y991930D01*
X1089360Y991966D01*
X1089078Y992059D01*
X1088796Y992200D01*
X1088655Y992282D01*
X1088515Y992388D01*
X1088386Y992494D01*
X1088268Y992611D01*
X1088257Y992623D01*
X1088245Y992646D01*
X1088210Y992681D01*
X1088174Y992740D01*
X1088127Y992811D01*
X1088081Y992893D01*
X1088022Y992987D01*
X1087963Y993104D01*
X1087905Y993233D01*
X1087846Y993374D01*
X1087799Y993526D01*
X1087752Y993691D01*
X1087717Y993867D01*
X1087682Y994054D01*
X1087670Y994254D01*
X1087658Y994465D01*
Y994582D01*
X1087670Y994665D01*
X1087682Y994759D01*
X1087693Y994876D01*
X1087717Y995005D01*
X1087740Y995134D01*
X1087822Y995439D01*
X1087940Y995744D01*
X1088010Y995897D01*
X1088092Y996049D01*
X1088198Y996190D01*
X1088315Y996319D01*
X1088327Y996331D01*
X1088339Y996354D01*
X1088386Y996378D01*
X1088432Y996425D01*
X1088491Y996484D01*
X1088573Y996542D01*
X1088655Y996601D01*
X1088761Y996671D01*
X1088984Y996789D01*
X1089266Y996906D01*
X1089407Y996953D01*
X1089571Y996976D01*
X1089735Y997000D01*
X1089911Y997011D01*
X1089935D01*
X1089993D01*
X1090087Y997000D01*
X1090216Y996988D01*
X1090357Y996965D01*
X1090521Y996918D01*
X1090697Y996871D01*
X1090873Y996800D01*
X1090897Y996789D01*
X1090956Y996765D01*
X1091049Y996718D01*
X1091179Y996648D01*
X1091319Y996554D01*
X1091495Y996436D01*
X1091671Y996296D01*
X1091871Y996131D01*
X1091894Y996108D01*
X1091965Y996049D01*
X1092023Y995991D01*
X1092082Y995932D01*
X1092152Y995862D01*
X1092246Y995768D01*
X1092340Y995674D01*
X1092446Y995556D01*
X1092563Y995439D01*
X1092692Y995298D01*
X1092821Y995146D01*
X1092974Y994981D01*
X1093127Y994794D01*
X1093291Y994606D01*
X1093303Y994594D01*
X1093326Y994571D01*
X1093361Y994524D01*
X1093408Y994465D01*
X1093478Y994395D01*
X1093549Y994313D01*
X1093701Y994125D01*
X1093877Y993925D01*
X1094053Y993737D01*
X1094206Y993573D01*
X1094265Y993503D01*
X1094323Y993444D01*
X1094335Y993432D01*
X1094370Y993397D01*
X1094417Y993350D01*
X1094488Y993292D01*
X1094570Y993233D01*
X1094652Y993163D01*
X1094852Y993022D01*
Y997023D01*
X1095814D01*
Y991637D01*
D02*
G37*
G36*
X1096447Y990581D02*
Y990569D01*
X1096436Y990546D01*
X1096412Y990499D01*
X1096389Y990428D01*
X1096354Y990346D01*
X1096307Y990252D01*
X1096260Y990147D01*
X1096201Y990029D01*
X1096060Y989771D01*
X1095896Y989478D01*
X1095685Y989161D01*
X1095450Y988832D01*
Y988821D01*
X1095473Y988797D01*
X1095497Y988738D01*
X1095532Y988680D01*
X1095567Y988586D01*
X1095614Y988492D01*
X1095649Y988375D01*
X1095696Y988246D01*
X1095743Y988105D01*
X1095790Y987952D01*
X1095872Y987612D01*
X1095931Y987236D01*
X1095943Y987037D01*
X1095955Y986837D01*
Y986732D01*
X1095943Y986650D01*
Y986556D01*
X1095931Y986439D01*
X1095908Y986309D01*
X1095884Y986169D01*
X1095826Y985863D01*
X1095732Y985523D01*
X1095602Y985171D01*
X1095520Y985007D01*
X1095426Y984831D01*
X1095415Y984819D01*
X1095403Y984796D01*
X1095368Y984749D01*
X1095333Y984690D01*
X1095274Y984608D01*
X1095203Y984526D01*
X1095039Y984326D01*
X1094828Y984103D01*
X1094570Y983880D01*
X1094277Y983657D01*
X1093936Y983458D01*
X1093924D01*
X1093889Y983434D01*
X1093842Y983411D01*
X1093772Y983387D01*
X1093678Y983352D01*
X1093572Y983305D01*
X1093443Y983258D01*
X1093303Y983223D01*
X1093150Y983176D01*
X1092986Y983129D01*
X1092810Y983094D01*
X1092610Y983047D01*
X1092199Y983000D01*
X1091765Y982977D01*
X1091753D01*
X1091707D01*
X1091648D01*
X1091566Y982989D01*
X1091460D01*
X1091331Y983000D01*
X1091190Y983012D01*
X1091038Y983035D01*
X1090697Y983094D01*
X1090334Y983176D01*
X1089946Y983294D01*
X1089571Y983458D01*
X1089559Y983470D01*
X1089524Y983481D01*
X1089477Y983505D01*
X1089407Y983552D01*
X1089324Y983599D01*
X1089230Y983657D01*
X1089008Y983822D01*
X1088773Y984009D01*
X1088526Y984256D01*
X1088280Y984526D01*
X1088069Y984843D01*
X1088057Y984854D01*
X1088045Y984890D01*
X1088022Y984936D01*
X1087987Y985007D01*
X1087951Y985089D01*
X1087905Y985183D01*
X1087858Y985300D01*
X1087811Y985429D01*
X1087764Y985582D01*
X1087717Y985734D01*
X1087635Y986075D01*
X1087576Y986450D01*
X1087552Y986650D01*
Y986967D01*
X1087564Y987049D01*
Y987154D01*
X1087576Y987260D01*
X1087599Y987401D01*
X1087623Y987542D01*
X1087682Y987847D01*
X1087775Y988199D01*
X1087916Y988539D01*
X1087998Y988715D01*
X1088092Y988891D01*
X1088104Y988903D01*
X1088116Y988926D01*
X1088151Y988973D01*
X1088186Y989044D01*
X1088245Y989114D01*
X1088315Y989208D01*
X1088480Y989407D01*
X1088691Y989619D01*
X1088949Y989853D01*
X1089254Y990076D01*
X1089594Y990264D01*
X1089606D01*
X1089641Y990287D01*
X1089688Y990311D01*
X1089759Y990334D01*
X1089853Y990381D01*
X1089958Y990417D01*
X1090087Y990463D01*
X1090228Y990510D01*
X1090380Y990546D01*
X1090545Y990593D01*
X1090721Y990639D01*
X1090909Y990675D01*
X1091319Y990722D01*
X1091753Y990745D01*
X1091765D01*
X1091800D01*
X1091847D01*
X1091918D01*
X1092012Y990733D01*
X1092117D01*
X1092235Y990722D01*
X1092352Y990710D01*
X1092634Y990675D01*
X1092939Y990616D01*
X1093255Y990546D01*
X1093561Y990440D01*
X1093572D01*
X1093596Y990428D01*
X1093643Y990405D01*
X1093690Y990381D01*
X1093760Y990346D01*
X1093842Y990311D01*
X1094030Y990217D01*
X1094253Y990088D01*
X1094488Y989924D01*
X1094722Y989736D01*
X1094957Y989525D01*
Y989537D01*
X1094981Y989560D01*
X1095004Y989595D01*
X1095039Y989654D01*
X1095086Y989713D01*
X1095133Y989795D01*
X1095239Y989971D01*
X1095368Y990182D01*
X1095497Y990417D01*
X1095602Y990663D01*
X1095708Y990898D01*
X1096447Y990581D01*
D02*
G37*
G36*
X1088843Y966536D02*
X1088867Y966513D01*
X1088914Y966466D01*
X1088984Y966419D01*
X1089066Y966348D01*
X1089160Y966255D01*
X1089277Y966161D01*
X1089418Y966055D01*
X1089559Y965949D01*
X1089723Y965820D01*
X1089911Y965691D01*
X1090099Y965562D01*
X1090310Y965422D01*
X1090533Y965281D01*
X1090779Y965140D01*
X1091026Y964999D01*
X1091038Y964987D01*
X1091085Y964964D01*
X1091155Y964929D01*
X1091261Y964870D01*
X1091390Y964811D01*
X1091531Y964741D01*
X1091695Y964659D01*
X1091883Y964577D01*
X1092094Y964483D01*
X1092305Y964377D01*
X1092540Y964283D01*
X1092786Y964189D01*
X1093291Y964002D01*
X1093831Y963826D01*
X1093842D01*
X1093877Y963814D01*
X1093936Y963802D01*
X1094007Y963779D01*
X1094100Y963755D01*
X1094218Y963732D01*
X1094347Y963696D01*
X1094488Y963673D01*
X1094652Y963638D01*
X1094828Y963603D01*
X1095204Y963544D01*
X1095614Y963485D01*
X1096060Y963450D01*
Y962429D01*
X1096049D01*
X1096013D01*
X1095966D01*
X1095896Y962441D01*
X1095802D01*
X1095685Y962453D01*
X1095556Y962464D01*
X1095415Y962476D01*
X1095250Y962499D01*
X1095086Y962523D01*
X1094887Y962558D01*
X1094687Y962593D01*
X1094476Y962629D01*
X1094241Y962675D01*
X1093760Y962793D01*
X1093748D01*
X1093701Y962805D01*
X1093631Y962828D01*
X1093525Y962863D01*
X1093408Y962898D01*
X1093267Y962945D01*
X1093103Y962992D01*
X1092927Y963063D01*
X1092728Y963133D01*
X1092528Y963204D01*
X1092082Y963380D01*
X1091613Y963591D01*
X1091143Y963826D01*
X1091132Y963837D01*
X1091085Y963861D01*
X1091026Y963896D01*
X1090932Y963943D01*
X1090826Y964002D01*
X1090697Y964084D01*
X1090557Y964166D01*
X1090404Y964260D01*
X1090064Y964483D01*
X1089712Y964717D01*
X1089348Y964987D01*
X1089008Y965269D01*
Y961291D01*
X1088045D01*
Y966548D01*
X1088832D01*
X1088843Y966536D01*
D02*
G37*
G36*
X1096060Y959249D02*
X1094370Y958181D01*
X1094359D01*
X1094335Y958158D01*
X1094300Y958134D01*
X1094253Y958099D01*
X1094124Y958017D01*
X1093960Y957911D01*
X1093784Y957782D01*
X1093596Y957653D01*
X1093420Y957524D01*
X1093256Y957407D01*
X1093244Y957395D01*
X1093197Y957360D01*
X1093127Y957301D01*
X1093044Y957219D01*
X1092868Y957043D01*
X1092786Y956949D01*
X1092716Y956855D01*
X1092704Y956843D01*
X1092692Y956820D01*
X1092669Y956773D01*
X1092634Y956702D01*
X1092598Y956632D01*
X1092563Y956550D01*
X1092505Y956362D01*
Y956350D01*
X1092493Y956327D01*
Y956280D01*
X1092481Y956221D01*
X1092469Y956139D01*
Y956045D01*
X1092458Y955916D01*
Y954532D01*
X1096060D01*
Y953452D01*
X1087940D01*
Y957219D01*
X1087951Y957313D01*
Y957418D01*
X1087963Y957665D01*
X1087998Y957923D01*
X1088034Y958205D01*
X1088092Y958463D01*
X1088128Y958592D01*
X1088163Y958697D01*
Y958709D01*
X1088174Y958721D01*
X1088210Y958791D01*
X1088257Y958897D01*
X1088339Y959026D01*
X1088444Y959167D01*
X1088585Y959319D01*
X1088749Y959460D01*
X1088937Y959601D01*
X1088949D01*
X1088961Y959613D01*
X1089031Y959660D01*
X1089148Y959707D01*
X1089301Y959777D01*
X1089477Y959836D01*
X1089688Y959894D01*
X1089911Y959930D01*
X1090158Y959941D01*
X1090169D01*
X1090193D01*
X1090240D01*
X1090298Y959930D01*
X1090380D01*
X1090463Y959918D01*
X1090662Y959871D01*
X1090897Y959800D01*
X1091143Y959707D01*
X1091390Y959566D01*
X1091507Y959472D01*
X1091624Y959378D01*
X1091636Y959366D01*
X1091648Y959355D01*
X1091683Y959319D01*
X1091718Y959272D01*
X1091765Y959214D01*
X1091812Y959143D01*
X1091871Y959050D01*
X1091941Y958956D01*
X1092000Y958838D01*
X1092059Y958709D01*
X1092129Y958568D01*
X1092188Y958416D01*
X1092235Y958240D01*
X1092293Y958064D01*
X1092328Y957864D01*
X1092364Y957653D01*
X1092375Y957676D01*
X1092399Y957723D01*
X1092446Y957794D01*
X1092493Y957888D01*
X1092622Y958099D01*
X1092704Y958205D01*
X1092774Y958298D01*
X1092798Y958322D01*
X1092857Y958381D01*
X1092951Y958475D01*
X1093068Y958592D01*
X1093232Y958721D01*
X1093408Y958873D01*
X1093619Y959026D01*
X1093854Y959190D01*
X1096060Y960587D01*
Y959249D01*
D02*
G37*
G36*
X941278Y865034D02*
Y865023D01*
Y864987D01*
Y864940D01*
Y864870D01*
X941266Y864776D01*
Y864682D01*
X941243Y864459D01*
X941219Y864201D01*
X941172Y863931D01*
X941102Y863685D01*
X941020Y863450D01*
Y863438D01*
X941008Y863427D01*
X940973Y863356D01*
X940914Y863262D01*
X940832Y863133D01*
X940715Y863004D01*
X940586Y862863D01*
X940421Y862722D01*
X940234Y862605D01*
X940210Y862593D01*
X940140Y862558D01*
X940034Y862511D01*
X939882Y862464D01*
X939694Y862406D01*
X939483Y862359D01*
X939248Y862324D01*
X938990Y862312D01*
X938884D01*
X938814Y862324D01*
X938720Y862335D01*
X938626Y862347D01*
X938380Y862394D01*
X938121Y862464D01*
X937851Y862570D01*
X937711Y862640D01*
X937581Y862722D01*
X937464Y862816D01*
X937347Y862922D01*
X937335Y862934D01*
X937323Y862945D01*
X937300Y862992D01*
X937265Y863039D01*
X937218Y863098D01*
X937171Y863180D01*
X937124Y863274D01*
X937065Y863380D01*
X937018Y863497D01*
X936971Y863638D01*
X936924Y863779D01*
X936878Y863943D01*
X936854Y864119D01*
X936819Y864318D01*
X936807Y864518D01*
Y864741D01*
X937781Y864882D01*
Y864870D01*
Y864846D01*
Y864799D01*
X937793Y864729D01*
X937804Y864659D01*
Y864577D01*
X937840Y864377D01*
X937875Y864166D01*
X937945Y863955D01*
X938016Y863767D01*
X938063Y863685D01*
X938121Y863614D01*
X938133Y863603D01*
X938180Y863567D01*
X938250Y863509D01*
X938344Y863450D01*
X938473Y863380D01*
X938614Y863333D01*
X938790Y863286D01*
X938978Y863274D01*
X939048D01*
X939119Y863286D01*
X939224Y863298D01*
X939330Y863321D01*
X939447Y863344D01*
X939565Y863391D01*
X939682Y863450D01*
X939694Y863462D01*
X939729Y863485D01*
X939776Y863532D01*
X939846Y863579D01*
X939905Y863661D01*
X939975Y863743D01*
X940034Y863837D01*
X940081Y863955D01*
Y863966D01*
X940105Y864013D01*
X940116Y864096D01*
X940140Y864201D01*
X940163Y864342D01*
X940175Y864518D01*
X940198Y864729D01*
Y864976D01*
Y870573D01*
X941278D01*
Y865034D01*
D02*
G37*
G36*
X945514Y870596D02*
X945608Y870585D01*
X945725Y870573D01*
X945855Y870550D01*
X945984Y870526D01*
X946289Y870444D01*
X946594Y870327D01*
X946746Y870256D01*
X946899Y870174D01*
X947040Y870069D01*
X947169Y869951D01*
X947181Y869939D01*
X947204Y869928D01*
X947227Y869881D01*
X947274Y869834D01*
X947333Y869775D01*
X947392Y869693D01*
X947450Y869611D01*
X947521Y869505D01*
X947638Y869282D01*
X947756Y869001D01*
X947803Y868860D01*
X947826Y868696D01*
X947850Y868531D01*
X947861Y868355D01*
Y868332D01*
Y868273D01*
X947850Y868179D01*
X947838Y868050D01*
X947814Y867909D01*
X947767Y867745D01*
X947720Y867569D01*
X947650Y867393D01*
X947638Y867370D01*
X947615Y867311D01*
X947568Y867217D01*
X947497Y867088D01*
X947404Y866947D01*
X947286Y866771D01*
X947145Y866595D01*
X946981Y866395D01*
X946958Y866372D01*
X946899Y866302D01*
X946840Y866243D01*
X946782Y866184D01*
X946711Y866114D01*
X946617Y866020D01*
X946524Y865926D01*
X946406Y865820D01*
X946289Y865703D01*
X946148Y865574D01*
X945995Y865445D01*
X945831Y865292D01*
X945643Y865140D01*
X945456Y864976D01*
X945444Y864964D01*
X945420Y864940D01*
X945373Y864905D01*
X945315Y864858D01*
X945244Y864788D01*
X945162Y864717D01*
X944975Y864565D01*
X944775Y864389D01*
X944587Y864213D01*
X944423Y864060D01*
X944352Y864002D01*
X944294Y863943D01*
X944282Y863931D01*
X944247Y863896D01*
X944200Y863849D01*
X944141Y863779D01*
X944083Y863697D01*
X944012Y863614D01*
X943871Y863415D01*
X947873D01*
Y862453D01*
X942487D01*
Y862464D01*
Y862511D01*
Y862582D01*
X942498Y862675D01*
X942510Y862781D01*
X942534Y862898D01*
X942557Y863016D01*
X942604Y863145D01*
Y863157D01*
X942616Y863168D01*
X942639Y863239D01*
X942686Y863344D01*
X942757Y863485D01*
X942850Y863650D01*
X942968Y863837D01*
X943097Y864025D01*
X943261Y864224D01*
Y864236D01*
X943285Y864248D01*
X943343Y864318D01*
X943449Y864424D01*
X943602Y864577D01*
X943777Y864753D01*
X944000Y864964D01*
X944270Y865199D01*
X944564Y865445D01*
X944576Y865457D01*
X944622Y865492D01*
X944693Y865551D01*
X944775Y865621D01*
X944881Y865715D01*
X945010Y865820D01*
X945139Y865938D01*
X945291Y866067D01*
X945585Y866348D01*
X945878Y866630D01*
X946019Y866771D01*
X946148Y866912D01*
X946265Y867041D01*
X946359Y867170D01*
Y867182D01*
X946383Y867193D01*
X946406Y867229D01*
X946430Y867276D01*
X946512Y867405D01*
X946606Y867557D01*
X946688Y867745D01*
X946770Y867944D01*
X946817Y868167D01*
X946840Y868379D01*
Y868390D01*
Y868402D01*
X946829Y868473D01*
X946817Y868590D01*
X946782Y868719D01*
X946735Y868883D01*
X946653Y869047D01*
X946547Y869212D01*
X946406Y869376D01*
X946383Y869400D01*
X946324Y869446D01*
X946242Y869505D01*
X946113Y869587D01*
X945948Y869658D01*
X945761Y869728D01*
X945538Y869775D01*
X945291Y869787D01*
X945221D01*
X945174Y869775D01*
X945033Y869763D01*
X944869Y869728D01*
X944693Y869681D01*
X944493Y869599D01*
X944306Y869493D01*
X944130Y869353D01*
X944106Y869329D01*
X944059Y869270D01*
X943989Y869177D01*
X943918Y869036D01*
X943836Y868872D01*
X943766Y868660D01*
X943719Y868426D01*
X943695Y868156D01*
X942674Y868261D01*
Y868273D01*
X942686Y868308D01*
Y868367D01*
X942698Y868449D01*
X942721Y868543D01*
X942745Y868649D01*
X942780Y868778D01*
X942815Y868907D01*
X942909Y869188D01*
X943050Y869470D01*
X943132Y869611D01*
X943238Y869752D01*
X943343Y869881D01*
X943461Y869998D01*
X943472Y870010D01*
X943496Y870022D01*
X943531Y870057D01*
X943590Y870092D01*
X943660Y870139D01*
X943742Y870186D01*
X943836Y870245D01*
X943953Y870303D01*
X944083Y870362D01*
X944223Y870421D01*
X944376Y870467D01*
X944540Y870514D01*
X944716Y870550D01*
X944904Y870585D01*
X945104Y870596D01*
X945315Y870608D01*
X945432D01*
X945514Y870596D01*
D02*
G37*
G36*
X1111432Y930592D02*
X1111525Y930580D01*
X1111631Y930568D01*
X1111760Y930545D01*
X1111889Y930521D01*
X1112194Y930451D01*
X1112511Y930333D01*
X1112675Y930263D01*
X1112828Y930169D01*
X1112992Y930075D01*
X1113145Y929958D01*
X1113157Y929946D01*
X1113192Y929923D01*
X1113239Y929876D01*
X1113297Y929817D01*
X1113368Y929735D01*
X1113462Y929641D01*
X1113544Y929524D01*
X1113638Y929395D01*
X1113732Y929254D01*
X1113814Y929090D01*
X1113896Y928914D01*
X1113978Y928726D01*
X1114037Y928526D01*
X1114084Y928303D01*
X1114119Y928069D01*
X1114131Y927822D01*
Y927717D01*
X1114119Y927635D01*
X1114107Y927541D01*
X1114095Y927435D01*
X1114084Y927306D01*
X1114048Y927177D01*
X1113978Y926883D01*
X1113872Y926590D01*
X1113802Y926438D01*
X1113720Y926285D01*
X1113626Y926144D01*
X1113520Y926003D01*
X1113509Y925992D01*
X1113497Y925968D01*
X1113450Y925945D01*
X1113403Y925898D01*
X1113344Y925839D01*
X1113274Y925780D01*
X1113180Y925710D01*
X1113074Y925651D01*
X1112969Y925581D01*
X1112840Y925510D01*
X1112558Y925381D01*
X1112230Y925276D01*
X1112054Y925241D01*
X1111866Y925217D01*
X1111784Y926262D01*
X1111795D01*
X1111819D01*
X1111854Y926273D01*
X1111913Y926285D01*
X1112042Y926320D01*
X1112218Y926367D01*
X1112394Y926438D01*
X1112593Y926531D01*
X1112769Y926649D01*
X1112934Y926790D01*
X1112945Y926813D01*
X1112992Y926860D01*
X1113051Y926954D01*
X1113121Y927083D01*
X1113192Y927224D01*
X1113251Y927400D01*
X1113297Y927599D01*
X1113309Y927822D01*
Y927893D01*
X1113297Y927940D01*
X1113286Y928080D01*
X1113239Y928245D01*
X1113180Y928444D01*
X1113086Y928644D01*
X1112945Y928855D01*
X1112863Y928949D01*
X1112769Y929043D01*
X1112758Y929054D01*
X1112746Y929066D01*
X1112711Y929090D01*
X1112675Y929125D01*
X1112546Y929207D01*
X1112382Y929301D01*
X1112183Y929383D01*
X1111936Y929465D01*
X1111643Y929524D01*
X1111490Y929547D01*
X1111326D01*
X1111314D01*
X1111291D01*
X1111244D01*
X1111185Y929536D01*
X1111115D01*
X1111033Y929524D01*
X1110845Y929489D01*
X1110622Y929430D01*
X1110399Y929348D01*
X1110188Y929230D01*
X1109988Y929066D01*
X1109977D01*
X1109965Y929043D01*
X1109906Y928984D01*
X1109824Y928878D01*
X1109730Y928737D01*
X1109648Y928550D01*
X1109566Y928339D01*
X1109507Y928092D01*
X1109484Y927951D01*
Y927728D01*
X1109495Y927635D01*
X1109507Y927517D01*
X1109542Y927376D01*
X1109577Y927235D01*
X1109636Y927083D01*
X1109707Y926930D01*
X1109718Y926919D01*
X1109742Y926872D01*
X1109800Y926801D01*
X1109859Y926707D01*
X1109941Y926613D01*
X1110047Y926520D01*
X1110153Y926414D01*
X1110282Y926332D01*
X1110153Y925393D01*
X1105975Y926179D01*
Y930216D01*
X1106925D01*
Y926966D01*
X1109120Y926531D01*
X1109108Y926543D01*
X1109096Y926567D01*
X1109073Y926602D01*
X1109038Y926661D01*
X1109003Y926731D01*
X1108956Y926813D01*
X1108862Y927001D01*
X1108768Y927235D01*
X1108686Y927494D01*
X1108627Y927775D01*
X1108604Y927916D01*
Y928174D01*
X1108615Y928245D01*
X1108627Y928339D01*
X1108639Y928444D01*
X1108662Y928561D01*
X1108697Y928691D01*
X1108780Y928972D01*
X1108838Y929125D01*
X1108920Y929277D01*
X1109003Y929430D01*
X1109096Y929582D01*
X1109214Y929723D01*
X1109343Y929864D01*
X1109355Y929876D01*
X1109378Y929899D01*
X1109413Y929934D01*
X1109472Y929981D01*
X1109554Y930040D01*
X1109636Y930099D01*
X1109742Y930169D01*
X1109859Y930240D01*
X1109988Y930298D01*
X1110129Y930369D01*
X1110293Y930427D01*
X1110458Y930486D01*
X1110634Y930533D01*
X1110833Y930568D01*
X1111033Y930592D01*
X1111244Y930603D01*
X1111256D01*
X1111291D01*
X1111349D01*
X1111432Y930592D01*
D02*
G37*
G36*
X1111666Y923856D02*
X1111760D01*
X1111983Y923832D01*
X1112241Y923809D01*
X1112511Y923762D01*
X1112758Y923692D01*
X1112992Y923609D01*
X1113004D01*
X1113016Y923598D01*
X1113086Y923562D01*
X1113180Y923504D01*
X1113309Y923422D01*
X1113438Y923304D01*
X1113579Y923175D01*
X1113720Y923011D01*
X1113837Y922823D01*
X1113849Y922800D01*
X1113884Y922729D01*
X1113931Y922624D01*
X1113978Y922471D01*
X1114037Y922283D01*
X1114084Y922072D01*
X1114119Y921837D01*
X1114131Y921579D01*
Y921474D01*
X1114119Y921403D01*
X1114107Y921309D01*
X1114095Y921216D01*
X1114048Y920969D01*
X1113978Y920711D01*
X1113872Y920441D01*
X1113802Y920300D01*
X1113720Y920171D01*
X1113626Y920054D01*
X1113520Y919936D01*
X1113509Y919925D01*
X1113497Y919913D01*
X1113450Y919890D01*
X1113403Y919854D01*
X1113344Y919807D01*
X1113262Y919760D01*
X1113168Y919714D01*
X1113063Y919655D01*
X1112945Y919608D01*
X1112805Y919561D01*
X1112664Y919514D01*
X1112499Y919467D01*
X1112324Y919444D01*
X1112124Y919408D01*
X1111925Y919397D01*
X1111702D01*
X1111561Y920371D01*
X1111572D01*
X1111596D01*
X1111643D01*
X1111713Y920382D01*
X1111784Y920394D01*
X1111866D01*
X1112065Y920429D01*
X1112277Y920464D01*
X1112488Y920535D01*
X1112675Y920605D01*
X1112758Y920652D01*
X1112828Y920711D01*
X1112840Y920723D01*
X1112875Y920770D01*
X1112934Y920840D01*
X1112992Y920934D01*
X1113063Y921063D01*
X1113110Y921204D01*
X1113157Y921380D01*
X1113168Y921568D01*
Y921638D01*
X1113157Y921708D01*
X1113145Y921814D01*
X1113121Y921920D01*
X1113098Y922037D01*
X1113051Y922154D01*
X1112992Y922272D01*
X1112981Y922283D01*
X1112957Y922319D01*
X1112910Y922365D01*
X1112863Y922436D01*
X1112781Y922495D01*
X1112699Y922565D01*
X1112605Y922624D01*
X1112488Y922671D01*
X1112476D01*
X1112429Y922694D01*
X1112347Y922706D01*
X1112241Y922729D01*
X1112101Y922753D01*
X1111925Y922765D01*
X1111713Y922788D01*
X1111467D01*
X1105869D01*
Y923868D01*
X1111408D01*
X1111420D01*
X1111455D01*
X1111502D01*
X1111572D01*
X1111666Y923856D01*
D02*
G37*
G36*
X888547Y1048822D02*
X888653Y1048810D01*
X888782Y1048798D01*
X888911Y1048786D01*
X889063Y1048751D01*
X889380Y1048681D01*
X889732Y1048575D01*
X889908Y1048505D01*
X890073Y1048423D01*
X890237Y1048317D01*
X890401Y1048211D01*
X890413Y1048200D01*
X890436Y1048188D01*
X890483Y1048153D01*
X890542Y1048094D01*
X890601Y1048035D01*
X890683Y1047953D01*
X890765Y1047859D01*
X890859Y1047765D01*
X890953Y1047648D01*
X891047Y1047507D01*
X891152Y1047366D01*
X891246Y1047214D01*
X891328Y1047038D01*
X891422Y1046862D01*
X891492Y1046674D01*
X891563Y1046463D01*
X890507Y1046216D01*
Y1046228D01*
X890495Y1046252D01*
X890472Y1046299D01*
X890448Y1046357D01*
X890425Y1046428D01*
X890389Y1046522D01*
X890296Y1046709D01*
X890178Y1046920D01*
X890037Y1047132D01*
X889861Y1047331D01*
X889674Y1047507D01*
X889650Y1047531D01*
X889580Y1047578D01*
X889462Y1047636D01*
X889310Y1047719D01*
X889110Y1047789D01*
X888887Y1047859D01*
X888617Y1047906D01*
X888324Y1047918D01*
X888230D01*
X888172Y1047906D01*
X888089D01*
X887996Y1047895D01*
X887773Y1047859D01*
X887526Y1047812D01*
X887268Y1047730D01*
X886998Y1047613D01*
X886752Y1047460D01*
X886740D01*
X886728Y1047437D01*
X886646Y1047378D01*
X886540Y1047284D01*
X886411Y1047143D01*
X886259Y1046967D01*
X886118Y1046768D01*
X885989Y1046522D01*
X885872Y1046252D01*
Y1046240D01*
X885860Y1046216D01*
X885848Y1046181D01*
X885836Y1046123D01*
X885813Y1046052D01*
X885789Y1045970D01*
X885754Y1045770D01*
X885707Y1045536D01*
X885660Y1045278D01*
X885637Y1044996D01*
X885625Y1044691D01*
Y1044679D01*
Y1044644D01*
Y1044585D01*
Y1044515D01*
X885637Y1044433D01*
Y1044327D01*
X885649Y1044210D01*
X885660Y1044081D01*
X885695Y1043799D01*
X885754Y1043494D01*
X885825Y1043189D01*
X885919Y1042884D01*
Y1042872D01*
X885930Y1042849D01*
X885954Y1042813D01*
X885977Y1042755D01*
X886048Y1042614D01*
X886153Y1042450D01*
X886282Y1042262D01*
X886447Y1042062D01*
X886634Y1041886D01*
X886857Y1041722D01*
X886869D01*
X886892Y1041710D01*
X886928Y1041687D01*
X886975Y1041663D01*
X887033Y1041640D01*
X887104Y1041605D01*
X887268Y1041534D01*
X887479Y1041464D01*
X887714Y1041405D01*
X887972Y1041358D01*
X888242Y1041347D01*
X888324D01*
X888394Y1041358D01*
X888477D01*
X888559Y1041370D01*
X888770Y1041417D01*
X889016Y1041476D01*
X889263Y1041570D01*
X889521Y1041699D01*
X889650Y1041769D01*
X889768Y1041863D01*
X889779Y1041875D01*
X889791Y1041886D01*
X889826Y1041921D01*
X889873Y1041957D01*
X889920Y1042015D01*
X889979Y1042086D01*
X890049Y1042156D01*
X890108Y1042250D01*
X890178Y1042356D01*
X890260Y1042473D01*
X890331Y1042590D01*
X890401Y1042731D01*
X890460Y1042884D01*
X890518Y1043048D01*
X890577Y1043224D01*
X890624Y1043412D01*
X891704Y1043142D01*
Y1043130D01*
X891692Y1043083D01*
X891668Y1043013D01*
X891633Y1042919D01*
X891598Y1042813D01*
X891551Y1042684D01*
X891492Y1042543D01*
X891422Y1042391D01*
X891258Y1042062D01*
X891047Y1041734D01*
X890918Y1041570D01*
X890788Y1041405D01*
X890648Y1041264D01*
X890483Y1041124D01*
X890472Y1041112D01*
X890448Y1041088D01*
X890389Y1041065D01*
X890331Y1041018D01*
X890237Y1040959D01*
X890143Y1040901D01*
X890014Y1040842D01*
X889885Y1040783D01*
X889732Y1040713D01*
X889568Y1040654D01*
X889392Y1040595D01*
X889204Y1040537D01*
X889005Y1040490D01*
X888793Y1040466D01*
X888570Y1040443D01*
X888336Y1040431D01*
X888207D01*
X888113Y1040443D01*
X888007D01*
X887878Y1040455D01*
X887737Y1040478D01*
X887573Y1040502D01*
X887233Y1040560D01*
X886881Y1040654D01*
X886529Y1040783D01*
X886364Y1040865D01*
X886200Y1040959D01*
X886188Y1040971D01*
X886165Y1040983D01*
X886118Y1041018D01*
X886071Y1041065D01*
X886001Y1041112D01*
X885919Y1041182D01*
X885825Y1041264D01*
X885731Y1041358D01*
X885637Y1041464D01*
X885531Y1041570D01*
X885320Y1041839D01*
X885120Y1042156D01*
X884945Y1042508D01*
Y1042520D01*
X884921Y1042555D01*
X884909Y1042614D01*
X884874Y1042684D01*
X884851Y1042778D01*
X884815Y1042896D01*
X884769Y1043025D01*
X884733Y1043165D01*
X884698Y1043318D01*
X884651Y1043494D01*
X884592Y1043858D01*
X884546Y1044268D01*
X884522Y1044691D01*
Y1044703D01*
Y1044750D01*
Y1044820D01*
X884534Y1044902D01*
Y1045020D01*
X884546Y1045137D01*
X884557Y1045289D01*
X884581Y1045442D01*
X884639Y1045782D01*
X884722Y1046158D01*
X884839Y1046533D01*
X885003Y1046897D01*
X885015Y1046909D01*
X885027Y1046944D01*
X885050Y1046991D01*
X885097Y1047050D01*
X885144Y1047132D01*
X885203Y1047226D01*
X885355Y1047437D01*
X885555Y1047672D01*
X885789Y1047906D01*
X886059Y1048141D01*
X886376Y1048340D01*
X886388Y1048352D01*
X886423Y1048364D01*
X886470Y1048387D01*
X886529Y1048423D01*
X886623Y1048458D01*
X886716Y1048493D01*
X886834Y1048540D01*
X886963Y1048587D01*
X887104Y1048634D01*
X887256Y1048681D01*
X887585Y1048751D01*
X887960Y1048810D01*
X888348Y1048833D01*
X888465D01*
X888547Y1048822D01*
D02*
G37*
G36*
X896374Y1040572D02*
X895377D01*
Y1046920D01*
X895365Y1046909D01*
X895306Y1046862D01*
X895236Y1046792D01*
X895119Y1046709D01*
X894989Y1046604D01*
X894825Y1046486D01*
X894637Y1046357D01*
X894426Y1046228D01*
X894415D01*
X894403Y1046216D01*
X894332Y1046170D01*
X894215Y1046111D01*
X894074Y1046040D01*
X893910Y1045958D01*
X893734Y1045876D01*
X893558Y1045794D01*
X893382Y1045724D01*
Y1046686D01*
X893393D01*
X893417Y1046709D01*
X893464Y1046721D01*
X893523Y1046756D01*
X893593Y1046792D01*
X893675Y1046838D01*
X893875Y1046956D01*
X894109Y1047085D01*
X894344Y1047249D01*
X894591Y1047437D01*
X894837Y1047636D01*
X894849Y1047648D01*
X894860Y1047660D01*
X894896Y1047695D01*
X894942Y1047730D01*
X895048Y1047848D01*
X895189Y1047988D01*
X895330Y1048153D01*
X895482Y1048340D01*
X895611Y1048528D01*
X895729Y1048728D01*
X896374D01*
Y1040572D01*
D02*
G37*
G36*
X865687Y1048822D02*
X865793Y1048810D01*
X865922Y1048798D01*
X866051Y1048786D01*
X866203Y1048751D01*
X866520Y1048681D01*
X866872Y1048575D01*
X867048Y1048505D01*
X867213Y1048423D01*
X867377Y1048317D01*
X867541Y1048211D01*
X867553Y1048200D01*
X867576Y1048188D01*
X867623Y1048153D01*
X867682Y1048094D01*
X867741Y1048035D01*
X867823Y1047953D01*
X867905Y1047859D01*
X867999Y1047765D01*
X868093Y1047648D01*
X868187Y1047507D01*
X868292Y1047366D01*
X868386Y1047214D01*
X868468Y1047038D01*
X868562Y1046862D01*
X868633Y1046674D01*
X868703Y1046463D01*
X867647Y1046216D01*
Y1046228D01*
X867635Y1046252D01*
X867611Y1046299D01*
X867588Y1046357D01*
X867565Y1046428D01*
X867529Y1046522D01*
X867436Y1046709D01*
X867318Y1046920D01*
X867177Y1047132D01*
X867001Y1047331D01*
X866814Y1047507D01*
X866790Y1047531D01*
X866720Y1047578D01*
X866602Y1047636D01*
X866450Y1047719D01*
X866250Y1047789D01*
X866027Y1047859D01*
X865758Y1047906D01*
X865464Y1047918D01*
X865370D01*
X865312Y1047906D01*
X865229D01*
X865135Y1047895D01*
X864912Y1047859D01*
X864666Y1047812D01*
X864408Y1047730D01*
X864138Y1047613D01*
X863892Y1047460D01*
X863880D01*
X863868Y1047437D01*
X863786Y1047378D01*
X863680Y1047284D01*
X863551Y1047143D01*
X863399Y1046967D01*
X863258Y1046768D01*
X863129Y1046522D01*
X863011Y1046252D01*
Y1046240D01*
X863000Y1046216D01*
X862988Y1046181D01*
X862976Y1046123D01*
X862953Y1046052D01*
X862929Y1045970D01*
X862894Y1045770D01*
X862847Y1045536D01*
X862800Y1045278D01*
X862777Y1044996D01*
X862765Y1044691D01*
Y1044679D01*
Y1044644D01*
Y1044585D01*
Y1044515D01*
X862777Y1044433D01*
Y1044327D01*
X862788Y1044210D01*
X862800Y1044081D01*
X862835Y1043799D01*
X862894Y1043494D01*
X862965Y1043189D01*
X863058Y1042884D01*
Y1042872D01*
X863070Y1042849D01*
X863094Y1042813D01*
X863117Y1042755D01*
X863187Y1042614D01*
X863293Y1042450D01*
X863422Y1042262D01*
X863587Y1042062D01*
X863774Y1041886D01*
X863997Y1041722D01*
X864009D01*
X864032Y1041710D01*
X864068Y1041687D01*
X864115Y1041663D01*
X864173Y1041640D01*
X864244Y1041605D01*
X864408Y1041534D01*
X864619Y1041464D01*
X864854Y1041405D01*
X865112Y1041358D01*
X865382Y1041347D01*
X865464D01*
X865535Y1041358D01*
X865617D01*
X865699Y1041370D01*
X865910Y1041417D01*
X866156Y1041476D01*
X866403Y1041570D01*
X866661Y1041699D01*
X866790Y1041769D01*
X866908Y1041863D01*
X866919Y1041875D01*
X866931Y1041886D01*
X866966Y1041921D01*
X867013Y1041957D01*
X867060Y1042015D01*
X867119Y1042086D01*
X867189Y1042156D01*
X867248Y1042250D01*
X867318Y1042356D01*
X867400Y1042473D01*
X867471Y1042590D01*
X867541Y1042731D01*
X867600Y1042884D01*
X867658Y1043048D01*
X867717Y1043224D01*
X867764Y1043412D01*
X868844Y1043142D01*
Y1043130D01*
X868832Y1043083D01*
X868809Y1043013D01*
X868773Y1042919D01*
X868738Y1042813D01*
X868691Y1042684D01*
X868633Y1042543D01*
X868562Y1042391D01*
X868398Y1042062D01*
X868187Y1041734D01*
X868057Y1041570D01*
X867928Y1041405D01*
X867788Y1041264D01*
X867623Y1041124D01*
X867611Y1041112D01*
X867588Y1041088D01*
X867529Y1041065D01*
X867471Y1041018D01*
X867377Y1040959D01*
X867283Y1040901D01*
X867154Y1040842D01*
X867025Y1040783D01*
X866872Y1040713D01*
X866708Y1040654D01*
X866532Y1040595D01*
X866344Y1040537D01*
X866145Y1040490D01*
X865934Y1040466D01*
X865711Y1040443D01*
X865476Y1040431D01*
X865347D01*
X865253Y1040443D01*
X865147D01*
X865018Y1040455D01*
X864877Y1040478D01*
X864713Y1040502D01*
X864373Y1040560D01*
X864021Y1040654D01*
X863669Y1040783D01*
X863504Y1040865D01*
X863340Y1040959D01*
X863328Y1040971D01*
X863305Y1040983D01*
X863258Y1041018D01*
X863211Y1041065D01*
X863141Y1041112D01*
X863058Y1041182D01*
X862965Y1041264D01*
X862871Y1041358D01*
X862777Y1041464D01*
X862671Y1041570D01*
X862460Y1041839D01*
X862261Y1042156D01*
X862085Y1042508D01*
Y1042520D01*
X862061Y1042555D01*
X862049Y1042614D01*
X862014Y1042684D01*
X861991Y1042778D01*
X861955Y1042896D01*
X861908Y1043025D01*
X861873Y1043165D01*
X861838Y1043318D01*
X861791Y1043494D01*
X861732Y1043858D01*
X861685Y1044268D01*
X861662Y1044691D01*
Y1044703D01*
Y1044750D01*
Y1044820D01*
X861674Y1044902D01*
Y1045020D01*
X861685Y1045137D01*
X861697Y1045289D01*
X861721Y1045442D01*
X861779Y1045782D01*
X861861Y1046158D01*
X861979Y1046533D01*
X862143Y1046897D01*
X862155Y1046909D01*
X862167Y1046944D01*
X862190Y1046991D01*
X862237Y1047050D01*
X862284Y1047132D01*
X862343Y1047226D01*
X862495Y1047437D01*
X862695Y1047672D01*
X862929Y1047906D01*
X863199Y1048141D01*
X863516Y1048340D01*
X863528Y1048352D01*
X863563Y1048364D01*
X863610Y1048387D01*
X863669Y1048423D01*
X863763Y1048458D01*
X863856Y1048493D01*
X863974Y1048540D01*
X864103Y1048587D01*
X864244Y1048634D01*
X864396Y1048681D01*
X864725Y1048751D01*
X865100Y1048810D01*
X865488Y1048833D01*
X865605D01*
X865687Y1048822D01*
D02*
G37*
G36*
X872646Y1048716D02*
X872740Y1048704D01*
X872857Y1048692D01*
X872986Y1048669D01*
X873115Y1048646D01*
X873420Y1048563D01*
X873725Y1048446D01*
X873878Y1048376D01*
X874031Y1048294D01*
X874171Y1048188D01*
X874300Y1048071D01*
X874312Y1048059D01*
X874336Y1048047D01*
X874359Y1048000D01*
X874406Y1047953D01*
X874465Y1047895D01*
X874523Y1047812D01*
X874582Y1047730D01*
X874652Y1047625D01*
X874770Y1047402D01*
X874887Y1047120D01*
X874934Y1046979D01*
X874958Y1046815D01*
X874981Y1046651D01*
X874993Y1046475D01*
Y1046451D01*
Y1046393D01*
X874981Y1046299D01*
X874969Y1046170D01*
X874946Y1046029D01*
X874899Y1045864D01*
X874852Y1045688D01*
X874781Y1045512D01*
X874770Y1045489D01*
X874746Y1045430D01*
X874699Y1045336D01*
X874629Y1045207D01*
X874535Y1045066D01*
X874418Y1044890D01*
X874277Y1044714D01*
X874113Y1044515D01*
X874089Y1044491D01*
X874031Y1044421D01*
X873972Y1044362D01*
X873913Y1044304D01*
X873843Y1044233D01*
X873749Y1044139D01*
X873655Y1044045D01*
X873538Y1043940D01*
X873420Y1043823D01*
X873279Y1043693D01*
X873127Y1043564D01*
X872963Y1043412D01*
X872775Y1043259D01*
X872587Y1043095D01*
X872575Y1043083D01*
X872552Y1043060D01*
X872505Y1043025D01*
X872446Y1042978D01*
X872376Y1042907D01*
X872294Y1042837D01*
X872106Y1042684D01*
X871907Y1042508D01*
X871719Y1042332D01*
X871554Y1042180D01*
X871484Y1042121D01*
X871425Y1042062D01*
X871414Y1042051D01*
X871378Y1042015D01*
X871331Y1041969D01*
X871273Y1041898D01*
X871214Y1041816D01*
X871144Y1041734D01*
X871003Y1041534D01*
X875005D01*
Y1040572D01*
X869618D01*
Y1040584D01*
Y1040631D01*
Y1040701D01*
X869630Y1040795D01*
X869642Y1040901D01*
X869665Y1041018D01*
X869689Y1041135D01*
X869735Y1041264D01*
Y1041276D01*
X869747Y1041288D01*
X869771Y1041358D01*
X869818Y1041464D01*
X869888Y1041605D01*
X869982Y1041769D01*
X870099Y1041957D01*
X870228Y1042144D01*
X870393Y1042344D01*
Y1042356D01*
X870416Y1042367D01*
X870475Y1042438D01*
X870581Y1042543D01*
X870733Y1042696D01*
X870909Y1042872D01*
X871132Y1043083D01*
X871402Y1043318D01*
X871695Y1043564D01*
X871707Y1043576D01*
X871754Y1043611D01*
X871824Y1043670D01*
X871907Y1043740D01*
X872012Y1043834D01*
X872141Y1043940D01*
X872270Y1044057D01*
X872423Y1044186D01*
X872716Y1044468D01*
X873010Y1044750D01*
X873150Y1044890D01*
X873279Y1045031D01*
X873397Y1045160D01*
X873491Y1045289D01*
Y1045301D01*
X873514Y1045313D01*
X873538Y1045348D01*
X873561Y1045395D01*
X873643Y1045524D01*
X873737Y1045677D01*
X873819Y1045864D01*
X873901Y1046064D01*
X873948Y1046287D01*
X873972Y1046498D01*
Y1046510D01*
Y1046522D01*
X873960Y1046592D01*
X873948Y1046709D01*
X873913Y1046838D01*
X873866Y1047003D01*
X873784Y1047167D01*
X873678Y1047331D01*
X873538Y1047495D01*
X873514Y1047519D01*
X873456Y1047566D01*
X873373Y1047625D01*
X873244Y1047707D01*
X873080Y1047777D01*
X872892Y1047848D01*
X872669Y1047895D01*
X872423Y1047906D01*
X872352D01*
X872306Y1047895D01*
X872165Y1047883D01*
X872000Y1047848D01*
X871824Y1047801D01*
X871625Y1047719D01*
X871437Y1047613D01*
X871261Y1047472D01*
X871238Y1047449D01*
X871191Y1047390D01*
X871120Y1047296D01*
X871050Y1047155D01*
X870968Y1046991D01*
X870897Y1046780D01*
X870850Y1046545D01*
X870827Y1046275D01*
X869806Y1046381D01*
Y1046393D01*
X869818Y1046428D01*
Y1046486D01*
X869829Y1046569D01*
X869853Y1046662D01*
X869876Y1046768D01*
X869912Y1046897D01*
X869947Y1047026D01*
X870041Y1047308D01*
X870182Y1047589D01*
X870264Y1047730D01*
X870369Y1047871D01*
X870475Y1048000D01*
X870592Y1048118D01*
X870604Y1048129D01*
X870627Y1048141D01*
X870663Y1048176D01*
X870721Y1048211D01*
X870792Y1048258D01*
X870874Y1048305D01*
X870968Y1048364D01*
X871085Y1048423D01*
X871214Y1048481D01*
X871355Y1048540D01*
X871507Y1048587D01*
X871672Y1048634D01*
X871848Y1048669D01*
X872036Y1048704D01*
X872235Y1048716D01*
X872446Y1048728D01*
X872564D01*
X872646Y1048716D01*
D02*
G37*
G36*
X842827Y1048822D02*
X842933Y1048810D01*
X843062Y1048798D01*
X843191Y1048786D01*
X843343Y1048751D01*
X843660Y1048681D01*
X844012Y1048575D01*
X844188Y1048505D01*
X844353Y1048423D01*
X844517Y1048317D01*
X844681Y1048211D01*
X844693Y1048200D01*
X844716Y1048188D01*
X844763Y1048153D01*
X844822Y1048094D01*
X844881Y1048035D01*
X844963Y1047953D01*
X845045Y1047859D01*
X845139Y1047765D01*
X845233Y1047648D01*
X845327Y1047507D01*
X845432Y1047366D01*
X845526Y1047214D01*
X845608Y1047038D01*
X845702Y1046862D01*
X845772Y1046674D01*
X845843Y1046463D01*
X844787Y1046216D01*
Y1046228D01*
X844775Y1046252D01*
X844752Y1046299D01*
X844728Y1046357D01*
X844705Y1046428D01*
X844669Y1046522D01*
X844576Y1046709D01*
X844458Y1046920D01*
X844317Y1047132D01*
X844141Y1047331D01*
X843954Y1047507D01*
X843930Y1047531D01*
X843860Y1047578D01*
X843742Y1047636D01*
X843590Y1047719D01*
X843390Y1047789D01*
X843167Y1047859D01*
X842897Y1047906D01*
X842604Y1047918D01*
X842510D01*
X842452Y1047906D01*
X842369D01*
X842275Y1047895D01*
X842053Y1047859D01*
X841806Y1047812D01*
X841548Y1047730D01*
X841278Y1047613D01*
X841032Y1047460D01*
X841020D01*
X841008Y1047437D01*
X840926Y1047378D01*
X840820Y1047284D01*
X840691Y1047143D01*
X840539Y1046967D01*
X840398Y1046768D01*
X840269Y1046522D01*
X840152Y1046252D01*
Y1046240D01*
X840140Y1046216D01*
X840128Y1046181D01*
X840116Y1046123D01*
X840093Y1046052D01*
X840069Y1045970D01*
X840034Y1045770D01*
X839987Y1045536D01*
X839940Y1045278D01*
X839917Y1044996D01*
X839905Y1044691D01*
Y1044679D01*
Y1044644D01*
Y1044585D01*
Y1044515D01*
X839917Y1044433D01*
Y1044327D01*
X839929Y1044210D01*
X839940Y1044081D01*
X839976Y1043799D01*
X840034Y1043494D01*
X840105Y1043189D01*
X840199Y1042884D01*
Y1042872D01*
X840210Y1042849D01*
X840234Y1042813D01*
X840257Y1042755D01*
X840328Y1042614D01*
X840433Y1042450D01*
X840562Y1042262D01*
X840726Y1042062D01*
X840914Y1041886D01*
X841137Y1041722D01*
X841149D01*
X841172Y1041710D01*
X841208Y1041687D01*
X841255Y1041663D01*
X841313Y1041640D01*
X841384Y1041605D01*
X841548Y1041534D01*
X841759Y1041464D01*
X841994Y1041405D01*
X842252Y1041358D01*
X842522Y1041347D01*
X842604D01*
X842674Y1041358D01*
X842757D01*
X842839Y1041370D01*
X843050Y1041417D01*
X843297Y1041476D01*
X843543Y1041570D01*
X843801Y1041699D01*
X843930Y1041769D01*
X844047Y1041863D01*
X844059Y1041875D01*
X844071Y1041886D01*
X844106Y1041921D01*
X844153Y1041957D01*
X844200Y1042015D01*
X844259Y1042086D01*
X844329Y1042156D01*
X844388Y1042250D01*
X844458Y1042356D01*
X844540Y1042473D01*
X844611Y1042590D01*
X844681Y1042731D01*
X844740Y1042884D01*
X844799Y1043048D01*
X844857Y1043224D01*
X844904Y1043412D01*
X845984Y1043142D01*
Y1043130D01*
X845972Y1043083D01*
X845948Y1043013D01*
X845913Y1042919D01*
X845878Y1042813D01*
X845831Y1042684D01*
X845772Y1042543D01*
X845702Y1042391D01*
X845538Y1042062D01*
X845327Y1041734D01*
X845198Y1041570D01*
X845068Y1041405D01*
X844928Y1041264D01*
X844763Y1041124D01*
X844752Y1041112D01*
X844728Y1041088D01*
X844669Y1041065D01*
X844611Y1041018D01*
X844517Y1040959D01*
X844423Y1040901D01*
X844294Y1040842D01*
X844165Y1040783D01*
X844012Y1040713D01*
X843848Y1040654D01*
X843672Y1040595D01*
X843484Y1040537D01*
X843285Y1040490D01*
X843074Y1040466D01*
X842850Y1040443D01*
X842616Y1040431D01*
X842487D01*
X842393Y1040443D01*
X842287D01*
X842158Y1040455D01*
X842017Y1040478D01*
X841853Y1040502D01*
X841513Y1040560D01*
X841161Y1040654D01*
X840809Y1040783D01*
X840644Y1040865D01*
X840480Y1040959D01*
X840468Y1040971D01*
X840445Y1040983D01*
X840398Y1041018D01*
X840351Y1041065D01*
X840281Y1041112D01*
X840199Y1041182D01*
X840105Y1041264D01*
X840011Y1041358D01*
X839917Y1041464D01*
X839811Y1041570D01*
X839600Y1041839D01*
X839400Y1042156D01*
X839224Y1042508D01*
Y1042520D01*
X839201Y1042555D01*
X839189Y1042614D01*
X839154Y1042684D01*
X839131Y1042778D01*
X839095Y1042896D01*
X839048Y1043025D01*
X839013Y1043165D01*
X838978Y1043318D01*
X838931Y1043494D01*
X838872Y1043858D01*
X838826Y1044268D01*
X838802Y1044691D01*
Y1044703D01*
Y1044750D01*
Y1044820D01*
X838814Y1044902D01*
Y1045020D01*
X838826Y1045137D01*
X838837Y1045289D01*
X838861Y1045442D01*
X838919Y1045782D01*
X839001Y1046158D01*
X839119Y1046533D01*
X839283Y1046897D01*
X839295Y1046909D01*
X839307Y1046944D01*
X839330Y1046991D01*
X839377Y1047050D01*
X839424Y1047132D01*
X839483Y1047226D01*
X839635Y1047437D01*
X839835Y1047672D01*
X840069Y1047906D01*
X840339Y1048141D01*
X840656Y1048340D01*
X840668Y1048352D01*
X840703Y1048364D01*
X840750Y1048387D01*
X840809Y1048423D01*
X840903Y1048458D01*
X840996Y1048493D01*
X841114Y1048540D01*
X841243Y1048587D01*
X841384Y1048634D01*
X841536Y1048681D01*
X841865Y1048751D01*
X842240Y1048810D01*
X842628Y1048833D01*
X842745D01*
X842827Y1048822D01*
D02*
G37*
G36*
X849692Y1048716D02*
X849845Y1048692D01*
X850032Y1048657D01*
X850244Y1048599D01*
X850455Y1048528D01*
X850666Y1048434D01*
X850678D01*
X850689Y1048423D01*
X850760Y1048387D01*
X850865Y1048317D01*
X850983Y1048235D01*
X851124Y1048118D01*
X851264Y1047988D01*
X851405Y1047836D01*
X851523Y1047660D01*
X851534Y1047636D01*
X851570Y1047578D01*
X851616Y1047472D01*
X851675Y1047343D01*
X851734Y1047190D01*
X851781Y1047014D01*
X851816Y1046815D01*
X851828Y1046615D01*
Y1046592D01*
Y1046522D01*
X851816Y1046428D01*
X851793Y1046299D01*
X851757Y1046146D01*
X851699Y1045982D01*
X851628Y1045817D01*
X851534Y1045653D01*
X851523Y1045630D01*
X851487Y1045583D01*
X851417Y1045501D01*
X851323Y1045407D01*
X851206Y1045301D01*
X851065Y1045184D01*
X850901Y1045078D01*
X850701Y1044973D01*
X850713D01*
X850736Y1044961D01*
X850771Y1044949D01*
X850818Y1044937D01*
X850947Y1044890D01*
X851112Y1044820D01*
X851300Y1044726D01*
X851487Y1044609D01*
X851663Y1044456D01*
X851828Y1044280D01*
X851839Y1044257D01*
X851886Y1044186D01*
X851957Y1044069D01*
X852027Y1043916D01*
X852098Y1043729D01*
X852168Y1043506D01*
X852215Y1043248D01*
X852227Y1042966D01*
Y1042954D01*
Y1042919D01*
Y1042860D01*
X852215Y1042790D01*
X852203Y1042696D01*
X852180Y1042590D01*
X852156Y1042473D01*
X852133Y1042344D01*
X852039Y1042062D01*
X851969Y1041910D01*
X851898Y1041769D01*
X851804Y1041616D01*
X851699Y1041464D01*
X851581Y1041311D01*
X851440Y1041171D01*
X851429Y1041159D01*
X851405Y1041135D01*
X851358Y1041100D01*
X851300Y1041053D01*
X851229Y1040994D01*
X851135Y1040936D01*
X851030Y1040865D01*
X850901Y1040807D01*
X850771Y1040736D01*
X850619Y1040666D01*
X850466Y1040607D01*
X850290Y1040548D01*
X850103Y1040502D01*
X849903Y1040466D01*
X849704Y1040443D01*
X849481Y1040431D01*
X849375D01*
X849305Y1040443D01*
X849211Y1040455D01*
X849105Y1040466D01*
X848988Y1040490D01*
X848859Y1040513D01*
X848577Y1040584D01*
X848284Y1040701D01*
X848131Y1040771D01*
X847990Y1040854D01*
X847850Y1040959D01*
X847709Y1041065D01*
X847697Y1041077D01*
X847673Y1041100D01*
X847638Y1041135D01*
X847603Y1041182D01*
X847544Y1041241D01*
X847486Y1041323D01*
X847415Y1041405D01*
X847345Y1041511D01*
X847275Y1041628D01*
X847204Y1041746D01*
X847075Y1042027D01*
X846970Y1042356D01*
X846934Y1042532D01*
X846911Y1042719D01*
X847908Y1042849D01*
Y1042837D01*
X847920Y1042813D01*
X847932Y1042766D01*
X847943Y1042708D01*
X847955Y1042637D01*
X847979Y1042555D01*
X848037Y1042379D01*
X848120Y1042168D01*
X848225Y1041969D01*
X848342Y1041781D01*
X848483Y1041616D01*
X848507Y1041605D01*
X848554Y1041558D01*
X848648Y1041499D01*
X848765Y1041440D01*
X848906Y1041370D01*
X849082Y1041311D01*
X849281Y1041264D01*
X849492Y1041253D01*
X849563D01*
X849610Y1041264D01*
X849739Y1041276D01*
X849903Y1041311D01*
X850091Y1041370D01*
X850290Y1041452D01*
X850490Y1041570D01*
X850678Y1041734D01*
X850701Y1041757D01*
X850760Y1041828D01*
X850830Y1041933D01*
X850924Y1042074D01*
X851018Y1042250D01*
X851088Y1042450D01*
X851147Y1042684D01*
X851171Y1042942D01*
Y1042954D01*
Y1042978D01*
Y1043013D01*
X851159Y1043060D01*
X851147Y1043189D01*
X851112Y1043341D01*
X851065Y1043529D01*
X850983Y1043717D01*
X850865Y1043905D01*
X850713Y1044081D01*
X850689Y1044104D01*
X850631Y1044151D01*
X850537Y1044221D01*
X850408Y1044304D01*
X850244Y1044386D01*
X850044Y1044456D01*
X849821Y1044503D01*
X849575Y1044527D01*
X849469D01*
X849387Y1044515D01*
X849281Y1044503D01*
X849164Y1044480D01*
X849023Y1044456D01*
X848870Y1044421D01*
X848988Y1045301D01*
X849046D01*
X849093Y1045289D01*
X849246D01*
X849375Y1045313D01*
X849528Y1045336D01*
X849704Y1045371D01*
X849903Y1045430D01*
X850091Y1045512D01*
X850290Y1045618D01*
X850302D01*
X850314Y1045630D01*
X850372Y1045677D01*
X850455Y1045759D01*
X850549Y1045864D01*
X850642Y1046017D01*
X850725Y1046193D01*
X850783Y1046393D01*
X850807Y1046510D01*
Y1046639D01*
Y1046651D01*
Y1046662D01*
Y1046733D01*
X850783Y1046827D01*
X850760Y1046956D01*
X850713Y1047097D01*
X850654Y1047249D01*
X850560Y1047402D01*
X850431Y1047542D01*
X850419Y1047554D01*
X850361Y1047601D01*
X850279Y1047660D01*
X850173Y1047730D01*
X850032Y1047789D01*
X849868Y1047848D01*
X849680Y1047895D01*
X849469Y1047906D01*
X849375D01*
X849269Y1047883D01*
X849129Y1047859D01*
X848976Y1047812D01*
X848823Y1047754D01*
X848659Y1047660D01*
X848507Y1047542D01*
X848495Y1047531D01*
X848448Y1047472D01*
X848378Y1047390D01*
X848296Y1047273D01*
X848213Y1047120D01*
X848131Y1046932D01*
X848061Y1046709D01*
X848014Y1046451D01*
X847016Y1046627D01*
Y1046639D01*
X847028Y1046674D01*
X847040Y1046721D01*
X847052Y1046792D01*
X847075Y1046874D01*
X847110Y1046967D01*
X847181Y1047190D01*
X847298Y1047449D01*
X847439Y1047707D01*
X847615Y1047953D01*
X847838Y1048176D01*
X847850Y1048188D01*
X847873Y1048200D01*
X847908Y1048223D01*
X847955Y1048258D01*
X848014Y1048305D01*
X848096Y1048352D01*
X848178Y1048399D01*
X848284Y1048458D01*
X848518Y1048552D01*
X848788Y1048646D01*
X849105Y1048704D01*
X849269Y1048728D01*
X849563D01*
X849692Y1048716D01*
D02*
G37*
G36*
X888537Y888802D02*
X888643Y888790D01*
X888772Y888778D01*
X888901Y888766D01*
X889053Y888731D01*
X889370Y888661D01*
X889722Y888555D01*
X889898Y888485D01*
X890063Y888403D01*
X890227Y888297D01*
X890391Y888191D01*
X890403Y888180D01*
X890426Y888168D01*
X890473Y888133D01*
X890532Y888074D01*
X890591Y888015D01*
X890673Y887933D01*
X890755Y887839D01*
X890849Y887745D01*
X890943Y887628D01*
X891037Y887487D01*
X891142Y887346D01*
X891236Y887194D01*
X891318Y887018D01*
X891412Y886842D01*
X891482Y886654D01*
X891553Y886443D01*
X890497Y886196D01*
Y886208D01*
X890485Y886232D01*
X890462Y886279D01*
X890438Y886337D01*
X890415Y886408D01*
X890379Y886502D01*
X890285Y886689D01*
X890168Y886900D01*
X890027Y887112D01*
X889851Y887311D01*
X889664Y887487D01*
X889640Y887511D01*
X889570Y887558D01*
X889452Y887616D01*
X889300Y887699D01*
X889100Y887769D01*
X888877Y887839D01*
X888607Y887886D01*
X888314Y887898D01*
X888220D01*
X888161Y887886D01*
X888079D01*
X887986Y887875D01*
X887763Y887839D01*
X887516Y887792D01*
X887258Y887710D01*
X886988Y887593D01*
X886742Y887440D01*
X886730D01*
X886718Y887417D01*
X886636Y887358D01*
X886530Y887264D01*
X886401Y887123D01*
X886249Y886947D01*
X886108Y886748D01*
X885979Y886502D01*
X885862Y886232D01*
Y886220D01*
X885850Y886196D01*
X885838Y886161D01*
X885826Y886103D01*
X885803Y886032D01*
X885779Y885950D01*
X885744Y885751D01*
X885697Y885516D01*
X885650Y885258D01*
X885627Y884976D01*
X885615Y884671D01*
Y884659D01*
Y884624D01*
Y884565D01*
Y884495D01*
X885627Y884413D01*
Y884307D01*
X885639Y884190D01*
X885650Y884061D01*
X885686Y883779D01*
X885744Y883474D01*
X885815Y883169D01*
X885909Y882864D01*
Y882852D01*
X885920Y882829D01*
X885944Y882793D01*
X885967Y882735D01*
X886038Y882594D01*
X886143Y882430D01*
X886272Y882242D01*
X886436Y882042D01*
X886624Y881866D01*
X886847Y881702D01*
X886859D01*
X886882Y881690D01*
X886918Y881667D01*
X886965Y881643D01*
X887023Y881620D01*
X887094Y881585D01*
X887258Y881514D01*
X887469Y881444D01*
X887704Y881385D01*
X887962Y881338D01*
X888232Y881327D01*
X888314D01*
X888384Y881338D01*
X888467D01*
X888549Y881350D01*
X888760Y881397D01*
X889007Y881456D01*
X889253Y881550D01*
X889511Y881679D01*
X889640Y881749D01*
X889758Y881843D01*
X889769Y881855D01*
X889781Y881866D01*
X889816Y881901D01*
X889863Y881937D01*
X889910Y881995D01*
X889969Y882066D01*
X890039Y882136D01*
X890098Y882230D01*
X890168Y882336D01*
X890250Y882453D01*
X890321Y882570D01*
X890391Y882711D01*
X890450Y882864D01*
X890508Y883028D01*
X890567Y883204D01*
X890614Y883392D01*
X891694Y883122D01*
Y883110D01*
X891682Y883063D01*
X891658Y882993D01*
X891623Y882899D01*
X891588Y882793D01*
X891541Y882664D01*
X891482Y882523D01*
X891412Y882371D01*
X891248Y882042D01*
X891037Y881714D01*
X890908Y881550D01*
X890778Y881385D01*
X890638Y881244D01*
X890473Y881104D01*
X890462Y881092D01*
X890438Y881068D01*
X890379Y881045D01*
X890321Y880998D01*
X890227Y880939D01*
X890133Y880881D01*
X890004Y880822D01*
X889875Y880763D01*
X889722Y880693D01*
X889558Y880634D01*
X889382Y880575D01*
X889194Y880517D01*
X888995Y880470D01*
X888783Y880446D01*
X888560Y880423D01*
X888326Y880411D01*
X888197D01*
X888103Y880423D01*
X887997D01*
X887868Y880435D01*
X887727Y880458D01*
X887563Y880482D01*
X887223Y880540D01*
X886871Y880634D01*
X886519Y880763D01*
X886354Y880845D01*
X886190Y880939D01*
X886178Y880951D01*
X886155Y880963D01*
X886108Y880998D01*
X886061Y881045D01*
X885991Y881092D01*
X885909Y881162D01*
X885815Y881244D01*
X885721Y881338D01*
X885627Y881444D01*
X885521Y881550D01*
X885310Y881819D01*
X885110Y882136D01*
X884934Y882488D01*
Y882500D01*
X884911Y882535D01*
X884899Y882594D01*
X884864Y882664D01*
X884841Y882758D01*
X884805Y882876D01*
X884759Y883005D01*
X884723Y883145D01*
X884688Y883298D01*
X884641Y883474D01*
X884582Y883838D01*
X884536Y884249D01*
X884512Y884671D01*
Y884683D01*
Y884730D01*
Y884800D01*
X884524Y884882D01*
Y884999D01*
X884536Y885117D01*
X884547Y885269D01*
X884571Y885422D01*
X884629Y885762D01*
X884712Y886138D01*
X884829Y886513D01*
X884993Y886877D01*
X885005Y886889D01*
X885017Y886924D01*
X885040Y886971D01*
X885087Y887030D01*
X885134Y887112D01*
X885193Y887206D01*
X885345Y887417D01*
X885545Y887652D01*
X885779Y887886D01*
X886049Y888121D01*
X886366Y888320D01*
X886378Y888332D01*
X886413Y888344D01*
X886460Y888367D01*
X886519Y888403D01*
X886613Y888438D01*
X886706Y888473D01*
X886824Y888520D01*
X886953Y888567D01*
X887094Y888614D01*
X887246Y888661D01*
X887575Y888731D01*
X887950Y888790D01*
X888338Y888813D01*
X888455D01*
X888537Y888802D01*
D02*
G37*
G36*
X896798Y883415D02*
X897901D01*
Y882500D01*
X896798D01*
Y880552D01*
X895801D01*
Y882500D01*
X892269D01*
Y883415D01*
X895989Y888672D01*
X896798D01*
Y883415D01*
D02*
G37*
G36*
X865677Y888802D02*
X865783Y888790D01*
X865912Y888778D01*
X866041Y888766D01*
X866193Y888731D01*
X866510Y888661D01*
X866862Y888555D01*
X867038Y888485D01*
X867203Y888403D01*
X867367Y888297D01*
X867531Y888191D01*
X867543Y888180D01*
X867566Y888168D01*
X867613Y888133D01*
X867672Y888074D01*
X867731Y888015D01*
X867813Y887933D01*
X867895Y887839D01*
X867989Y887745D01*
X868083Y887628D01*
X868176Y887487D01*
X868282Y887346D01*
X868376Y887194D01*
X868458Y887018D01*
X868552Y886842D01*
X868623Y886654D01*
X868693Y886443D01*
X867637Y886196D01*
Y886208D01*
X867625Y886232D01*
X867601Y886279D01*
X867578Y886337D01*
X867555Y886408D01*
X867519Y886502D01*
X867426Y886689D01*
X867308Y886900D01*
X867167Y887112D01*
X866991Y887311D01*
X866804Y887487D01*
X866780Y887511D01*
X866710Y887558D01*
X866592Y887616D01*
X866440Y887699D01*
X866240Y887769D01*
X866017Y887839D01*
X865747Y887886D01*
X865454Y887898D01*
X865360D01*
X865302Y887886D01*
X865219D01*
X865126Y887875D01*
X864902Y887839D01*
X864656Y887792D01*
X864398Y887710D01*
X864128Y887593D01*
X863882Y887440D01*
X863870D01*
X863858Y887417D01*
X863776Y887358D01*
X863670Y887264D01*
X863541Y887123D01*
X863389Y886947D01*
X863248Y886748D01*
X863119Y886502D01*
X863001Y886232D01*
Y886220D01*
X862990Y886196D01*
X862978Y886161D01*
X862966Y886103D01*
X862943Y886032D01*
X862919Y885950D01*
X862884Y885751D01*
X862837Y885516D01*
X862790Y885258D01*
X862767Y884976D01*
X862755Y884671D01*
Y884659D01*
Y884624D01*
Y884565D01*
Y884495D01*
X862767Y884413D01*
Y884307D01*
X862778Y884190D01*
X862790Y884061D01*
X862825Y883779D01*
X862884Y883474D01*
X862955Y883169D01*
X863048Y882864D01*
Y882852D01*
X863060Y882829D01*
X863084Y882793D01*
X863107Y882735D01*
X863177Y882594D01*
X863283Y882430D01*
X863412Y882242D01*
X863577Y882042D01*
X863764Y881866D01*
X863987Y881702D01*
X863999D01*
X864022Y881690D01*
X864058Y881667D01*
X864105Y881643D01*
X864163Y881620D01*
X864234Y881585D01*
X864398Y881514D01*
X864609Y881444D01*
X864844Y881385D01*
X865102Y881338D01*
X865372Y881327D01*
X865454D01*
X865525Y881338D01*
X865607D01*
X865689Y881350D01*
X865900Y881397D01*
X866146Y881456D01*
X866393Y881550D01*
X866651Y881679D01*
X866780Y881749D01*
X866898Y881843D01*
X866909Y881855D01*
X866921Y881866D01*
X866956Y881901D01*
X867003Y881937D01*
X867050Y881995D01*
X867109Y882066D01*
X867179Y882136D01*
X867238Y882230D01*
X867308Y882336D01*
X867390Y882453D01*
X867461Y882570D01*
X867531Y882711D01*
X867590Y882864D01*
X867648Y883028D01*
X867707Y883204D01*
X867754Y883392D01*
X868834Y883122D01*
Y883110D01*
X868822Y883063D01*
X868799Y882993D01*
X868763Y882899D01*
X868728Y882793D01*
X868681Y882664D01*
X868623Y882523D01*
X868552Y882371D01*
X868388Y882042D01*
X868176Y881714D01*
X868047Y881550D01*
X867918Y881385D01*
X867778Y881244D01*
X867613Y881104D01*
X867601Y881092D01*
X867578Y881068D01*
X867519Y881045D01*
X867461Y880998D01*
X867367Y880939D01*
X867273Y880881D01*
X867144Y880822D01*
X867015Y880763D01*
X866862Y880693D01*
X866698Y880634D01*
X866522Y880575D01*
X866334Y880517D01*
X866135Y880470D01*
X865923Y880446D01*
X865701Y880423D01*
X865466Y880411D01*
X865337D01*
X865243Y880423D01*
X865137D01*
X865008Y880435D01*
X864867Y880458D01*
X864703Y880482D01*
X864363Y880540D01*
X864011Y880634D01*
X863659Y880763D01*
X863494Y880845D01*
X863330Y880939D01*
X863318Y880951D01*
X863295Y880963D01*
X863248Y880998D01*
X863201Y881045D01*
X863131Y881092D01*
X863048Y881162D01*
X862955Y881244D01*
X862861Y881338D01*
X862767Y881444D01*
X862661Y881550D01*
X862450Y881819D01*
X862251Y882136D01*
X862075Y882488D01*
Y882500D01*
X862051Y882535D01*
X862039Y882594D01*
X862004Y882664D01*
X861981Y882758D01*
X861945Y882876D01*
X861898Y883005D01*
X861863Y883145D01*
X861828Y883298D01*
X861781Y883474D01*
X861722Y883838D01*
X861675Y884249D01*
X861652Y884671D01*
Y884683D01*
Y884730D01*
Y884800D01*
X861664Y884882D01*
Y884999D01*
X861675Y885117D01*
X861687Y885269D01*
X861711Y885422D01*
X861769Y885762D01*
X861852Y886138D01*
X861969Y886513D01*
X862133Y886877D01*
X862145Y886889D01*
X862157Y886924D01*
X862180Y886971D01*
X862227Y887030D01*
X862274Y887112D01*
X862333Y887206D01*
X862485Y887417D01*
X862685Y887652D01*
X862919Y887886D01*
X863189Y888121D01*
X863506Y888320D01*
X863518Y888332D01*
X863553Y888344D01*
X863600Y888367D01*
X863659Y888403D01*
X863753Y888438D01*
X863846Y888473D01*
X863964Y888520D01*
X864093Y888567D01*
X864234Y888614D01*
X864386Y888661D01*
X864715Y888731D01*
X865090Y888790D01*
X865478Y888813D01*
X865595D01*
X865677Y888802D01*
D02*
G37*
G36*
X874748Y887616D02*
X871497D01*
X871063Y885422D01*
X871075Y885434D01*
X871098Y885445D01*
X871134Y885469D01*
X871192Y885504D01*
X871263Y885539D01*
X871345Y885586D01*
X871533Y885680D01*
X871767Y885774D01*
X872026Y885856D01*
X872307Y885915D01*
X872448Y885938D01*
X872706D01*
X872777Y885927D01*
X872870Y885915D01*
X872976Y885903D01*
X873093Y885880D01*
X873223Y885844D01*
X873504Y885762D01*
X873657Y885704D01*
X873809Y885621D01*
X873962Y885539D01*
X874114Y885445D01*
X874255Y885328D01*
X874396Y885199D01*
X874408Y885187D01*
X874431Y885164D01*
X874466Y885129D01*
X874513Y885070D01*
X874572Y884988D01*
X874631Y884906D01*
X874701Y884800D01*
X874771Y884683D01*
X874830Y884554D01*
X874901Y884413D01*
X874959Y884249D01*
X875018Y884084D01*
X875065Y883908D01*
X875100Y883709D01*
X875124Y883509D01*
X875135Y883298D01*
Y883286D01*
Y883251D01*
Y883192D01*
X875124Y883110D01*
X875112Y883016D01*
X875100Y882911D01*
X875077Y882782D01*
X875053Y882653D01*
X874983Y882347D01*
X874865Y882031D01*
X874795Y881866D01*
X874701Y881714D01*
X874607Y881550D01*
X874490Y881397D01*
X874478Y881385D01*
X874455Y881350D01*
X874408Y881303D01*
X874349Y881244D01*
X874267Y881174D01*
X874173Y881080D01*
X874056Y880998D01*
X873927Y880904D01*
X873786Y880810D01*
X873622Y880728D01*
X873446Y880646D01*
X873258Y880564D01*
X873058Y880505D01*
X872835Y880458D01*
X872601Y880423D01*
X872354Y880411D01*
X872249D01*
X872166Y880423D01*
X872073Y880435D01*
X871967Y880446D01*
X871838Y880458D01*
X871709Y880493D01*
X871415Y880564D01*
X871122Y880669D01*
X870969Y880740D01*
X870817Y880822D01*
X870676Y880916D01*
X870535Y881021D01*
X870524Y881033D01*
X870500Y881045D01*
X870477Y881092D01*
X870430Y881139D01*
X870371Y881197D01*
X870312Y881268D01*
X870242Y881362D01*
X870183Y881467D01*
X870113Y881573D01*
X870042Y881702D01*
X869913Y881984D01*
X869808Y882312D01*
X869772Y882488D01*
X869749Y882676D01*
X870793Y882758D01*
Y882746D01*
Y882723D01*
X870805Y882688D01*
X870817Y882629D01*
X870852Y882500D01*
X870899Y882324D01*
X870969Y882148D01*
X871063Y881948D01*
X871181Y881772D01*
X871321Y881608D01*
X871345Y881596D01*
X871392Y881550D01*
X871486Y881491D01*
X871615Y881420D01*
X871756Y881350D01*
X871932Y881291D01*
X872131Y881244D01*
X872354Y881233D01*
X872424D01*
X872471Y881244D01*
X872612Y881256D01*
X872777Y881303D01*
X872976Y881362D01*
X873176Y881456D01*
X873387Y881596D01*
X873481Y881679D01*
X873575Y881772D01*
X873586Y881784D01*
X873598Y881796D01*
X873622Y881831D01*
X873657Y881866D01*
X873739Y881995D01*
X873833Y882160D01*
X873915Y882359D01*
X873997Y882606D01*
X874056Y882899D01*
X874079Y883052D01*
Y883216D01*
Y883227D01*
Y883251D01*
Y883298D01*
X874067Y883357D01*
Y883427D01*
X874056Y883509D01*
X874020Y883697D01*
X873962Y883920D01*
X873880Y884143D01*
X873762Y884354D01*
X873598Y884554D01*
Y884565D01*
X873575Y884577D01*
X873516Y884636D01*
X873410Y884718D01*
X873269Y884812D01*
X873082Y884894D01*
X872870Y884976D01*
X872624Y885035D01*
X872483Y885058D01*
X872260D01*
X872166Y885046D01*
X872049Y885035D01*
X871908Y884999D01*
X871767Y884964D01*
X871615Y884906D01*
X871462Y884835D01*
X871451Y884824D01*
X871404Y884800D01*
X871333Y884741D01*
X871239Y884683D01*
X871145Y884601D01*
X871052Y884495D01*
X870946Y884389D01*
X870864Y884260D01*
X869925Y884389D01*
X870711Y888567D01*
X874748D01*
Y887616D01*
D02*
G37*
G36*
X983341Y1016040D02*
X983411D01*
X983599Y1016005D01*
X983822Y1015970D01*
X984057Y1015911D01*
X984315Y1015829D01*
X984562Y1015712D01*
X984573D01*
X984585Y1015700D01*
X984620Y1015677D01*
X984667Y1015653D01*
X984784Y1015583D01*
X984937Y1015477D01*
X985101Y1015348D01*
X985266Y1015196D01*
X985430Y1015008D01*
X985571Y1014808D01*
Y1014797D01*
X985583Y1014785D01*
X985606Y1014750D01*
X985618Y1014703D01*
X985676Y1014585D01*
X985735Y1014433D01*
X985805Y1014233D01*
X985852Y1014010D01*
X985899Y1013764D01*
X985911Y1013494D01*
Y1013435D01*
X985899Y1013377D01*
Y1013283D01*
X985888Y1013177D01*
X985864Y1013060D01*
X985829Y1012919D01*
X985794Y1012778D01*
X985747Y1012614D01*
X985688Y1012450D01*
X985618Y1012285D01*
X985524Y1012109D01*
X985418Y1011945D01*
X985301Y1011781D01*
X985160Y1011617D01*
X984996Y1011464D01*
X984984Y1011452D01*
X984949Y1011429D01*
X984902Y1011394D01*
X984820Y1011347D01*
X984714Y1011276D01*
X984597Y1011217D01*
X984444Y1011147D01*
X984280Y1011077D01*
X984080Y1010995D01*
X983857Y1010924D01*
X983611Y1010865D01*
X983341Y1010807D01*
X983036Y1010748D01*
X982708Y1010713D01*
X982355Y1010689D01*
X981980Y1010678D01*
X981968D01*
X981956D01*
X981921D01*
X981874D01*
X981757Y1010689D01*
X981593D01*
X981405Y1010701D01*
X981182Y1010725D01*
X980936Y1010748D01*
X980666Y1010783D01*
X980396Y1010830D01*
X980102Y1010889D01*
X979821Y1010959D01*
X979539Y1011041D01*
X979269Y1011147D01*
X979011Y1011264D01*
X978765Y1011394D01*
X978553Y1011546D01*
X978542Y1011558D01*
X978518Y1011581D01*
X978471Y1011628D01*
X978401Y1011687D01*
X978330Y1011757D01*
X978260Y1011851D01*
X978166Y1011969D01*
X978084Y1012086D01*
X978002Y1012227D01*
X977908Y1012379D01*
X977838Y1012555D01*
X977755Y1012731D01*
X977697Y1012931D01*
X977650Y1013142D01*
X977626Y1013365D01*
X977615Y1013600D01*
Y1013694D01*
X977626Y1013764D01*
Y1013846D01*
X977638Y1013940D01*
X977685Y1014163D01*
X977744Y1014409D01*
X977838Y1014668D01*
X977978Y1014926D01*
X978061Y1015055D01*
X978154Y1015172D01*
X978166Y1015184D01*
X978178Y1015196D01*
X978213Y1015231D01*
X978248Y1015266D01*
X978307Y1015325D01*
X978377Y1015372D01*
X978542Y1015501D01*
X978753Y1015630D01*
X979011Y1015747D01*
X979304Y1015853D01*
X979633Y1015923D01*
X979715Y1014926D01*
X979703D01*
X979692Y1014914D01*
X979621Y1014902D01*
X979516Y1014867D01*
X979387Y1014820D01*
X979246Y1014773D01*
X979105Y1014703D01*
X978976Y1014621D01*
X978870Y1014538D01*
X978847Y1014515D01*
X978800Y1014468D01*
X978729Y1014386D01*
X978647Y1014269D01*
X978577Y1014116D01*
X978506Y1013952D01*
X978459Y1013752D01*
X978436Y1013541D01*
Y1013459D01*
X978448Y1013365D01*
X978471Y1013259D01*
X978506Y1013119D01*
X978553Y1012978D01*
X978612Y1012837D01*
X978706Y1012696D01*
X978718Y1012673D01*
X978765Y1012614D01*
X978847Y1012532D01*
X978964Y1012426D01*
X979105Y1012309D01*
X979269Y1012180D01*
X979480Y1012062D01*
X979715Y1011945D01*
X979727D01*
X979750Y1011933D01*
X979786Y1011922D01*
X979832Y1011898D01*
X979903Y1011886D01*
X979985Y1011863D01*
X980079Y1011840D01*
X980196Y1011816D01*
X980325Y1011781D01*
X980466Y1011757D01*
X980619Y1011734D01*
X980783Y1011722D01*
X980971Y1011699D01*
X981159Y1011687D01*
X981370Y1011675D01*
X981581D01*
X981569Y1011687D01*
X981499Y1011734D01*
X981405Y1011816D01*
X981288Y1011922D01*
X981147Y1012039D01*
X981018Y1012191D01*
X980889Y1012356D01*
X980771Y1012544D01*
Y1012555D01*
X980760Y1012567D01*
X980724Y1012637D01*
X980689Y1012743D01*
X980630Y1012884D01*
X980583Y1013048D01*
X980548Y1013236D01*
X980513Y1013435D01*
X980501Y1013647D01*
Y1013740D01*
X980513Y1013811D01*
X980525Y1013905D01*
X980536Y1013999D01*
X980560Y1014116D01*
X980595Y1014233D01*
X980677Y1014503D01*
X980736Y1014644D01*
X980818Y1014785D01*
X980900Y1014926D01*
X980994Y1015078D01*
X981112Y1015219D01*
X981241Y1015348D01*
X981252Y1015360D01*
X981276Y1015383D01*
X981311Y1015419D01*
X981370Y1015454D01*
X981452Y1015512D01*
X981534Y1015571D01*
X981640Y1015630D01*
X981757Y1015700D01*
X981886Y1015771D01*
X982027Y1015829D01*
X982191Y1015888D01*
X982355Y1015947D01*
X982531Y1015982D01*
X982731Y1016017D01*
X982930Y1016040D01*
X983142Y1016052D01*
X983153D01*
X983177D01*
X983212D01*
X983271D01*
X983341Y1016040D01*
D02*
G37*
G36*
X983259Y1009798D02*
X983329Y1009774D01*
X983423Y1009739D01*
X983529Y1009704D01*
X983658Y1009657D01*
X983799Y1009598D01*
X983951Y1009528D01*
X984280Y1009363D01*
X984609Y1009152D01*
X984773Y1009023D01*
X984937Y1008894D01*
X985078Y1008753D01*
X985219Y1008589D01*
X985230Y1008577D01*
X985254Y1008554D01*
X985277Y1008495D01*
X985324Y1008436D01*
X985383Y1008343D01*
X985442Y1008249D01*
X985500Y1008120D01*
X985559Y1007990D01*
X985629Y1007838D01*
X985688Y1007674D01*
X985747Y1007498D01*
X985805Y1007310D01*
X985852Y1007110D01*
X985876Y1006899D01*
X985899Y1006676D01*
X985911Y1006441D01*
Y1006312D01*
X985899Y1006218D01*
Y1006113D01*
X985888Y1005984D01*
X985864Y1005843D01*
X985841Y1005679D01*
X985782Y1005338D01*
X985688Y1004986D01*
X985559Y1004634D01*
X985477Y1004470D01*
X985383Y1004306D01*
X985371Y1004294D01*
X985359Y1004270D01*
X985324Y1004224D01*
X985277Y1004177D01*
X985230Y1004106D01*
X985160Y1004024D01*
X985078Y1003930D01*
X984984Y1003836D01*
X984878Y1003743D01*
X984773Y1003637D01*
X984503Y1003426D01*
X984186Y1003226D01*
X983834Y1003050D01*
X983822D01*
X983787Y1003027D01*
X983728Y1003015D01*
X983658Y1002980D01*
X983564Y1002956D01*
X983447Y1002921D01*
X983318Y1002874D01*
X983177Y1002839D01*
X983024Y1002804D01*
X982848Y1002757D01*
X982485Y1002698D01*
X982074Y1002651D01*
X981651Y1002628D01*
X981640D01*
X981593D01*
X981522D01*
X981440Y1002639D01*
X981323D01*
X981205Y1002651D01*
X981053Y1002663D01*
X980900Y1002686D01*
X980560Y1002745D01*
X980184Y1002827D01*
X979809Y1002944D01*
X979445Y1003109D01*
X979433Y1003120D01*
X979398Y1003132D01*
X979351Y1003156D01*
X979293Y1003203D01*
X979211Y1003250D01*
X979117Y1003308D01*
X978905Y1003461D01*
X978671Y1003660D01*
X978436Y1003895D01*
X978201Y1004165D01*
X978002Y1004482D01*
X977990Y1004493D01*
X977978Y1004529D01*
X977955Y1004576D01*
X977920Y1004634D01*
X977885Y1004728D01*
X977849Y1004822D01*
X977802Y1004939D01*
X977755Y1005069D01*
X977708Y1005209D01*
X977662Y1005362D01*
X977591Y1005690D01*
X977532Y1006066D01*
X977509Y1006453D01*
Y1006571D01*
X977521Y1006653D01*
X977532Y1006758D01*
X977544Y1006887D01*
X977556Y1007017D01*
X977591Y1007169D01*
X977662Y1007486D01*
X977767Y1007838D01*
X977838Y1008014D01*
X977920Y1008178D01*
X978025Y1008343D01*
X978131Y1008507D01*
X978143Y1008519D01*
X978154Y1008542D01*
X978190Y1008589D01*
X978248Y1008648D01*
X978307Y1008706D01*
X978389Y1008788D01*
X978483Y1008871D01*
X978577Y1008964D01*
X978694Y1009058D01*
X978835Y1009152D01*
X978976Y1009258D01*
X979128Y1009352D01*
X979304Y1009434D01*
X979480Y1009528D01*
X979668Y1009598D01*
X979879Y1009669D01*
X980126Y1008612D01*
X980114D01*
X980091Y1008601D01*
X980044Y1008577D01*
X979985Y1008554D01*
X979915Y1008530D01*
X979821Y1008495D01*
X979633Y1008401D01*
X979422Y1008284D01*
X979211Y1008143D01*
X979011Y1007967D01*
X978835Y1007779D01*
X978811Y1007756D01*
X978765Y1007685D01*
X978706Y1007568D01*
X978624Y1007415D01*
X978553Y1007216D01*
X978483Y1006993D01*
X978436Y1006723D01*
X978424Y1006430D01*
Y1006336D01*
X978436Y1006277D01*
Y1006195D01*
X978448Y1006101D01*
X978483Y1005878D01*
X978530Y1005632D01*
X978612Y1005374D01*
X978729Y1005104D01*
X978882Y1004857D01*
Y1004846D01*
X978905Y1004834D01*
X978964Y1004752D01*
X979058Y1004646D01*
X979199Y1004517D01*
X979375Y1004364D01*
X979574Y1004224D01*
X979821Y1004094D01*
X980091Y1003977D01*
X980102D01*
X980126Y1003965D01*
X980161Y1003954D01*
X980220Y1003942D01*
X980290Y1003919D01*
X980372Y1003895D01*
X980572Y1003860D01*
X980806Y1003813D01*
X981065Y1003766D01*
X981346Y1003743D01*
X981651Y1003731D01*
X981663D01*
X981698D01*
X981757D01*
X981827D01*
X981909Y1003743D01*
X982015D01*
X982132Y1003754D01*
X982262Y1003766D01*
X982543Y1003801D01*
X982848Y1003860D01*
X983153Y1003930D01*
X983458Y1004024D01*
X983470D01*
X983494Y1004036D01*
X983529Y1004059D01*
X983588Y1004083D01*
X983728Y1004153D01*
X983893Y1004259D01*
X984080Y1004388D01*
X984280Y1004552D01*
X984456Y1004740D01*
X984620Y1004963D01*
Y1004975D01*
X984632Y1004998D01*
X984655Y1005033D01*
X984679Y1005080D01*
X984702Y1005139D01*
X984738Y1005209D01*
X984808Y1005374D01*
X984878Y1005585D01*
X984937Y1005819D01*
X984984Y1006078D01*
X984996Y1006348D01*
Y1006430D01*
X984984Y1006500D01*
Y1006582D01*
X984972Y1006664D01*
X984925Y1006876D01*
X984867Y1007122D01*
X984773Y1007368D01*
X984644Y1007627D01*
X984573Y1007756D01*
X984479Y1007873D01*
X984468Y1007885D01*
X984456Y1007897D01*
X984421Y1007932D01*
X984386Y1007979D01*
X984327Y1008026D01*
X984257Y1008084D01*
X984186Y1008155D01*
X984092Y1008213D01*
X983987Y1008284D01*
X983869Y1008366D01*
X983752Y1008436D01*
X983611Y1008507D01*
X983458Y1008566D01*
X983294Y1008624D01*
X983118Y1008683D01*
X982930Y1008730D01*
X983200Y1009809D01*
X983212D01*
X983259Y1009798D01*
D02*
G37*
G36*
X927313Y917519D02*
X927418Y917508D01*
X927547Y917496D01*
X927676Y917484D01*
X927829Y917449D01*
X928146Y917378D01*
X928498Y917273D01*
X928674Y917203D01*
X928838Y917120D01*
X929003Y917015D01*
X929167Y916909D01*
X929179Y916897D01*
X929202Y916886D01*
X929249Y916850D01*
X929308Y916792D01*
X929366Y916733D01*
X929448Y916651D01*
X929531Y916557D01*
X929624Y916463D01*
X929718Y916346D01*
X929812Y916205D01*
X929918Y916064D01*
X930012Y915912D01*
X930094Y915736D01*
X930188Y915560D01*
X930258Y915372D01*
X930329Y915161D01*
X929272Y914914D01*
Y914926D01*
X929261Y914949D01*
X929237Y914996D01*
X929214Y915055D01*
X929190Y915125D01*
X929155Y915219D01*
X929061Y915407D01*
X928944Y915618D01*
X928803Y915829D01*
X928627Y916029D01*
X928439Y916205D01*
X928416Y916228D01*
X928345Y916275D01*
X928228Y916334D01*
X928075Y916416D01*
X927876Y916487D01*
X927653Y916557D01*
X927383Y916604D01*
X927090Y916616D01*
X926996D01*
X926937Y916604D01*
X926855D01*
X926761Y916592D01*
X926538Y916557D01*
X926292Y916510D01*
X926034Y916428D01*
X925764Y916311D01*
X925517Y916158D01*
X925506D01*
X925494Y916135D01*
X925412Y916076D01*
X925306Y915982D01*
X925177Y915841D01*
X925024Y915665D01*
X924884Y915466D01*
X924754Y915219D01*
X924637Y914949D01*
Y914938D01*
X924625Y914914D01*
X924614Y914879D01*
X924602Y914820D01*
X924578Y914750D01*
X924555Y914668D01*
X924520Y914468D01*
X924473Y914234D01*
X924426Y913975D01*
X924402Y913694D01*
X924391Y913389D01*
Y913377D01*
Y913342D01*
Y913283D01*
Y913213D01*
X924402Y913130D01*
Y913025D01*
X924414Y912907D01*
X924426Y912778D01*
X924461Y912497D01*
X924520Y912192D01*
X924590Y911887D01*
X924684Y911581D01*
Y911570D01*
X924696Y911546D01*
X924719Y911511D01*
X924743Y911452D01*
X924813Y911312D01*
X924919Y911147D01*
X925048Y910959D01*
X925212Y910760D01*
X925400Y910584D01*
X925623Y910420D01*
X925635D01*
X925658Y910408D01*
X925693Y910385D01*
X925740Y910361D01*
X925799Y910338D01*
X925869Y910302D01*
X926034Y910232D01*
X926245Y910162D01*
X926480Y910103D01*
X926738Y910056D01*
X927008Y910044D01*
X927090D01*
X927160Y910056D01*
X927242D01*
X927325Y910068D01*
X927536Y910115D01*
X927782Y910173D01*
X928028Y910267D01*
X928287Y910396D01*
X928416Y910467D01*
X928533Y910561D01*
X928545Y910572D01*
X928557Y910584D01*
X928592Y910619D01*
X928639Y910654D01*
X928686Y910713D01*
X928744Y910783D01*
X928815Y910854D01*
X928874Y910948D01*
X928944Y911053D01*
X929026Y911171D01*
X929096Y911288D01*
X929167Y911429D01*
X929225Y911581D01*
X929284Y911746D01*
X929343Y911922D01*
X929390Y912110D01*
X930469Y911840D01*
Y911828D01*
X930458Y911781D01*
X930434Y911711D01*
X930399Y911617D01*
X930364Y911511D01*
X930317Y911382D01*
X930258Y911241D01*
X930188Y911089D01*
X930023Y910760D01*
X929812Y910432D01*
X929683Y910267D01*
X929554Y910103D01*
X929413Y909962D01*
X929249Y909821D01*
X929237Y909809D01*
X929214Y909786D01*
X929155Y909763D01*
X929096Y909716D01*
X929003Y909657D01*
X928909Y909598D01*
X928780Y909540D01*
X928651Y909481D01*
X928498Y909411D01*
X928334Y909352D01*
X928158Y909293D01*
X927970Y909234D01*
X927770Y909188D01*
X927559Y909164D01*
X927336Y909141D01*
X927102Y909129D01*
X926972D01*
X926879Y909141D01*
X926773D01*
X926644Y909152D01*
X926503Y909176D01*
X926339Y909199D01*
X925998Y909258D01*
X925646Y909352D01*
X925294Y909481D01*
X925130Y909563D01*
X924966Y909657D01*
X924954Y909669D01*
X924931Y909680D01*
X924884Y909716D01*
X924837Y909763D01*
X924766Y909809D01*
X924684Y909880D01*
X924590Y909962D01*
X924496Y910056D01*
X924402Y910162D01*
X924297Y910267D01*
X924086Y910537D01*
X923886Y910854D01*
X923710Y911206D01*
Y911218D01*
X923687Y911253D01*
X923675Y911312D01*
X923640Y911382D01*
X923616Y911476D01*
X923581Y911593D01*
X923534Y911722D01*
X923499Y911863D01*
X923464Y912016D01*
X923417Y912192D01*
X923358Y912555D01*
X923311Y912966D01*
X923288Y913389D01*
Y913400D01*
Y913447D01*
Y913518D01*
X923299Y913600D01*
Y913717D01*
X923311Y913835D01*
X923323Y913987D01*
X923346Y914140D01*
X923405Y914480D01*
X923487Y914855D01*
X923605Y915231D01*
X923769Y915595D01*
X923781Y915607D01*
X923792Y915642D01*
X923816Y915689D01*
X923863Y915747D01*
X923910Y915829D01*
X923968Y915923D01*
X924121Y916135D01*
X924320Y916369D01*
X924555Y916604D01*
X924825Y916839D01*
X925142Y917038D01*
X925154Y917050D01*
X925189Y917062D01*
X925236Y917085D01*
X925294Y917120D01*
X925388Y917156D01*
X925482Y917191D01*
X925599Y917238D01*
X925729Y917285D01*
X925869Y917331D01*
X926022Y917378D01*
X926350Y917449D01*
X926726Y917508D01*
X927113Y917531D01*
X927231D01*
X927313Y917519D01*
D02*
G37*
G36*
X936712Y916498D02*
X936701Y916487D01*
X936677Y916463D01*
X936630Y916416D01*
X936583Y916346D01*
X936513Y916264D01*
X936419Y916170D01*
X936325Y916052D01*
X936219Y915912D01*
X936114Y915771D01*
X935985Y915607D01*
X935856Y915419D01*
X935727Y915231D01*
X935586Y915020D01*
X935445Y914797D01*
X935304Y914550D01*
X935163Y914304D01*
X935152Y914292D01*
X935128Y914245D01*
X935093Y914175D01*
X935034Y914069D01*
X934976Y913940D01*
X934905Y913799D01*
X934823Y913635D01*
X934741Y913447D01*
X934647Y913236D01*
X934541Y913025D01*
X934447Y912790D01*
X934354Y912544D01*
X934166Y912039D01*
X933990Y911499D01*
Y911488D01*
X933978Y911452D01*
X933966Y911394D01*
X933943Y911323D01*
X933919Y911229D01*
X933896Y911112D01*
X933861Y910983D01*
X933837Y910842D01*
X933802Y910678D01*
X933767Y910502D01*
X933708Y910126D01*
X933650Y909716D01*
X933614Y909270D01*
X932593D01*
Y909281D01*
Y909317D01*
Y909364D01*
X932605Y909434D01*
Y909528D01*
X932617Y909645D01*
X932629Y909774D01*
X932640Y909915D01*
X932664Y910079D01*
X932687Y910244D01*
X932722Y910443D01*
X932758Y910643D01*
X932793Y910854D01*
X932840Y911089D01*
X932957Y911570D01*
Y911581D01*
X932969Y911628D01*
X932992Y911699D01*
X933028Y911805D01*
X933063Y911922D01*
X933110Y912063D01*
X933157Y912227D01*
X933227Y912403D01*
X933298Y912602D01*
X933368Y912802D01*
X933544Y913248D01*
X933755Y913717D01*
X933990Y914187D01*
X934002Y914198D01*
X934025Y914245D01*
X934060Y914304D01*
X934107Y914398D01*
X934166Y914503D01*
X934248Y914632D01*
X934330Y914773D01*
X934424Y914926D01*
X934647Y915266D01*
X934882Y915618D01*
X935152Y915982D01*
X935433Y916322D01*
X931455D01*
Y917285D01*
X936712D01*
Y916498D01*
D02*
G37*
G36*
X927307Y963239D02*
X927412Y963228D01*
X927542Y963216D01*
X927671Y963204D01*
X927823Y963169D01*
X928140Y963099D01*
X928492Y962993D01*
X928668Y962923D01*
X928832Y962840D01*
X928997Y962735D01*
X929161Y962629D01*
X929173Y962617D01*
X929196Y962606D01*
X929243Y962570D01*
X929302Y962512D01*
X929360Y962453D01*
X929443Y962371D01*
X929525Y962277D01*
X929619Y962183D01*
X929713Y962066D01*
X929806Y961925D01*
X929912Y961784D01*
X930006Y961632D01*
X930088Y961456D01*
X930182Y961280D01*
X930252Y961092D01*
X930323Y960881D01*
X929267Y960634D01*
Y960646D01*
X929255Y960669D01*
X929231Y960716D01*
X929208Y960775D01*
X929184Y960845D01*
X929149Y960939D01*
X929055Y961127D01*
X928938Y961338D01*
X928797Y961550D01*
X928621Y961749D01*
X928433Y961925D01*
X928410Y961948D01*
X928339Y961995D01*
X928222Y962054D01*
X928070Y962136D01*
X927870Y962207D01*
X927647Y962277D01*
X927377Y962324D01*
X927084Y962336D01*
X926990D01*
X926931Y962324D01*
X926849D01*
X926755Y962312D01*
X926532Y962277D01*
X926286Y962230D01*
X926028Y962148D01*
X925758Y962031D01*
X925511Y961878D01*
X925500D01*
X925488Y961855D01*
X925406Y961796D01*
X925300Y961702D01*
X925171Y961561D01*
X925019Y961385D01*
X924878Y961186D01*
X924749Y960939D01*
X924631Y960669D01*
Y960658D01*
X924620Y960634D01*
X924608Y960599D01*
X924596Y960540D01*
X924573Y960470D01*
X924549Y960388D01*
X924514Y960188D01*
X924467Y959954D01*
X924420Y959695D01*
X924397Y959414D01*
X924385Y959109D01*
Y959097D01*
Y959062D01*
Y959003D01*
Y958933D01*
X924397Y958850D01*
Y958745D01*
X924408Y958627D01*
X924420Y958498D01*
X924455Y958217D01*
X924514Y957912D01*
X924584Y957607D01*
X924678Y957301D01*
Y957290D01*
X924690Y957266D01*
X924714Y957231D01*
X924737Y957172D01*
X924807Y957032D01*
X924913Y956867D01*
X925042Y956680D01*
X925206Y956480D01*
X925394Y956304D01*
X925617Y956140D01*
X925629D01*
X925652Y956128D01*
X925687Y956105D01*
X925734Y956081D01*
X925793Y956058D01*
X925863Y956022D01*
X926028Y955952D01*
X926239Y955882D01*
X926474Y955823D01*
X926732Y955776D01*
X927002Y955764D01*
X927084D01*
X927154Y955776D01*
X927236D01*
X927319Y955788D01*
X927530Y955835D01*
X927776Y955893D01*
X928023Y955987D01*
X928281Y956116D01*
X928410Y956187D01*
X928527Y956281D01*
X928539Y956292D01*
X928551Y956304D01*
X928586Y956339D01*
X928633Y956374D01*
X928680Y956433D01*
X928738Y956504D01*
X928809Y956574D01*
X928868Y956668D01*
X928938Y956773D01*
X929020Y956891D01*
X929090Y957008D01*
X929161Y957149D01*
X929220Y957301D01*
X929278Y957466D01*
X929337Y957642D01*
X929384Y957830D01*
X930463Y957560D01*
Y957548D01*
X930452Y957501D01*
X930428Y957431D01*
X930393Y957337D01*
X930358Y957231D01*
X930311Y957102D01*
X930252Y956961D01*
X930182Y956809D01*
X930018Y956480D01*
X929806Y956152D01*
X929677Y955987D01*
X929548Y955823D01*
X929407Y955682D01*
X929243Y955541D01*
X929231Y955529D01*
X929208Y955506D01*
X929149Y955483D01*
X929090Y955436D01*
X928997Y955377D01*
X928903Y955318D01*
X928774Y955260D01*
X928645Y955201D01*
X928492Y955131D01*
X928328Y955072D01*
X928152Y955013D01*
X927964Y954955D01*
X927765Y954908D01*
X927553Y954884D01*
X927330Y954861D01*
X927096Y954849D01*
X926966D01*
X926873Y954861D01*
X926767D01*
X926638Y954872D01*
X926497Y954896D01*
X926333Y954919D01*
X925993Y954978D01*
X925640Y955072D01*
X925288Y955201D01*
X925124Y955283D01*
X924960Y955377D01*
X924948Y955389D01*
X924925Y955400D01*
X924878Y955436D01*
X924831Y955483D01*
X924760Y955529D01*
X924678Y955600D01*
X924584Y955682D01*
X924491Y955776D01*
X924397Y955882D01*
X924291Y955987D01*
X924080Y956257D01*
X923880Y956574D01*
X923704Y956926D01*
Y956938D01*
X923681Y956973D01*
X923669Y957032D01*
X923634Y957102D01*
X923610Y957196D01*
X923575Y957313D01*
X923528Y957442D01*
X923493Y957583D01*
X923458Y957736D01*
X923411Y957912D01*
X923352Y958276D01*
X923305Y958686D01*
X923282Y959109D01*
Y959120D01*
Y959167D01*
Y959238D01*
X923294Y959320D01*
Y959437D01*
X923305Y959555D01*
X923317Y959707D01*
X923341Y959860D01*
X923399Y960200D01*
X923481Y960575D01*
X923599Y960951D01*
X923763Y961315D01*
X923775Y961327D01*
X923786Y961362D01*
X923810Y961409D01*
X923857Y961467D01*
X923904Y961550D01*
X923962Y961643D01*
X924115Y961855D01*
X924314Y962089D01*
X924549Y962324D01*
X924819Y962559D01*
X925136Y962758D01*
X925148Y962770D01*
X925183Y962782D01*
X925230Y962805D01*
X925288Y962840D01*
X925382Y962876D01*
X925476Y962911D01*
X925594Y962958D01*
X925723Y963005D01*
X925863Y963052D01*
X926016Y963099D01*
X926345Y963169D01*
X926720Y963228D01*
X927107Y963251D01*
X927225D01*
X927307Y963239D01*
D02*
G37*
G36*
X934195Y963134D02*
X934289Y963122D01*
X934395Y963110D01*
X934512Y963099D01*
X934629Y963063D01*
X934911Y962993D01*
X935193Y962887D01*
X935333Y962817D01*
X935474Y962735D01*
X935603Y962629D01*
X935732Y962523D01*
X935744Y962512D01*
X935756Y962500D01*
X935791Y962465D01*
X935838Y962418D01*
X935885Y962347D01*
X935944Y962277D01*
X936061Y962101D01*
X936178Y961878D01*
X936284Y961620D01*
X936366Y961327D01*
X936378Y961174D01*
X936390Y961010D01*
Y960998D01*
Y960986D01*
Y960916D01*
X936378Y960810D01*
X936354Y960681D01*
X936319Y960517D01*
X936261Y960352D01*
X936190Y960188D01*
X936085Y960024D01*
X936073Y960001D01*
X936026Y959954D01*
X935955Y959883D01*
X935862Y959789D01*
X935732Y959684D01*
X935580Y959578D01*
X935404Y959472D01*
X935193Y959379D01*
X935204D01*
X935228Y959367D01*
X935263Y959355D01*
X935310Y959332D01*
X935451Y959273D01*
X935615Y959191D01*
X935791Y959073D01*
X935979Y958944D01*
X936155Y958780D01*
X936319Y958592D01*
Y958581D01*
X936331Y958569D01*
X936378Y958498D01*
X936448Y958381D01*
X936519Y958229D01*
X936589Y958041D01*
X936659Y957818D01*
X936706Y957571D01*
X936718Y957301D01*
Y957290D01*
Y957254D01*
Y957196D01*
X936706Y957125D01*
X936695Y957043D01*
X936683Y956938D01*
X936659Y956820D01*
X936624Y956691D01*
X936542Y956421D01*
X936484Y956269D01*
X936401Y956128D01*
X936319Y955975D01*
X936225Y955835D01*
X936108Y955694D01*
X935979Y955553D01*
X935967Y955541D01*
X935944Y955518D01*
X935909Y955483D01*
X935850Y955447D01*
X935768Y955389D01*
X935686Y955330D01*
X935580Y955271D01*
X935462Y955201D01*
X935333Y955131D01*
X935181Y955072D01*
X935017Y955013D01*
X934852Y954955D01*
X934665Y954919D01*
X934465Y954884D01*
X934266Y954861D01*
X934043Y954849D01*
X933925D01*
X933843Y954861D01*
X933737Y954872D01*
X933620Y954884D01*
X933491Y954908D01*
X933350Y954943D01*
X933033Y955025D01*
X932869Y955084D01*
X932717Y955142D01*
X932552Y955224D01*
X932388Y955318D01*
X932235Y955424D01*
X932095Y955553D01*
X932083Y955565D01*
X932059Y955588D01*
X932024Y955623D01*
X931977Y955682D01*
X931930Y955752D01*
X931860Y955835D01*
X931801Y955928D01*
X931731Y956046D01*
X931661Y956163D01*
X931602Y956304D01*
X931484Y956597D01*
X931438Y956773D01*
X931402Y956949D01*
X931379Y957137D01*
X931367Y957325D01*
Y957337D01*
Y957360D01*
Y957407D01*
X931379Y957454D01*
Y957524D01*
X931391Y957607D01*
X931414Y957794D01*
X931461Y958006D01*
X931531Y958217D01*
X931637Y958440D01*
X931766Y958651D01*
Y958663D01*
X931790Y958674D01*
X931836Y958733D01*
X931930Y958827D01*
X932059Y958944D01*
X932224Y959062D01*
X932423Y959191D01*
X932646Y959296D01*
X932916Y959379D01*
X932904D01*
X932893Y959390D01*
X932857Y959402D01*
X932811Y959426D01*
X932705Y959472D01*
X932564Y959543D01*
X932411Y959637D01*
X932259Y959754D01*
X932118Y959883D01*
X931989Y960024D01*
X931977Y960047D01*
X931942Y960094D01*
X931895Y960188D01*
X931848Y960306D01*
X931790Y960458D01*
X931743Y960634D01*
X931707Y960834D01*
X931696Y961045D01*
Y961057D01*
Y961080D01*
Y961127D01*
X931707Y961197D01*
X931719Y961268D01*
X931731Y961362D01*
X931778Y961561D01*
X931848Y961796D01*
X931966Y962042D01*
X932036Y962171D01*
X932118Y962300D01*
X932224Y962418D01*
X932329Y962535D01*
X932341Y962547D01*
X932365Y962559D01*
X932400Y962594D01*
X932447Y962629D01*
X932505Y962676D01*
X932588Y962723D01*
X932681Y962782D01*
X932775Y962840D01*
X932893Y962899D01*
X933022Y962958D01*
X933163Y963005D01*
X933315Y963052D01*
X933644Y963122D01*
X933831Y963134D01*
X934019Y963145D01*
X934125D01*
X934195Y963134D01*
D02*
G37*
G36*
X1092223Y926706D02*
X1092375D01*
X1092551Y926695D01*
X1092728Y926671D01*
X1093127Y926636D01*
X1093549Y926577D01*
X1093948Y926495D01*
X1094147Y926436D01*
X1094323Y926378D01*
X1094335D01*
X1094359Y926366D01*
X1094406Y926343D01*
X1094476Y926319D01*
X1094546Y926284D01*
X1094640Y926237D01*
X1094840Y926120D01*
X1095063Y925979D01*
X1095297Y925815D01*
X1095520Y925603D01*
X1095720Y925369D01*
Y925357D01*
X1095743Y925333D01*
X1095767Y925298D01*
X1095790Y925251D01*
X1095826Y925181D01*
X1095872Y925110D01*
X1095919Y925017D01*
X1095955Y924923D01*
X1096048Y924700D01*
X1096131Y924430D01*
X1096178Y924137D01*
X1096201Y923808D01*
Y923714D01*
X1096189Y923655D01*
Y923573D01*
X1096178Y923479D01*
X1096131Y923256D01*
X1096072Y923010D01*
X1095978Y922752D01*
X1095849Y922494D01*
X1095767Y922365D01*
X1095673Y922247D01*
X1095661Y922235D01*
X1095649Y922224D01*
X1095614Y922188D01*
X1095579Y922153D01*
X1095520Y922106D01*
X1095450Y922048D01*
X1095286Y921930D01*
X1095074Y921813D01*
X1094816Y921696D01*
X1094523Y921602D01*
X1094183Y921531D01*
X1094100Y922494D01*
X1094112D01*
X1094136Y922505D01*
X1094159D01*
X1094206Y922517D01*
X1094335Y922552D01*
X1094476Y922599D01*
X1094640Y922658D01*
X1094805Y922740D01*
X1094957Y922834D01*
X1095086Y922951D01*
X1095098Y922963D01*
X1095133Y923010D01*
X1095180Y923092D01*
X1095227Y923186D01*
X1095286Y923315D01*
X1095333Y923468D01*
X1095368Y923644D01*
X1095379Y923831D01*
Y923913D01*
X1095368Y923996D01*
X1095356Y924101D01*
X1095333Y924230D01*
X1095297Y924360D01*
X1095250Y924500D01*
X1095180Y924629D01*
X1095168Y924641D01*
X1095145Y924688D01*
X1095098Y924759D01*
X1095027Y924829D01*
X1094945Y924923D01*
X1094852Y925017D01*
X1094746Y925110D01*
X1094617Y925204D01*
X1094605Y925216D01*
X1094546Y925240D01*
X1094464Y925286D01*
X1094359Y925333D01*
X1094218Y925392D01*
X1094053Y925451D01*
X1093866Y925509D01*
X1093654Y925568D01*
X1093643D01*
X1093631Y925580D01*
X1093596D01*
X1093549Y925592D01*
X1093432Y925615D01*
X1093279Y925650D01*
X1093091Y925674D01*
X1092892Y925697D01*
X1092669Y925709D01*
X1092434Y925721D01*
X1092422D01*
X1092387D01*
X1092328D01*
X1092235D01*
X1092258Y925709D01*
X1092317Y925662D01*
X1092399Y925592D01*
X1092516Y925509D01*
X1092634Y925392D01*
X1092763Y925251D01*
X1092892Y925087D01*
X1093009Y924899D01*
X1093021Y924876D01*
X1093056Y924805D01*
X1093103Y924700D01*
X1093150Y924571D01*
X1093209Y924395D01*
X1093255Y924207D01*
X1093291Y923996D01*
X1093303Y923773D01*
Y923679D01*
X1093291Y923608D01*
X1093279Y923515D01*
X1093267Y923421D01*
X1093244Y923303D01*
X1093209Y923186D01*
X1093127Y922916D01*
X1093068Y922775D01*
X1092997Y922635D01*
X1092915Y922482D01*
X1092810Y922341D01*
X1092704Y922200D01*
X1092575Y922071D01*
X1092563Y922059D01*
X1092540Y922036D01*
X1092505Y922012D01*
X1092446Y921966D01*
X1092364Y921907D01*
X1092282Y921848D01*
X1092176Y921789D01*
X1092059Y921731D01*
X1091929Y921661D01*
X1091789Y921602D01*
X1091624Y921543D01*
X1091460Y921484D01*
X1091272Y921438D01*
X1091073Y921414D01*
X1090873Y921391D01*
X1090650Y921379D01*
X1090639D01*
X1090592D01*
X1090533D01*
X1090451Y921391D01*
X1090345Y921402D01*
X1090216Y921414D01*
X1090087Y921438D01*
X1089935Y921473D01*
X1089630Y921555D01*
X1089465Y921613D01*
X1089289Y921684D01*
X1089125Y921766D01*
X1088972Y921872D01*
X1088808Y921977D01*
X1088667Y922106D01*
X1088655Y922118D01*
X1088632Y922142D01*
X1088597Y922177D01*
X1088550Y922235D01*
X1088491Y922306D01*
X1088421Y922400D01*
X1088362Y922494D01*
X1088280Y922611D01*
X1088210Y922728D01*
X1088151Y922869D01*
X1088022Y923186D01*
X1087975Y923350D01*
X1087940Y923538D01*
X1087916Y923726D01*
X1087905Y923925D01*
Y924007D01*
X1087916Y924066D01*
Y924125D01*
X1087928Y924207D01*
X1087963Y924406D01*
X1088010Y924629D01*
X1088092Y924876D01*
X1088198Y925122D01*
X1088339Y925369D01*
Y925380D01*
X1088362Y925392D01*
X1088386Y925427D01*
X1088421Y925474D01*
X1088515Y925592D01*
X1088644Y925744D01*
X1088820Y925897D01*
X1089031Y926073D01*
X1089277Y926225D01*
X1089559Y926366D01*
X1089571D01*
X1089594Y926378D01*
X1089641Y926401D01*
X1089700Y926425D01*
X1089782Y926448D01*
X1089888Y926484D01*
X1090005Y926507D01*
X1090134Y926542D01*
X1090287Y926577D01*
X1090463Y926612D01*
X1090650Y926636D01*
X1090850Y926659D01*
X1091073Y926683D01*
X1091308Y926706D01*
X1091566Y926718D01*
X1091836D01*
X1091847D01*
X1091906D01*
X1091988D01*
X1092094D01*
X1092223Y926706D01*
D02*
G37*
G36*
X1093549Y920452D02*
X1093619Y920428D01*
X1093713Y920393D01*
X1093819Y920358D01*
X1093948Y920311D01*
X1094089Y920252D01*
X1094241Y920182D01*
X1094570Y920018D01*
X1094898Y919806D01*
X1095063Y919677D01*
X1095227Y919548D01*
X1095368Y919407D01*
X1095509Y919243D01*
X1095520Y919231D01*
X1095544Y919208D01*
X1095567Y919149D01*
X1095614Y919090D01*
X1095673Y918997D01*
X1095732Y918903D01*
X1095790Y918774D01*
X1095849Y918645D01*
X1095919Y918492D01*
X1095978Y918328D01*
X1096037Y918152D01*
X1096095Y917964D01*
X1096142Y917765D01*
X1096166Y917553D01*
X1096189Y917330D01*
X1096201Y917096D01*
Y916966D01*
X1096189Y916873D01*
Y916767D01*
X1096178Y916638D01*
X1096154Y916497D01*
X1096131Y916333D01*
X1096072Y915993D01*
X1095978Y915640D01*
X1095849Y915288D01*
X1095767Y915124D01*
X1095673Y914960D01*
X1095661Y914948D01*
X1095649Y914925D01*
X1095614Y914878D01*
X1095567Y914831D01*
X1095520Y914760D01*
X1095450Y914678D01*
X1095368Y914584D01*
X1095274Y914491D01*
X1095168Y914397D01*
X1095063Y914291D01*
X1094793Y914080D01*
X1094476Y913880D01*
X1094124Y913704D01*
X1094112D01*
X1094077Y913681D01*
X1094018Y913669D01*
X1093948Y913634D01*
X1093854Y913610D01*
X1093737Y913575D01*
X1093608Y913528D01*
X1093467Y913493D01*
X1093314Y913458D01*
X1093138Y913411D01*
X1092774Y913352D01*
X1092364Y913305D01*
X1091941Y913282D01*
X1091929D01*
X1091883D01*
X1091812D01*
X1091730Y913294D01*
X1091613D01*
X1091495Y913305D01*
X1091343Y913317D01*
X1091190Y913341D01*
X1090850Y913399D01*
X1090474Y913481D01*
X1090099Y913599D01*
X1089735Y913763D01*
X1089723Y913775D01*
X1089688Y913786D01*
X1089641Y913810D01*
X1089583Y913857D01*
X1089500Y913904D01*
X1089407Y913962D01*
X1089195Y914115D01*
X1088961Y914314D01*
X1088726Y914549D01*
X1088491Y914819D01*
X1088292Y915136D01*
X1088280Y915148D01*
X1088268Y915183D01*
X1088245Y915230D01*
X1088210Y915288D01*
X1088174Y915382D01*
X1088139Y915476D01*
X1088092Y915594D01*
X1088045Y915723D01*
X1087998Y915863D01*
X1087951Y916016D01*
X1087881Y916345D01*
X1087822Y916720D01*
X1087799Y917107D01*
Y917225D01*
X1087811Y917307D01*
X1087822Y917412D01*
X1087834Y917542D01*
X1087846Y917671D01*
X1087881Y917823D01*
X1087951Y918140D01*
X1088057Y918492D01*
X1088127Y918668D01*
X1088210Y918832D01*
X1088315Y918997D01*
X1088421Y919161D01*
X1088432Y919173D01*
X1088444Y919196D01*
X1088480Y919243D01*
X1088538Y919302D01*
X1088597Y919360D01*
X1088679Y919443D01*
X1088773Y919525D01*
X1088867Y919619D01*
X1088984Y919713D01*
X1089125Y919806D01*
X1089266Y919912D01*
X1089418Y920006D01*
X1089594Y920088D01*
X1089770Y920182D01*
X1089958Y920252D01*
X1090169Y920323D01*
X1090416Y919267D01*
X1090404D01*
X1090380Y919255D01*
X1090334Y919231D01*
X1090275Y919208D01*
X1090204Y919184D01*
X1090111Y919149D01*
X1089923Y919055D01*
X1089712Y918938D01*
X1089500Y918797D01*
X1089301Y918621D01*
X1089125Y918433D01*
X1089101Y918410D01*
X1089054Y918339D01*
X1088996Y918222D01*
X1088914Y918070D01*
X1088843Y917870D01*
X1088773Y917647D01*
X1088726Y917377D01*
X1088714Y917084D01*
Y916990D01*
X1088726Y916931D01*
Y916849D01*
X1088738Y916755D01*
X1088773Y916532D01*
X1088820Y916286D01*
X1088902Y916028D01*
X1089019Y915758D01*
X1089172Y915511D01*
Y915500D01*
X1089195Y915488D01*
X1089254Y915406D01*
X1089348Y915300D01*
X1089489Y915171D01*
X1089665Y915019D01*
X1089864Y914878D01*
X1090111Y914749D01*
X1090380Y914631D01*
X1090392D01*
X1090416Y914620D01*
X1090451Y914608D01*
X1090510Y914596D01*
X1090580Y914573D01*
X1090662Y914549D01*
X1090862Y914514D01*
X1091096Y914467D01*
X1091355Y914420D01*
X1091636Y914397D01*
X1091941Y914385D01*
X1091953D01*
X1091988D01*
X1092047D01*
X1092117D01*
X1092199Y914397D01*
X1092305D01*
X1092422Y914408D01*
X1092551Y914420D01*
X1092833Y914455D01*
X1093138Y914514D01*
X1093443Y914584D01*
X1093748Y914678D01*
X1093760D01*
X1093784Y914690D01*
X1093819Y914714D01*
X1093877Y914737D01*
X1094018Y914807D01*
X1094183Y914913D01*
X1094370Y915042D01*
X1094570Y915206D01*
X1094746Y915394D01*
X1094910Y915617D01*
Y915629D01*
X1094922Y915652D01*
X1094945Y915687D01*
X1094969Y915734D01*
X1094992Y915793D01*
X1095027Y915863D01*
X1095098Y916028D01*
X1095168Y916239D01*
X1095227Y916474D01*
X1095274Y916732D01*
X1095286Y917002D01*
Y917084D01*
X1095274Y917154D01*
Y917236D01*
X1095262Y917319D01*
X1095215Y917530D01*
X1095157Y917776D01*
X1095063Y918023D01*
X1094934Y918281D01*
X1094863Y918410D01*
X1094769Y918527D01*
X1094758Y918539D01*
X1094746Y918551D01*
X1094711Y918586D01*
X1094676Y918633D01*
X1094617Y918680D01*
X1094546Y918738D01*
X1094476Y918809D01*
X1094382Y918868D01*
X1094277Y918938D01*
X1094159Y919020D01*
X1094042Y919090D01*
X1093901Y919161D01*
X1093748Y919220D01*
X1093584Y919278D01*
X1093408Y919337D01*
X1093220Y919384D01*
X1093490Y920463D01*
X1093502D01*
X1093549Y920452D01*
D02*
G37*
G36*
X823913Y1072994D02*
Y1072982D01*
Y1072947D01*
Y1072900D01*
Y1072830D01*
X823901Y1072736D01*
Y1072642D01*
X823878Y1072419D01*
X823855Y1072161D01*
X823808Y1071891D01*
X823737Y1071645D01*
X823655Y1071410D01*
Y1071398D01*
X823643Y1071387D01*
X823608Y1071316D01*
X823549Y1071222D01*
X823467Y1071093D01*
X823350Y1070964D01*
X823221Y1070823D01*
X823056Y1070683D01*
X822869Y1070565D01*
X822845Y1070553D01*
X822775Y1070518D01*
X822669Y1070471D01*
X822517Y1070424D01*
X822329Y1070366D01*
X822118Y1070319D01*
X821883Y1070284D01*
X821625Y1070272D01*
X821519D01*
X821449Y1070284D01*
X821355Y1070295D01*
X821261Y1070307D01*
X821015Y1070354D01*
X820757Y1070424D01*
X820487Y1070530D01*
X820346Y1070600D01*
X820217Y1070683D01*
X820099Y1070776D01*
X819982Y1070882D01*
X819970Y1070894D01*
X819958Y1070905D01*
X819935Y1070952D01*
X819900Y1070999D01*
X819853Y1071058D01*
X819806Y1071140D01*
X819759Y1071234D01*
X819700Y1071340D01*
X819653Y1071457D01*
X819606Y1071598D01*
X819559Y1071739D01*
X819513Y1071903D01*
X819489Y1072079D01*
X819454Y1072278D01*
X819442Y1072478D01*
Y1072701D01*
X820416Y1072842D01*
Y1072830D01*
Y1072806D01*
Y1072759D01*
X820428Y1072689D01*
X820440Y1072619D01*
Y1072537D01*
X820475Y1072337D01*
X820510Y1072126D01*
X820581Y1071915D01*
X820651Y1071727D01*
X820698Y1071645D01*
X820757Y1071574D01*
X820768Y1071563D01*
X820815Y1071527D01*
X820886Y1071469D01*
X820980Y1071410D01*
X821108Y1071340D01*
X821249Y1071293D01*
X821425Y1071246D01*
X821613Y1071234D01*
X821684D01*
X821754Y1071246D01*
X821860Y1071257D01*
X821965Y1071281D01*
X822083Y1071304D01*
X822200Y1071351D01*
X822317Y1071410D01*
X822329Y1071422D01*
X822364Y1071445D01*
X822411Y1071492D01*
X822482Y1071539D01*
X822540Y1071621D01*
X822611Y1071703D01*
X822669Y1071797D01*
X822716Y1071915D01*
Y1071926D01*
X822740Y1071973D01*
X822751Y1072055D01*
X822775Y1072161D01*
X822798Y1072302D01*
X822810Y1072478D01*
X822834Y1072689D01*
Y1072935D01*
Y1078533D01*
X823913D01*
Y1072994D01*
D02*
G37*
G36*
X829018Y1070413D02*
X828020D01*
Y1076761D01*
X828009Y1076749D01*
X827950Y1076702D01*
X827879Y1076632D01*
X827762Y1076550D01*
X827633Y1076444D01*
X827469Y1076327D01*
X827281Y1076198D01*
X827070Y1076069D01*
X827058D01*
X827046Y1076057D01*
X826976Y1076010D01*
X826859Y1075951D01*
X826718Y1075881D01*
X826553Y1075799D01*
X826377Y1075717D01*
X826201Y1075635D01*
X826025Y1075564D01*
Y1076526D01*
X826037D01*
X826061Y1076550D01*
X826108Y1076562D01*
X826166Y1076597D01*
X826237Y1076632D01*
X826319Y1076679D01*
X826518Y1076796D01*
X826753Y1076925D01*
X826988Y1077090D01*
X827234Y1077277D01*
X827480Y1077477D01*
X827492Y1077489D01*
X827504Y1077500D01*
X827539Y1077536D01*
X827586Y1077571D01*
X827692Y1077688D01*
X827833Y1077829D01*
X827973Y1077993D01*
X828126Y1078181D01*
X828255Y1078369D01*
X828372Y1078568D01*
X829018D01*
Y1070413D01*
D02*
G37*
G36*
X947919Y1078557D02*
X948072Y1078533D01*
X948260Y1078498D01*
X948471Y1078439D01*
X948682Y1078369D01*
X948893Y1078275D01*
X948905D01*
X948917Y1078263D01*
X948987Y1078228D01*
X949093Y1078158D01*
X949210Y1078075D01*
X949351Y1077958D01*
X949492Y1077829D01*
X949633Y1077676D01*
X949750Y1077500D01*
X949762Y1077477D01*
X949797Y1077418D01*
X949844Y1077313D01*
X949902Y1077184D01*
X949961Y1077031D01*
X950008Y1076855D01*
X950043Y1076656D01*
X950055Y1076456D01*
Y1076432D01*
Y1076362D01*
X950043Y1076268D01*
X950020Y1076139D01*
X949985Y1075987D01*
X949926Y1075822D01*
X949856Y1075658D01*
X949762Y1075494D01*
X949750Y1075470D01*
X949715Y1075423D01*
X949644Y1075341D01*
X949550Y1075247D01*
X949433Y1075142D01*
X949292Y1075024D01*
X949128Y1074919D01*
X948929Y1074813D01*
X948940D01*
X948964Y1074801D01*
X948999Y1074790D01*
X949046Y1074778D01*
X949175Y1074731D01*
X949339Y1074661D01*
X949527Y1074567D01*
X949715Y1074449D01*
X949891Y1074297D01*
X950055Y1074121D01*
X950067Y1074097D01*
X950114Y1074027D01*
X950184Y1073910D01*
X950255Y1073757D01*
X950325Y1073569D01*
X950395Y1073346D01*
X950442Y1073088D01*
X950454Y1072806D01*
Y1072795D01*
Y1072759D01*
Y1072701D01*
X950442Y1072630D01*
X950431Y1072537D01*
X950407Y1072431D01*
X950384Y1072314D01*
X950360Y1072185D01*
X950266Y1071903D01*
X950196Y1071750D01*
X950126Y1071609D01*
X950032Y1071457D01*
X949926Y1071304D01*
X949809Y1071152D01*
X949668Y1071011D01*
X949656Y1070999D01*
X949633Y1070976D01*
X949586Y1070941D01*
X949527Y1070894D01*
X949457Y1070835D01*
X949363Y1070776D01*
X949257Y1070706D01*
X949128Y1070647D01*
X948999Y1070577D01*
X948846Y1070506D01*
X948694Y1070448D01*
X948518Y1070389D01*
X948330Y1070342D01*
X948130Y1070307D01*
X947931Y1070284D01*
X947708Y1070272D01*
X947602D01*
X947532Y1070284D01*
X947438Y1070295D01*
X947333Y1070307D01*
X947215Y1070330D01*
X947086Y1070354D01*
X946805Y1070424D01*
X946511Y1070542D01*
X946359Y1070612D01*
X946218Y1070694D01*
X946077Y1070800D01*
X945936Y1070905D01*
X945924Y1070917D01*
X945901Y1070941D01*
X945866Y1070976D01*
X945831Y1071023D01*
X945772Y1071081D01*
X945713Y1071164D01*
X945643Y1071246D01*
X945572Y1071351D01*
X945502Y1071469D01*
X945432Y1071586D01*
X945303Y1071868D01*
X945197Y1072196D01*
X945162Y1072372D01*
X945138Y1072560D01*
X946136Y1072689D01*
Y1072677D01*
X946147Y1072654D01*
X946159Y1072607D01*
X946171Y1072548D01*
X946183Y1072478D01*
X946206Y1072396D01*
X946265Y1072220D01*
X946347Y1072009D01*
X946452Y1071809D01*
X946570Y1071621D01*
X946711Y1071457D01*
X946734Y1071445D01*
X946781Y1071398D01*
X946875Y1071340D01*
X946992Y1071281D01*
X947133Y1071210D01*
X947309Y1071152D01*
X947509Y1071105D01*
X947720Y1071093D01*
X947790D01*
X947837Y1071105D01*
X947966Y1071117D01*
X948130Y1071152D01*
X948318Y1071210D01*
X948518Y1071293D01*
X948717Y1071410D01*
X948905Y1071574D01*
X948929Y1071598D01*
X948987Y1071668D01*
X949058Y1071774D01*
X949152Y1071915D01*
X949245Y1072091D01*
X949316Y1072290D01*
X949374Y1072525D01*
X949398Y1072783D01*
Y1072795D01*
Y1072818D01*
Y1072853D01*
X949386Y1072900D01*
X949374Y1073029D01*
X949339Y1073182D01*
X949292Y1073370D01*
X949210Y1073558D01*
X949093Y1073745D01*
X948940Y1073921D01*
X948917Y1073945D01*
X948858Y1073992D01*
X948764Y1074062D01*
X948635Y1074144D01*
X948471Y1074226D01*
X948271Y1074297D01*
X948048Y1074344D01*
X947802Y1074367D01*
X947696D01*
X947614Y1074355D01*
X947509Y1074344D01*
X947391Y1074320D01*
X947250Y1074297D01*
X947098Y1074262D01*
X947215Y1075142D01*
X947274D01*
X947321Y1075130D01*
X947473D01*
X947602Y1075153D01*
X947755Y1075177D01*
X947931Y1075212D01*
X948130Y1075271D01*
X948318Y1075353D01*
X948518Y1075459D01*
X948530D01*
X948541Y1075470D01*
X948600Y1075517D01*
X948682Y1075599D01*
X948776Y1075705D01*
X948870Y1075857D01*
X948952Y1076033D01*
X949011Y1076233D01*
X949034Y1076350D01*
Y1076479D01*
Y1076491D01*
Y1076503D01*
Y1076573D01*
X949011Y1076667D01*
X948987Y1076796D01*
X948940Y1076937D01*
X948882Y1077090D01*
X948788Y1077242D01*
X948659Y1077383D01*
X948647Y1077395D01*
X948588Y1077442D01*
X948506Y1077500D01*
X948400Y1077571D01*
X948260Y1077629D01*
X948095Y1077688D01*
X947908Y1077735D01*
X947696Y1077747D01*
X947602D01*
X947497Y1077723D01*
X947356Y1077700D01*
X947204Y1077653D01*
X947051Y1077594D01*
X946887Y1077500D01*
X946734Y1077383D01*
X946722Y1077371D01*
X946675Y1077313D01*
X946605Y1077231D01*
X946523Y1077113D01*
X946441Y1076961D01*
X946359Y1076773D01*
X946288Y1076550D01*
X946241Y1076292D01*
X945244Y1076468D01*
Y1076479D01*
X945256Y1076515D01*
X945267Y1076562D01*
X945279Y1076632D01*
X945303Y1076714D01*
X945338Y1076808D01*
X945408Y1077031D01*
X945525Y1077289D01*
X945666Y1077547D01*
X945842Y1077794D01*
X946065Y1078017D01*
X946077Y1078028D01*
X946100Y1078040D01*
X946136Y1078064D01*
X946183Y1078099D01*
X946241Y1078146D01*
X946323Y1078193D01*
X946405Y1078240D01*
X946511Y1078298D01*
X946746Y1078392D01*
X947016Y1078486D01*
X947333Y1078545D01*
X947497Y1078568D01*
X947790D01*
X947919Y1078557D01*
D02*
G37*
G36*
X943777Y1072994D02*
Y1072982D01*
Y1072947D01*
Y1072900D01*
Y1072830D01*
X943765Y1072736D01*
Y1072642D01*
X943742Y1072419D01*
X943718Y1072161D01*
X943671Y1071891D01*
X943601Y1071645D01*
X943519Y1071410D01*
Y1071398D01*
X943507Y1071387D01*
X943472Y1071316D01*
X943413Y1071222D01*
X943331Y1071093D01*
X943214Y1070964D01*
X943085Y1070823D01*
X942920Y1070683D01*
X942732Y1070565D01*
X942709Y1070553D01*
X942639Y1070518D01*
X942533Y1070471D01*
X942381Y1070424D01*
X942193Y1070366D01*
X941982Y1070319D01*
X941747Y1070284D01*
X941489Y1070272D01*
X941383D01*
X941313Y1070284D01*
X941219Y1070295D01*
X941125Y1070307D01*
X940878Y1070354D01*
X940620Y1070424D01*
X940350Y1070530D01*
X940210Y1070600D01*
X940080Y1070683D01*
X939963Y1070776D01*
X939846Y1070882D01*
X939834Y1070894D01*
X939822Y1070905D01*
X939799Y1070952D01*
X939764Y1070999D01*
X939717Y1071058D01*
X939670Y1071140D01*
X939623Y1071234D01*
X939564Y1071340D01*
X939517Y1071457D01*
X939470Y1071598D01*
X939423Y1071739D01*
X939376Y1071903D01*
X939353Y1072079D01*
X939318Y1072278D01*
X939306Y1072478D01*
Y1072701D01*
X940280Y1072842D01*
Y1072830D01*
Y1072806D01*
Y1072759D01*
X940292Y1072689D01*
X940303Y1072619D01*
Y1072537D01*
X940339Y1072337D01*
X940374Y1072126D01*
X940444Y1071915D01*
X940515Y1071727D01*
X940562Y1071645D01*
X940620Y1071574D01*
X940632Y1071563D01*
X940679Y1071527D01*
X940749Y1071469D01*
X940843Y1071410D01*
X940972Y1071340D01*
X941113Y1071293D01*
X941289Y1071246D01*
X941477Y1071234D01*
X941547D01*
X941618Y1071246D01*
X941723Y1071257D01*
X941829Y1071281D01*
X941946Y1071304D01*
X942064Y1071351D01*
X942181Y1071410D01*
X942193Y1071422D01*
X942228Y1071445D01*
X942275Y1071492D01*
X942345Y1071539D01*
X942404Y1071621D01*
X942474Y1071703D01*
X942533Y1071797D01*
X942580Y1071915D01*
Y1071926D01*
X942603Y1071973D01*
X942615Y1072055D01*
X942639Y1072161D01*
X942662Y1072302D01*
X942674Y1072478D01*
X942697Y1072689D01*
Y1072935D01*
Y1078533D01*
X943777D01*
Y1072994D01*
D02*
G37*
G36*
X1112042Y1059453D02*
X1113990D01*
Y1058456D01*
X1112042D01*
Y1054924D01*
X1111126D01*
X1105869Y1058644D01*
Y1059453D01*
X1111126D01*
Y1060556D01*
X1112042D01*
Y1059453D01*
D02*
G37*
G36*
X1111666Y1053903D02*
X1111760D01*
X1111983Y1053879D01*
X1112241Y1053856D01*
X1112511Y1053809D01*
X1112758Y1053738D01*
X1112992Y1053656D01*
X1113004D01*
X1113016Y1053645D01*
X1113086Y1053609D01*
X1113180Y1053551D01*
X1113309Y1053469D01*
X1113438Y1053351D01*
X1113579Y1053222D01*
X1113720Y1053058D01*
X1113837Y1052870D01*
X1113849Y1052847D01*
X1113884Y1052776D01*
X1113931Y1052671D01*
X1113978Y1052518D01*
X1114037Y1052330D01*
X1114084Y1052119D01*
X1114119Y1051884D01*
X1114131Y1051626D01*
Y1051521D01*
X1114119Y1051450D01*
X1114107Y1051356D01*
X1114095Y1051263D01*
X1114048Y1051016D01*
X1113978Y1050758D01*
X1113872Y1050488D01*
X1113802Y1050347D01*
X1113720Y1050218D01*
X1113626Y1050101D01*
X1113520Y1049983D01*
X1113509Y1049972D01*
X1113497Y1049960D01*
X1113450Y1049936D01*
X1113403Y1049901D01*
X1113344Y1049854D01*
X1113262Y1049807D01*
X1113168Y1049760D01*
X1113063Y1049702D01*
X1112945Y1049655D01*
X1112805Y1049608D01*
X1112664Y1049561D01*
X1112499Y1049514D01*
X1112324Y1049491D01*
X1112124Y1049455D01*
X1111925Y1049444D01*
X1111702D01*
X1111561Y1050418D01*
X1111572D01*
X1111596D01*
X1111643D01*
X1111713Y1050429D01*
X1111784Y1050441D01*
X1111866D01*
X1112065Y1050476D01*
X1112277Y1050511D01*
X1112488Y1050582D01*
X1112675Y1050652D01*
X1112758Y1050699D01*
X1112828Y1050758D01*
X1112840Y1050770D01*
X1112875Y1050816D01*
X1112934Y1050887D01*
X1112992Y1050981D01*
X1113063Y1051110D01*
X1113110Y1051251D01*
X1113157Y1051427D01*
X1113168Y1051615D01*
Y1051685D01*
X1113157Y1051755D01*
X1113145Y1051861D01*
X1113121Y1051967D01*
X1113098Y1052084D01*
X1113051Y1052201D01*
X1112992Y1052319D01*
X1112981Y1052330D01*
X1112957Y1052365D01*
X1112910Y1052412D01*
X1112863Y1052483D01*
X1112781Y1052542D01*
X1112699Y1052612D01*
X1112605Y1052671D01*
X1112488Y1052718D01*
X1112476D01*
X1112429Y1052741D01*
X1112347Y1052753D01*
X1112241Y1052776D01*
X1112101Y1052800D01*
X1111925Y1052812D01*
X1111713Y1052835D01*
X1111467D01*
X1105869D01*
Y1053914D01*
X1111408D01*
X1111420D01*
X1111455D01*
X1111502D01*
X1111572D01*
X1111666Y1053903D01*
D02*
G37*
G36*
X1095814Y1035281D02*
X1089465D01*
X1089477Y1035269D01*
X1089524Y1035210D01*
X1089594Y1035140D01*
X1089676Y1035023D01*
X1089782Y1034893D01*
X1089899Y1034729D01*
X1090029Y1034541D01*
X1090158Y1034330D01*
Y1034318D01*
X1090169Y1034307D01*
X1090216Y1034236D01*
X1090275Y1034119D01*
X1090345Y1033978D01*
X1090427Y1033814D01*
X1090510Y1033638D01*
X1090592Y1033462D01*
X1090662Y1033286D01*
X1089700D01*
Y1033298D01*
X1089676Y1033321D01*
X1089665Y1033368D01*
X1089630Y1033427D01*
X1089594Y1033497D01*
X1089547Y1033579D01*
X1089430Y1033779D01*
X1089301Y1034013D01*
X1089137Y1034248D01*
X1088949Y1034494D01*
X1088749Y1034741D01*
X1088738Y1034753D01*
X1088726Y1034764D01*
X1088691Y1034799D01*
X1088655Y1034846D01*
X1088538Y1034952D01*
X1088397Y1035093D01*
X1088233Y1035234D01*
X1088045Y1035386D01*
X1087858Y1035515D01*
X1087658Y1035633D01*
Y1036278D01*
X1095814D01*
Y1035281D01*
D02*
G37*
G36*
X1096447Y1031326D02*
Y1031314D01*
X1096436Y1031291D01*
X1096412Y1031244D01*
X1096389Y1031173D01*
X1096354Y1031091D01*
X1096307Y1030997D01*
X1096260Y1030892D01*
X1096201Y1030775D01*
X1096060Y1030516D01*
X1095896Y1030223D01*
X1095685Y1029906D01*
X1095450Y1029577D01*
Y1029566D01*
X1095473Y1029542D01*
X1095497Y1029484D01*
X1095532Y1029425D01*
X1095567Y1029331D01*
X1095614Y1029237D01*
X1095649Y1029120D01*
X1095696Y1028991D01*
X1095743Y1028850D01*
X1095790Y1028697D01*
X1095872Y1028357D01*
X1095931Y1027982D01*
X1095943Y1027782D01*
X1095955Y1027583D01*
Y1027477D01*
X1095943Y1027395D01*
Y1027301D01*
X1095931Y1027184D01*
X1095908Y1027055D01*
X1095884Y1026914D01*
X1095826Y1026609D01*
X1095732Y1026268D01*
X1095602Y1025916D01*
X1095520Y1025752D01*
X1095426Y1025576D01*
X1095415Y1025564D01*
X1095403Y1025541D01*
X1095368Y1025494D01*
X1095333Y1025435D01*
X1095274Y1025353D01*
X1095203Y1025271D01*
X1095039Y1025071D01*
X1094828Y1024848D01*
X1094570Y1024625D01*
X1094277Y1024402D01*
X1093936Y1024203D01*
X1093924D01*
X1093889Y1024180D01*
X1093842Y1024156D01*
X1093772Y1024133D01*
X1093678Y1024097D01*
X1093572Y1024051D01*
X1093443Y1024004D01*
X1093303Y1023968D01*
X1093150Y1023921D01*
X1092986Y1023874D01*
X1092810Y1023839D01*
X1092610Y1023792D01*
X1092199Y1023745D01*
X1091765Y1023722D01*
X1091753D01*
X1091707D01*
X1091648D01*
X1091566Y1023734D01*
X1091460D01*
X1091331Y1023745D01*
X1091190Y1023757D01*
X1091038Y1023781D01*
X1090697Y1023839D01*
X1090334Y1023921D01*
X1089946Y1024039D01*
X1089571Y1024203D01*
X1089559Y1024215D01*
X1089524Y1024227D01*
X1089477Y1024250D01*
X1089407Y1024297D01*
X1089324Y1024344D01*
X1089230Y1024402D01*
X1089008Y1024567D01*
X1088773Y1024754D01*
X1088526Y1025001D01*
X1088280Y1025271D01*
X1088069Y1025588D01*
X1088057Y1025599D01*
X1088045Y1025635D01*
X1088022Y1025682D01*
X1087987Y1025752D01*
X1087951Y1025834D01*
X1087905Y1025928D01*
X1087858Y1026045D01*
X1087811Y1026174D01*
X1087764Y1026327D01*
X1087717Y1026480D01*
X1087635Y1026820D01*
X1087576Y1027195D01*
X1087552Y1027395D01*
Y1027712D01*
X1087564Y1027794D01*
Y1027899D01*
X1087576Y1028005D01*
X1087599Y1028146D01*
X1087623Y1028287D01*
X1087682Y1028592D01*
X1087775Y1028944D01*
X1087916Y1029284D01*
X1087998Y1029460D01*
X1088092Y1029636D01*
X1088104Y1029648D01*
X1088116Y1029671D01*
X1088151Y1029718D01*
X1088186Y1029789D01*
X1088245Y1029859D01*
X1088315Y1029953D01*
X1088480Y1030153D01*
X1088691Y1030364D01*
X1088949Y1030599D01*
X1089254Y1030821D01*
X1089594Y1031009D01*
X1089606D01*
X1089641Y1031033D01*
X1089688Y1031056D01*
X1089759Y1031080D01*
X1089853Y1031126D01*
X1089958Y1031162D01*
X1090087Y1031209D01*
X1090228Y1031256D01*
X1090380Y1031291D01*
X1090545Y1031338D01*
X1090721Y1031385D01*
X1090909Y1031420D01*
X1091319Y1031467D01*
X1091753Y1031490D01*
X1091765D01*
X1091800D01*
X1091847D01*
X1091918D01*
X1092012Y1031479D01*
X1092117D01*
X1092235Y1031467D01*
X1092352Y1031455D01*
X1092634Y1031420D01*
X1092939Y1031361D01*
X1093255Y1031291D01*
X1093561Y1031185D01*
X1093572D01*
X1093596Y1031173D01*
X1093643Y1031150D01*
X1093690Y1031126D01*
X1093760Y1031091D01*
X1093842Y1031056D01*
X1094030Y1030962D01*
X1094253Y1030833D01*
X1094488Y1030669D01*
X1094722Y1030481D01*
X1094957Y1030270D01*
Y1030282D01*
X1094981Y1030305D01*
X1095004Y1030340D01*
X1095039Y1030399D01*
X1095086Y1030458D01*
X1095133Y1030540D01*
X1095239Y1030716D01*
X1095368Y1030927D01*
X1095497Y1031162D01*
X1095602Y1031408D01*
X1095708Y1031643D01*
X1096447Y1031326D01*
D02*
G37*
G36*
X1030238Y1015374D02*
X1023889D01*
X1023901Y1015362D01*
X1023948Y1015304D01*
X1024018Y1015234D01*
X1024100Y1015116D01*
X1024206Y1014987D01*
X1024324Y1014823D01*
X1024453Y1014635D01*
X1024582Y1014424D01*
Y1014412D01*
X1024593Y1014400D01*
X1024640Y1014330D01*
X1024699Y1014212D01*
X1024769Y1014072D01*
X1024852Y1013907D01*
X1024934Y1013731D01*
X1025016Y1013555D01*
X1025086Y1013379D01*
X1024124D01*
Y1013391D01*
X1024100Y1013415D01*
X1024089Y1013462D01*
X1024054Y1013520D01*
X1024018Y1013591D01*
X1023971Y1013673D01*
X1023854Y1013872D01*
X1023725Y1014107D01*
X1023561Y1014342D01*
X1023373Y1014588D01*
X1023174Y1014835D01*
X1023162Y1014846D01*
X1023150Y1014858D01*
X1023115Y1014893D01*
X1023080Y1014940D01*
X1022962Y1015046D01*
X1022821Y1015186D01*
X1022657Y1015327D01*
X1022469Y1015480D01*
X1022282Y1015609D01*
X1022082Y1015726D01*
Y1016372D01*
X1030238D01*
Y1015374D01*
D02*
G37*
G36*
Y1010645D02*
X1028548Y1009577D01*
X1028536D01*
X1028513Y1009554D01*
X1028478Y1009530D01*
X1028431Y1009495D01*
X1028302Y1009413D01*
X1028137Y1009307D01*
X1027961Y1009178D01*
X1027774Y1009049D01*
X1027598Y1008920D01*
X1027433Y1008803D01*
X1027421Y1008791D01*
X1027374Y1008756D01*
X1027304Y1008697D01*
X1027222Y1008615D01*
X1027046Y1008439D01*
X1026964Y1008345D01*
X1026893Y1008251D01*
X1026882Y1008240D01*
X1026870Y1008216D01*
X1026846Y1008169D01*
X1026811Y1008099D01*
X1026776Y1008028D01*
X1026741Y1007946D01*
X1026682Y1007758D01*
Y1007747D01*
X1026670Y1007723D01*
Y1007676D01*
X1026659Y1007618D01*
X1026647Y1007535D01*
Y1007441D01*
X1026635Y1007312D01*
Y1005928D01*
X1030238D01*
Y1004848D01*
X1022117D01*
Y1008615D01*
X1022129Y1008709D01*
Y1008814D01*
X1022141Y1009061D01*
X1022176Y1009319D01*
X1022211Y1009601D01*
X1022270Y1009859D01*
X1022305Y1009988D01*
X1022340Y1010094D01*
Y1010105D01*
X1022352Y1010117D01*
X1022387Y1010188D01*
X1022434Y1010293D01*
X1022516Y1010422D01*
X1022622Y1010563D01*
X1022763Y1010716D01*
X1022927Y1010856D01*
X1023115Y1010997D01*
X1023127D01*
X1023138Y1011009D01*
X1023209Y1011056D01*
X1023326Y1011103D01*
X1023479Y1011173D01*
X1023655Y1011232D01*
X1023866Y1011291D01*
X1024089Y1011326D01*
X1024335Y1011338D01*
X1024347D01*
X1024370D01*
X1024417D01*
X1024476Y1011326D01*
X1024558D01*
X1024640Y1011314D01*
X1024840Y1011267D01*
X1025074Y1011197D01*
X1025321Y1011103D01*
X1025567Y1010962D01*
X1025685Y1010868D01*
X1025802Y1010774D01*
X1025814Y1010762D01*
X1025826Y1010751D01*
X1025861Y1010716D01*
X1025896Y1010669D01*
X1025943Y1010610D01*
X1025990Y1010539D01*
X1026049Y1010446D01*
X1026119Y1010352D01*
X1026178Y1010234D01*
X1026236Y1010105D01*
X1026307Y1009965D01*
X1026365Y1009812D01*
X1026412Y1009636D01*
X1026471Y1009460D01*
X1026506Y1009260D01*
X1026541Y1009049D01*
X1026553Y1009073D01*
X1026577Y1009120D01*
X1026624Y1009190D01*
X1026670Y1009284D01*
X1026799Y1009495D01*
X1026882Y1009601D01*
X1026952Y1009695D01*
X1026975Y1009718D01*
X1027034Y1009777D01*
X1027128Y1009871D01*
X1027245Y1009988D01*
X1027410Y1010117D01*
X1027586Y1010270D01*
X1027797Y1010422D01*
X1028032Y1010586D01*
X1030238Y1011983D01*
Y1010645D01*
D02*
G37*
G36*
X957848Y1041251D02*
X957836D01*
X957789D01*
X957719D01*
X957625Y1041262D01*
X957519Y1041274D01*
X957402Y1041298D01*
X957284Y1041321D01*
X957155Y1041368D01*
X957144D01*
X957132Y1041380D01*
X957062Y1041403D01*
X956956Y1041450D01*
X956815Y1041521D01*
X956651Y1041615D01*
X956463Y1041732D01*
X956275Y1041861D01*
X956076Y1042025D01*
X956064D01*
X956052Y1042049D01*
X955982Y1042107D01*
X955876Y1042213D01*
X955724Y1042365D01*
X955548Y1042542D01*
X955337Y1042765D01*
X955102Y1043034D01*
X954855Y1043328D01*
X954844Y1043339D01*
X954809Y1043386D01*
X954750Y1043457D01*
X954679Y1043539D01*
X954585Y1043645D01*
X954480Y1043774D01*
X954363Y1043903D01*
X954233Y1044055D01*
X953952Y1044349D01*
X953670Y1044642D01*
X953529Y1044783D01*
X953389Y1044912D01*
X953260Y1045029D01*
X953130Y1045123D01*
X953119D01*
X953107Y1045147D01*
X953072Y1045170D01*
X953025Y1045194D01*
X952896Y1045276D01*
X952743Y1045370D01*
X952555Y1045452D01*
X952356Y1045534D01*
X952133Y1045581D01*
X951922Y1045604D01*
X951910D01*
X951898D01*
X951828Y1045592D01*
X951711Y1045581D01*
X951581Y1045546D01*
X951417Y1045499D01*
X951253Y1045416D01*
X951088Y1045311D01*
X950924Y1045170D01*
X950901Y1045147D01*
X950854Y1045088D01*
X950795Y1045006D01*
X950713Y1044877D01*
X950643Y1044712D01*
X950572Y1044525D01*
X950525Y1044302D01*
X950514Y1044055D01*
Y1043985D01*
X950525Y1043938D01*
X950537Y1043797D01*
X950572Y1043633D01*
X950619Y1043457D01*
X950701Y1043257D01*
X950807Y1043070D01*
X950948Y1042894D01*
X950971Y1042870D01*
X951030Y1042823D01*
X951124Y1042753D01*
X951265Y1042682D01*
X951429Y1042600D01*
X951640Y1042530D01*
X951875Y1042483D01*
X952145Y1042459D01*
X952039Y1041438D01*
X952027D01*
X951992Y1041450D01*
X951934D01*
X951851Y1041462D01*
X951757Y1041485D01*
X951652Y1041509D01*
X951523Y1041544D01*
X951394Y1041579D01*
X951112Y1041673D01*
X950830Y1041814D01*
X950690Y1041896D01*
X950549Y1042002D01*
X950420Y1042107D01*
X950302Y1042225D01*
X950291Y1042236D01*
X950279Y1042260D01*
X950244Y1042295D01*
X950208Y1042354D01*
X950162Y1042424D01*
X950115Y1042506D01*
X950056Y1042600D01*
X949997Y1042718D01*
X949939Y1042847D01*
X949880Y1042987D01*
X949833Y1043140D01*
X949786Y1043304D01*
X949751Y1043480D01*
X949716Y1043668D01*
X949704Y1043867D01*
X949692Y1044079D01*
Y1044196D01*
X949704Y1044278D01*
X949716Y1044372D01*
X949727Y1044490D01*
X949751Y1044619D01*
X949774Y1044748D01*
X949856Y1045053D01*
X949974Y1045358D01*
X950044Y1045510D01*
X950126Y1045663D01*
X950232Y1045804D01*
X950349Y1045933D01*
X950361Y1045945D01*
X950373Y1045968D01*
X950420Y1045992D01*
X950467Y1046039D01*
X950525Y1046097D01*
X950607Y1046156D01*
X950690Y1046215D01*
X950795Y1046285D01*
X951018Y1046402D01*
X951300Y1046520D01*
X951441Y1046566D01*
X951605Y1046590D01*
X951769Y1046613D01*
X951945Y1046625D01*
X951969D01*
X952027D01*
X952121Y1046613D01*
X952250Y1046602D01*
X952391Y1046578D01*
X952555Y1046531D01*
X952731Y1046484D01*
X952907Y1046414D01*
X952931Y1046402D01*
X952990Y1046379D01*
X953083Y1046332D01*
X953213Y1046261D01*
X953353Y1046168D01*
X953529Y1046050D01*
X953705Y1045909D01*
X953905Y1045745D01*
X953928Y1045722D01*
X953999Y1045663D01*
X954057Y1045604D01*
X954116Y1045546D01*
X954186Y1045475D01*
X954280Y1045381D01*
X954374Y1045287D01*
X954480Y1045170D01*
X954597Y1045053D01*
X954726Y1044912D01*
X954855Y1044759D01*
X955008Y1044595D01*
X955161Y1044407D01*
X955325Y1044220D01*
X955337Y1044208D01*
X955360Y1044184D01*
X955395Y1044137D01*
X955442Y1044079D01*
X955513Y1044008D01*
X955583Y1043926D01*
X955735Y1043738D01*
X955912Y1043539D01*
X956088Y1043351D01*
X956240Y1043187D01*
X956299Y1043117D01*
X956357Y1043058D01*
X956369Y1043046D01*
X956404Y1043011D01*
X956451Y1042964D01*
X956522Y1042905D01*
X956604Y1042847D01*
X956686Y1042776D01*
X956886Y1042635D01*
Y1046637D01*
X957848D01*
Y1041251D01*
D02*
G37*
G36*
Y1039420D02*
X956158Y1038352D01*
X956146D01*
X956123Y1038329D01*
X956088Y1038305D01*
X956041Y1038270D01*
X955912Y1038188D01*
X955747Y1038082D01*
X955571Y1037953D01*
X955384Y1037824D01*
X955208Y1037695D01*
X955043Y1037578D01*
X955031Y1037566D01*
X954985Y1037531D01*
X954914Y1037472D01*
X954832Y1037390D01*
X954656Y1037214D01*
X954574Y1037120D01*
X954503Y1037026D01*
X954492Y1037014D01*
X954480Y1036991D01*
X954456Y1036944D01*
X954421Y1036874D01*
X954386Y1036803D01*
X954351Y1036721D01*
X954292Y1036533D01*
Y1036522D01*
X954280Y1036498D01*
Y1036451D01*
X954269Y1036393D01*
X954257Y1036310D01*
Y1036216D01*
X954245Y1036087D01*
Y1034703D01*
X957848D01*
Y1033623D01*
X949727D01*
Y1037390D01*
X949739Y1037484D01*
Y1037589D01*
X949751Y1037836D01*
X949786Y1038094D01*
X949821Y1038376D01*
X949880Y1038634D01*
X949915Y1038763D01*
X949950Y1038868D01*
Y1038880D01*
X949962Y1038892D01*
X949997Y1038962D01*
X950044Y1039068D01*
X950126Y1039197D01*
X950232Y1039338D01*
X950373Y1039491D01*
X950537Y1039631D01*
X950725Y1039772D01*
X950736D01*
X950748Y1039784D01*
X950819Y1039831D01*
X950936Y1039878D01*
X951088Y1039948D01*
X951265Y1040007D01*
X951476Y1040066D01*
X951699Y1040101D01*
X951945Y1040112D01*
X951957D01*
X951980D01*
X952027D01*
X952086Y1040101D01*
X952168D01*
X952250Y1040089D01*
X952450Y1040042D01*
X952684Y1039972D01*
X952931Y1039878D01*
X953177Y1039737D01*
X953295Y1039643D01*
X953412Y1039549D01*
X953424Y1039537D01*
X953436Y1039526D01*
X953471Y1039491D01*
X953506Y1039444D01*
X953553Y1039385D01*
X953600Y1039314D01*
X953659Y1039221D01*
X953729Y1039127D01*
X953788Y1039009D01*
X953846Y1038880D01*
X953917Y1038739D01*
X953975Y1038587D01*
X954022Y1038411D01*
X954081Y1038235D01*
X954116Y1038035D01*
X954151Y1037824D01*
X954163Y1037848D01*
X954186Y1037895D01*
X954233Y1037965D01*
X954280Y1038059D01*
X954409Y1038270D01*
X954492Y1038376D01*
X954562Y1038469D01*
X954585Y1038493D01*
X954644Y1038552D01*
X954738Y1038645D01*
X954855Y1038763D01*
X955020Y1038892D01*
X955196Y1039044D01*
X955407Y1039197D01*
X955642Y1039361D01*
X957848Y1040758D01*
Y1039420D01*
D02*
G37*
G36*
X1027950Y1046666D02*
X1028043Y1046655D01*
X1028149Y1046631D01*
X1028266Y1046608D01*
X1028395Y1046584D01*
X1028677Y1046490D01*
X1028830Y1046420D01*
X1028970Y1046349D01*
X1029123Y1046255D01*
X1029276Y1046150D01*
X1029428Y1046033D01*
X1029569Y1045892D01*
X1029581Y1045880D01*
X1029604Y1045857D01*
X1029639Y1045810D01*
X1029686Y1045751D01*
X1029745Y1045680D01*
X1029804Y1045587D01*
X1029874Y1045481D01*
X1029933Y1045352D01*
X1030003Y1045223D01*
X1030073Y1045070D01*
X1030132Y1044918D01*
X1030191Y1044742D01*
X1030238Y1044554D01*
X1030273Y1044354D01*
X1030296Y1044155D01*
X1030308Y1043932D01*
Y1043826D01*
X1030296Y1043756D01*
X1030285Y1043662D01*
X1030273Y1043557D01*
X1030250Y1043439D01*
X1030226Y1043310D01*
X1030156Y1043028D01*
X1030038Y1042735D01*
X1029968Y1042582D01*
X1029886Y1042442D01*
X1029780Y1042301D01*
X1029675Y1042160D01*
X1029663Y1042148D01*
X1029639Y1042125D01*
X1029604Y1042090D01*
X1029557Y1042055D01*
X1029499Y1041996D01*
X1029416Y1041937D01*
X1029334Y1041867D01*
X1029229Y1041796D01*
X1029111Y1041726D01*
X1028994Y1041656D01*
X1028712Y1041526D01*
X1028384Y1041421D01*
X1028208Y1041386D01*
X1028020Y1041362D01*
X1027891Y1042360D01*
X1027903D01*
X1027926Y1042371D01*
X1027973Y1042383D01*
X1028032Y1042395D01*
X1028102Y1042406D01*
X1028184Y1042430D01*
X1028360Y1042489D01*
X1028571Y1042571D01*
X1028771Y1042676D01*
X1028959Y1042794D01*
X1029123Y1042935D01*
X1029135Y1042958D01*
X1029182Y1043005D01*
X1029240Y1043099D01*
X1029299Y1043216D01*
X1029369Y1043357D01*
X1029428Y1043533D01*
X1029475Y1043733D01*
X1029487Y1043944D01*
Y1044014D01*
X1029475Y1044061D01*
X1029463Y1044190D01*
X1029428Y1044354D01*
X1029369Y1044542D01*
X1029287Y1044742D01*
X1029170Y1044941D01*
X1029006Y1045129D01*
X1028982Y1045153D01*
X1028912Y1045211D01*
X1028806Y1045282D01*
X1028665Y1045375D01*
X1028489Y1045469D01*
X1028290Y1045540D01*
X1028055Y1045598D01*
X1027797Y1045622D01*
X1027785D01*
X1027762D01*
X1027727D01*
X1027680Y1045610D01*
X1027551Y1045598D01*
X1027398Y1045563D01*
X1027210Y1045516D01*
X1027022Y1045434D01*
X1026835Y1045317D01*
X1026659Y1045164D01*
X1026635Y1045141D01*
X1026588Y1045082D01*
X1026518Y1044988D01*
X1026436Y1044859D01*
X1026354Y1044695D01*
X1026283Y1044495D01*
X1026236Y1044272D01*
X1026213Y1044026D01*
Y1043920D01*
X1026225Y1043838D01*
X1026236Y1043733D01*
X1026260Y1043615D01*
X1026283Y1043474D01*
X1026318Y1043322D01*
X1025438Y1043439D01*
Y1043498D01*
X1025450Y1043545D01*
Y1043697D01*
X1025426Y1043826D01*
X1025403Y1043979D01*
X1025368Y1044155D01*
X1025309Y1044354D01*
X1025227Y1044542D01*
X1025121Y1044742D01*
Y1044753D01*
X1025110Y1044765D01*
X1025063Y1044824D01*
X1024981Y1044906D01*
X1024875Y1045000D01*
X1024723Y1045094D01*
X1024546Y1045176D01*
X1024347Y1045235D01*
X1024230Y1045258D01*
X1024100D01*
X1024089D01*
X1024077D01*
X1024007D01*
X1023913Y1045235D01*
X1023784Y1045211D01*
X1023643Y1045164D01*
X1023490Y1045106D01*
X1023338Y1045012D01*
X1023197Y1044883D01*
X1023185Y1044871D01*
X1023138Y1044812D01*
X1023080Y1044730D01*
X1023009Y1044624D01*
X1022951Y1044484D01*
X1022892Y1044319D01*
X1022845Y1044131D01*
X1022833Y1043920D01*
Y1043826D01*
X1022857Y1043721D01*
X1022880Y1043580D01*
X1022927Y1043428D01*
X1022986Y1043275D01*
X1023080Y1043111D01*
X1023197Y1042958D01*
X1023209Y1042946D01*
X1023267Y1042899D01*
X1023350Y1042829D01*
X1023467Y1042747D01*
X1023619Y1042665D01*
X1023807Y1042582D01*
X1024030Y1042512D01*
X1024288Y1042465D01*
X1024112Y1041468D01*
X1024100D01*
X1024065Y1041479D01*
X1024018Y1041491D01*
X1023948Y1041503D01*
X1023866Y1041526D01*
X1023772Y1041562D01*
X1023549Y1041632D01*
X1023291Y1041749D01*
X1023033Y1041890D01*
X1022786Y1042066D01*
X1022563Y1042289D01*
X1022551Y1042301D01*
X1022540Y1042324D01*
X1022516Y1042360D01*
X1022481Y1042406D01*
X1022434Y1042465D01*
X1022387Y1042547D01*
X1022340Y1042629D01*
X1022282Y1042735D01*
X1022188Y1042970D01*
X1022094Y1043240D01*
X1022035Y1043557D01*
X1022012Y1043721D01*
Y1044014D01*
X1022023Y1044143D01*
X1022047Y1044296D01*
X1022082Y1044484D01*
X1022141Y1044695D01*
X1022211Y1044906D01*
X1022305Y1045117D01*
Y1045129D01*
X1022317Y1045141D01*
X1022352Y1045211D01*
X1022422Y1045317D01*
X1022505Y1045434D01*
X1022622Y1045575D01*
X1022751Y1045716D01*
X1022904Y1045857D01*
X1023080Y1045974D01*
X1023103Y1045986D01*
X1023162Y1046021D01*
X1023267Y1046068D01*
X1023396Y1046126D01*
X1023549Y1046185D01*
X1023725Y1046232D01*
X1023924Y1046267D01*
X1024124Y1046279D01*
X1024147D01*
X1024218D01*
X1024312Y1046267D01*
X1024441Y1046244D01*
X1024593Y1046209D01*
X1024758Y1046150D01*
X1024922Y1046079D01*
X1025086Y1045986D01*
X1025110Y1045974D01*
X1025157Y1045939D01*
X1025239Y1045868D01*
X1025333Y1045774D01*
X1025438Y1045657D01*
X1025556Y1045516D01*
X1025661Y1045352D01*
X1025767Y1045153D01*
Y1045164D01*
X1025779Y1045188D01*
X1025790Y1045223D01*
X1025802Y1045270D01*
X1025849Y1045399D01*
X1025919Y1045563D01*
X1026013Y1045751D01*
X1026131Y1045939D01*
X1026283Y1046115D01*
X1026459Y1046279D01*
X1026483Y1046291D01*
X1026553Y1046338D01*
X1026670Y1046408D01*
X1026823Y1046479D01*
X1027011Y1046549D01*
X1027234Y1046619D01*
X1027492Y1046666D01*
X1027774Y1046678D01*
X1027785D01*
X1027820D01*
X1027879D01*
X1027950Y1046666D01*
D02*
G37*
G36*
X1030167Y1039379D02*
X1028478Y1038311D01*
X1028466D01*
X1028442Y1038288D01*
X1028407Y1038264D01*
X1028360Y1038229D01*
X1028231Y1038147D01*
X1028067Y1038041D01*
X1027891Y1037912D01*
X1027703Y1037783D01*
X1027527Y1037654D01*
X1027363Y1037537D01*
X1027351Y1037525D01*
X1027304Y1037490D01*
X1027234Y1037431D01*
X1027152Y1037349D01*
X1026975Y1037173D01*
X1026893Y1037079D01*
X1026823Y1036985D01*
X1026811Y1036973D01*
X1026799Y1036950D01*
X1026776Y1036903D01*
X1026741Y1036833D01*
X1026706Y1036762D01*
X1026670Y1036680D01*
X1026612Y1036492D01*
Y1036480D01*
X1026600Y1036457D01*
Y1036410D01*
X1026588Y1036351D01*
X1026577Y1036269D01*
Y1036175D01*
X1026565Y1036046D01*
Y1034662D01*
X1030167D01*
Y1033582D01*
X1022047D01*
Y1037349D01*
X1022059Y1037443D01*
Y1037548D01*
X1022070Y1037795D01*
X1022106Y1038053D01*
X1022141Y1038335D01*
X1022199Y1038593D01*
X1022235Y1038722D01*
X1022270Y1038827D01*
Y1038839D01*
X1022282Y1038851D01*
X1022317Y1038921D01*
X1022364Y1039027D01*
X1022446Y1039156D01*
X1022551Y1039297D01*
X1022692Y1039449D01*
X1022857Y1039590D01*
X1023044Y1039731D01*
X1023056D01*
X1023068Y1039743D01*
X1023138Y1039790D01*
X1023256Y1039837D01*
X1023408Y1039907D01*
X1023584Y1039966D01*
X1023795Y1040024D01*
X1024018Y1040060D01*
X1024265Y1040071D01*
X1024277D01*
X1024300D01*
X1024347D01*
X1024406Y1040060D01*
X1024488D01*
X1024570Y1040048D01*
X1024769Y1040001D01*
X1025004Y1039930D01*
X1025250Y1039837D01*
X1025497Y1039696D01*
X1025614Y1039602D01*
X1025732Y1039508D01*
X1025743Y1039496D01*
X1025755Y1039485D01*
X1025790Y1039449D01*
X1025826Y1039402D01*
X1025872Y1039344D01*
X1025919Y1039273D01*
X1025978Y1039180D01*
X1026049Y1039086D01*
X1026107Y1038968D01*
X1026166Y1038839D01*
X1026236Y1038698D01*
X1026295Y1038546D01*
X1026342Y1038370D01*
X1026401Y1038194D01*
X1026436Y1037994D01*
X1026471Y1037783D01*
X1026483Y1037806D01*
X1026506Y1037853D01*
X1026553Y1037924D01*
X1026600Y1038018D01*
X1026729Y1038229D01*
X1026811Y1038335D01*
X1026882Y1038428D01*
X1026905Y1038452D01*
X1026964Y1038511D01*
X1027058Y1038605D01*
X1027175Y1038722D01*
X1027339Y1038851D01*
X1027515Y1039003D01*
X1027727Y1039156D01*
X1027961Y1039320D01*
X1030167Y1040717D01*
Y1039379D01*
D02*
G37*
G36*
X1094112Y1085427D02*
X1096060D01*
Y1084430D01*
X1094112D01*
Y1080898D01*
X1093197D01*
X1087940Y1084618D01*
Y1085427D01*
X1093197D01*
Y1086530D01*
X1094112D01*
Y1085427D01*
D02*
G37*
G36*
X1096060Y1079267D02*
X1094370Y1078199D01*
X1094359D01*
X1094335Y1078175D01*
X1094300Y1078152D01*
X1094253Y1078117D01*
X1094124Y1078034D01*
X1093960Y1077929D01*
X1093784Y1077800D01*
X1093596Y1077671D01*
X1093420Y1077542D01*
X1093256Y1077424D01*
X1093244Y1077412D01*
X1093197Y1077377D01*
X1093127Y1077319D01*
X1093044Y1077236D01*
X1092868Y1077060D01*
X1092786Y1076966D01*
X1092716Y1076873D01*
X1092704Y1076861D01*
X1092692Y1076837D01*
X1092669Y1076790D01*
X1092634Y1076720D01*
X1092598Y1076650D01*
X1092563Y1076568D01*
X1092505Y1076380D01*
Y1076368D01*
X1092493Y1076345D01*
Y1076298D01*
X1092481Y1076239D01*
X1092469Y1076157D01*
Y1076063D01*
X1092458Y1075934D01*
Y1074549D01*
X1096060D01*
Y1073470D01*
X1087940D01*
Y1077236D01*
X1087951Y1077330D01*
Y1077436D01*
X1087963Y1077682D01*
X1087998Y1077941D01*
X1088034Y1078222D01*
X1088092Y1078480D01*
X1088128Y1078609D01*
X1088163Y1078715D01*
Y1078727D01*
X1088174Y1078738D01*
X1088210Y1078809D01*
X1088257Y1078914D01*
X1088339Y1079044D01*
X1088444Y1079184D01*
X1088585Y1079337D01*
X1088749Y1079478D01*
X1088937Y1079619D01*
X1088949D01*
X1088961Y1079630D01*
X1089031Y1079677D01*
X1089148Y1079724D01*
X1089301Y1079795D01*
X1089477Y1079853D01*
X1089688Y1079912D01*
X1089911Y1079947D01*
X1090158Y1079959D01*
X1090169D01*
X1090193D01*
X1090240D01*
X1090298Y1079947D01*
X1090380D01*
X1090463Y1079935D01*
X1090662Y1079889D01*
X1090897Y1079818D01*
X1091143Y1079724D01*
X1091390Y1079583D01*
X1091507Y1079490D01*
X1091624Y1079396D01*
X1091636Y1079384D01*
X1091648Y1079372D01*
X1091683Y1079337D01*
X1091718Y1079290D01*
X1091765Y1079231D01*
X1091812Y1079161D01*
X1091871Y1079067D01*
X1091941Y1078973D01*
X1092000Y1078856D01*
X1092059Y1078727D01*
X1092129Y1078586D01*
X1092188Y1078433D01*
X1092235Y1078257D01*
X1092293Y1078081D01*
X1092328Y1077882D01*
X1092364Y1077671D01*
X1092375Y1077694D01*
X1092399Y1077741D01*
X1092446Y1077811D01*
X1092493Y1077905D01*
X1092622Y1078117D01*
X1092704Y1078222D01*
X1092774Y1078316D01*
X1092798Y1078339D01*
X1092857Y1078398D01*
X1092951Y1078492D01*
X1093068Y1078609D01*
X1093232Y1078738D01*
X1093408Y1078891D01*
X1093619Y1079044D01*
X1093854Y1079208D01*
X1096060Y1080604D01*
Y1079267D01*
D02*
G37*
G36*
X1093432Y946566D02*
X1093525Y946554D01*
X1093631Y946542D01*
X1093760Y946519D01*
X1093889Y946495D01*
X1094194Y946425D01*
X1094511Y946308D01*
X1094676Y946237D01*
X1094828Y946143D01*
X1094992Y946049D01*
X1095145Y945932D01*
X1095157Y945920D01*
X1095192Y945897D01*
X1095239Y945850D01*
X1095297Y945791D01*
X1095368Y945709D01*
X1095462Y945615D01*
X1095544Y945498D01*
X1095638Y945369D01*
X1095732Y945228D01*
X1095814Y945064D01*
X1095896Y944887D01*
X1095978Y944700D01*
X1096037Y944500D01*
X1096084Y944277D01*
X1096119Y944043D01*
X1096131Y943796D01*
Y943691D01*
X1096119Y943608D01*
X1096107Y943515D01*
X1096095Y943409D01*
X1096084Y943280D01*
X1096048Y943151D01*
X1095978Y942857D01*
X1095872Y942564D01*
X1095802Y942411D01*
X1095720Y942259D01*
X1095626Y942118D01*
X1095520Y941977D01*
X1095509Y941966D01*
X1095497Y941942D01*
X1095450Y941919D01*
X1095403Y941872D01*
X1095344Y941813D01*
X1095274Y941754D01*
X1095180Y941684D01*
X1095074Y941625D01*
X1094969Y941555D01*
X1094840Y941485D01*
X1094558Y941355D01*
X1094230Y941250D01*
X1094053Y941215D01*
X1093866Y941191D01*
X1093784Y942235D01*
X1093795D01*
X1093819D01*
X1093854Y942247D01*
X1093913Y942259D01*
X1094042Y942294D01*
X1094218Y942341D01*
X1094394Y942411D01*
X1094593Y942505D01*
X1094769Y942623D01*
X1094934Y942764D01*
X1094945Y942787D01*
X1094992Y942834D01*
X1095051Y942928D01*
X1095121Y943057D01*
X1095192Y943198D01*
X1095250Y943374D01*
X1095297Y943573D01*
X1095309Y943796D01*
Y943867D01*
X1095297Y943914D01*
X1095286Y944054D01*
X1095239Y944219D01*
X1095180Y944418D01*
X1095086Y944618D01*
X1094945Y944829D01*
X1094863Y944923D01*
X1094769Y945017D01*
X1094758Y945028D01*
X1094746Y945040D01*
X1094711Y945064D01*
X1094676Y945099D01*
X1094546Y945181D01*
X1094382Y945275D01*
X1094183Y945357D01*
X1093936Y945439D01*
X1093643Y945498D01*
X1093490Y945521D01*
X1093326D01*
X1093314D01*
X1093291D01*
X1093244D01*
X1093185Y945509D01*
X1093115D01*
X1093033Y945498D01*
X1092845Y945462D01*
X1092622Y945404D01*
X1092399Y945322D01*
X1092188Y945204D01*
X1091988Y945040D01*
X1091976D01*
X1091965Y945017D01*
X1091906Y944958D01*
X1091824Y944852D01*
X1091730Y944712D01*
X1091648Y944524D01*
X1091566Y944313D01*
X1091507Y944066D01*
X1091484Y943925D01*
Y943702D01*
X1091495Y943608D01*
X1091507Y943491D01*
X1091542Y943350D01*
X1091578Y943210D01*
X1091636Y943057D01*
X1091707Y942904D01*
X1091718Y942893D01*
X1091742Y942846D01*
X1091800Y942775D01*
X1091859Y942681D01*
X1091941Y942588D01*
X1092047Y942494D01*
X1092152Y942388D01*
X1092282Y942306D01*
X1092152Y941367D01*
X1087975Y942153D01*
Y946190D01*
X1088925D01*
Y942940D01*
X1091120Y942505D01*
X1091108Y942517D01*
X1091096Y942541D01*
X1091073Y942576D01*
X1091038Y942635D01*
X1091003Y942705D01*
X1090956Y942787D01*
X1090862Y942975D01*
X1090768Y943210D01*
X1090686Y943468D01*
X1090627Y943749D01*
X1090603Y943890D01*
Y944148D01*
X1090615Y944219D01*
X1090627Y944313D01*
X1090639Y944418D01*
X1090662Y944536D01*
X1090697Y944665D01*
X1090779Y944946D01*
X1090838Y945099D01*
X1090920Y945251D01*
X1091003Y945404D01*
X1091096Y945556D01*
X1091214Y945697D01*
X1091343Y945838D01*
X1091355Y945850D01*
X1091378Y945873D01*
X1091413Y945909D01*
X1091472Y945955D01*
X1091554Y946014D01*
X1091636Y946073D01*
X1091742Y946143D01*
X1091859Y946214D01*
X1091988Y946272D01*
X1092129Y946343D01*
X1092293Y946401D01*
X1092458Y946460D01*
X1092634Y946507D01*
X1092833Y946542D01*
X1093033Y946566D01*
X1093244Y946577D01*
X1093255D01*
X1093291D01*
X1093349D01*
X1093432Y946566D01*
D02*
G37*
G36*
X1095990Y939220D02*
X1094300Y938152D01*
X1094288D01*
X1094265Y938128D01*
X1094230Y938105D01*
X1094183Y938070D01*
X1094053Y937988D01*
X1093889Y937882D01*
X1093713Y937753D01*
X1093525Y937624D01*
X1093349Y937495D01*
X1093185Y937377D01*
X1093173Y937365D01*
X1093127Y937330D01*
X1093056Y937272D01*
X1092974Y937189D01*
X1092798Y937013D01*
X1092716Y936920D01*
X1092645Y936826D01*
X1092634Y936814D01*
X1092622Y936790D01*
X1092598Y936744D01*
X1092563Y936673D01*
X1092528Y936603D01*
X1092493Y936521D01*
X1092434Y936333D01*
Y936321D01*
X1092422Y936298D01*
Y936251D01*
X1092411Y936192D01*
X1092399Y936110D01*
Y936016D01*
X1092387Y935887D01*
Y934502D01*
X1095990D01*
Y933423D01*
X1087869D01*
Y937189D01*
X1087881Y937283D01*
Y937389D01*
X1087893Y937635D01*
X1087928Y937894D01*
X1087963Y938175D01*
X1088022Y938433D01*
X1088057Y938562D01*
X1088092Y938668D01*
Y938680D01*
X1088104Y938692D01*
X1088139Y938762D01*
X1088186Y938868D01*
X1088268Y938997D01*
X1088374Y939137D01*
X1088515Y939290D01*
X1088679Y939431D01*
X1088867Y939572D01*
X1088878D01*
X1088890Y939583D01*
X1088961Y939630D01*
X1089078Y939677D01*
X1089230Y939748D01*
X1089407Y939806D01*
X1089618Y939865D01*
X1089841Y939900D01*
X1090087Y939912D01*
X1090099D01*
X1090122D01*
X1090169D01*
X1090228Y939900D01*
X1090310D01*
X1090392Y939889D01*
X1090592Y939842D01*
X1090826Y939771D01*
X1091073Y939677D01*
X1091319Y939537D01*
X1091437Y939443D01*
X1091554Y939349D01*
X1091566Y939337D01*
X1091578Y939325D01*
X1091613Y939290D01*
X1091648Y939243D01*
X1091695Y939184D01*
X1091742Y939114D01*
X1091800Y939020D01*
X1091871Y938926D01*
X1091929Y938809D01*
X1091988Y938680D01*
X1092059Y938539D01*
X1092117Y938387D01*
X1092164Y938210D01*
X1092223Y938034D01*
X1092258Y937835D01*
X1092293Y937624D01*
X1092305Y937647D01*
X1092328Y937694D01*
X1092375Y937765D01*
X1092422Y937858D01*
X1092551Y938070D01*
X1092634Y938175D01*
X1092704Y938269D01*
X1092728Y938293D01*
X1092786Y938351D01*
X1092880Y938445D01*
X1092997Y938562D01*
X1093162Y938692D01*
X1093338Y938844D01*
X1093549Y938997D01*
X1093784Y939161D01*
X1095990Y940557D01*
Y939220D01*
D02*
G37*
G36*
X1093578Y1066536D02*
X1093649D01*
X1093837Y1066501D01*
X1094059Y1066466D01*
X1094294Y1066407D01*
X1094552Y1066325D01*
X1094799Y1066208D01*
X1094810D01*
X1094822Y1066196D01*
X1094857Y1066172D01*
X1094904Y1066149D01*
X1095022Y1066079D01*
X1095174Y1065973D01*
X1095339Y1065844D01*
X1095503Y1065691D01*
X1095667Y1065504D01*
X1095808Y1065304D01*
Y1065292D01*
X1095820Y1065281D01*
X1095843Y1065246D01*
X1095855Y1065199D01*
X1095913Y1065081D01*
X1095972Y1064929D01*
X1096043Y1064729D01*
X1096090Y1064506D01*
X1096136Y1064260D01*
X1096148Y1063990D01*
Y1063931D01*
X1096136Y1063873D01*
Y1063779D01*
X1096125Y1063673D01*
X1096101Y1063556D01*
X1096066Y1063415D01*
X1096031Y1063274D01*
X1095984Y1063110D01*
X1095925Y1062945D01*
X1095855Y1062781D01*
X1095761Y1062605D01*
X1095655Y1062441D01*
X1095538Y1062277D01*
X1095397Y1062112D01*
X1095233Y1061960D01*
X1095221Y1061948D01*
X1095186Y1061925D01*
X1095139Y1061889D01*
X1095057Y1061842D01*
X1094951Y1061772D01*
X1094834Y1061713D01*
X1094681Y1061643D01*
X1094517Y1061572D01*
X1094318Y1061490D01*
X1094095Y1061420D01*
X1093848Y1061361D01*
X1093578Y1061303D01*
X1093273Y1061244D01*
X1092945Y1061209D01*
X1092593Y1061185D01*
X1092217Y1061173D01*
X1092205D01*
X1092194D01*
X1092158D01*
X1092112D01*
X1091994Y1061185D01*
X1091830D01*
X1091642Y1061197D01*
X1091419Y1061220D01*
X1091173Y1061244D01*
X1090903Y1061279D01*
X1090633Y1061326D01*
X1090340Y1061385D01*
X1090058Y1061455D01*
X1089776Y1061537D01*
X1089506Y1061643D01*
X1089248Y1061760D01*
X1089002Y1061889D01*
X1088791Y1062042D01*
X1088779Y1062054D01*
X1088755Y1062077D01*
X1088708Y1062124D01*
X1088638Y1062183D01*
X1088568Y1062253D01*
X1088497Y1062347D01*
X1088403Y1062464D01*
X1088321Y1062582D01*
X1088239Y1062722D01*
X1088145Y1062875D01*
X1088075Y1063051D01*
X1087992Y1063227D01*
X1087934Y1063427D01*
X1087887Y1063638D01*
X1087863Y1063861D01*
X1087852Y1064096D01*
Y1064189D01*
X1087863Y1064260D01*
Y1064342D01*
X1087875Y1064436D01*
X1087922Y1064659D01*
X1087981Y1064905D01*
X1088075Y1065163D01*
X1088215Y1065422D01*
X1088298Y1065551D01*
X1088391Y1065668D01*
X1088403Y1065680D01*
X1088415Y1065691D01*
X1088450Y1065727D01*
X1088485Y1065762D01*
X1088544Y1065820D01*
X1088615Y1065867D01*
X1088779Y1065996D01*
X1088990Y1066126D01*
X1089248Y1066243D01*
X1089541Y1066348D01*
X1089870Y1066419D01*
X1089952Y1065422D01*
X1089940D01*
X1089929Y1065410D01*
X1089858Y1065398D01*
X1089753Y1065363D01*
X1089624Y1065316D01*
X1089483Y1065269D01*
X1089342Y1065199D01*
X1089213Y1065116D01*
X1089107Y1065034D01*
X1089084Y1065011D01*
X1089037Y1064964D01*
X1088967Y1064882D01*
X1088884Y1064764D01*
X1088814Y1064612D01*
X1088744Y1064447D01*
X1088697Y1064248D01*
X1088673Y1064037D01*
Y1063955D01*
X1088685Y1063861D01*
X1088708Y1063755D01*
X1088744Y1063614D01*
X1088791Y1063474D01*
X1088849Y1063333D01*
X1088943Y1063192D01*
X1088955Y1063168D01*
X1089002Y1063110D01*
X1089084Y1063028D01*
X1089201Y1062922D01*
X1089342Y1062805D01*
X1089506Y1062675D01*
X1089718Y1062558D01*
X1089952Y1062441D01*
X1089964D01*
X1089987Y1062429D01*
X1090023Y1062417D01*
X1090070Y1062394D01*
X1090140Y1062382D01*
X1090222Y1062359D01*
X1090316Y1062335D01*
X1090433Y1062312D01*
X1090563Y1062277D01*
X1090703Y1062253D01*
X1090856Y1062230D01*
X1091020Y1062218D01*
X1091208Y1062194D01*
X1091396Y1062183D01*
X1091607Y1062171D01*
X1091818D01*
X1091806Y1062183D01*
X1091736Y1062230D01*
X1091642Y1062312D01*
X1091525Y1062417D01*
X1091384Y1062535D01*
X1091255Y1062687D01*
X1091126Y1062852D01*
X1091008Y1063039D01*
Y1063051D01*
X1090997Y1063063D01*
X1090961Y1063133D01*
X1090926Y1063239D01*
X1090868Y1063380D01*
X1090821Y1063544D01*
X1090785Y1063732D01*
X1090750Y1063931D01*
X1090739Y1064142D01*
Y1064236D01*
X1090750Y1064307D01*
X1090762Y1064401D01*
X1090774Y1064494D01*
X1090797Y1064612D01*
X1090832Y1064729D01*
X1090915Y1064999D01*
X1090973Y1065140D01*
X1091055Y1065281D01*
X1091137Y1065422D01*
X1091231Y1065574D01*
X1091349Y1065715D01*
X1091478Y1065844D01*
X1091489Y1065856D01*
X1091513Y1065879D01*
X1091548Y1065914D01*
X1091607Y1065950D01*
X1091689Y1066008D01*
X1091771Y1066067D01*
X1091877Y1066126D01*
X1091994Y1066196D01*
X1092123Y1066266D01*
X1092264Y1066325D01*
X1092428Y1066384D01*
X1092593Y1066442D01*
X1092769Y1066478D01*
X1092968Y1066513D01*
X1093168Y1066536D01*
X1093379Y1066548D01*
X1093391D01*
X1093414D01*
X1093449D01*
X1093508D01*
X1093578Y1066536D01*
D02*
G37*
G36*
X1096007Y1059249D02*
X1094318Y1058181D01*
X1094306D01*
X1094282Y1058158D01*
X1094247Y1058134D01*
X1094200Y1058099D01*
X1094071Y1058017D01*
X1093907Y1057911D01*
X1093731Y1057782D01*
X1093543Y1057653D01*
X1093367Y1057524D01*
X1093203Y1057407D01*
X1093191Y1057395D01*
X1093144Y1057360D01*
X1093074Y1057301D01*
X1092992Y1057219D01*
X1092815Y1057043D01*
X1092733Y1056949D01*
X1092663Y1056855D01*
X1092651Y1056843D01*
X1092639Y1056820D01*
X1092616Y1056773D01*
X1092581Y1056702D01*
X1092546Y1056632D01*
X1092510Y1056550D01*
X1092452Y1056362D01*
Y1056350D01*
X1092440Y1056327D01*
Y1056280D01*
X1092428Y1056221D01*
X1092417Y1056139D01*
Y1056045D01*
X1092405Y1055916D01*
Y1054532D01*
X1096007D01*
Y1053452D01*
X1087887D01*
Y1057219D01*
X1087899Y1057313D01*
Y1057418D01*
X1087910Y1057665D01*
X1087946Y1057923D01*
X1087981Y1058205D01*
X1088039Y1058463D01*
X1088075Y1058592D01*
X1088110Y1058698D01*
Y1058709D01*
X1088122Y1058721D01*
X1088157Y1058791D01*
X1088204Y1058897D01*
X1088286Y1059026D01*
X1088391Y1059167D01*
X1088532Y1059319D01*
X1088697Y1059460D01*
X1088884Y1059601D01*
X1088896D01*
X1088908Y1059613D01*
X1088978Y1059660D01*
X1089096Y1059707D01*
X1089248Y1059777D01*
X1089424Y1059836D01*
X1089635Y1059894D01*
X1089858Y1059930D01*
X1090105Y1059941D01*
X1090117D01*
X1090140D01*
X1090187D01*
X1090246Y1059930D01*
X1090328D01*
X1090410Y1059918D01*
X1090609Y1059871D01*
X1090844Y1059800D01*
X1091090Y1059707D01*
X1091337Y1059566D01*
X1091454Y1059472D01*
X1091572Y1059378D01*
X1091583Y1059366D01*
X1091595Y1059355D01*
X1091630Y1059319D01*
X1091665Y1059273D01*
X1091712Y1059214D01*
X1091759Y1059143D01*
X1091818Y1059050D01*
X1091889Y1058956D01*
X1091947Y1058838D01*
X1092006Y1058709D01*
X1092076Y1058568D01*
X1092135Y1058416D01*
X1092182Y1058240D01*
X1092241Y1058064D01*
X1092276Y1057864D01*
X1092311Y1057653D01*
X1092323Y1057676D01*
X1092346Y1057723D01*
X1092393Y1057794D01*
X1092440Y1057888D01*
X1092569Y1058099D01*
X1092651Y1058205D01*
X1092722Y1058298D01*
X1092745Y1058322D01*
X1092804Y1058381D01*
X1092898Y1058475D01*
X1093015Y1058592D01*
X1093179Y1058721D01*
X1093355Y1058874D01*
X1093567Y1059026D01*
X1093801Y1059190D01*
X1096007Y1060587D01*
Y1059249D01*
D02*
G37*
%LPC*%
G36*
X1091765Y989642D02*
X1091753D01*
X1091718D01*
X1091671D01*
X1091601D01*
X1091507Y989630D01*
X1091413D01*
X1091296Y989619D01*
X1091179Y989595D01*
X1090909Y989560D01*
X1090615Y989501D01*
X1090322Y989419D01*
X1090040Y989302D01*
X1090029D01*
X1090005Y989290D01*
X1089970Y989267D01*
X1089923Y989243D01*
X1089782Y989161D01*
X1089618Y989055D01*
X1089430Y988914D01*
X1089242Y988738D01*
X1089054Y988539D01*
X1088890Y988316D01*
Y988304D01*
X1088867Y988293D01*
X1088855Y988257D01*
X1088820Y988199D01*
X1088796Y988140D01*
X1088761Y988070D01*
X1088679Y987894D01*
X1088609Y987682D01*
X1088538Y987436D01*
X1088491Y987154D01*
X1088480Y986861D01*
Y986744D01*
X1088491Y986662D01*
X1088503Y986556D01*
X1088526Y986439D01*
X1088550Y986309D01*
X1088585Y986169D01*
X1088632Y986004D01*
X1088679Y985852D01*
X1088749Y985687D01*
X1088831Y985511D01*
X1088925Y985347D01*
X1089043Y985183D01*
X1089160Y985019D01*
X1089313Y984866D01*
X1089324Y984854D01*
X1089348Y984831D01*
X1089395Y984796D01*
X1089465Y984749D01*
X1089547Y984678D01*
X1089653Y984620D01*
X1089782Y984549D01*
X1089923Y984479D01*
X1090087Y984397D01*
X1090275Y984326D01*
X1090474Y984268D01*
X1090697Y984209D01*
X1090932Y984150D01*
X1091190Y984115D01*
X1091472Y984091D01*
X1091765Y984080D01*
X1091789D01*
X1091836D01*
X1091918D01*
X1092023Y984091D01*
X1092152Y984103D01*
X1092305Y984127D01*
X1092481Y984150D01*
X1092657Y984174D01*
X1093056Y984268D01*
X1093255Y984326D01*
X1093455Y984408D01*
X1093654Y984491D01*
X1093842Y984596D01*
X1094030Y984714D01*
X1094194Y984854D01*
X1094206Y984866D01*
X1094230Y984890D01*
X1094277Y984936D01*
X1094323Y984995D01*
X1094394Y985077D01*
X1094464Y985171D01*
X1094535Y985277D01*
X1094617Y985406D01*
X1094699Y985535D01*
X1094769Y985687D01*
X1094840Y985852D01*
X1094910Y986028D01*
X1094957Y986227D01*
X1095004Y986427D01*
X1095027Y986638D01*
X1095039Y986861D01*
Y986967D01*
X1095027Y987072D01*
X1095016Y987213D01*
X1094992Y987389D01*
X1094945Y987565D01*
X1094898Y987765D01*
X1094828Y987952D01*
X1094816Y987929D01*
X1094769Y987870D01*
X1094711Y987765D01*
X1094640Y987635D01*
X1094570Y987471D01*
X1094488Y987295D01*
X1094417Y987096D01*
X1094359Y986884D01*
X1093584Y987154D01*
Y987166D01*
X1093596Y987201D01*
X1093608Y987248D01*
X1093631Y987307D01*
X1093654Y987389D01*
X1093690Y987483D01*
X1093772Y987694D01*
X1093889Y987941D01*
X1094018Y988199D01*
X1094171Y988445D01*
X1094359Y988692D01*
X1094347Y988703D01*
X1094323Y988738D01*
X1094265Y988785D01*
X1094194Y988844D01*
X1094100Y988914D01*
X1093995Y988997D01*
X1093866Y989079D01*
X1093713Y989173D01*
X1093537Y989255D01*
X1093338Y989337D01*
X1093127Y989419D01*
X1092904Y989490D01*
X1092645Y989560D01*
X1092375Y989607D01*
X1092082Y989630D01*
X1091765Y989642D01*
D02*
G37*
G36*
X1090169Y958838D02*
X1090158D01*
X1090146D01*
X1090075Y958827D01*
X1089970Y958815D01*
X1089829Y958791D01*
X1089688Y958733D01*
X1089524Y958662D01*
X1089371Y958557D01*
X1089219Y958416D01*
X1089207Y958392D01*
X1089160Y958334D01*
X1089101Y958240D01*
X1089031Y958087D01*
X1088961Y957911D01*
X1088902Y957676D01*
X1088855Y957407D01*
X1088843Y957090D01*
Y954532D01*
X1091531D01*
Y956949D01*
X1091519Y957090D01*
X1091507Y957254D01*
X1091495Y957442D01*
X1091472Y957630D01*
X1091437Y957817D01*
X1091390Y957982D01*
X1091378Y958005D01*
X1091355Y958052D01*
X1091319Y958122D01*
X1091272Y958216D01*
X1091202Y958322D01*
X1091120Y958428D01*
X1091014Y958533D01*
X1090897Y958615D01*
X1090885Y958627D01*
X1090838Y958651D01*
X1090768Y958686D01*
X1090674Y958733D01*
X1090568Y958768D01*
X1090451Y958803D01*
X1090310Y958827D01*
X1090169Y958838D01*
D02*
G37*
G36*
X895801Y887053D02*
X893243Y883415D01*
X895801D01*
Y887053D01*
D02*
G37*
G36*
X983200Y1015031D02*
X983189D01*
X983165D01*
X983118D01*
X983059Y1015020D01*
X982989D01*
X982907Y1015008D01*
X982719Y1014973D01*
X982508Y1014926D01*
X982285Y1014844D01*
X982074Y1014726D01*
X981874Y1014574D01*
X981851Y1014550D01*
X981792Y1014492D01*
X981722Y1014398D01*
X981628Y1014269D01*
X981534Y1014104D01*
X981464Y1013916D01*
X981405Y1013694D01*
X981381Y1013447D01*
Y1013377D01*
X981393Y1013330D01*
X981405Y1013213D01*
X981440Y1013048D01*
X981499Y1012872D01*
X981593Y1012673D01*
X981710Y1012485D01*
X981874Y1012297D01*
X981898Y1012274D01*
X981956Y1012227D01*
X982062Y1012145D01*
X982215Y1012062D01*
X982391Y1011980D01*
X982614Y1011898D01*
X982860Y1011851D01*
X983142Y1011828D01*
X983165D01*
X983224D01*
X983329Y1011840D01*
X983458Y1011851D01*
X983611Y1011875D01*
X983775Y1011922D01*
X983951Y1011969D01*
X984127Y1012039D01*
X984151Y1012051D01*
X984210Y1012086D01*
X984292Y1012133D01*
X984397Y1012203D01*
X984503Y1012285D01*
X984632Y1012391D01*
X984738Y1012508D01*
X984843Y1012649D01*
X984855Y1012673D01*
X984878Y1012720D01*
X984925Y1012802D01*
X984960Y1012907D01*
X985007Y1013025D01*
X985054Y1013166D01*
X985078Y1013318D01*
X985090Y1013482D01*
Y1013541D01*
X985078Y1013588D01*
X985066Y1013705D01*
X985031Y1013858D01*
X984960Y1014022D01*
X984878Y1014210D01*
X984749Y1014398D01*
X984679Y1014492D01*
X984585Y1014574D01*
X984573D01*
X984562Y1014597D01*
X984491Y1014644D01*
X984374Y1014715D01*
X984221Y1014808D01*
X984022Y1014891D01*
X983787Y1014961D01*
X983517Y1015008D01*
X983200Y1015031D01*
D02*
G37*
G36*
X934043Y962324D02*
X933949D01*
X933843Y962300D01*
X933702Y962277D01*
X933550Y962230D01*
X933385Y962171D01*
X933233Y962078D01*
X933080Y961948D01*
X933069Y961937D01*
X933022Y961890D01*
X932963Y961808D01*
X932904Y961702D01*
X932834Y961573D01*
X932775Y961420D01*
X932728Y961256D01*
X932717Y961068D01*
Y961057D01*
Y961045D01*
X932728Y960975D01*
X932740Y960869D01*
X932764Y960740D01*
X932811Y960587D01*
X932869Y960435D01*
X932963Y960270D01*
X933080Y960130D01*
X933092Y960118D01*
X933151Y960071D01*
X933233Y960012D01*
X933338Y959954D01*
X933479Y959883D01*
X933644Y959825D01*
X933831Y959778D01*
X934043Y959766D01*
X934066D01*
X934137Y959778D01*
X934242Y959789D01*
X934383Y959813D01*
X934536Y959860D01*
X934688Y959918D01*
X934852Y960012D01*
X934993Y960130D01*
X935005Y960141D01*
X935052Y960200D01*
X935110Y960270D01*
X935181Y960376D01*
X935251Y960505D01*
X935310Y960658D01*
X935357Y960834D01*
X935369Y961021D01*
Y961033D01*
Y961045D01*
Y961115D01*
X935345Y961221D01*
X935322Y961350D01*
X935275Y961491D01*
X935204Y961643D01*
X935110Y961796D01*
X934981Y961948D01*
X934970Y961960D01*
X934911Y962007D01*
X934829Y962066D01*
X934723Y962136D01*
X934582Y962207D01*
X934430Y962265D01*
X934242Y962312D01*
X934043Y962324D01*
D02*
G37*
G36*
X934007Y958956D02*
X933937D01*
X933890Y958944D01*
X933761Y958933D01*
X933597Y958897D01*
X933409Y958839D01*
X933221Y958757D01*
X933022Y958639D01*
X932846Y958487D01*
X932822Y958463D01*
X932775Y958405D01*
X932705Y958299D01*
X932623Y958170D01*
X932529Y957994D01*
X932458Y957794D01*
X932411Y957571D01*
X932388Y957325D01*
Y957301D01*
Y957254D01*
X932400Y957172D01*
X932411Y957067D01*
X932435Y956938D01*
X932470Y956797D01*
X932517Y956656D01*
X932576Y956504D01*
X932588Y956492D01*
X932611Y956433D01*
X932658Y956363D01*
X932728Y956281D01*
X932811Y956175D01*
X932916Y956069D01*
X933033Y955975D01*
X933174Y955882D01*
X933198Y955870D01*
X933245Y955846D01*
X933327Y955811D01*
X933432Y955776D01*
X933561Y955741D01*
X933714Y955706D01*
X933878Y955682D01*
X934043Y955670D01*
X934113D01*
X934160Y955682D01*
X934301Y955694D01*
X934465Y955729D01*
X934653Y955788D01*
X934852Y955858D01*
X935040Y955975D01*
X935228Y956128D01*
X935251Y956152D01*
X935298Y956210D01*
X935380Y956316D01*
X935462Y956445D01*
X935545Y956609D01*
X935627Y956809D01*
X935674Y957043D01*
X935697Y957290D01*
Y957301D01*
Y957325D01*
Y957360D01*
X935686Y957407D01*
X935674Y957536D01*
X935639Y957712D01*
X935580Y957888D01*
X935498Y958088D01*
X935380Y958287D01*
X935216Y958475D01*
X935193Y958498D01*
X935134Y958545D01*
X935028Y958627D01*
X934887Y958721D01*
X934712Y958803D01*
X934500Y958886D01*
X934266Y958933D01*
X934007Y958956D01*
D02*
G37*
G36*
X1090603Y925615D02*
X1090592D01*
X1090568D01*
X1090521D01*
X1090463Y925603D01*
X1090380D01*
X1090298Y925592D01*
X1090111Y925556D01*
X1089888Y925509D01*
X1089653Y925427D01*
X1089430Y925310D01*
X1089230Y925157D01*
X1089219D01*
X1089207Y925134D01*
X1089148Y925075D01*
X1089066Y924981D01*
X1088972Y924852D01*
X1088890Y924688D01*
X1088808Y924500D01*
X1088749Y924289D01*
X1088726Y924172D01*
Y923984D01*
X1088738Y923937D01*
X1088749Y923808D01*
X1088796Y923655D01*
X1088855Y923468D01*
X1088961Y923268D01*
X1089090Y923069D01*
X1089184Y922975D01*
X1089277Y922881D01*
X1089289D01*
X1089301Y922857D01*
X1089336Y922834D01*
X1089371Y922811D01*
X1089489Y922728D01*
X1089653Y922646D01*
X1089853Y922552D01*
X1090099Y922470D01*
X1090380Y922423D01*
X1090686Y922400D01*
X1090697D01*
X1090721D01*
X1090756D01*
X1090815Y922411D01*
X1090885D01*
X1090956Y922423D01*
X1091132Y922458D01*
X1091331Y922517D01*
X1091542Y922588D01*
X1091753Y922705D01*
X1091941Y922857D01*
X1091965Y922881D01*
X1092012Y922940D01*
X1092094Y923045D01*
X1092176Y923174D01*
X1092270Y923350D01*
X1092352Y923550D01*
X1092399Y923773D01*
X1092422Y924019D01*
Y924090D01*
X1092411Y924137D01*
X1092399Y924266D01*
X1092364Y924418D01*
X1092305Y924606D01*
X1092223Y924794D01*
X1092105Y924981D01*
X1091941Y925157D01*
X1091918Y925181D01*
X1091847Y925228D01*
X1091742Y925298D01*
X1091589Y925392D01*
X1091401Y925474D01*
X1091179Y925545D01*
X1090909Y925592D01*
X1090603Y925615D01*
D02*
G37*
G36*
X1111126Y1058456D02*
X1107489D01*
X1111126Y1055898D01*
Y1058456D01*
D02*
G37*
G36*
X1091765Y1030387D02*
X1091753D01*
X1091718D01*
X1091671D01*
X1091601D01*
X1091507Y1030376D01*
X1091413D01*
X1091296Y1030364D01*
X1091179Y1030340D01*
X1090909Y1030305D01*
X1090615Y1030246D01*
X1090322Y1030164D01*
X1090040Y1030047D01*
X1090029D01*
X1090005Y1030035D01*
X1089970Y1030012D01*
X1089923Y1029988D01*
X1089782Y1029906D01*
X1089618Y1029800D01*
X1089430Y1029660D01*
X1089242Y1029484D01*
X1089054Y1029284D01*
X1088890Y1029061D01*
Y1029050D01*
X1088867Y1029038D01*
X1088855Y1029003D01*
X1088820Y1028944D01*
X1088796Y1028885D01*
X1088761Y1028815D01*
X1088679Y1028639D01*
X1088609Y1028428D01*
X1088538Y1028181D01*
X1088491Y1027899D01*
X1088480Y1027606D01*
Y1027489D01*
X1088491Y1027407D01*
X1088503Y1027301D01*
X1088526Y1027184D01*
X1088550Y1027055D01*
X1088585Y1026914D01*
X1088632Y1026749D01*
X1088679Y1026597D01*
X1088749Y1026433D01*
X1088831Y1026257D01*
X1088925Y1026092D01*
X1089043Y1025928D01*
X1089160Y1025764D01*
X1089313Y1025611D01*
X1089324Y1025599D01*
X1089348Y1025576D01*
X1089395Y1025541D01*
X1089465Y1025494D01*
X1089547Y1025423D01*
X1089653Y1025365D01*
X1089782Y1025294D01*
X1089923Y1025224D01*
X1090087Y1025142D01*
X1090275Y1025071D01*
X1090474Y1025013D01*
X1090697Y1024954D01*
X1090932Y1024895D01*
X1091190Y1024860D01*
X1091472Y1024837D01*
X1091765Y1024825D01*
X1091789D01*
X1091836D01*
X1091918D01*
X1092023Y1024837D01*
X1092152Y1024848D01*
X1092305Y1024872D01*
X1092481Y1024895D01*
X1092657Y1024919D01*
X1093056Y1025013D01*
X1093255Y1025071D01*
X1093455Y1025154D01*
X1093654Y1025236D01*
X1093842Y1025341D01*
X1094030Y1025459D01*
X1094194Y1025599D01*
X1094206Y1025611D01*
X1094230Y1025635D01*
X1094277Y1025682D01*
X1094323Y1025740D01*
X1094394Y1025822D01*
X1094464Y1025916D01*
X1094535Y1026022D01*
X1094617Y1026151D01*
X1094699Y1026280D01*
X1094769Y1026433D01*
X1094840Y1026597D01*
X1094910Y1026773D01*
X1094957Y1026972D01*
X1095004Y1027172D01*
X1095027Y1027383D01*
X1095039Y1027606D01*
Y1027712D01*
X1095027Y1027817D01*
X1095016Y1027958D01*
X1094992Y1028134D01*
X1094945Y1028310D01*
X1094898Y1028510D01*
X1094828Y1028697D01*
X1094816Y1028674D01*
X1094769Y1028615D01*
X1094711Y1028510D01*
X1094640Y1028381D01*
X1094570Y1028216D01*
X1094488Y1028040D01*
X1094417Y1027841D01*
X1094359Y1027630D01*
X1093584Y1027899D01*
Y1027911D01*
X1093596Y1027946D01*
X1093608Y1027993D01*
X1093631Y1028052D01*
X1093654Y1028134D01*
X1093690Y1028228D01*
X1093772Y1028439D01*
X1093889Y1028686D01*
X1094018Y1028944D01*
X1094171Y1029190D01*
X1094359Y1029437D01*
X1094347Y1029448D01*
X1094323Y1029484D01*
X1094265Y1029531D01*
X1094194Y1029589D01*
X1094100Y1029660D01*
X1093995Y1029742D01*
X1093866Y1029824D01*
X1093713Y1029918D01*
X1093537Y1030000D01*
X1093338Y1030082D01*
X1093127Y1030164D01*
X1092904Y1030235D01*
X1092645Y1030305D01*
X1092375Y1030352D01*
X1092082Y1030376D01*
X1091765Y1030387D01*
D02*
G37*
G36*
X1024347Y1010234D02*
X1024335D01*
X1024324D01*
X1024253Y1010223D01*
X1024147Y1010211D01*
X1024007Y1010188D01*
X1023866Y1010129D01*
X1023701Y1010058D01*
X1023549Y1009953D01*
X1023396Y1009812D01*
X1023385Y1009789D01*
X1023338Y1009730D01*
X1023279Y1009636D01*
X1023209Y1009483D01*
X1023138Y1009307D01*
X1023080Y1009073D01*
X1023033Y1008803D01*
X1023021Y1008486D01*
Y1005928D01*
X1025708D01*
Y1008345D01*
X1025696Y1008486D01*
X1025685Y1008650D01*
X1025673Y1008838D01*
X1025649Y1009026D01*
X1025614Y1009213D01*
X1025567Y1009378D01*
X1025556Y1009401D01*
X1025532Y1009448D01*
X1025497Y1009519D01*
X1025450Y1009613D01*
X1025380Y1009718D01*
X1025297Y1009824D01*
X1025192Y1009929D01*
X1025074Y1010012D01*
X1025063Y1010023D01*
X1025016Y1010047D01*
X1024945Y1010082D01*
X1024852Y1010129D01*
X1024746Y1010164D01*
X1024629Y1010199D01*
X1024488Y1010223D01*
X1024347Y1010234D01*
D02*
G37*
G36*
X951957Y1039009D02*
X951945D01*
X951934D01*
X951863Y1038998D01*
X951757Y1038986D01*
X951617Y1038962D01*
X951476Y1038904D01*
X951311Y1038833D01*
X951159Y1038728D01*
X951006Y1038587D01*
X950995Y1038563D01*
X950948Y1038505D01*
X950889Y1038411D01*
X950819Y1038258D01*
X950748Y1038082D01*
X950690Y1037848D01*
X950643Y1037578D01*
X950631Y1037261D01*
Y1034703D01*
X953318D01*
Y1037120D01*
X953306Y1037261D01*
X953295Y1037425D01*
X953283Y1037613D01*
X953260Y1037801D01*
X953224Y1037988D01*
X953177Y1038153D01*
X953166Y1038176D01*
X953142Y1038223D01*
X953107Y1038294D01*
X953060Y1038387D01*
X952990Y1038493D01*
X952907Y1038599D01*
X952802Y1038704D01*
X952684Y1038786D01*
X952673Y1038798D01*
X952626Y1038822D01*
X952555Y1038857D01*
X952461Y1038904D01*
X952356Y1038939D01*
X952239Y1038974D01*
X952098Y1038998D01*
X951957Y1039009D01*
D02*
G37*
G36*
X1024277Y1038968D02*
X1024265D01*
X1024253D01*
X1024183Y1038957D01*
X1024077Y1038945D01*
X1023936Y1038921D01*
X1023795Y1038863D01*
X1023631Y1038792D01*
X1023479Y1038687D01*
X1023326Y1038546D01*
X1023314Y1038522D01*
X1023267Y1038464D01*
X1023209Y1038370D01*
X1023138Y1038217D01*
X1023068Y1038041D01*
X1023009Y1037806D01*
X1022962Y1037537D01*
X1022951Y1037220D01*
Y1034662D01*
X1025638D01*
Y1037079D01*
X1025626Y1037220D01*
X1025614Y1037384D01*
X1025603Y1037572D01*
X1025579Y1037759D01*
X1025544Y1037947D01*
X1025497Y1038112D01*
X1025485Y1038135D01*
X1025462Y1038182D01*
X1025426Y1038252D01*
X1025380Y1038346D01*
X1025309Y1038452D01*
X1025227Y1038558D01*
X1025121Y1038663D01*
X1025004Y1038745D01*
X1024992Y1038757D01*
X1024945Y1038781D01*
X1024875Y1038816D01*
X1024781Y1038863D01*
X1024676Y1038898D01*
X1024558Y1038933D01*
X1024417Y1038957D01*
X1024277Y1038968D01*
D02*
G37*
G36*
X1093197Y1084430D02*
X1089559D01*
X1093197Y1081872D01*
Y1084430D01*
D02*
G37*
G36*
X1090169Y1078856D02*
X1090158D01*
X1090146D01*
X1090075Y1078844D01*
X1089970Y1078832D01*
X1089829Y1078809D01*
X1089688Y1078750D01*
X1089524Y1078680D01*
X1089371Y1078574D01*
X1089219Y1078433D01*
X1089207Y1078410D01*
X1089160Y1078351D01*
X1089101Y1078257D01*
X1089031Y1078105D01*
X1088961Y1077929D01*
X1088902Y1077694D01*
X1088855Y1077424D01*
X1088843Y1077107D01*
Y1074549D01*
X1091531D01*
Y1076966D01*
X1091519Y1077107D01*
X1091507Y1077272D01*
X1091495Y1077459D01*
X1091472Y1077647D01*
X1091437Y1077835D01*
X1091390Y1077999D01*
X1091378Y1078023D01*
X1091355Y1078070D01*
X1091319Y1078140D01*
X1091272Y1078234D01*
X1091202Y1078339D01*
X1091120Y1078445D01*
X1091014Y1078551D01*
X1090897Y1078633D01*
X1090885Y1078645D01*
X1090838Y1078668D01*
X1090768Y1078703D01*
X1090674Y1078750D01*
X1090568Y1078785D01*
X1090451Y1078821D01*
X1090310Y1078844D01*
X1090169Y1078856D01*
D02*
G37*
G36*
X1090099Y938809D02*
X1090087D01*
X1090075D01*
X1090005Y938797D01*
X1089899Y938785D01*
X1089759Y938762D01*
X1089618Y938703D01*
X1089454Y938633D01*
X1089301Y938527D01*
X1089148Y938387D01*
X1089137Y938363D01*
X1089090Y938304D01*
X1089031Y938210D01*
X1088961Y938058D01*
X1088890Y937882D01*
X1088831Y937647D01*
X1088785Y937377D01*
X1088773Y937060D01*
Y934502D01*
X1091460D01*
Y936920D01*
X1091448Y937060D01*
X1091437Y937225D01*
X1091425Y937412D01*
X1091401Y937600D01*
X1091366Y937788D01*
X1091319Y937952D01*
X1091308Y937976D01*
X1091284Y938023D01*
X1091249Y938093D01*
X1091202Y938187D01*
X1091132Y938293D01*
X1091049Y938398D01*
X1090944Y938504D01*
X1090826Y938586D01*
X1090815Y938598D01*
X1090768Y938621D01*
X1090697Y938656D01*
X1090603Y938703D01*
X1090498Y938738D01*
X1090380Y938774D01*
X1090240Y938797D01*
X1090099Y938809D01*
D02*
G37*
G36*
X1093438Y1065527D02*
X1093426D01*
X1093402D01*
X1093355D01*
X1093297Y1065515D01*
X1093226D01*
X1093144Y1065504D01*
X1092956Y1065468D01*
X1092745Y1065422D01*
X1092522Y1065339D01*
X1092311Y1065222D01*
X1092112Y1065069D01*
X1092088Y1065046D01*
X1092029Y1064987D01*
X1091959Y1064893D01*
X1091865Y1064764D01*
X1091771Y1064600D01*
X1091701Y1064412D01*
X1091642Y1064189D01*
X1091619Y1063943D01*
Y1063873D01*
X1091630Y1063826D01*
X1091642Y1063708D01*
X1091677Y1063544D01*
X1091736Y1063368D01*
X1091830Y1063168D01*
X1091947Y1062981D01*
X1092112Y1062793D01*
X1092135Y1062769D01*
X1092194Y1062722D01*
X1092299Y1062640D01*
X1092452Y1062558D01*
X1092628Y1062476D01*
X1092851Y1062394D01*
X1093097Y1062347D01*
X1093379Y1062324D01*
X1093402D01*
X1093461D01*
X1093567Y1062335D01*
X1093696Y1062347D01*
X1093848Y1062370D01*
X1094013Y1062417D01*
X1094189Y1062464D01*
X1094364Y1062535D01*
X1094388Y1062546D01*
X1094447Y1062582D01*
X1094529Y1062629D01*
X1094634Y1062699D01*
X1094740Y1062781D01*
X1094869Y1062887D01*
X1094975Y1063004D01*
X1095080Y1063145D01*
X1095092Y1063168D01*
X1095116Y1063215D01*
X1095163Y1063298D01*
X1095198Y1063403D01*
X1095245Y1063521D01*
X1095292Y1063661D01*
X1095315Y1063814D01*
X1095327Y1063978D01*
Y1064037D01*
X1095315Y1064084D01*
X1095303Y1064201D01*
X1095268Y1064354D01*
X1095198Y1064518D01*
X1095116Y1064706D01*
X1094986Y1064893D01*
X1094916Y1064987D01*
X1094822Y1065069D01*
X1094810D01*
X1094799Y1065093D01*
X1094728Y1065140D01*
X1094611Y1065210D01*
X1094458Y1065304D01*
X1094259Y1065386D01*
X1094024Y1065457D01*
X1093754Y1065504D01*
X1093438Y1065527D01*
D02*
G37*
G36*
X1090117Y1058838D02*
X1090105D01*
X1090093D01*
X1090023Y1058827D01*
X1089917Y1058815D01*
X1089776Y1058791D01*
X1089635Y1058733D01*
X1089471Y1058662D01*
X1089319Y1058557D01*
X1089166Y1058416D01*
X1089154Y1058392D01*
X1089107Y1058334D01*
X1089049Y1058240D01*
X1088978Y1058087D01*
X1088908Y1057911D01*
X1088849Y1057676D01*
X1088802Y1057407D01*
X1088791Y1057090D01*
Y1054532D01*
X1091478D01*
Y1056949D01*
X1091466Y1057090D01*
X1091454Y1057254D01*
X1091443Y1057442D01*
X1091419Y1057630D01*
X1091384Y1057817D01*
X1091337Y1057982D01*
X1091325Y1058005D01*
X1091302Y1058052D01*
X1091266Y1058122D01*
X1091220Y1058216D01*
X1091149Y1058322D01*
X1091067Y1058428D01*
X1090961Y1058533D01*
X1090844Y1058615D01*
X1090832Y1058627D01*
X1090785Y1058651D01*
X1090715Y1058686D01*
X1090621Y1058733D01*
X1090516Y1058768D01*
X1090398Y1058803D01*
X1090257Y1058827D01*
X1090117Y1058838D01*
D02*
G37*
%LPD*%
D10*
X976000Y965000D02*
G03*
X976000Y965000I-1000J0D01*
G01*
D11*
X970000Y910000D02*
Y970000D01*
Y910000D02*
X1030000D01*
Y970000D01*
X970000D02*
X1030000D01*
X1068800Y953000D02*
X1071200D01*
X1068800Y967000D02*
X1071200D01*
X1040000Y825950D02*
Y831950D01*
X960000Y825950D02*
X1040000D01*
X960000D02*
Y831950D01*
Y858950D02*
X1040000D01*
X1149000Y910500D02*
X1155000D01*
Y849720D02*
Y910500D01*
X1149000Y849720D02*
X1155000D01*
X1122000D02*
Y910500D01*
X885850Y1016000D02*
Y1024000D01*
X899850Y1016000D02*
Y1024000D01*
X863000Y1016000D02*
Y1024000D01*
X877000Y1016000D02*
Y1024000D01*
X840150Y1016000D02*
Y1024000D01*
X854150Y1016000D02*
Y1024000D01*
X899850Y856000D02*
Y864000D01*
X885850Y856000D02*
Y864000D01*
X877000Y856000D02*
Y864000D01*
X863000Y856000D02*
Y864000D01*
X989000Y1006000D02*
Y1014000D01*
X1003000Y1006000D02*
Y1014000D01*
X926000Y921000D02*
X934000D01*
X926000Y935000D02*
X934000D01*
X926000Y937000D02*
X934000D01*
X926000Y951000D02*
X934000D01*
X1066000Y927000D02*
X1074000D01*
X1066000Y913000D02*
X1074000D01*
X839500Y1109000D02*
Y1115000D01*
X900280D01*
Y1109000D02*
Y1115000D01*
X839500Y1082000D02*
X900280D01*
X959500Y1109000D02*
Y1115000D01*
X1020280D01*
Y1109000D02*
Y1115000D01*
X959500Y1082000D02*
X1020280D01*
X1149000Y1040500D02*
X1155000D01*
Y979720D02*
Y1040500D01*
X1149000Y979720D02*
X1155000D01*
X1122000D02*
Y1040500D01*
X1005000Y1008800D02*
Y1011200D01*
X1019000Y1008800D02*
Y1011200D01*
X973200Y1033000D02*
X975600D01*
X973200Y1047000D02*
X975600D01*
X1004400D02*
X1006800D01*
X1004400Y1033000D02*
X1006800D01*
X1068800Y1073000D02*
X1071200D01*
X1068800Y1087000D02*
X1071200D01*
X1068800Y947000D02*
X1071200D01*
X1068800Y933000D02*
X1071200D01*
X1068800Y1067000D02*
X1071200D01*
X1068800Y1053000D02*
X1071200D01*
D12*
X905000Y951360D02*
Y965000D01*
X835000Y951360D02*
Y965000D01*
X905000D01*
M02*
