G04*
G04 #@! TF.GenerationSoftware,Altium Limited,Altium Designer,23.11.1 (41)*
G04*
G04 Layer_Physical_Order=1*
G04 Layer_Color=255*
%FSLAX44Y44*%
%MOMM*%
G71*
G04*
G04 #@! TF.SameCoordinates,E756FA19-21DF-4648-B389-9DDB0D33ADA7*
G04*
G04*
G04 #@! TF.FilePolarity,Positive*
G04*
G01*
G75*
%ADD13R,0.5000X1.2000*%
%ADD14R,1.2000X0.5000*%
%ADD15R,1.0000X1.7500*%
%ADD16R,5.5000X5.7000*%
%ADD17R,0.6000X0.8000*%
%ADD18R,0.7000X1.4000*%
%ADD19R,2.0000X3.0000*%
%ADD20R,0.7500X1.5000*%
%ADD21R,3.0000X2.0000*%
%ADD22R,1.5000X0.7500*%
%ADD23R,1.2000X0.7500*%
%ADD24R,0.7500X1.2000*%
%ADD25R,1.4000X0.7000*%
%ADD40C,0.5000*%
%ADD41C,0.7500*%
%ADD42C,5.0000*%
%ADD43C,1.0000*%
G36*
X1165616Y1128233D02*
X1169253Y1127259D01*
X1172732Y1125818D01*
X1175993Y1123935D01*
X1178980Y1121643D01*
X1181643Y1118980D01*
X1183935Y1115993D01*
X1185818Y1112732D01*
X1187259Y1109253D01*
X1188233Y1105616D01*
X1188725Y1101883D01*
Y1100000D01*
Y840000D01*
Y838117D01*
X1188233Y834384D01*
X1187259Y830747D01*
X1185818Y827268D01*
X1183935Y824007D01*
X1181643Y821020D01*
X1178980Y818357D01*
X1175993Y816065D01*
X1172732Y814182D01*
X1169253Y812741D01*
X1165616Y811767D01*
X1161883Y811275D01*
X818117D01*
X814384Y811767D01*
X810747Y812741D01*
X807268Y814182D01*
X804007Y816065D01*
X801020Y818357D01*
X798357Y821020D01*
X796065Y824007D01*
X794182Y827268D01*
X792741Y830747D01*
X791767Y834384D01*
X791275Y838117D01*
Y840680D01*
X791275Y1100007D01*
X791275Y1101890D01*
X791768Y1105622D01*
X792743Y1109259D01*
X794184Y1112737D01*
X796068Y1115997D01*
X798360Y1118983D01*
X801022Y1121645D01*
X804009Y1123937D01*
X807270Y1125819D01*
X810748Y1127259D01*
X814385Y1128234D01*
X818118Y1128725D01*
X1161883D01*
X1165616Y1128233D01*
D02*
G37*
%LPC*%
G36*
X836750Y1115000D02*
X826750D01*
Y1100000D01*
X836750D01*
Y1115000D01*
D02*
G37*
G36*
X925250D02*
X915250D01*
Y1100000D01*
X925250D01*
Y1115000D01*
D02*
G37*
G36*
X1045250D02*
X1035250D01*
Y1100000D01*
X1045250D01*
Y1115000D01*
D02*
G37*
G36*
X956750D02*
X946750D01*
Y1100000D01*
X956750D01*
Y1115000D01*
D02*
G37*
G36*
X1033250D02*
X1023250D01*
Y1100000D01*
X1033250D01*
Y1115000D01*
D02*
G37*
G36*
X944750D02*
X934750D01*
Y1100000D01*
X944750D01*
Y1115000D01*
D02*
G37*
G36*
X824750D02*
X814750D01*
Y1100000D01*
X824750D01*
Y1115000D01*
D02*
G37*
G36*
X913250D02*
X903250D01*
Y1100000D01*
X913250D01*
Y1115000D01*
D02*
G37*
G36*
X1010277Y1108417D02*
X1007890D01*
X1005685Y1107503D01*
X1003997Y1105816D01*
X1003083Y1103610D01*
Y1101223D01*
X1003997Y1099018D01*
X1005685Y1097330D01*
X1007890Y1096417D01*
X1010277D01*
X1012482Y1097330D01*
X1014170Y1099018D01*
X1015083Y1101223D01*
Y1103610D01*
X1014170Y1105816D01*
X1012482Y1107503D01*
X1010277Y1108417D01*
D02*
G37*
G36*
X1045250Y1098000D02*
X1035250D01*
Y1083000D01*
X1045250D01*
Y1098000D01*
D02*
G37*
G36*
X1033250D02*
X1023250D01*
Y1083000D01*
X1033250D01*
Y1098000D01*
D02*
G37*
G36*
X956750D02*
X946750D01*
Y1083000D01*
X956750D01*
Y1098000D01*
D02*
G37*
G36*
X944750D02*
X934750D01*
Y1083000D01*
X944750D01*
Y1098000D01*
D02*
G37*
G36*
X925250D02*
X915250D01*
Y1083000D01*
X925250D01*
Y1098000D01*
D02*
G37*
G36*
X913250D02*
X903250D01*
Y1083000D01*
X913250D01*
Y1098000D01*
D02*
G37*
G36*
X836750D02*
X826750D01*
Y1083000D01*
X836750D01*
Y1098000D01*
D02*
G37*
G36*
X824750D02*
X814750D01*
Y1083000D01*
X824750D01*
Y1098000D01*
D02*
G37*
G36*
X893500Y1078500D02*
X884000D01*
Y1074843D01*
X881000D01*
Y1078500D01*
X871500D01*
Y1070468D01*
X871407Y1070000D01*
X871500Y1069532D01*
Y1061500D01*
X881000D01*
Y1065157D01*
X884000D01*
Y1061500D01*
X893500D01*
Y1065157D01*
X901574D01*
X910827Y1055904D01*
Y1019276D01*
X906394Y1014843D01*
X847150D01*
X846682Y1014750D01*
X840150D01*
Y1005250D01*
X842307D01*
Y996400D01*
X841150D01*
Y976900D01*
X843581D01*
Y970247D01*
X842064Y968729D01*
X841150Y966523D01*
Y964137D01*
X842064Y961931D01*
X843751Y960243D01*
X845957Y959330D01*
X848344D01*
X850549Y960243D01*
X852237Y961931D01*
X853150Y964137D01*
Y966523D01*
X852237Y968729D01*
X850719Y970247D01*
Y976900D01*
X853150D01*
Y996400D01*
X851993D01*
Y1005157D01*
X908400D01*
X910253Y1005526D01*
X911825Y1006575D01*
X919095Y1013845D01*
X920144Y1015417D01*
X920513Y1017270D01*
Y1057910D01*
X920144Y1059763D01*
X919095Y1061335D01*
X907005Y1073425D01*
X905433Y1074474D01*
X903580Y1074843D01*
X893500D01*
Y1078500D01*
D02*
G37*
G36*
X1061843Y1107320D02*
X1059456D01*
X1057251Y1106407D01*
X1055563Y1104719D01*
X1054650Y1102514D01*
Y1100127D01*
X1055563Y1097921D01*
X1057081Y1096403D01*
Y1088000D01*
X1056150D01*
Y1072000D01*
X1065150D01*
Y1088000D01*
X1064219D01*
Y1096403D01*
X1065737Y1097921D01*
X1066650Y1100127D01*
Y1102514D01*
X1065737Y1104719D01*
X1064049Y1106407D01*
X1061843Y1107320D01*
D02*
G37*
G36*
X856000Y1078500D02*
X852250D01*
Y1071000D01*
X856000D01*
Y1078500D01*
D02*
G37*
G36*
X976000D02*
X972250D01*
Y1071000D01*
X976000D01*
Y1078500D01*
D02*
G37*
G36*
X868500D02*
X864750D01*
Y1071000D01*
X868500D01*
Y1078500D01*
D02*
G37*
G36*
X862750D02*
X859000D01*
Y1071000D01*
X862750D01*
Y1078500D01*
D02*
G37*
G36*
X970250D02*
X966500D01*
Y1071000D01*
X970250D01*
Y1078500D01*
D02*
G37*
G36*
X850250D02*
X846500D01*
Y1071000D01*
X850250D01*
Y1078500D01*
D02*
G37*
G36*
X976000Y1069000D02*
X972250D01*
Y1061500D01*
X976000D01*
Y1069000D01*
D02*
G37*
G36*
X970250D02*
X966500D01*
Y1061500D01*
X970250D01*
Y1069000D01*
D02*
G37*
G36*
X868500D02*
X864750D01*
Y1061500D01*
X868500D01*
Y1069000D01*
D02*
G37*
G36*
X862750D02*
X859000D01*
Y1061500D01*
X862750D01*
Y1069000D01*
D02*
G37*
G36*
X856000D02*
X852250D01*
Y1061500D01*
X856000D01*
Y1069000D01*
D02*
G37*
G36*
X850250D02*
X846500D01*
Y1061500D01*
X850250D01*
Y1069000D01*
D02*
G37*
G36*
X1065150Y1068000D02*
X1061650D01*
Y1061000D01*
X1065150D01*
Y1068000D01*
D02*
G37*
G36*
X1059650D02*
X1056150D01*
Y1061000D01*
X1059650D01*
Y1068000D01*
D02*
G37*
G36*
X1155000Y1065250D02*
X1140000D01*
Y1055250D01*
X1155000D01*
Y1065250D01*
D02*
G37*
G36*
X1138000D02*
X1123000D01*
Y1055250D01*
X1138000D01*
Y1065250D01*
D02*
G37*
G36*
X1065150Y1059000D02*
X1061650D01*
Y1052000D01*
X1065150D01*
Y1059000D01*
D02*
G37*
G36*
X1059650D02*
X1056150D01*
Y1052000D01*
X1059650D01*
Y1059000D01*
D02*
G37*
G36*
X1064000Y1048000D02*
X1061000D01*
Y1044000D01*
X1064000D01*
Y1048000D01*
D02*
G37*
G36*
X1059000D02*
X1056000D01*
Y1044000D01*
X1059000D01*
Y1048000D01*
D02*
G37*
G36*
X969550D02*
X960550D01*
Y1043569D01*
X948647D01*
X947129Y1045087D01*
X944923Y1046000D01*
X942536D01*
X940331Y1045087D01*
X938643Y1043399D01*
X937730Y1041193D01*
Y1038807D01*
X938643Y1036601D01*
X940331Y1034913D01*
X942536Y1034000D01*
X944923D01*
X947129Y1034913D01*
X948647Y1036431D01*
X960550D01*
Y1032000D01*
X969550D01*
Y1048000D01*
D02*
G37*
G36*
X1155000Y1053250D02*
X1140000D01*
Y1043250D01*
X1155000D01*
Y1053250D01*
D02*
G37*
G36*
X1138000D02*
X1123000D01*
Y1043250D01*
X1138000D01*
Y1053250D01*
D02*
G37*
G36*
X1083850Y1088000D02*
X1074850D01*
Y1072000D01*
X1076106D01*
Y1068000D01*
X1074850D01*
Y1052000D01*
X1076106D01*
Y1048000D01*
X1076000D01*
Y1038000D01*
X1084000D01*
Y1048000D01*
X1083244D01*
Y1052000D01*
X1083850D01*
Y1068000D01*
X1083244D01*
Y1072000D01*
X1083850D01*
Y1088000D01*
D02*
G37*
G36*
X1064000Y1042000D02*
X1061000D01*
Y1038000D01*
X1064000D01*
Y1042000D01*
D02*
G37*
G36*
X1059000D02*
X1056000D01*
Y1038000D01*
X1059000D01*
Y1042000D01*
D02*
G37*
G36*
X1013500Y1078500D02*
X1004000D01*
Y1061500D01*
X1005515D01*
Y1058477D01*
X1005786Y1057111D01*
X1006560Y1055953D01*
X1011381Y1051132D01*
Y1048000D01*
X1010450D01*
Y1039345D01*
X1010381Y1039000D01*
Y1023850D01*
X1004270D01*
X1004000Y1023850D01*
X1003000Y1024502D01*
Y1024750D01*
X997000D01*
Y1020000D01*
Y1015250D01*
X1002896Y1015250D01*
X1004000Y1014850D01*
X1004104Y1014850D01*
X1020000D01*
Y1023850D01*
X1017518D01*
Y1032000D01*
X1019450D01*
Y1036431D01*
X1031353D01*
X1032871Y1034913D01*
X1035077Y1034000D01*
X1037464D01*
X1039669Y1034913D01*
X1041357Y1036601D01*
X1042270Y1038807D01*
Y1041193D01*
X1041357Y1043399D01*
X1039669Y1045087D01*
X1037464Y1046000D01*
X1035077D01*
X1032871Y1045087D01*
X1031353Y1043569D01*
X1019450D01*
Y1048000D01*
X1018519D01*
Y1052610D01*
X1018247Y1053976D01*
X1017473Y1055133D01*
X1012652Y1059955D01*
Y1061500D01*
X1013500D01*
Y1078500D01*
D02*
G37*
G36*
X997443Y1097320D02*
X995057D01*
X992851Y1096407D01*
X991163Y1094719D01*
X990250Y1092514D01*
Y1090127D01*
X991163Y1087921D01*
X992681Y1086403D01*
Y1078500D01*
X991500D01*
Y1061500D01*
X992681D01*
Y1048000D01*
X991750D01*
Y1032000D01*
X1000750D01*
Y1048000D01*
X999819D01*
Y1061500D01*
X1001000D01*
Y1078500D01*
X999819D01*
Y1086403D01*
X1001337Y1087921D01*
X1002250Y1090127D01*
Y1092514D01*
X1001337Y1094719D01*
X999649Y1096407D01*
X997443Y1097320D01*
D02*
G37*
G36*
X984943Y1108750D02*
X982557D01*
X980351Y1107837D01*
X978663Y1106149D01*
X977750Y1103943D01*
Y1101557D01*
X978663Y1099351D01*
X980181Y1097833D01*
Y1078500D01*
X979000D01*
Y1061500D01*
X980181D01*
Y1048000D01*
X979250D01*
Y1032000D01*
X988250D01*
Y1048000D01*
X987319D01*
Y1061500D01*
X988500D01*
Y1078500D01*
X987319D01*
Y1097833D01*
X988837Y1099351D01*
X989750Y1101557D01*
Y1103943D01*
X988837Y1106149D01*
X987149Y1107837D01*
X984943Y1108750D01*
D02*
G37*
G36*
X899850Y1034750D02*
X893850D01*
Y1031000D01*
X899850D01*
Y1034750D01*
D02*
G37*
G36*
X854150D02*
X848150D01*
Y1031000D01*
X854150D01*
Y1034750D01*
D02*
G37*
G36*
X891850D02*
X885850D01*
Y1031000D01*
X891850D01*
Y1034750D01*
D02*
G37*
G36*
X846150D02*
X840150D01*
Y1031000D01*
X846150D01*
Y1034750D01*
D02*
G37*
G36*
X877000D02*
X871000D01*
Y1031000D01*
X877000D01*
Y1034750D01*
D02*
G37*
G36*
X869000D02*
X863000D01*
Y1031000D01*
X869000D01*
Y1034750D01*
D02*
G37*
G36*
X899850Y1029000D02*
X893850D01*
Y1025250D01*
X899850D01*
Y1029000D01*
D02*
G37*
G36*
X891850D02*
X885850D01*
Y1025250D01*
X891850D01*
Y1029000D01*
D02*
G37*
G36*
X877000Y1029000D02*
X871000D01*
Y1025250D01*
X877000D01*
Y1029000D01*
D02*
G37*
G36*
X869000D02*
X863000D01*
Y1025250D01*
X869000D01*
Y1029000D01*
D02*
G37*
G36*
X854150Y1029000D02*
X848150D01*
Y1025250D01*
X854150D01*
Y1029000D01*
D02*
G37*
G36*
X846150D02*
X840150D01*
Y1025250D01*
X846150D01*
Y1029000D01*
D02*
G37*
G36*
X1118500Y1033500D02*
X1101500D01*
Y1032319D01*
X1094250D01*
X1092884Y1032047D01*
X1091727Y1031273D01*
X1081022Y1020569D01*
X1074000D01*
Y1022000D01*
X1066000D01*
Y1012000D01*
X1074000D01*
Y1013431D01*
X1082500D01*
X1083866Y1013703D01*
X1085023Y1014477D01*
X1095728Y1025181D01*
X1101500D01*
Y1024000D01*
X1118500D01*
Y1033500D01*
D02*
G37*
G36*
X995000Y1024750D02*
X989000D01*
Y1021000D01*
X995000D01*
Y1024750D01*
D02*
G37*
G36*
Y1019000D02*
X989000D01*
Y1015250D01*
X995000D01*
Y1019000D01*
D02*
G37*
G36*
X1118500Y1021000D02*
X1101500D01*
Y1019819D01*
X1094990D01*
X1093624Y1019547D01*
X1092467Y1018773D01*
X1081762Y1008069D01*
X1070500D01*
X1070155Y1008000D01*
X1066000D01*
Y998000D01*
X1074000D01*
Y1000931D01*
X1083240D01*
X1084606Y1001203D01*
X1085763Y1001977D01*
X1096468Y1012681D01*
X1101500D01*
Y1011500D01*
X1118500D01*
Y1021000D01*
D02*
G37*
G36*
X898850Y996400D02*
X893850D01*
Y987650D01*
X898850D01*
Y996400D01*
D02*
G37*
G36*
X891850D02*
X886850D01*
Y987650D01*
X891850D01*
Y996400D01*
D02*
G37*
G36*
X1084000Y982000D02*
X1081000D01*
Y978000D01*
X1084000D01*
Y982000D01*
D02*
G37*
G36*
X1079000D02*
X1076000D01*
Y978000D01*
X1079000D01*
Y982000D01*
D02*
G37*
G36*
X898850Y985650D02*
X893850D01*
Y976900D01*
X898850D01*
Y985650D01*
D02*
G37*
G36*
X891850D02*
X886850D01*
Y976900D01*
X891850D01*
Y985650D01*
D02*
G37*
G36*
X981193Y1009820D02*
X978807D01*
X976601Y1008907D01*
X974913Y1007219D01*
X974000Y1005014D01*
Y1002627D01*
X974913Y1000421D01*
X976431Y998903D01*
Y990317D01*
X975500Y989500D01*
X975161Y989500D01*
X968500D01*
Y975500D01*
X975230D01*
X975500Y975500D01*
X976500D01*
X976770Y975500D01*
X983161D01*
X983500Y975500D01*
X984431Y974683D01*
Y970581D01*
X977477Y963626D01*
X976703Y962468D01*
X976431Y961103D01*
Y954667D01*
X974913Y953149D01*
X974000Y950943D01*
Y948556D01*
X974913Y946351D01*
X976601Y944663D01*
X978807Y943750D01*
X981193D01*
X983399Y944663D01*
X985087Y946351D01*
X986000Y948556D01*
Y950943D01*
X985087Y953149D01*
X983569Y954667D01*
Y959625D01*
X990523Y966580D01*
X991161Y967534D01*
X992062Y967458D01*
X992431Y967323D01*
Y966097D01*
X990913Y964579D01*
X990000Y962373D01*
Y959986D01*
X990913Y957781D01*
X992601Y956093D01*
X994807Y955180D01*
X997194D01*
X999399Y956093D01*
X1001001Y957696D01*
X1001406Y957658D01*
X1002271Y957323D01*
Y954667D01*
X1000753Y953149D01*
X999840Y950943D01*
Y948556D01*
X1000753Y946351D01*
X1002441Y944663D01*
X1004647Y943750D01*
X1007033D01*
X1009239Y944663D01*
X1010927Y946351D01*
X1011840Y948556D01*
Y950943D01*
X1010927Y953149D01*
X1009409Y954667D01*
Y964131D01*
X1009211Y965126D01*
X1010371Y965762D01*
X1014000Y962133D01*
Y959986D01*
X1014913Y957781D01*
X1016601Y956093D01*
X1018807Y955180D01*
X1021193D01*
X1023399Y956093D01*
X1025087Y957781D01*
X1026000Y959986D01*
Y962373D01*
X1025087Y964579D01*
X1023399Y966266D01*
X1021193Y967180D01*
X1019047D01*
X1015569Y970658D01*
Y974683D01*
X1016500Y975500D01*
X1016839Y975500D01*
X1023230D01*
X1023500Y975500D01*
X1024500D01*
X1024770Y975500D01*
X1031500D01*
Y989500D01*
X1024770D01*
X1024500Y989500D01*
X1023500D01*
X1023230Y989500D01*
X1016770D01*
X1016500Y989500D01*
X1015500D01*
X1015230Y989500D01*
X1008770D01*
X1008500Y989500D01*
X1007500D01*
X1007230Y989500D01*
X1000500D01*
X999569Y990317D01*
Y995250D01*
X1003000D01*
Y995498D01*
X1004000Y996150D01*
X1020000D01*
Y1005150D01*
X1004104D01*
X1004000Y1005150D01*
Y1005150D01*
X1003000Y1004750D01*
X1003000Y1004750D01*
X989000D01*
Y995250D01*
X992431D01*
Y990317D01*
X991500Y989500D01*
X991161Y989500D01*
X984839D01*
X984500Y989500D01*
X983569Y990317D01*
Y998903D01*
X985087Y1000421D01*
X986000Y1002627D01*
Y1005014D01*
X985087Y1007219D01*
X983399Y1008907D01*
X981193Y1009820D01*
D02*
G37*
G36*
X1084000Y976000D02*
X1081000D01*
Y972000D01*
X1084000D01*
Y976000D01*
D02*
G37*
G36*
X1079000D02*
X1076000D01*
Y972000D01*
X1079000D01*
Y976000D01*
D02*
G37*
G36*
X1155000Y976750D02*
X1140000D01*
Y966750D01*
X1155000D01*
Y976750D01*
D02*
G37*
G36*
X1138000D02*
X1123000D01*
Y966750D01*
X1138000D01*
Y976750D01*
D02*
G37*
G36*
X1083850Y968000D02*
X1080350D01*
Y961000D01*
X1083850D01*
Y968000D01*
D02*
G37*
G36*
X1078350D02*
X1074850D01*
Y961000D01*
X1078350D01*
Y968000D01*
D02*
G37*
G36*
X1155000Y964750D02*
X1140000D01*
Y954750D01*
X1155000D01*
Y964750D01*
D02*
G37*
G36*
X1138000D02*
X1123000D01*
Y954750D01*
X1138000D01*
Y964750D01*
D02*
G37*
G36*
X964500Y971500D02*
X950500D01*
Y964770D01*
X950500Y964500D01*
Y963500D01*
X950500Y963230D01*
Y956770D01*
X950500Y956500D01*
Y955500D01*
X950500Y955230D01*
Y953000D01*
X964500D01*
Y955230D01*
X964500Y955500D01*
Y956500D01*
X964500Y956770D01*
Y963230D01*
X964500Y963500D01*
Y964500D01*
X964500Y964770D01*
Y971500D01*
D02*
G37*
G36*
X1083850Y959000D02*
X1080350D01*
Y952000D01*
X1083850D01*
Y959000D01*
D02*
G37*
G36*
X1078350D02*
X1074850D01*
Y952000D01*
X1078350D01*
Y959000D01*
D02*
G37*
G36*
X1049500Y971500D02*
X1035500D01*
Y964770D01*
X1035500Y964500D01*
Y963500D01*
X1035500Y963230D01*
Y956770D01*
X1035500Y956500D01*
Y955500D01*
X1035500Y955230D01*
Y948770D01*
X1035500Y948500D01*
Y947500D01*
X1035500Y947230D01*
Y945000D01*
X1049500D01*
Y947230D01*
X1049500Y947500D01*
Y948500D01*
X1049500Y948770D01*
Y955230D01*
X1049500Y955500D01*
Y956500D01*
X1049500Y956770D01*
Y963230D01*
X1049500Y963500D01*
Y964500D01*
X1049500Y964770D01*
Y971500D01*
D02*
G37*
G36*
X924750Y951000D02*
X921000D01*
Y945000D01*
X924750D01*
Y951000D01*
D02*
G37*
G36*
X919000D02*
X915250D01*
Y945000D01*
X919000D01*
Y951000D01*
D02*
G37*
G36*
X1118500Y1008500D02*
X1101500D01*
Y999000D01*
X1106431D01*
Y996000D01*
X1101500D01*
Y986500D01*
X1106431D01*
Y974847D01*
X1104913Y973329D01*
X1104000Y971123D01*
Y968736D01*
X1104913Y966531D01*
X1106431Y965013D01*
Y944520D01*
X1105161Y943994D01*
X1104069Y945087D01*
X1101863Y946000D01*
X1099476D01*
X1097271Y945087D01*
X1095753Y943569D01*
X1083850D01*
Y948000D01*
X1074850D01*
Y932000D01*
X1083850D01*
Y936431D01*
X1095753D01*
X1097271Y934913D01*
X1099476Y934000D01*
X1101863D01*
X1104069Y934913D01*
X1105161Y936006D01*
X1106431Y935480D01*
Y927328D01*
X1081352Y902249D01*
X1064917D01*
X1063569Y903597D01*
Y913000D01*
X1064750D01*
Y927000D01*
X1055250D01*
Y923568D01*
X1050317D01*
X1049500Y924500D01*
X1049500Y924839D01*
Y931230D01*
X1049500Y931500D01*
Y932500D01*
X1049500Y932770D01*
Y939230D01*
X1049500Y939500D01*
Y940500D01*
X1049500Y940770D01*
Y943000D01*
X1035500D01*
Y940770D01*
X1035500Y940500D01*
Y939500D01*
X1035500Y939230D01*
Y932770D01*
X1035500Y932500D01*
Y931500D01*
X1035500Y931230D01*
Y924770D01*
X1035500Y924500D01*
Y923500D01*
X1035500Y923230D01*
Y916770D01*
X1035500Y916500D01*
Y915500D01*
X1035500Y915230D01*
Y908500D01*
X1038931D01*
Y895597D01*
X1037413Y894079D01*
X1036500Y891873D01*
Y889486D01*
X1037413Y887281D01*
X1039101Y885593D01*
X1041307Y884680D01*
X1043693D01*
X1045899Y885593D01*
X1047587Y887281D01*
X1048500Y889486D01*
Y891873D01*
X1047587Y894079D01*
X1046069Y895597D01*
Y908500D01*
X1049500D01*
Y915161D01*
X1049500Y915500D01*
X1050317Y916431D01*
X1055250D01*
Y913000D01*
X1056431D01*
Y903597D01*
X1054913Y902079D01*
X1054000Y899873D01*
Y897486D01*
X1054913Y895281D01*
X1056601Y893593D01*
X1058807Y892680D01*
X1061193D01*
X1063399Y893593D01*
X1064917Y895111D01*
X1082830D01*
X1084195Y895383D01*
X1085353Y896157D01*
X1112523Y923327D01*
X1113297Y924484D01*
X1113568Y925850D01*
Y965013D01*
X1115087Y966531D01*
X1116000Y968736D01*
Y971123D01*
X1115087Y973329D01*
X1113568Y974847D01*
Y986500D01*
X1118500D01*
Y996000D01*
X1113568D01*
Y999000D01*
X1118500D01*
Y1008500D01*
D02*
G37*
G36*
X941193Y971320D02*
X938807D01*
X936601Y970407D01*
X934913Y968719D01*
X934000Y966514D01*
Y964127D01*
X934913Y961921D01*
X936431Y960403D01*
Y951000D01*
X935250D01*
Y937000D01*
X944750D01*
Y940431D01*
X949683D01*
X950500Y939500D01*
X950500Y939161D01*
Y937000D01*
X964500D01*
Y939230D01*
X964500Y939500D01*
Y940500D01*
X964500Y940770D01*
Y947230D01*
X964500Y947500D01*
Y948500D01*
X964500Y948770D01*
Y951000D01*
X950500D01*
Y948839D01*
X950500Y948500D01*
X949683Y947569D01*
X944750D01*
Y951000D01*
X943569D01*
Y960403D01*
X945087Y961921D01*
X946000Y964127D01*
Y966514D01*
X945087Y968719D01*
X943399Y970407D01*
X941193Y971320D01*
D02*
G37*
G36*
X924750Y943000D02*
X921000D01*
Y937000D01*
X924750D01*
Y943000D01*
D02*
G37*
G36*
X919000D02*
X915250D01*
Y937000D01*
X919000D01*
Y943000D01*
D02*
G37*
G36*
X1064000Y982000D02*
X1056000D01*
Y972000D01*
X1056756D01*
Y968000D01*
X1056150D01*
Y952000D01*
X1056756D01*
Y948000D01*
X1056150D01*
Y932000D01*
X1065150D01*
Y948000D01*
X1063894D01*
Y952000D01*
X1065150D01*
Y968000D01*
X1063894D01*
Y972000D01*
X1064000D01*
Y982000D01*
D02*
G37*
G36*
X924750Y935000D02*
X921000D01*
Y929000D01*
X924750D01*
Y935000D01*
D02*
G37*
G36*
X919000D02*
X915250D01*
Y929000D01*
X919000D01*
Y935000D01*
D02*
G37*
G36*
X1155000Y935250D02*
X1140000D01*
Y925250D01*
X1155000D01*
Y935250D01*
D02*
G37*
G36*
X1138000D02*
X1123000D01*
Y925250D01*
X1138000D01*
Y935250D01*
D02*
G37*
G36*
X1084750Y927000D02*
X1081000D01*
Y921000D01*
X1084750D01*
Y927000D01*
D02*
G37*
G36*
X924750D02*
X921000D01*
Y921000D01*
X924750D01*
Y927000D01*
D02*
G37*
G36*
X919000D02*
X915250D01*
Y921000D01*
X919000D01*
Y927000D01*
D02*
G37*
G36*
X1079000D02*
X1075250D01*
Y921000D01*
X1079000D01*
Y927000D01*
D02*
G37*
G36*
X1155000Y923250D02*
X1140000D01*
Y913250D01*
X1155000D01*
Y923250D01*
D02*
G37*
G36*
X1138000D02*
X1123000D01*
Y913250D01*
X1138000D01*
Y923250D01*
D02*
G37*
G36*
X1084750Y919000D02*
X1081000D01*
Y913000D01*
X1084750D01*
Y919000D01*
D02*
G37*
G36*
X1079000D02*
X1075250D01*
Y913000D01*
X1079000D01*
Y919000D01*
D02*
G37*
G36*
X1005193Y936250D02*
X1002806D01*
X1000601Y935337D01*
X998913Y933649D01*
X998000Y931443D01*
Y929057D01*
X998913Y926851D01*
X1000431Y925333D01*
Y911247D01*
X1000063Y911112D01*
X999161Y911036D01*
X998523Y911990D01*
X993674Y916840D01*
X994000Y917627D01*
Y920014D01*
X993087Y922219D01*
X991399Y923907D01*
X989193Y924820D01*
X986806D01*
X984601Y923907D01*
X982914Y922219D01*
X982000Y920014D01*
Y917627D01*
X982914Y915421D01*
X984601Y913734D01*
X986806Y912820D01*
X987600D01*
X992431Y907989D01*
Y905317D01*
X991500Y904500D01*
X991161Y904500D01*
X984770D01*
X984500Y904500D01*
X983500D01*
X983230Y904500D01*
X976770D01*
X976500Y904500D01*
X975500D01*
X975230Y904500D01*
X968500D01*
Y890500D01*
X975230D01*
X975500Y890500D01*
X976500D01*
X976770Y890500D01*
X983230D01*
X983500Y890500D01*
X984500D01*
X984770Y890500D01*
X991230D01*
X991500Y890500D01*
X992500D01*
X992770Y890500D01*
X999230D01*
X999500Y890500D01*
X1000500D01*
X1000770Y890500D01*
X1007230D01*
X1007500Y890500D01*
X1008500D01*
X1008770Y890500D01*
X1015353Y890500D01*
X1016147Y889498D01*
X1006099Y879450D01*
X1001646D01*
Y862450D01*
X1011146D01*
Y871855D01*
X1011215Y872200D01*
Y874472D01*
X1012973Y876230D01*
X1014146Y875744D01*
Y862450D01*
X1023646D01*
Y871855D01*
X1023715Y872200D01*
Y876428D01*
X1025473Y878186D01*
X1026646Y877700D01*
Y862450D01*
X1027827D01*
Y854547D01*
X1026310Y853029D01*
X1025396Y850824D01*
Y848437D01*
X1026310Y846231D01*
X1027997Y844543D01*
X1030202Y843630D01*
X1032589D01*
X1034795Y844543D01*
X1036483Y846231D01*
X1037396Y848437D01*
Y850824D01*
X1036483Y853029D01*
X1034965Y854547D01*
Y862450D01*
X1036146D01*
Y879450D01*
X1028396D01*
X1027910Y880623D01*
X1030523Y883237D01*
X1031297Y884394D01*
X1031569Y885760D01*
Y897500D01*
X1031500Y897845D01*
Y904500D01*
X1024500D01*
Y904500D01*
X1023500D01*
Y904500D01*
X1016770D01*
X1016500Y904500D01*
X1015500D01*
X1015230Y904500D01*
X1008839D01*
X1008500Y904500D01*
X1007569Y905317D01*
Y925333D01*
X1009087Y926851D01*
X1010000Y929057D01*
Y931443D01*
X1009087Y933649D01*
X1007399Y935337D01*
X1005193Y936250D01*
D02*
G37*
G36*
X898500Y949500D02*
X841500D01*
Y890500D01*
X865157D01*
Y874750D01*
X863000D01*
Y865250D01*
X869532D01*
X870000Y865157D01*
X892850D01*
X893318Y865250D01*
X899850D01*
Y866431D01*
X909253D01*
X910771Y864913D01*
X912977Y864000D01*
X915364D01*
X917569Y864913D01*
X919087Y866431D01*
X930960D01*
X932326Y866703D01*
X933483Y867477D01*
X942523Y876517D01*
X943297Y877674D01*
X943569Y879040D01*
Y901763D01*
X945087Y903281D01*
X946000Y905486D01*
Y907873D01*
X945087Y910079D01*
X943569Y911597D01*
Y921000D01*
X944750D01*
Y924431D01*
X949683D01*
X950500Y923500D01*
X950500Y923161D01*
Y916770D01*
X950500Y916500D01*
Y915500D01*
X950500Y915230D01*
Y908500D01*
X964500D01*
Y915230D01*
X964500Y915500D01*
Y916500D01*
X964500Y916770D01*
Y923230D01*
X964500Y923500D01*
Y924500D01*
X964500Y924770D01*
Y931230D01*
X964500Y931500D01*
Y932500D01*
X964500Y932770D01*
Y935000D01*
X950500D01*
Y932839D01*
X950500Y932500D01*
X949683Y931569D01*
X944750D01*
Y935000D01*
X935250D01*
Y921000D01*
X936431D01*
Y911597D01*
X934913Y910079D01*
X934000Y907873D01*
Y905486D01*
X934913Y903281D01*
X936431Y901763D01*
Y880518D01*
X929482Y873569D01*
X919087D01*
X917569Y875087D01*
X915364Y876000D01*
X912977D01*
X910771Y875087D01*
X909253Y873569D01*
X899850D01*
Y874750D01*
X893318D01*
X892850Y874843D01*
X874843D01*
Y890500D01*
X898500D01*
Y949500D01*
D02*
G37*
G36*
X1118500Y903500D02*
X1111000D01*
Y899750D01*
X1118500D01*
Y903500D01*
D02*
G37*
G36*
X1109000D02*
X1101500D01*
Y899750D01*
X1109000D01*
Y903500D01*
D02*
G37*
G36*
X1118500Y897750D02*
X1111000D01*
Y894000D01*
X1118500D01*
Y897750D01*
D02*
G37*
G36*
X1109000D02*
X1101500D01*
Y894000D01*
X1109000D01*
Y897750D01*
D02*
G37*
G36*
X1089873Y892250D02*
X1087486D01*
X1085281Y891337D01*
X1083593Y889649D01*
X1082680Y887443D01*
Y885057D01*
X1083593Y882851D01*
X1085281Y881163D01*
X1086431Y880687D01*
Y879313D01*
X1085281Y878837D01*
X1083593Y877149D01*
X1082680Y874943D01*
Y872557D01*
X1083593Y870351D01*
X1085281Y868663D01*
X1087486Y867750D01*
X1089873D01*
X1092079Y868663D01*
X1093597Y870181D01*
X1101500D01*
Y869000D01*
X1118500D01*
Y878500D01*
X1101500D01*
Y877319D01*
X1093597D01*
X1092079Y878837D01*
X1090929Y879313D01*
Y880687D01*
X1092079Y881163D01*
X1093597Y882681D01*
X1101500D01*
Y881500D01*
X1118500D01*
Y891000D01*
X1101500D01*
Y889819D01*
X1093597D01*
X1092079Y891337D01*
X1089873Y892250D01*
D02*
G37*
G36*
X973646Y879450D02*
X969896D01*
Y871950D01*
X973646D01*
Y879450D01*
D02*
G37*
G36*
X967896D02*
X964146D01*
Y871950D01*
X967896D01*
Y879450D01*
D02*
G37*
G36*
X973646Y869950D02*
X969896D01*
Y862450D01*
X973646D01*
Y869950D01*
D02*
G37*
G36*
X967896D02*
X964146D01*
Y862450D01*
X967896D01*
Y869950D01*
D02*
G37*
G36*
X877000Y854750D02*
X871000D01*
Y851000D01*
X877000D01*
Y854750D01*
D02*
G37*
G36*
X869000D02*
X863000D01*
Y851000D01*
X869000D01*
Y854750D01*
D02*
G37*
G36*
X899850D02*
X893850D01*
Y851000D01*
X899850D01*
Y854750D01*
D02*
G37*
G36*
X891850D02*
X885850D01*
Y851000D01*
X891850D01*
Y854750D01*
D02*
G37*
G36*
X899850Y849000D02*
X893850D01*
Y845250D01*
X899850D01*
Y849000D01*
D02*
G37*
G36*
X891850D02*
X885850D01*
Y845250D01*
X891850D01*
Y849000D01*
D02*
G37*
G36*
X877000Y849000D02*
X871000D01*
Y845250D01*
X877000D01*
Y849000D01*
D02*
G37*
G36*
X869000D02*
X863000D01*
Y845250D01*
X869000D01*
Y849000D01*
D02*
G37*
G36*
X986146Y879450D02*
X976646D01*
Y862450D01*
X977827D01*
Y854547D01*
X976310Y853029D01*
X975396Y850824D01*
Y848437D01*
X976310Y846231D01*
X977997Y844543D01*
X980202Y843630D01*
X982589D01*
X984795Y844543D01*
X986483Y846231D01*
X987396Y848437D01*
Y850824D01*
X986483Y853029D01*
X984965Y854547D01*
Y862450D01*
X986146D01*
Y879450D01*
D02*
G37*
G36*
X1067896Y857950D02*
X1057896D01*
Y842950D01*
X1067896D01*
Y857950D01*
D02*
G37*
G36*
X1055896D02*
X1045896D01*
Y842950D01*
X1055896D01*
Y857950D01*
D02*
G37*
G36*
X954396D02*
X944396D01*
Y842950D01*
X954396D01*
Y857950D01*
D02*
G37*
G36*
X942396D02*
X932396D01*
Y842950D01*
X942396D01*
Y857950D01*
D02*
G37*
G36*
X1155000Y846750D02*
X1140000D01*
Y836750D01*
X1155000D01*
Y846750D01*
D02*
G37*
G36*
X1138000D02*
X1123000D01*
Y836750D01*
X1138000D01*
Y846750D01*
D02*
G37*
G36*
X1118500Y866000D02*
X1101500D01*
Y856500D01*
X1106431D01*
Y844847D01*
X1104913Y843329D01*
X1104000Y841123D01*
Y838736D01*
X1104913Y836531D01*
X1106601Y834843D01*
X1108807Y833930D01*
X1111193D01*
X1113399Y834843D01*
X1115087Y836531D01*
X1116000Y838736D01*
Y841123D01*
X1115087Y843329D01*
X1113568Y844847D01*
Y856500D01*
X1118500D01*
Y866000D01*
D02*
G37*
G36*
X998646Y879450D02*
X989146D01*
Y862450D01*
X990327D01*
Y843117D01*
X988810Y841599D01*
X987896Y839393D01*
Y837007D01*
X988810Y834801D01*
X990497Y833113D01*
X992702Y832200D01*
X995089D01*
X997295Y833113D01*
X998983Y834801D01*
X999896Y837007D01*
Y839393D01*
X998983Y841599D01*
X997465Y843117D01*
Y862450D01*
X998646D01*
Y879450D01*
D02*
G37*
G36*
X1067896Y840950D02*
X1057896D01*
Y825950D01*
X1067896D01*
Y840950D01*
D02*
G37*
G36*
X1055896D02*
X1045896D01*
Y825950D01*
X1055896D01*
Y840950D01*
D02*
G37*
G36*
X954396D02*
X944396D01*
Y825950D01*
X954396D01*
Y840950D01*
D02*
G37*
G36*
X942396D02*
X932396D01*
Y825950D01*
X942396D01*
Y840950D01*
D02*
G37*
G36*
X1155000Y834750D02*
X1140000D01*
Y824750D01*
X1155000D01*
Y834750D01*
D02*
G37*
G36*
X1138000D02*
X1123000D01*
Y824750D01*
X1138000D01*
Y834750D01*
D02*
G37*
%LPD*%
D13*
X972000Y982500D02*
D03*
X980000D02*
D03*
X988000D02*
D03*
X996000D02*
D03*
X1004000D02*
D03*
X1012000D02*
D03*
X1020000D02*
D03*
X1028000D02*
D03*
Y897500D02*
D03*
X1020000D02*
D03*
X1012000D02*
D03*
X1004000D02*
D03*
X996000D02*
D03*
X988000D02*
D03*
X980000D02*
D03*
X972000D02*
D03*
D14*
X1042500Y968000D02*
D03*
Y960000D02*
D03*
Y952000D02*
D03*
Y944000D02*
D03*
Y936000D02*
D03*
Y928000D02*
D03*
Y920000D02*
D03*
Y912000D02*
D03*
X957500D02*
D03*
Y920000D02*
D03*
Y928000D02*
D03*
Y936000D02*
D03*
Y944000D02*
D03*
Y952000D02*
D03*
Y960000D02*
D03*
Y968000D02*
D03*
D15*
X892850Y986650D02*
D03*
X847150D02*
D03*
D16*
X870000Y920000D02*
D03*
D17*
X1080000Y977000D02*
D03*
X1060000D02*
D03*
X1070000Y1003000D02*
D03*
X1060000Y1043000D02*
D03*
X1080000D02*
D03*
X1070000Y1017000D02*
D03*
D18*
X1079350Y960000D02*
D03*
X1060650D02*
D03*
X983750Y1040000D02*
D03*
X965050D02*
D03*
X996250D02*
D03*
X1014950D02*
D03*
X1079350Y1080000D02*
D03*
X1060650D02*
D03*
X1060650Y940000D02*
D03*
X1079350D02*
D03*
X1060650Y1060000D02*
D03*
X1079350D02*
D03*
D19*
X1056896Y841950D02*
D03*
X943396D02*
D03*
X914250Y1099000D02*
D03*
X825750D02*
D03*
X1034250D02*
D03*
X945750D02*
D03*
D20*
X1031396Y870950D02*
D03*
X1006396D02*
D03*
X1018896D02*
D03*
X993896D02*
D03*
X968896D02*
D03*
X981396D02*
D03*
X876250Y1070000D02*
D03*
X888750D02*
D03*
X863750D02*
D03*
X851250D02*
D03*
X996250D02*
D03*
X1008750D02*
D03*
X983750D02*
D03*
X971250D02*
D03*
D21*
X1139000Y835750D02*
D03*
Y924250D02*
D03*
Y965750D02*
D03*
Y1054250D02*
D03*
D22*
X1110000Y873750D02*
D03*
Y861250D02*
D03*
Y886250D02*
D03*
Y898750D02*
D03*
Y1003750D02*
D03*
Y991250D02*
D03*
Y1016250D02*
D03*
Y1028750D02*
D03*
D23*
X892850Y1010000D02*
D03*
Y1030000D02*
D03*
X870000Y1010000D02*
D03*
Y1030000D02*
D03*
X847150Y1010000D02*
D03*
Y1030000D02*
D03*
X892850Y870000D02*
D03*
Y850000D02*
D03*
X870000Y870000D02*
D03*
Y850000D02*
D03*
X996000Y1000000D02*
D03*
Y1020000D02*
D03*
D24*
X940000Y928000D02*
D03*
X920000D02*
D03*
X940000Y944000D02*
D03*
X920000D02*
D03*
X1060000Y920000D02*
D03*
X1080000D02*
D03*
D25*
X1012000Y1000650D02*
D03*
Y1019350D02*
D03*
D40*
X1082830Y898680D02*
X1110000Y925850D01*
Y969930D01*
X1060000Y898680D02*
X1082830D01*
X993896Y838200D02*
Y870950D01*
X847150Y965330D02*
Y986650D01*
X1110000Y839930D02*
Y861250D01*
X1014950Y1040000D02*
X1036270D01*
X943730D02*
X965050D01*
X940000Y906680D02*
Y928000D01*
Y879040D02*
Y906680D01*
X930960Y870000D02*
X940000Y879040D01*
X914170Y870000D02*
X930960D01*
X892850D02*
X914170D01*
X1060650Y1080000D02*
Y1101320D01*
X996250Y1070000D02*
Y1091320D01*
X983750Y1070000D02*
Y1102750D01*
X1012950Y1019350D02*
X1013950Y1020350D01*
X1012000Y1019350D02*
X1012950D01*
X1013950Y1020350D02*
Y1039000D01*
X1014950Y1040000D01*
X1110000Y991250D02*
Y1003750D01*
Y969930D02*
Y991250D01*
X1060000Y898680D02*
Y920000D01*
X1031396Y849630D02*
Y870950D01*
X940000Y944000D02*
Y965320D01*
X1004000Y965971D02*
X1005840Y964131D01*
Y949750D02*
Y964131D01*
X1004000Y965971D02*
Y982500D01*
X1012000Y969180D02*
X1020000Y961180D01*
X980000Y949750D02*
Y961103D01*
X988000Y969103D01*
Y982500D01*
X996000Y961180D02*
Y982500D01*
X1012000Y969180D02*
Y982500D01*
X980000D02*
Y1003820D01*
X1088680Y873750D02*
X1110000D01*
X1088680Y886250D02*
X1110000D01*
X1079350Y940000D02*
X1100670D01*
X1042500Y920000D02*
X1060000D01*
X1060000Y920000D01*
X1042500Y890680D02*
Y912000D01*
X988000Y917467D02*
X996000Y909467D01*
Y897500D02*
Y909467D01*
X988000Y917467D02*
Y918820D01*
X1004000Y897500D02*
Y930250D01*
X981396Y849630D02*
Y870950D01*
X1020146Y872200D02*
Y877906D01*
X1018896Y870950D02*
X1020146Y872200D01*
X1028000Y885760D02*
Y897500D01*
X1020146Y877906D02*
X1028000Y885760D01*
X1007646Y875950D02*
X1020000Y888304D01*
Y897500D01*
X1007646Y872200D02*
Y875950D01*
X1006396Y870950D02*
X1007646Y872200D01*
X1079675Y1043325D02*
Y1079675D01*
Y1043325D02*
X1080000Y1043000D01*
X1079350Y1080000D02*
X1079675Y1079675D01*
X1082500Y1017000D02*
X1094250Y1028750D01*
X1070000Y1017000D02*
X1082500D01*
X1094250Y1028750D02*
X1110000D01*
X1083240Y1004500D02*
X1094990Y1016250D01*
X1070500Y1004500D02*
X1083240D01*
X1094990Y1016250D02*
X1110000D01*
X1070000Y1003000D02*
Y1004000D01*
X1070500Y1004500D01*
X1060325Y940325D02*
Y976675D01*
X1060000Y977000D02*
X1060325Y976675D01*
Y940325D02*
X1060650Y940000D01*
X996000Y1000000D02*
X996325Y1000325D01*
X996000Y982500D02*
Y1000000D01*
X996325Y1000325D02*
X1011675D01*
X1012000Y1000650D01*
X1009083Y1058477D02*
X1014950Y1052610D01*
X1009083Y1058477D02*
Y1069667D01*
X1008750Y1070000D02*
X1009083Y1069667D01*
X1014950Y1040000D02*
Y1052610D01*
X996250Y1040000D02*
Y1070000D01*
X983750Y1040000D02*
Y1070000D01*
X940000Y944000D02*
X957500D01*
X940000Y928000D02*
X957500D01*
D41*
X870000Y870000D02*
Y920000D01*
Y870000D02*
X892850D01*
X908400Y1010000D02*
X915670Y1017270D01*
X892850Y1010000D02*
X908400D01*
X915670Y1017270D02*
Y1057910D01*
X903580Y1070000D02*
X915670Y1057910D01*
X888750Y1070000D02*
X903580D01*
X847150Y986650D02*
Y1010000D01*
X870000D01*
X892850D01*
X876250Y1070000D02*
X888750D01*
D42*
X820000Y840000D02*
D03*
X1160000Y1100000D02*
D03*
D43*
X993896Y838200D02*
D03*
X847150Y965330D02*
D03*
X1110000Y839930D02*
D03*
X1036270Y1040000D02*
D03*
X943730D02*
D03*
X914170Y870000D02*
D03*
X1060650Y1101320D02*
D03*
X1009083Y1102417D02*
D03*
X996250Y1091320D02*
D03*
X983750Y1102750D02*
D03*
X1110000Y969930D02*
D03*
X1060000Y898680D02*
D03*
X940000Y906680D02*
D03*
Y965320D02*
D03*
X1005840Y949750D02*
D03*
X980000D02*
D03*
X996000Y961180D02*
D03*
X1020000D02*
D03*
X980000Y1003820D02*
D03*
X1088680Y873750D02*
D03*
Y886250D02*
D03*
X1100670Y940000D02*
D03*
X1042500Y890680D02*
D03*
X1004000Y930250D02*
D03*
X988000Y918820D02*
D03*
X1031396Y849630D02*
D03*
X981396D02*
D03*
M02*
