G04*
G04 #@! TF.GenerationSoftware,Altium Limited,Altium Designer,23.11.1 (41)*
G04*
G04 Layer_Color=32896*
%FSLAX44Y44*%
%MOMM*%
G71*
G04*
G04 #@! TF.SameCoordinates,E756FA19-21DF-4648-B389-9DDB0D33ADA7*
G04*
G04*
G04 #@! TF.FilePolarity,Positive*
G04*
G01*
G75*
%ADD11C,0.1000*%
%ADD49C,0.0500*%
G36*
X897183Y987245D02*
X897500Y987186D01*
X897770Y987092D01*
X898005Y986998D01*
X898111Y986940D01*
X898193Y986893D01*
X898275Y986846D01*
X898333Y986799D01*
X898380Y986764D01*
X898416Y986740D01*
X898439Y986729D01*
X898451Y986717D01*
X898674Y986494D01*
X898850Y986247D01*
X898991Y985989D01*
X899108Y985731D01*
X899178Y985508D01*
X899213Y985414D01*
X899237Y985332D01*
X899249Y985262D01*
X899260Y985215D01*
X899272Y985180D01*
Y985168D01*
X898275Y984992D01*
X898228Y985250D01*
X898157Y985473D01*
X898075Y985661D01*
X897993Y985813D01*
X897911Y985930D01*
X897841Y986013D01*
X897794Y986071D01*
X897782Y986083D01*
X897629Y986200D01*
X897465Y986294D01*
X897312Y986353D01*
X897160Y986400D01*
X897019Y986423D01*
X896914Y986447D01*
X896820D01*
X896608Y986435D01*
X896421Y986388D01*
X896256Y986329D01*
X896116Y986271D01*
X896010Y986200D01*
X895928Y986142D01*
X895869Y986095D01*
X895857Y986083D01*
X895728Y985942D01*
X895634Y985790D01*
X895576Y985637D01*
X895529Y985496D01*
X895505Y985367D01*
X895482Y985273D01*
Y985203D01*
Y985191D01*
Y985180D01*
Y985050D01*
X895505Y984933D01*
X895564Y984734D01*
X895646Y984557D01*
X895740Y984405D01*
X895834Y984299D01*
X895916Y984217D01*
X895975Y984170D01*
X895986Y984158D01*
X895998D01*
X896198Y984053D01*
X896385Y983971D01*
X896585Y983912D01*
X896761Y983877D01*
X896914Y983853D01*
X897043Y983830D01*
X897195D01*
X897242Y983842D01*
X897301D01*
X897418Y982962D01*
X897266Y982997D01*
X897125Y983020D01*
X897007Y983044D01*
X896902Y983055D01*
X896820Y983067D01*
X896714D01*
X896468Y983044D01*
X896245Y982997D01*
X896045Y982926D01*
X895881Y982844D01*
X895752Y982762D01*
X895658Y982692D01*
X895599Y982645D01*
X895576Y982621D01*
X895423Y982445D01*
X895306Y982258D01*
X895224Y982070D01*
X895177Y981882D01*
X895142Y981729D01*
X895130Y981600D01*
X895118Y981553D01*
Y981518D01*
Y981495D01*
Y981483D01*
X895142Y981225D01*
X895200Y980990D01*
X895271Y980791D01*
X895365Y980615D01*
X895458Y980474D01*
X895529Y980368D01*
X895587Y980298D01*
X895611Y980274D01*
X895799Y980110D01*
X895998Y979993D01*
X896198Y979911D01*
X896385Y979852D01*
X896550Y979817D01*
X896679Y979805D01*
X896726Y979793D01*
X896796D01*
X897007Y979805D01*
X897207Y979852D01*
X897383Y979911D01*
X897524Y979981D01*
X897641Y980040D01*
X897735Y980098D01*
X897782Y980145D01*
X897805Y980157D01*
X897946Y980321D01*
X898064Y980509D01*
X898169Y980708D01*
X898251Y980920D01*
X898310Y981096D01*
X898333Y981178D01*
X898345Y981248D01*
X898357Y981307D01*
X898369Y981354D01*
X898380Y981377D01*
Y981389D01*
X899378Y981260D01*
X899354Y981072D01*
X899319Y980896D01*
X899213Y980568D01*
X899084Y980286D01*
X899014Y980169D01*
X898944Y980051D01*
X898873Y979946D01*
X898803Y979864D01*
X898744Y979781D01*
X898686Y979723D01*
X898650Y979676D01*
X898615Y979641D01*
X898592Y979617D01*
X898580Y979605D01*
X898439Y979500D01*
X898298Y979394D01*
X898157Y979312D01*
X898005Y979242D01*
X897711Y979124D01*
X897430Y979054D01*
X897301Y979030D01*
X897183Y979007D01*
X897078Y978995D01*
X896984Y978984D01*
X896914Y978972D01*
X896808D01*
X896585Y978984D01*
X896385Y979007D01*
X896186Y979042D01*
X895998Y979089D01*
X895822Y979148D01*
X895670Y979206D01*
X895517Y979277D01*
X895388Y979347D01*
X895259Y979406D01*
X895153Y979476D01*
X895059Y979535D01*
X894989Y979594D01*
X894930Y979641D01*
X894883Y979676D01*
X894860Y979699D01*
X894848Y979711D01*
X894707Y979852D01*
X894590Y980004D01*
X894484Y980157D01*
X894390Y980310D01*
X894320Y980450D01*
X894250Y980603D01*
X894156Y980884D01*
X894132Y981014D01*
X894109Y981131D01*
X894085Y981237D01*
X894074Y981330D01*
X894062Y981401D01*
Y981460D01*
Y981495D01*
Y981507D01*
X894074Y981788D01*
X894121Y982046D01*
X894191Y982269D01*
X894261Y982457D01*
X894332Y982609D01*
X894402Y982727D01*
X894449Y982797D01*
X894461Y982821D01*
X894625Y982997D01*
X894801Y983149D01*
X894989Y983267D01*
X895177Y983361D01*
X895341Y983431D01*
X895470Y983478D01*
X895517Y983490D01*
X895552Y983501D01*
X895576Y983513D01*
X895587D01*
X895388Y983619D01*
X895224Y983724D01*
X895083Y983842D01*
X894966Y983947D01*
X894872Y984041D01*
X894801Y984123D01*
X894766Y984170D01*
X894754Y984194D01*
X894660Y984358D01*
X894590Y984522D01*
X894531Y984687D01*
X894496Y984839D01*
X894473Y984968D01*
X894461Y985062D01*
Y985133D01*
Y985156D01*
X894473Y985356D01*
X894508Y985555D01*
X894555Y985731D01*
X894613Y985884D01*
X894672Y986013D01*
X894719Y986118D01*
X894754Y986177D01*
X894766Y986200D01*
X894883Y986376D01*
X895024Y986529D01*
X895165Y986658D01*
X895306Y986775D01*
X895423Y986858D01*
X895529Y986928D01*
X895599Y986963D01*
X895611Y986975D01*
X895623D01*
X895834Y987069D01*
X896045Y987139D01*
X896256Y987198D01*
X896444Y987233D01*
X896597Y987256D01*
X896726Y987268D01*
X897019D01*
X897183Y987245D01*
D02*
G37*
G36*
X907158Y982539D02*
Y982304D01*
X907146Y982082D01*
X907134Y981870D01*
X907111Y981671D01*
X907088Y981495D01*
X907064Y981330D01*
X907029Y981178D01*
X907005Y981037D01*
X906982Y980908D01*
X906947Y980802D01*
X906923Y980708D01*
X906900Y980638D01*
X906876Y980579D01*
X906865Y980533D01*
X906853Y980509D01*
Y980497D01*
X906724Y980239D01*
X906560Y980004D01*
X906395Y979817D01*
X906219Y979652D01*
X906067Y979523D01*
X905938Y979429D01*
X905891Y979406D01*
X905855Y979382D01*
X905832Y979359D01*
X905820D01*
X905527Y979230D01*
X905222Y979136D01*
X904905Y979066D01*
X904612Y979019D01*
X904482Y979007D01*
X904353Y978995D01*
X904236Y978984D01*
X904142D01*
X904060Y978972D01*
X903954D01*
X903532Y978995D01*
X903344Y979019D01*
X903168Y979042D01*
X902992Y979077D01*
X902840Y979113D01*
X902699Y979148D01*
X902570Y979195D01*
X902452Y979242D01*
X902358Y979277D01*
X902265Y979312D01*
X902194Y979347D01*
X902135Y979382D01*
X902100Y979394D01*
X902077Y979418D01*
X902065D01*
X901807Y979594D01*
X901596Y979793D01*
X901431Y979981D01*
X901291Y980169D01*
X901185Y980333D01*
X901115Y980462D01*
X901091Y980509D01*
X901068Y980544D01*
X901056Y980568D01*
Y980579D01*
X901009Y980720D01*
X900962Y980873D01*
X900892Y981190D01*
X900845Y981518D01*
X900809Y981835D01*
X900798Y981976D01*
X900786Y982117D01*
Y982234D01*
X900774Y982340D01*
Y982422D01*
Y982480D01*
Y982527D01*
Y982539D01*
Y987233D01*
X901854D01*
Y982539D01*
Y982269D01*
X901877Y982011D01*
X901901Y981788D01*
X901936Y981577D01*
X901971Y981389D01*
X902018Y981213D01*
X902053Y981060D01*
X902100Y980931D01*
X902147Y980826D01*
X902194Y980720D01*
X902241Y980650D01*
X902276Y980579D01*
X902311Y980533D01*
X902335Y980497D01*
X902347Y980486D01*
X902358Y980474D01*
X902464Y980380D01*
X902581Y980298D01*
X902840Y980169D01*
X903110Y980075D01*
X903391Y980016D01*
X903649Y979969D01*
X903755Y979958D01*
X903860D01*
X903931Y979946D01*
X904048D01*
X904295Y979958D01*
X904518Y979993D01*
X904729Y980028D01*
X904893Y980087D01*
X905034Y980134D01*
X905140Y980169D01*
X905198Y980204D01*
X905222Y980216D01*
X905386Y980321D01*
X905527Y980450D01*
X905644Y980579D01*
X905726Y980697D01*
X905797Y980814D01*
X905855Y980896D01*
X905879Y980955D01*
X905891Y980978D01*
X905926Y981084D01*
X905949Y981190D01*
X905996Y981436D01*
X906031Y981694D01*
X906055Y981952D01*
X906067Y982175D01*
Y982281D01*
X906078Y982363D01*
Y982433D01*
Y982492D01*
Y982527D01*
Y982539D01*
Y987233D01*
X907158D01*
Y982539D01*
D02*
G37*
G36*
X868768Y987136D02*
X868897Y986948D01*
X869050Y986760D01*
X869190Y986596D01*
X869331Y986455D01*
X869437Y986338D01*
X869484Y986303D01*
X869519Y986268D01*
X869531Y986256D01*
X869542Y986244D01*
X869789Y986045D01*
X870035Y985857D01*
X870270Y985693D01*
X870505Y985564D01*
X870704Y985446D01*
X870786Y985399D01*
X870857Y985364D01*
X870915Y985329D01*
X870962Y985317D01*
X870986Y985294D01*
X870997D01*
Y984331D01*
X870821Y984402D01*
X870645Y984484D01*
X870469Y984566D01*
X870305Y984648D01*
X870164Y984719D01*
X870047Y984777D01*
X869977Y984824D01*
X869965Y984836D01*
X869953D01*
X869742Y984965D01*
X869554Y985094D01*
X869390Y985211D01*
X869261Y985317D01*
X869143Y985399D01*
X869073Y985470D01*
X869014Y985517D01*
X869003Y985528D01*
Y979180D01*
X868005D01*
Y987335D01*
X868651D01*
X868768Y987136D01*
D02*
G37*
G36*
X876419Y987418D02*
X876794Y987359D01*
X877123Y987289D01*
X877276Y987242D01*
X877416Y987195D01*
X877545Y987148D01*
X877663Y987101D01*
X877757Y987066D01*
X877851Y987030D01*
X877909Y986995D01*
X877956Y986972D01*
X877991Y986960D01*
X878003Y986948D01*
X878320Y986749D01*
X878590Y986514D01*
X878825Y986279D01*
X879024Y986045D01*
X879177Y985833D01*
X879235Y985740D01*
X879282Y985657D01*
X879329Y985599D01*
X879353Y985552D01*
X879364Y985517D01*
X879376Y985505D01*
X879540Y985141D01*
X879658Y984765D01*
X879740Y984390D01*
X879799Y984050D01*
X879822Y983897D01*
X879834Y983745D01*
X879846Y983627D01*
Y983510D01*
X879857Y983428D01*
Y983357D01*
Y983310D01*
Y983299D01*
X879834Y982876D01*
X879787Y982466D01*
X879728Y982102D01*
X879681Y981926D01*
X879646Y981773D01*
X879611Y981632D01*
X879564Y981503D01*
X879529Y981386D01*
X879505Y981292D01*
X879470Y981222D01*
X879458Y981163D01*
X879435Y981128D01*
Y981116D01*
X879259Y980764D01*
X879059Y980447D01*
X878848Y980177D01*
X878742Y980072D01*
X878649Y979966D01*
X878555Y979872D01*
X878461Y979790D01*
X878379Y979720D01*
X878308Y979673D01*
X878261Y979626D01*
X878214Y979591D01*
X878191Y979579D01*
X878179Y979567D01*
X878015Y979473D01*
X877851Y979391D01*
X877498Y979262D01*
X877147Y979168D01*
X876806Y979109D01*
X876642Y979086D01*
X876501Y979062D01*
X876372Y979051D01*
X876266D01*
X876172Y979039D01*
X876043D01*
X875809Y979051D01*
X875586Y979074D01*
X875375Y979098D01*
X875175Y979145D01*
X874987Y979203D01*
X874811Y979262D01*
X874647Y979321D01*
X874494Y979391D01*
X874365Y979450D01*
X874236Y979508D01*
X874142Y979567D01*
X874048Y979626D01*
X873990Y979673D01*
X873931Y979696D01*
X873908Y979720D01*
X873896Y979731D01*
X873732Y979872D01*
X873591Y980013D01*
X873462Y980177D01*
X873333Y980341D01*
X873121Y980670D01*
X872957Y980999D01*
X872887Y981151D01*
X872828Y981292D01*
X872781Y981421D01*
X872746Y981527D01*
X872711Y981621D01*
X872687Y981691D01*
X872675Y981738D01*
Y981750D01*
X873755Y982020D01*
X873802Y981832D01*
X873861Y981656D01*
X873919Y981491D01*
X873978Y981339D01*
X874048Y981198D01*
X874119Y981081D01*
X874201Y980963D01*
X874271Y980858D01*
X874330Y980764D01*
X874400Y980694D01*
X874459Y980623D01*
X874506Y980564D01*
X874553Y980529D01*
X874588Y980494D01*
X874600Y980482D01*
X874612Y980471D01*
X874729Y980377D01*
X874858Y980306D01*
X875116Y980177D01*
X875363Y980083D01*
X875609Y980025D01*
X875820Y979978D01*
X875903Y979966D01*
X875985D01*
X876055Y979954D01*
X876137D01*
X876407Y979966D01*
X876665Y980013D01*
X876900Y980072D01*
X877111Y980142D01*
X877276Y980212D01*
X877346Y980248D01*
X877405Y980271D01*
X877452Y980295D01*
X877487Y980318D01*
X877510Y980330D01*
X877522D01*
X877745Y980494D01*
X877933Y980670D01*
X878097Y980870D01*
X878226Y981057D01*
X878332Y981222D01*
X878402Y981362D01*
X878426Y981421D01*
X878449Y981456D01*
X878461Y981480D01*
Y981491D01*
X878555Y981797D01*
X878625Y982102D01*
X878684Y982407D01*
X878719Y982689D01*
X878731Y982818D01*
X878742Y982935D01*
Y983040D01*
X878754Y983123D01*
Y983193D01*
Y983252D01*
Y983287D01*
Y983299D01*
X878742Y983604D01*
X878719Y983885D01*
X878672Y984144D01*
X878625Y984378D01*
X878590Y984578D01*
X878566Y984660D01*
X878543Y984730D01*
X878531Y984789D01*
X878520Y984824D01*
X878508Y984848D01*
Y984859D01*
X878390Y985129D01*
X878261Y985376D01*
X878120Y985575D01*
X877968Y985751D01*
X877839Y985892D01*
X877733Y985986D01*
X877651Y986045D01*
X877639Y986068D01*
X877628D01*
X877381Y986221D01*
X877111Y986338D01*
X876853Y986420D01*
X876607Y986467D01*
X876384Y986502D01*
X876290Y986514D01*
X876208D01*
X876149Y986526D01*
X876055D01*
X875762Y986514D01*
X875492Y986467D01*
X875269Y986397D01*
X875069Y986326D01*
X874917Y986244D01*
X874799Y986185D01*
X874729Y986139D01*
X874706Y986115D01*
X874518Y985939D01*
X874342Y985740D01*
X874201Y985528D01*
X874084Y985317D01*
X873990Y985129D01*
X873955Y985035D01*
X873931Y984965D01*
X873908Y984906D01*
X873884Y984859D01*
X873873Y984836D01*
Y984824D01*
X872816Y985071D01*
X872887Y985282D01*
X872957Y985470D01*
X873051Y985646D01*
X873133Y985822D01*
X873227Y985974D01*
X873333Y986115D01*
X873427Y986256D01*
X873520Y986373D01*
X873614Y986467D01*
X873696Y986561D01*
X873779Y986643D01*
X873837Y986702D01*
X873896Y986760D01*
X873943Y986796D01*
X873966Y986807D01*
X873978Y986819D01*
X874142Y986925D01*
X874307Y987030D01*
X874471Y987113D01*
X874647Y987183D01*
X874999Y987289D01*
X875316Y987359D01*
X875468Y987394D01*
X875598Y987406D01*
X875727Y987418D01*
X875832Y987429D01*
X875914Y987441D01*
X876032D01*
X876419Y987418D01*
D02*
G37*
G36*
X863112Y987312D02*
X863405Y987265D01*
X863652Y987183D01*
X863863Y987101D01*
X864039Y987007D01*
X864109Y986972D01*
X864168Y986925D01*
X864215Y986901D01*
X864250Y986878D01*
X864262Y986854D01*
X864273D01*
X864485Y986667D01*
X864661Y986444D01*
X864813Y986221D01*
X864931Y986009D01*
X865024Y985810D01*
X865071Y985728D01*
X865095Y985646D01*
X865118Y985587D01*
X865142Y985540D01*
X865154Y985517D01*
Y985505D01*
X865201Y985329D01*
X865247Y985153D01*
X865318Y984765D01*
X865377Y984378D01*
X865412Y984015D01*
X865423Y983839D01*
X865435Y983686D01*
Y983545D01*
X865447Y983416D01*
Y983322D01*
Y983240D01*
Y983193D01*
Y983181D01*
X865435Y982771D01*
X865412Y982383D01*
X865377Y982031D01*
X865318Y981703D01*
X865259Y981398D01*
X865189Y981128D01*
X865118Y980881D01*
X865048Y980670D01*
X864977Y980482D01*
X864895Y980318D01*
X864837Y980177D01*
X864778Y980072D01*
X864719Y979978D01*
X864684Y979919D01*
X864661Y979884D01*
X864649Y979872D01*
X864520Y979731D01*
X864379Y979602D01*
X864227Y979485D01*
X864074Y979391D01*
X863921Y979309D01*
X863769Y979238D01*
X863616Y979192D01*
X863475Y979145D01*
X863335Y979109D01*
X863205Y979086D01*
X863088Y979062D01*
X862994Y979051D01*
X862912Y979039D01*
X862795D01*
X862478Y979062D01*
X862185Y979109D01*
X861938Y979192D01*
X861727Y979274D01*
X861551Y979356D01*
X861492Y979403D01*
X861434Y979438D01*
X861387Y979461D01*
X861351Y979485D01*
X861340Y979508D01*
X861328D01*
X861117Y979708D01*
X860941Y979919D01*
X860788Y980154D01*
X860671Y980365D01*
X860577Y980564D01*
X860530Y980647D01*
X860507Y980729D01*
X860483Y980787D01*
X860460Y980834D01*
X860448Y980858D01*
Y980870D01*
X860389Y981046D01*
X860342Y981222D01*
X860272Y981597D01*
X860213Y981984D01*
X860178Y982360D01*
X860166Y982524D01*
X860154Y982677D01*
Y982818D01*
X860143Y982947D01*
Y983040D01*
Y983123D01*
Y983170D01*
Y983181D01*
Y983404D01*
X860154Y983615D01*
Y983803D01*
X860166Y983991D01*
X860190Y984155D01*
X860201Y984320D01*
X860213Y984460D01*
X860237Y984589D01*
X860248Y984707D01*
X860272Y984812D01*
X860284Y984895D01*
X860295Y984965D01*
X860307Y985024D01*
X860319Y985059D01*
X860331Y985082D01*
Y985094D01*
X860401Y985352D01*
X860483Y985587D01*
X860577Y985786D01*
X860647Y985963D01*
X860730Y986115D01*
X860776Y986221D01*
X860823Y986279D01*
X860835Y986303D01*
X860964Y986479D01*
X861093Y986631D01*
X861234Y986760D01*
X861363Y986878D01*
X861480Y986960D01*
X861574Y987019D01*
X861633Y987054D01*
X861645Y987066D01*
X861656D01*
X861844Y987159D01*
X862044Y987218D01*
X862232Y987265D01*
X862408Y987300D01*
X862560Y987324D01*
X862689Y987335D01*
X862795D01*
X863112Y987312D01*
D02*
G37*
%LPC*%
G36*
X862877Y986514D02*
X862807D01*
X862678Y986502D01*
X862548Y986490D01*
X862431Y986455D01*
X862325Y986408D01*
X862126Y986303D01*
X861950Y986185D01*
X861821Y986056D01*
X861715Y985951D01*
X861680Y985904D01*
X861656Y985869D01*
X861633Y985857D01*
Y985845D01*
X861551Y985704D01*
X861480Y985540D01*
X861410Y985352D01*
X861363Y985153D01*
X861316Y984941D01*
X861281Y984719D01*
X861222Y984273D01*
X861199Y984050D01*
X861187Y983850D01*
X861175Y983662D01*
Y983510D01*
X861164Y983369D01*
Y983263D01*
Y983205D01*
Y983193D01*
Y983181D01*
Y982818D01*
X861187Y982489D01*
X861211Y982196D01*
X861234Y981914D01*
X861269Y981679D01*
X861316Y981456D01*
X861363Y981268D01*
X861398Y981093D01*
X861445Y980952D01*
X861492Y980834D01*
X861527Y980729D01*
X861574Y980647D01*
X861598Y980588D01*
X861621Y980553D01*
X861645Y980529D01*
Y980518D01*
X861739Y980400D01*
X861833Y980306D01*
X861926Y980212D01*
X862020Y980142D01*
X862220Y980025D01*
X862396Y979942D01*
X862560Y979896D01*
X862678Y979872D01*
X862724Y979860D01*
X862795D01*
X862924Y979872D01*
X863041Y979884D01*
X863264Y979966D01*
X863464Y980072D01*
X863640Y980189D01*
X863769Y980306D01*
X863874Y980412D01*
X863933Y980494D01*
X863957Y980506D01*
Y980518D01*
X864039Y980658D01*
X864109Y980823D01*
X864180Y981010D01*
X864227Y981210D01*
X864273Y981421D01*
X864309Y981644D01*
X864367Y982102D01*
X864391Y982313D01*
X864402Y982512D01*
X864414Y982700D01*
Y982853D01*
X864426Y982994D01*
Y983099D01*
Y983158D01*
Y983181D01*
X864414Y983545D01*
X864402Y983874D01*
X864379Y984179D01*
X864344Y984460D01*
X864309Y984707D01*
X864262Y984930D01*
X864215Y985129D01*
X864168Y985305D01*
X864121Y985458D01*
X864086Y985587D01*
X864039Y985693D01*
X864004Y985786D01*
X863968Y985845D01*
X863945Y985892D01*
X863921Y985916D01*
Y985927D01*
X863839Y986033D01*
X863757Y986127D01*
X863663Y986197D01*
X863569Y986268D01*
X863382Y986373D01*
X863205Y986444D01*
X863053Y986479D01*
X862924Y986502D01*
X862877Y986514D01*
D02*
G37*
%LPD*%
D11*
X877000Y957650D02*
Y965650D01*
X863000Y957650D02*
Y965650D01*
D49*
X906008Y973650D02*
X912992D01*
X885000Y976650D02*
X915000D01*
Y946650D02*
Y976650D01*
X885000Y946650D02*
Y976650D01*
Y946650D02*
X915000D01*
M02*
