G04*
G04 #@! TF.GenerationSoftware,Altium Limited,Altium Designer,23.11.1 (41)*
G04*
G04 Layer_Color=8388736*
%FSLAX44Y44*%
%MOMM*%
G71*
G04*
G04 #@! TF.SameCoordinates,E756FA19-21DF-4648-B389-9DDB0D33ADA7*
G04*
G04*
G04 #@! TF.FilePolarity,Positive*
G04*
G01*
G75*
%ADD49C,0.0500*%
%ADD50C,0.0100*%
D49*
X900850Y1005000D02*
Y1035000D01*
X884850D02*
X900850D01*
X884850Y1005000D02*
X900850D01*
X884850D02*
Y1035000D01*
X878000Y1005000D02*
Y1035000D01*
X862000D02*
X878000D01*
X862000Y1005000D02*
X878000D01*
X862000D02*
Y1035000D01*
X855150Y1005000D02*
Y1035000D01*
X839150D02*
X855150D01*
X839150Y1005000D02*
X855150D01*
X839150D02*
Y1035000D01*
X884850Y845000D02*
Y875000D01*
Y845000D02*
X900850D01*
X884850Y875000D02*
X900850D01*
Y845000D02*
Y875000D01*
X862000Y845000D02*
Y875000D01*
Y845000D02*
X878000D01*
X862000Y875000D02*
X878000D01*
Y845000D02*
Y875000D01*
X1004000Y995000D02*
Y1025000D01*
X988000D02*
X1004000D01*
X988000Y995000D02*
X1004000D01*
X988000D02*
Y1025000D01*
X915000Y936000D02*
X945000D01*
X915000Y920000D02*
Y936000D01*
X945000Y920000D02*
Y936000D01*
X915000Y920000D02*
X945000D01*
X915000Y952000D02*
X945000D01*
X915000Y936000D02*
Y952000D01*
X945000Y936000D02*
Y952000D01*
X915000Y936000D02*
X945000D01*
X1055000Y912000D02*
X1085000D01*
Y928000D01*
X1055000Y912000D02*
Y928000D01*
X1085000D01*
D50*
X950000Y890000D02*
Y990000D01*
X1050000Y890000D02*
Y990000D01*
X950000D02*
X1050000D01*
X950000Y890000D02*
X1050000D01*
X830000Y885000D02*
X910000D01*
Y1000000D01*
X830000D02*
X910000D01*
X830000Y885000D02*
Y1000000D01*
X1055000Y1005000D02*
X1085000D01*
X1055000Y975000D02*
Y1005000D01*
Y975000D02*
X1085000D01*
Y1005000D01*
X1084000Y952000D02*
Y968000D01*
X1056000D02*
X1084000D01*
X1056000Y952000D02*
X1084000D01*
X1056000D02*
Y968000D01*
X930000Y820950D02*
Y880950D01*
X1070000Y820950D02*
Y880950D01*
X930000D02*
X1070000D01*
X930000Y820950D02*
X1070000D01*
X1160000Y820000D02*
Y940000D01*
X1100000Y820000D02*
Y940000D01*
X1160000D01*
X1100000Y820000D02*
X1160000D01*
X810000Y1120000D02*
X930000D01*
X810000Y1060000D02*
X930000D01*
X810000D02*
Y1120000D01*
X930000Y1060000D02*
Y1120000D01*
X930000D02*
X1050000D01*
X930000Y1060000D02*
X1050000D01*
X930000D02*
Y1120000D01*
X1050000Y1060000D02*
Y1120000D01*
X1160000Y950000D02*
Y1070000D01*
X1100000Y950000D02*
Y1070000D01*
X1160000D01*
X1100000Y950000D02*
X1160000D01*
X1055000Y1015000D02*
X1085000D01*
Y1045000D01*
X1055000D02*
X1085000D01*
X1055000Y1015000D02*
Y1045000D01*
X1004000Y996000D02*
X1020000D01*
Y1024000D01*
X1004000Y996000D02*
Y1024000D01*
X1020000D01*
X988400Y1032000D02*
Y1048000D01*
X960400D02*
X988400D01*
X960400Y1032000D02*
X988400D01*
X960400D02*
Y1048000D01*
X991600Y1032000D02*
Y1048000D01*
Y1032000D02*
X1019600D01*
X991600Y1048000D02*
X1019600D01*
Y1032000D02*
Y1048000D01*
X1084000Y1072000D02*
Y1088000D01*
X1056000D02*
X1084000D01*
X1056000Y1072000D02*
X1084000D01*
X1056000D02*
Y1088000D01*
X1056000Y932000D02*
Y948000D01*
Y932000D02*
X1084000D01*
X1056000Y948000D02*
X1084000D01*
Y932000D02*
Y948000D01*
X1056000Y1052000D02*
Y1068000D01*
Y1052000D02*
X1084000D01*
X1056000Y1068000D02*
X1084000D01*
Y1052000D02*
Y1068000D01*
M02*
