%TF.GenerationSoftware,Altium Limited,Altium Designer,23.11.1 (41)*%
G04 Layer_Physical_Order=1*
G04 Layer_Color=255*
%FSLAX45Y45*%
%MOMM*%
%TF.SameCoordinates,EE14C10C-1293-43E7-8F5D-FAE76E51A431*%
%TF.FilePolarity,Positive*%
%TF.FileFunction,Copper,L1,Top,Signal*%
%TF.Part,Single*%
G01*
G75*
%TA.AperFunction,SMDPad,CuDef*%
%ADD10R,0.50000X1.20000*%
%ADD11R,1.20000X0.50000*%
%ADD12R,1.00000X1.75000*%
%ADD13R,5.50000X5.70000*%
%ADD14R,0.60000X0.80000*%
%ADD15R,0.70000X1.40000*%
%ADD16R,2.00000X3.00000*%
%ADD17R,0.75000X1.50000*%
%ADD18R,3.00000X2.00000*%
%ADD19R,1.50000X0.75000*%
%ADD20R,1.20000X0.75000*%
%ADD21R,0.75000X1.20000*%
%ADD22R,1.40000X0.70000*%
%TA.AperFunction,Conductor*%
%ADD23C,0.50000*%
%ADD24C,0.75000*%
%TA.AperFunction,ViaPad*%
%ADD25C,5.00000*%
%ADD26C,1.00000*%
G36*
X11656158Y11282335D02*
X11692532Y11272589D01*
X11727321Y11258178D01*
X11759929Y11239352D01*
X11789803Y11216429D01*
X11816429Y11189803D01*
X11839352Y11159930D01*
X11858179Y11127319D01*
X11872589Y11092531D01*
X11882335Y11056159D01*
X11887250Y11018828D01*
Y11000000D01*
Y8400000D01*
Y8381172D01*
X11882335Y8343842D01*
X11872589Y8307468D01*
X11858178Y8272679D01*
X11839352Y8240070D01*
X11816429Y8210197D01*
X11789803Y8183571D01*
X11759929Y8160648D01*
X11727319Y8141821D01*
X11692531Y8127411D01*
X11656159Y8117665D01*
X11618828Y8112750D01*
X8181172D01*
X8143840Y8117665D01*
X8107468Y8127411D01*
X8072679Y8141821D01*
X8040070Y8160648D01*
X8010197Y8183571D01*
X7983571Y8210197D01*
X7960648Y8240070D01*
X7941821Y8272680D01*
X7927411Y8307469D01*
X7917665Y8343841D01*
X7912750Y8381172D01*
Y8406800D01*
X7912750Y11000075D01*
X7912755Y11018900D01*
X7917678Y11056224D01*
X7927430Y11092588D01*
X7941844Y11127367D01*
X7960675Y11159969D01*
X7983597Y11189833D01*
X8010224Y11216452D01*
X8040094Y11239367D01*
X8072701Y11258189D01*
X8107483Y11272594D01*
X8143849Y11282336D01*
X8181176Y11287250D01*
X11618828D01*
X11656158Y11282335D01*
D02*
G37*
%LPC*%
G36*
X8367500Y11150000D02*
X8267501D01*
Y11000000D01*
X8367500D01*
Y11150000D01*
D02*
G37*
G36*
X9252500D02*
X9152501D01*
Y11000000D01*
X9252500D01*
Y11150000D01*
D02*
G37*
G36*
X10452500D02*
X10352500D01*
Y11000000D01*
X10452500D01*
Y11150000D01*
D02*
G37*
G36*
X9567500D02*
X9467500D01*
Y11000000D01*
X9567500D01*
Y11150000D01*
D02*
G37*
G36*
X10332500D02*
X10232500D01*
Y11000000D01*
X10332500D01*
Y11150000D01*
D02*
G37*
G36*
X9447500D02*
X9347500D01*
Y11000000D01*
X9447500D01*
Y11150000D01*
D02*
G37*
G36*
X8247501D02*
X8147500D01*
Y11000000D01*
X8247501D01*
Y11150000D01*
D02*
G37*
G36*
X9132501D02*
X9032500D01*
Y11000000D01*
X9132501D01*
Y11150000D01*
D02*
G37*
G36*
X10102768Y11084168D02*
X10078898D01*
X10056846Y11075033D01*
X10039967Y11058155D01*
X10030833Y11036102D01*
Y11012233D01*
X10039967Y10990180D01*
X10056846Y10973302D01*
X10078898Y10964168D01*
X10102768D01*
X10124820Y10973302D01*
X10141699Y10990180D01*
X10150833Y11012233D01*
Y11036102D01*
X10141699Y11058155D01*
X10124820Y11075033D01*
X10102768Y11084168D01*
D02*
G37*
G36*
X10452500Y10980000D02*
X10352500D01*
Y10830000D01*
X10452500D01*
Y10980000D01*
D02*
G37*
G36*
X10332500D02*
X10232500D01*
Y10830000D01*
X10332500D01*
Y10980000D01*
D02*
G37*
G36*
X9567500D02*
X9467500D01*
Y10830000D01*
X9567500D01*
Y10980000D01*
D02*
G37*
G36*
X9447500D02*
X9347500D01*
Y10830000D01*
X9447500D01*
Y10980000D01*
D02*
G37*
G36*
X9252500D02*
X9152501D01*
Y10830000D01*
X9252500D01*
Y10980000D01*
D02*
G37*
G36*
X9132501D02*
X9032500D01*
Y10830000D01*
X9132501D01*
Y10980000D01*
D02*
G37*
G36*
X8367500D02*
X8267501D01*
Y10830000D01*
X8367500D01*
Y10980000D01*
D02*
G37*
G36*
X8247501D02*
X8147500D01*
Y10830000D01*
X8247501D01*
Y10980000D01*
D02*
G37*
G36*
X8935000Y10785000D02*
X8840000D01*
Y10748431D01*
X8810000D01*
Y10785000D01*
X8715000D01*
Y10704679D01*
X8714069Y10700000D01*
X8715000Y10695321D01*
Y10615000D01*
X8810000D01*
Y10651569D01*
X8840000D01*
Y10615000D01*
X8935000D01*
Y10651569D01*
X9015740D01*
X9108269Y10559040D01*
Y10192761D01*
X9063940Y10148431D01*
X8471500D01*
X8466822Y10147500D01*
X8401500D01*
Y10052500D01*
X8423070D01*
Y9964000D01*
X8411500D01*
Y9769000D01*
X8435814D01*
Y9702466D01*
X8420635Y9687287D01*
X8411500Y9665234D01*
Y9641365D01*
X8420635Y9619312D01*
X8437513Y9602434D01*
X8459566Y9593300D01*
X8483435D01*
X8505487Y9602434D01*
X8522366Y9619312D01*
X8531500Y9641365D01*
Y9665234D01*
X8522366Y9687287D01*
X8507186Y9702466D01*
Y9769000D01*
X8531500D01*
Y9964000D01*
X8519931D01*
Y10051569D01*
X9084000D01*
X9102534Y10055256D01*
X9118246Y10065755D01*
X9190946Y10138454D01*
X9201444Y10154166D01*
X9205131Y10172700D01*
Y10579100D01*
X9201444Y10597634D01*
X9190946Y10613346D01*
X9070046Y10734245D01*
X9054334Y10744744D01*
X9035800Y10748431D01*
X8935000D01*
Y10785000D01*
D02*
G37*
G36*
X10618435Y11073201D02*
X10594565D01*
X10572513Y11064066D01*
X10555634Y11047188D01*
X10546500Y11025135D01*
Y11001266D01*
X10555634Y10979213D01*
X10570814Y10964034D01*
Y10880000D01*
X10561500D01*
Y10720000D01*
X10651500D01*
Y10880000D01*
X10642186D01*
Y10964034D01*
X10657366Y10979213D01*
X10666500Y11001266D01*
Y11025135D01*
X10657366Y11047188D01*
X10640487Y11064066D01*
X10618435Y11073201D01*
D02*
G37*
G36*
X8560000Y10785000D02*
X8522500D01*
Y10710000D01*
X8560000D01*
Y10785000D01*
D02*
G37*
G36*
X9760000D02*
X9722499D01*
Y10710000D01*
X9760000D01*
Y10785000D01*
D02*
G37*
G36*
X8685000D02*
X8647499D01*
Y10710000D01*
X8685000D01*
Y10785000D01*
D02*
G37*
G36*
X8627499D02*
X8590000D01*
Y10710000D01*
X8627499D01*
Y10785000D01*
D02*
G37*
G36*
X9702500D02*
X9665000D01*
Y10710000D01*
X9702500D01*
Y10785000D01*
D02*
G37*
G36*
X8502500D02*
X8465000D01*
Y10710000D01*
X8502500D01*
Y10785000D01*
D02*
G37*
G36*
X9760000Y10690000D02*
X9722499D01*
Y10615000D01*
X9760000D01*
Y10690000D01*
D02*
G37*
G36*
X9702500D02*
X9665000D01*
Y10615000D01*
X9702500D01*
Y10690000D01*
D02*
G37*
G36*
X8685000D02*
X8647499D01*
Y10615000D01*
X8685000D01*
Y10690000D01*
D02*
G37*
G36*
X8627499D02*
X8590000D01*
Y10615000D01*
X8627499D01*
Y10690000D01*
D02*
G37*
G36*
X8560000D02*
X8522500D01*
Y10615000D01*
X8560000D01*
Y10690000D01*
D02*
G37*
G36*
X8502500D02*
X8465000D01*
Y10615000D01*
X8502500D01*
Y10690000D01*
D02*
G37*
G36*
X10651500Y10680000D02*
X10616500D01*
Y10610000D01*
X10651500D01*
Y10680000D01*
D02*
G37*
G36*
X10596500D02*
X10561500D01*
Y10610000D01*
X10596500D01*
Y10680000D01*
D02*
G37*
G36*
X11550000Y10652500D02*
X11400000D01*
Y10552499D01*
X11550000D01*
Y10652500D01*
D02*
G37*
G36*
X11380000D02*
X11230000D01*
Y10552499D01*
X11380000D01*
Y10652500D01*
D02*
G37*
G36*
X10651500Y10590000D02*
X10616500D01*
Y10520000D01*
X10651500D01*
Y10590000D01*
D02*
G37*
G36*
X10596500D02*
X10561500D01*
Y10520000D01*
X10596500D01*
Y10590000D01*
D02*
G37*
G36*
X10640000Y10480000D02*
X10609999D01*
Y10440000D01*
X10640000D01*
Y10480000D01*
D02*
G37*
G36*
X10589999D02*
X10560000D01*
Y10440000D01*
X10589999D01*
Y10480000D01*
D02*
G37*
G36*
X9695500D02*
X9605500D01*
Y10435686D01*
X9486466D01*
X9471287Y10450866D01*
X9449234Y10460000D01*
X9425365D01*
X9403312Y10450866D01*
X9386434Y10433987D01*
X9377300Y10411935D01*
Y10388065D01*
X9386434Y10366013D01*
X9403312Y10349134D01*
X9425365Y10340000D01*
X9449234D01*
X9471287Y10349134D01*
X9486466Y10364314D01*
X9605500D01*
Y10320000D01*
X9695500D01*
Y10480000D01*
D02*
G37*
G36*
X11550000Y10532499D02*
X11400000D01*
Y10432500D01*
X11550000D01*
Y10532499D01*
D02*
G37*
G36*
X11380000D02*
X11230000D01*
Y10432500D01*
X11380000D01*
Y10532499D01*
D02*
G37*
G36*
X10838500Y10880000D02*
X10748500D01*
Y10720000D01*
X10761064D01*
Y10680000D01*
X10748500D01*
Y10520000D01*
X10761064D01*
Y10480000D01*
X10760000D01*
Y10380000D01*
X10840000D01*
Y10480000D01*
X10832436D01*
Y10520000D01*
X10838500D01*
Y10680000D01*
X10832436D01*
Y10720000D01*
X10838500D01*
Y10880000D01*
D02*
G37*
G36*
X10640000Y10420000D02*
X10609999D01*
Y10380000D01*
X10640000D01*
Y10420000D01*
D02*
G37*
G36*
X10589999D02*
X10560000D01*
Y10380000D01*
X10589999D01*
Y10420000D01*
D02*
G37*
G36*
X10135000Y10785000D02*
X10040000D01*
Y10615000D01*
X10055147D01*
Y10584767D01*
X10057864Y10571111D01*
X10065599Y10559533D01*
X10113814Y10511319D01*
Y10480000D01*
X10104500D01*
Y10393449D01*
X10103814Y10390000D01*
Y10238499D01*
X10042700D01*
X10040000Y10238500D01*
X10030000Y10245017D01*
Y10247500D01*
X9970000D01*
Y10200000D01*
Y10152500D01*
X10028958Y10152499D01*
X10040000Y10148499D01*
X10041043Y10148500D01*
X10200000D01*
Y10238499D01*
X10175185D01*
Y10320000D01*
X10194500D01*
Y10364314D01*
X10313534D01*
X10328713Y10349134D01*
X10350766Y10340000D01*
X10374635D01*
X10396688Y10349134D01*
X10413566Y10366013D01*
X10422701Y10388065D01*
Y10411935D01*
X10413566Y10433987D01*
X10396688Y10450866D01*
X10374635Y10460000D01*
X10350766D01*
X10328713Y10450866D01*
X10313534Y10435686D01*
X10194500D01*
Y10480000D01*
X10185186D01*
Y10526100D01*
X10182469Y10539756D01*
X10174734Y10551334D01*
X10126519Y10599549D01*
Y10615000D01*
X10135000D01*
Y10785000D01*
D02*
G37*
G36*
X9974435Y10973201D02*
X9950565D01*
X9928513Y10964066D01*
X9911634Y10947188D01*
X9902500Y10925135D01*
Y10901266D01*
X9911634Y10879213D01*
X9926814Y10864034D01*
Y10785000D01*
X9915000D01*
Y10615000D01*
X9926814D01*
Y10480000D01*
X9917500D01*
Y10320000D01*
X10007500D01*
Y10480000D01*
X9998186D01*
Y10615000D01*
X10010000D01*
Y10785000D01*
X9998186D01*
Y10864034D01*
X10013366Y10879213D01*
X10022500Y10901266D01*
Y10925135D01*
X10013366Y10947188D01*
X9996487Y10964066D01*
X9974435Y10973201D01*
D02*
G37*
G36*
X9849435Y11087501D02*
X9825565D01*
X9803513Y11078366D01*
X9786634Y11061488D01*
X9777500Y11039435D01*
Y11015566D01*
X9786634Y10993513D01*
X9801814Y10978334D01*
Y10785000D01*
X9790000D01*
Y10615000D01*
X9801814D01*
Y10480000D01*
X9792500D01*
Y10320000D01*
X9882500D01*
Y10480000D01*
X9873186D01*
Y10615000D01*
X9885000D01*
Y10785000D01*
X9873186D01*
Y10978334D01*
X9888366Y10993513D01*
X9897500Y11015566D01*
Y11039435D01*
X9888366Y11061488D01*
X9871487Y11078366D01*
X9849435Y11087501D01*
D02*
G37*
G36*
X8998500Y10347500D02*
X8938500D01*
Y10310001D01*
X8998500D01*
Y10347500D01*
D02*
G37*
G36*
X8541500D02*
X8481500D01*
Y10310001D01*
X8541500D01*
Y10347500D01*
D02*
G37*
G36*
X8918500D02*
X8858500D01*
Y10310001D01*
X8918500D01*
Y10347500D01*
D02*
G37*
G36*
X8461500D02*
X8401500D01*
Y10310001D01*
X8461500D01*
Y10347500D01*
D02*
G37*
G36*
X8770000D02*
X8709999D01*
Y10310001D01*
X8770000D01*
Y10347500D01*
D02*
G37*
G36*
X8689999D02*
X8630000D01*
Y10310001D01*
X8689999D01*
Y10347500D01*
D02*
G37*
G36*
X8998500Y10290001D02*
X8938500D01*
Y10252500D01*
X8998500D01*
Y10290001D01*
D02*
G37*
G36*
X8918500D02*
X8858500D01*
Y10252500D01*
X8918500D01*
Y10290001D01*
D02*
G37*
G36*
X8770000Y10290001D02*
X8709999D01*
Y10252500D01*
X8770000D01*
Y10290001D01*
D02*
G37*
G36*
X8689999D02*
X8630000D01*
Y10252500D01*
X8689999D01*
Y10290001D01*
D02*
G37*
G36*
X8541500Y10290001D02*
X8481500D01*
Y10252500D01*
X8541500D01*
Y10290001D01*
D02*
G37*
G36*
X8461500D02*
X8401500D01*
Y10252500D01*
X8461500D01*
Y10290001D01*
D02*
G37*
G36*
X11184999Y10335000D02*
X11015000D01*
Y10323186D01*
X10942500D01*
X10928844Y10320469D01*
X10917266Y10312734D01*
X10810218Y10205686D01*
X10740000D01*
Y10220000D01*
X10660000D01*
Y10120000D01*
X10740000D01*
Y10134314D01*
X10825000D01*
X10838656Y10137031D01*
X10850233Y10144766D01*
X10957281Y10251814D01*
X11015000D01*
Y10240000D01*
X11184999D01*
Y10335000D01*
D02*
G37*
G36*
X9950000Y10247500D02*
X9890000D01*
Y10210000D01*
X9950000D01*
Y10247500D01*
D02*
G37*
G36*
Y10190000D02*
X9890000D01*
Y10152500D01*
X9950000D01*
Y10190000D01*
D02*
G37*
G36*
X11184999Y10210000D02*
X11015000D01*
Y10198186D01*
X10949900D01*
X10936244Y10195469D01*
X10924666Y10187734D01*
X10817619Y10080686D01*
X10705000D01*
X10701551Y10080000D01*
X10660000D01*
Y9980000D01*
X10740000D01*
Y10009314D01*
X10832400D01*
X10846057Y10012031D01*
X10857634Y10019767D01*
X10964682Y10126814D01*
X11015000D01*
Y10115000D01*
X11184999D01*
Y10210000D01*
D02*
G37*
G36*
X8988500Y9964000D02*
X8938501D01*
Y9876500D01*
X8988500D01*
Y9964000D01*
D02*
G37*
G36*
X8918501D02*
X8868500D01*
Y9876500D01*
X8918501D01*
Y9964000D01*
D02*
G37*
G36*
X10840000Y9820000D02*
X10809999D01*
Y9780000D01*
X10840000D01*
Y9820000D01*
D02*
G37*
G36*
X10790000D02*
X10760000D01*
Y9780000D01*
X10790000D01*
Y9820000D01*
D02*
G37*
G36*
X8988500Y9856500D02*
X8938501D01*
Y9769000D01*
X8988500D01*
Y9856500D01*
D02*
G37*
G36*
X8918501D02*
X8868500D01*
Y9769000D01*
X8918501D01*
Y9856500D01*
D02*
G37*
G36*
X9811935Y10098200D02*
X9788065D01*
X9766013Y10089066D01*
X9749134Y10072188D01*
X9740000Y10050135D01*
Y10026266D01*
X9749134Y10004213D01*
X9764314Y9989033D01*
Y9903174D01*
X9755000Y9895000D01*
X9751614Y9895000D01*
X9685000D01*
Y9755000D01*
X9752300D01*
X9755000Y9755000D01*
X9765000D01*
X9767700Y9755000D01*
X9831614D01*
X9835000Y9755000D01*
X9844314Y9746826D01*
Y9705810D01*
X9774766Y9636262D01*
X9767031Y9624685D01*
X9764314Y9611029D01*
Y9546666D01*
X9749134Y9531486D01*
X9740000Y9509434D01*
Y9485564D01*
X9749134Y9463512D01*
X9766013Y9446633D01*
X9788065Y9437499D01*
X9811935D01*
X9833987Y9446633D01*
X9850865Y9463512D01*
X9860000Y9485564D01*
Y9509434D01*
X9850865Y9531486D01*
X9835686Y9546666D01*
Y9596247D01*
X9905234Y9665795D01*
X9911614Y9675345D01*
X9920623Y9674579D01*
X9924314Y9673232D01*
Y9660966D01*
X9909135Y9645786D01*
X9900000Y9623734D01*
Y9599864D01*
X9909135Y9577812D01*
X9926013Y9560933D01*
X9948065Y9551799D01*
X9971935D01*
X9993987Y9560933D01*
X10010014Y9576960D01*
X10014059Y9576577D01*
X10022714Y9573230D01*
Y9546666D01*
X10007534Y9531486D01*
X9998400Y9509434D01*
Y9485564D01*
X10007534Y9463512D01*
X10024413Y9446633D01*
X10046465Y9437499D01*
X10070335D01*
X10092387Y9446633D01*
X10109266Y9463512D01*
X10118400Y9485564D01*
Y9509434D01*
X10109266Y9531486D01*
X10094086Y9546666D01*
Y9641314D01*
X10092106Y9651265D01*
X10103708Y9657624D01*
X10140000Y9621332D01*
Y9599864D01*
X10149134Y9577812D01*
X10166013Y9560933D01*
X10188065Y9551799D01*
X10211935D01*
X10233987Y9560933D01*
X10250865Y9577812D01*
X10260000Y9599864D01*
Y9623734D01*
X10250865Y9645786D01*
X10233987Y9662664D01*
X10211935Y9671799D01*
X10190467D01*
X10155686Y9706580D01*
Y9746826D01*
X10165000Y9755000D01*
X10168386Y9755000D01*
X10232300D01*
X10235000Y9755000D01*
X10245000D01*
X10247700Y9755000D01*
X10315000D01*
Y9895000D01*
X10247700D01*
X10245000Y9895000D01*
X10235000D01*
X10232300Y9895000D01*
X10167700D01*
X10165000Y9895000D01*
X10155000D01*
X10152300Y9895000D01*
X10087700D01*
X10085000Y9895000D01*
X10075000D01*
X10072300Y9895000D01*
X10005000D01*
X9995686Y9903174D01*
Y9952500D01*
X10030000D01*
Y9954982D01*
X10040001Y9961500D01*
X10200000D01*
Y10051500D01*
X10041043D01*
X10040001Y10051500D01*
Y10051500D01*
X10029999Y10047500D01*
X10029999Y10047500D01*
X9890000D01*
Y9952500D01*
X9924314D01*
Y9903173D01*
X9915000Y9895000D01*
X9911614Y9895000D01*
X9848386D01*
X9845000Y9895000D01*
X9835686Y9903173D01*
Y9989033D01*
X9850865Y10004213D01*
X9860000Y10026266D01*
Y10050135D01*
X9850865Y10072188D01*
X9833987Y10089066D01*
X9811935Y10098200D01*
D02*
G37*
G36*
X10840000Y9760000D02*
X10809999D01*
Y9720000D01*
X10840000D01*
Y9760000D01*
D02*
G37*
G36*
X10790000D02*
X10760000D01*
Y9720000D01*
X10790000D01*
Y9760000D01*
D02*
G37*
G36*
X11550000Y9767500D02*
X11400001D01*
Y9667500D01*
X11550000D01*
Y9767500D01*
D02*
G37*
G36*
X11380001D02*
X11230000D01*
Y9667500D01*
X11380001D01*
Y9767500D01*
D02*
G37*
G36*
X10838500Y9680000D02*
X10803499D01*
Y9610000D01*
X10838500D01*
Y9680000D01*
D02*
G37*
G36*
X10783499D02*
X10748500D01*
Y9610000D01*
X10783499D01*
Y9680000D01*
D02*
G37*
G36*
X11550000Y9647500D02*
X11400001D01*
Y9547500D01*
X11550000D01*
Y9647500D01*
D02*
G37*
G36*
X11380001D02*
X11230000D01*
Y9547500D01*
X11380001D01*
Y9647500D01*
D02*
G37*
G36*
X9645000Y9715000D02*
X9505000D01*
Y9647700D01*
X9505000Y9645000D01*
Y9635000D01*
X9505000Y9632300D01*
Y9567700D01*
X9505000Y9565000D01*
Y9555000D01*
X9505000Y9552300D01*
Y9530000D01*
X9645000D01*
Y9552300D01*
X9645000Y9555000D01*
Y9565000D01*
X9645000Y9567700D01*
Y9632300D01*
X9645000Y9635000D01*
Y9645000D01*
X9645000Y9647700D01*
Y9715000D01*
D02*
G37*
G36*
X10838500Y9590000D02*
X10803499D01*
Y9520000D01*
X10838500D01*
Y9590000D01*
D02*
G37*
G36*
X10783499D02*
X10748500D01*
Y9520000D01*
X10783499D01*
Y9590000D01*
D02*
G37*
G36*
X10495000Y9715000D02*
X10355000D01*
Y9647700D01*
X10355000Y9645000D01*
Y9635000D01*
X10355000Y9632300D01*
Y9567700D01*
X10355000Y9565000D01*
Y9555000D01*
X10355000Y9552300D01*
Y9487700D01*
X10355000Y9485000D01*
Y9475000D01*
X10355000Y9472300D01*
Y9450000D01*
X10495000D01*
Y9472300D01*
X10495000Y9475000D01*
Y9485000D01*
X10495000Y9487700D01*
Y9552300D01*
X10495000Y9555000D01*
Y9565000D01*
X10495000Y9567700D01*
Y9632300D01*
X10495000Y9635000D01*
Y9645000D01*
X10495000Y9647700D01*
Y9715000D01*
D02*
G37*
G36*
X9247500Y9510000D02*
X9210000D01*
Y9450000D01*
X9247500D01*
Y9510000D01*
D02*
G37*
G36*
X9190000D02*
X9152500D01*
Y9450000D01*
X9190000D01*
Y9510000D01*
D02*
G37*
G36*
X11184999Y10085000D02*
X11015000D01*
Y9990000D01*
X11064314D01*
Y9960000D01*
X11015000D01*
Y9865000D01*
X11064314D01*
Y9748466D01*
X11049134Y9733287D01*
X11040000Y9711234D01*
Y9687365D01*
X11049134Y9665312D01*
X11064314Y9650132D01*
Y9445200D01*
X11051614Y9439939D01*
X11040687Y9450866D01*
X11018635Y9460000D01*
X10994765D01*
X10972713Y9450866D01*
X10957533Y9435686D01*
X10838499D01*
Y9480000D01*
X10748499D01*
Y9320000D01*
X10838499D01*
Y9364314D01*
X10957533D01*
X10972713Y9349134D01*
X10994765Y9340000D01*
X11018635D01*
X11040687Y9349134D01*
X11051614Y9360061D01*
X11064314Y9354800D01*
Y9273281D01*
X10813518Y9022485D01*
X10649167D01*
X10635686Y9035966D01*
Y9130000D01*
X10647500D01*
Y9270000D01*
X10552500D01*
Y9235685D01*
X10503174D01*
X10495000Y9245000D01*
X10495000Y9248386D01*
Y9312300D01*
X10495000Y9315000D01*
Y9325000D01*
X10495000Y9327700D01*
Y9392299D01*
X10495000Y9395000D01*
Y9405000D01*
X10495000Y9407700D01*
Y9430000D01*
X10355000D01*
Y9407700D01*
X10355000Y9405000D01*
Y9395000D01*
X10355000Y9392299D01*
Y9327700D01*
X10355000Y9325000D01*
Y9315000D01*
X10355000Y9312300D01*
Y9247700D01*
X10355000Y9245000D01*
Y9235000D01*
X10355000Y9232300D01*
Y9167700D01*
X10355000Y9165000D01*
Y9155000D01*
X10355000Y9152299D01*
Y9085000D01*
X10389314D01*
Y8955966D01*
X10374134Y8940786D01*
X10365000Y8918734D01*
Y8894864D01*
X10374134Y8872812D01*
X10391013Y8855934D01*
X10413065Y8846799D01*
X10436935D01*
X10458987Y8855934D01*
X10475866Y8872812D01*
X10485000Y8894864D01*
Y8918734D01*
X10475866Y8940786D01*
X10460686Y8955966D01*
Y9085000D01*
X10495000D01*
Y9151614D01*
X10495000Y9155000D01*
X10503174Y9164314D01*
X10552500D01*
Y9130000D01*
X10564314D01*
Y9035966D01*
X10549134Y9020786D01*
X10540000Y8998734D01*
Y8974864D01*
X10549134Y8952812D01*
X10566013Y8935934D01*
X10588065Y8926799D01*
X10611935D01*
X10633987Y8935934D01*
X10649167Y8951113D01*
X10828299D01*
X10841955Y8953830D01*
X10853533Y8961566D01*
X11125233Y9233266D01*
X11132969Y9244843D01*
X11135685Y9258500D01*
Y9650132D01*
X11150865Y9665312D01*
X11160000Y9687365D01*
Y9711234D01*
X11150865Y9733287D01*
X11135685Y9748466D01*
Y9865000D01*
X11184999D01*
Y9960000D01*
X11135685D01*
Y9990000D01*
X11184999D01*
Y10085000D01*
D02*
G37*
G36*
X9411935Y9713200D02*
X9388065D01*
X9366013Y9704066D01*
X9349134Y9687188D01*
X9340000Y9665135D01*
Y9641266D01*
X9349134Y9619213D01*
X9364314Y9604033D01*
Y9510000D01*
X9352500D01*
Y9370000D01*
X9447500D01*
Y9404314D01*
X9496826D01*
X9505000Y9395000D01*
X9505000Y9391614D01*
Y9370000D01*
X9645000D01*
Y9392299D01*
X9645000Y9395000D01*
Y9405000D01*
X9645000Y9407700D01*
Y9472300D01*
X9645000Y9475000D01*
Y9485000D01*
X9645000Y9487700D01*
Y9510000D01*
X9505000D01*
Y9488386D01*
X9505000Y9485000D01*
X9496827Y9475685D01*
X9447500D01*
Y9510000D01*
X9435686D01*
Y9604033D01*
X9450866Y9619213D01*
X9460000Y9641266D01*
Y9665135D01*
X9450866Y9687188D01*
X9433987Y9704066D01*
X9411935Y9713200D01*
D02*
G37*
G36*
X9247500Y9430000D02*
X9210000D01*
Y9370000D01*
X9247500D01*
Y9430000D01*
D02*
G37*
G36*
X9190000D02*
X9152500D01*
Y9370000D01*
X9190000D01*
Y9430000D01*
D02*
G37*
G36*
X10640000Y9820000D02*
X10560000D01*
Y9720000D01*
X10567564D01*
Y9680000D01*
X10561500D01*
Y9520000D01*
X10567564D01*
Y9480000D01*
X10561500D01*
Y9320000D01*
X10651499D01*
Y9480000D01*
X10638935D01*
Y9520000D01*
X10651500D01*
Y9680000D01*
X10638935D01*
Y9720000D01*
X10640000D01*
Y9820000D01*
D02*
G37*
G36*
X9247500Y9350000D02*
X9210000D01*
Y9290000D01*
X9247500D01*
Y9350000D01*
D02*
G37*
G36*
X9190000D02*
X9152500D01*
Y9290000D01*
X9190000D01*
Y9350000D01*
D02*
G37*
G36*
X11550000Y9352500D02*
X11400000D01*
Y9252500D01*
X11550000D01*
Y9352500D01*
D02*
G37*
G36*
X11380000D02*
X11230000D01*
Y9252500D01*
X11380000D01*
Y9352500D01*
D02*
G37*
G36*
X10847500Y9270000D02*
X10809999D01*
Y9210000D01*
X10847500D01*
Y9270000D01*
D02*
G37*
G36*
X9247500D02*
X9210000D01*
Y9210000D01*
X9247500D01*
Y9270000D01*
D02*
G37*
G36*
X9190000D02*
X9152500D01*
Y9210000D01*
X9190000D01*
Y9270000D01*
D02*
G37*
G36*
X10790000D02*
X10752500D01*
Y9210000D01*
X10790000D01*
Y9270000D01*
D02*
G37*
G36*
X11550000Y9232500D02*
X11400000D01*
Y9132500D01*
X11550000D01*
Y9232500D01*
D02*
G37*
G36*
X11380000D02*
X11230000D01*
Y9132500D01*
X11380000D01*
Y9232500D01*
D02*
G37*
G36*
X10847500Y9190000D02*
X10809999D01*
Y9130000D01*
X10847500D01*
Y9190000D01*
D02*
G37*
G36*
X10790000D02*
X10752500D01*
Y9130000D01*
X10790000D01*
Y9190000D01*
D02*
G37*
G36*
X10051935Y9362500D02*
X10028065D01*
X10006013Y9353366D01*
X9989134Y9336488D01*
X9980000Y9314435D01*
Y9290566D01*
X9989134Y9268513D01*
X10004314Y9253334D01*
Y9112467D01*
X10000626Y9111121D01*
X9991614Y9110355D01*
X9985234Y9119904D01*
X9936741Y9168397D01*
X9940000Y9176266D01*
Y9200135D01*
X9930866Y9222188D01*
X9913987Y9239066D01*
X9891935Y9248200D01*
X9868065D01*
X9846013Y9239066D01*
X9829135Y9222188D01*
X9820000Y9200135D01*
Y9176266D01*
X9829135Y9154213D01*
X9846013Y9137335D01*
X9868065Y9128201D01*
X9876003D01*
X9924314Y9079889D01*
Y9053173D01*
X9915000Y9045000D01*
X9911614Y9045000D01*
X9847700D01*
X9845000Y9045000D01*
X9835000D01*
X9832300Y9045000D01*
X9767700D01*
X9765000Y9045000D01*
X9755000D01*
X9752300Y9045000D01*
X9685000D01*
Y8905000D01*
X9752300D01*
X9755000Y8905000D01*
X9765000D01*
X9767700Y8905000D01*
X9832300D01*
X9835000Y8905000D01*
X9845000D01*
X9847700Y8905000D01*
X9912300D01*
X9915000Y8905000D01*
X9925000D01*
X9927700Y8905000D01*
X9992300D01*
X9995000Y8905000D01*
X10005000D01*
X10007700Y8905000D01*
X10072300D01*
X10075000Y8905000D01*
X10085000D01*
X10087700Y8905000D01*
X10153531Y8905000D01*
X10161473Y8894981D01*
X10060993Y8794501D01*
X10016460D01*
Y8624501D01*
X10111460D01*
Y8718553D01*
X10112146Y8722001D01*
Y8744719D01*
X10129727Y8762300D01*
X10141460Y8757440D01*
Y8624501D01*
X10236460D01*
Y8718553D01*
X10237146Y8722001D01*
Y8764279D01*
X10254727Y8781860D01*
X10266460Y8776999D01*
Y8624501D01*
X10278274D01*
Y8545467D01*
X10263095Y8530287D01*
X10253960Y8508235D01*
Y8484365D01*
X10263095Y8462313D01*
X10279973Y8445434D01*
X10302025Y8436300D01*
X10325895D01*
X10347947Y8445434D01*
X10364826Y8462313D01*
X10373960Y8484365D01*
Y8508235D01*
X10364826Y8530287D01*
X10349646Y8545467D01*
Y8624501D01*
X10361460D01*
Y8794501D01*
X10283961D01*
X10279101Y8806234D01*
X10305234Y8832366D01*
X10312969Y8843944D01*
X10315686Y8857600D01*
Y8975000D01*
X10315000Y8978447D01*
Y9045000D01*
X10245001D01*
Y9045000D01*
X10235000D01*
Y9045000D01*
X10167700D01*
X10165000Y9045000D01*
X10155000D01*
X10152300Y9045000D01*
X10088386D01*
X10085000Y9045000D01*
X10075686Y9053173D01*
Y9253334D01*
X10090866Y9268513D01*
X10100000Y9290566D01*
Y9314435D01*
X10090866Y9336488D01*
X10073987Y9353366D01*
X10051935Y9362500D01*
D02*
G37*
G36*
X8985000Y9495000D02*
X8415000D01*
Y8905000D01*
X8651569D01*
Y8747500D01*
X8630000D01*
Y8652500D01*
X8695321D01*
X8700000Y8651569D01*
X8928500D01*
X8933179Y8652500D01*
X8998500D01*
Y8664314D01*
X9092534D01*
X9107714Y8649135D01*
X9129766Y8640000D01*
X9153636D01*
X9175688Y8649135D01*
X9190868Y8664314D01*
X9309600D01*
X9323256Y8667031D01*
X9334834Y8674766D01*
X9425234Y8765166D01*
X9432969Y8776744D01*
X9435686Y8790400D01*
Y9017632D01*
X9450866Y9032812D01*
X9460000Y9054864D01*
Y9078734D01*
X9450866Y9100786D01*
X9435686Y9115966D01*
Y9210000D01*
X9447500D01*
Y9244314D01*
X9496827D01*
X9505000Y9235000D01*
X9505000Y9231614D01*
Y9167700D01*
X9505000Y9165000D01*
Y9155000D01*
X9505000Y9152299D01*
Y9085000D01*
X9645000D01*
Y9152299D01*
X9645000Y9155000D01*
Y9165000D01*
X9645000Y9167700D01*
Y9232300D01*
X9645000Y9235000D01*
Y9245000D01*
X9645000Y9247700D01*
Y9312300D01*
X9645000Y9315000D01*
Y9325000D01*
X9645000Y9327700D01*
Y9350000D01*
X9505000D01*
Y9328386D01*
X9505000Y9325000D01*
X9496827Y9315685D01*
X9447500D01*
Y9350000D01*
X9352500D01*
Y9210000D01*
X9364314D01*
Y9115966D01*
X9349134Y9100786D01*
X9340000Y9078734D01*
Y9054864D01*
X9349134Y9032812D01*
X9364314Y9017632D01*
Y8805182D01*
X9294819Y8735686D01*
X9190868D01*
X9175688Y8750866D01*
X9153636Y8760000D01*
X9129766D01*
X9107714Y8750866D01*
X9092534Y8735686D01*
X8998500D01*
Y8747500D01*
X8933179D01*
X8928500Y8748431D01*
X8748431D01*
Y8905000D01*
X8985000D01*
Y9495000D01*
D02*
G37*
G36*
X11184999Y9035000D02*
X11109999D01*
Y8997500D01*
X11184999D01*
Y9035000D01*
D02*
G37*
G36*
X11089999D02*
X11015000D01*
Y8997500D01*
X11089999D01*
Y9035000D01*
D02*
G37*
G36*
X11184999Y8977500D02*
X11109999D01*
Y8940000D01*
X11184999D01*
Y8977500D01*
D02*
G37*
G36*
X11089999D02*
X11015000D01*
Y8940000D01*
X11089999D01*
Y8977500D01*
D02*
G37*
G36*
X10898734Y8922500D02*
X10874864D01*
X10852812Y8913365D01*
X10835933Y8896487D01*
X10826799Y8874435D01*
Y8850565D01*
X10835933Y8828513D01*
X10852812Y8811634D01*
X10864306Y8806873D01*
Y8793127D01*
X10852812Y8788365D01*
X10835933Y8771487D01*
X10826799Y8749435D01*
Y8725565D01*
X10835933Y8703513D01*
X10852812Y8686634D01*
X10874864Y8677500D01*
X10898734D01*
X10920786Y8686634D01*
X10935966Y8701814D01*
X11015000D01*
Y8690000D01*
X11184999D01*
Y8785000D01*
X11015000D01*
Y8773186D01*
X10935966D01*
X10920786Y8788365D01*
X10909291Y8793127D01*
Y8806873D01*
X10920786Y8811634D01*
X10935966Y8826814D01*
X11015000D01*
Y8815000D01*
X11184999D01*
Y8910000D01*
X11015000D01*
Y8898186D01*
X10935966D01*
X10920786Y8913365D01*
X10898734Y8922500D01*
D02*
G37*
G36*
X9736460Y8794501D02*
X9698960D01*
Y8719501D01*
X9736460D01*
Y8794501D01*
D02*
G37*
G36*
X9678960D02*
X9641460D01*
Y8719501D01*
X9678960D01*
Y8794501D01*
D02*
G37*
G36*
X9736460Y8699501D02*
X9698960D01*
Y8624501D01*
X9736460D01*
Y8699501D01*
D02*
G37*
G36*
X9678960D02*
X9641460D01*
Y8624501D01*
X9678960D01*
Y8699501D01*
D02*
G37*
G36*
X8770000Y8547500D02*
X8710000D01*
Y8510001D01*
X8770000D01*
Y8547500D01*
D02*
G37*
G36*
X8690000D02*
X8630000D01*
Y8510001D01*
X8690000D01*
Y8547500D01*
D02*
G37*
G36*
X8998500D02*
X8938501D01*
Y8510000D01*
X8998500D01*
Y8547500D01*
D02*
G37*
G36*
X8918501D02*
X8858500D01*
Y8510000D01*
X8918501D01*
Y8547500D01*
D02*
G37*
G36*
X8998500Y8490000D02*
X8938501D01*
Y8452500D01*
X8998500D01*
Y8490000D01*
D02*
G37*
G36*
X8918501D02*
X8858500D01*
Y8452500D01*
X8918501D01*
Y8490000D01*
D02*
G37*
G36*
X8770000Y8490001D02*
X8710000D01*
Y8452500D01*
X8770000D01*
Y8490001D01*
D02*
G37*
G36*
X8690000D02*
X8630000D01*
Y8452500D01*
X8690000D01*
Y8490001D01*
D02*
G37*
G36*
X9861460Y8794501D02*
X9766460D01*
Y8624501D01*
X9778274D01*
Y8545467D01*
X9763095Y8530287D01*
X9753960Y8508235D01*
Y8484365D01*
X9763095Y8462313D01*
X9779973Y8445434D01*
X9802025Y8436300D01*
X9825895D01*
X9847947Y8445434D01*
X9864826Y8462313D01*
X9873960Y8484365D01*
Y8508235D01*
X9864826Y8530287D01*
X9849646Y8545467D01*
Y8624501D01*
X9861460D01*
Y8794501D01*
D02*
G37*
G36*
X10678960Y8579501D02*
X10578960D01*
Y8429501D01*
X10678960D01*
Y8579501D01*
D02*
G37*
G36*
X10558960D02*
X10458960D01*
Y8429501D01*
X10558960D01*
Y8579501D01*
D02*
G37*
G36*
X9543960D02*
X9443960D01*
Y8429501D01*
X9543960D01*
Y8579501D01*
D02*
G37*
G36*
X9423960D02*
X9323960D01*
Y8429501D01*
X9423960D01*
Y8579501D01*
D02*
G37*
G36*
X11550000Y8467500D02*
X11400000D01*
Y8367500D01*
X11550000D01*
Y8467500D01*
D02*
G37*
G36*
X11380000D02*
X11230000D01*
Y8367500D01*
X11380000D01*
Y8467500D01*
D02*
G37*
G36*
X11184999Y8660000D02*
X11015000D01*
Y8565000D01*
X11064314D01*
Y8448466D01*
X11049134Y8433286D01*
X11040000Y8411234D01*
Y8387364D01*
X11049134Y8365312D01*
X11066012Y8348434D01*
X11088065Y8339299D01*
X11111934D01*
X11133987Y8348434D01*
X11150865Y8365312D01*
X11160000Y8387364D01*
Y8411234D01*
X11150865Y8433286D01*
X11135685Y8448466D01*
Y8565000D01*
X11184999D01*
Y8660000D01*
D02*
G37*
G36*
X9986460Y8794501D02*
X9891460D01*
Y8624501D01*
X9903274D01*
Y8431167D01*
X9888095Y8415987D01*
X9878960Y8393935D01*
Y8370065D01*
X9888095Y8348013D01*
X9904973Y8331134D01*
X9927025Y8322000D01*
X9950895D01*
X9972947Y8331134D01*
X9989826Y8348013D01*
X9998960Y8370065D01*
Y8393935D01*
X9989826Y8415987D01*
X9974646Y8431167D01*
Y8624501D01*
X9986460D01*
Y8794501D01*
D02*
G37*
G36*
X10678960Y8409501D02*
X10578960D01*
Y8259501D01*
X10678960D01*
Y8409501D01*
D02*
G37*
G36*
X10558960D02*
X10458960D01*
Y8259501D01*
X10558960D01*
Y8409501D01*
D02*
G37*
G36*
X9543960D02*
X9443960D01*
Y8259501D01*
X9543960D01*
Y8409501D01*
D02*
G37*
G36*
X9423960D02*
X9323960D01*
Y8259501D01*
X9423960D01*
Y8409501D01*
D02*
G37*
G36*
X11550000Y8347500D02*
X11400000D01*
Y8247500D01*
X11550000D01*
Y8347500D01*
D02*
G37*
G36*
X11380000D02*
X11230000D01*
Y8247500D01*
X11380000D01*
Y8347500D01*
D02*
G37*
%LPD*%
D10*
X9720000Y9825000D02*
D03*
X9800000D02*
D03*
X9880000D02*
D03*
X9960000D02*
D03*
X10040000D02*
D03*
X10120000D02*
D03*
X10200000D02*
D03*
X10280000D02*
D03*
Y8975000D02*
D03*
X10200000D02*
D03*
X10120000D02*
D03*
X10040000D02*
D03*
X9960000D02*
D03*
X9880000D02*
D03*
X9800000D02*
D03*
X9720000D02*
D03*
D11*
X10425000Y9680000D02*
D03*
Y9600000D02*
D03*
Y9520000D02*
D03*
Y9440000D02*
D03*
Y9360000D02*
D03*
Y9280000D02*
D03*
Y9200000D02*
D03*
Y9120000D02*
D03*
X9575000D02*
D03*
Y9200000D02*
D03*
Y9280000D02*
D03*
Y9360000D02*
D03*
Y9440000D02*
D03*
Y9520000D02*
D03*
Y9600000D02*
D03*
Y9680000D02*
D03*
D12*
X8928500Y9866500D02*
D03*
X8471500D02*
D03*
D13*
X8700000Y9200000D02*
D03*
D14*
X10800000Y9770000D02*
D03*
X10600000D02*
D03*
X10700000Y10030000D02*
D03*
X10600000Y10430000D02*
D03*
X10800000D02*
D03*
X10700000Y10170000D02*
D03*
D15*
X10793500Y9600000D02*
D03*
X10606500D02*
D03*
X9837500Y10400000D02*
D03*
X9650500D02*
D03*
X9962500D02*
D03*
X10149500D02*
D03*
X10793500Y10800000D02*
D03*
X10606500D02*
D03*
X10606499Y9400000D02*
D03*
X10793499D02*
D03*
X10606500Y10600000D02*
D03*
X10793500D02*
D03*
D16*
X10568960Y8419501D02*
D03*
X9433960D02*
D03*
X9142500Y10990000D02*
D03*
X8257500D02*
D03*
X10342500D02*
D03*
X9457500D02*
D03*
D17*
X10313960Y8709501D02*
D03*
X10063960D02*
D03*
X10188960D02*
D03*
X9938960D02*
D03*
X9688960D02*
D03*
X9813960D02*
D03*
X8762500Y10700000D02*
D03*
X8887500D02*
D03*
X8637500D02*
D03*
X8512500D02*
D03*
X9962500D02*
D03*
X10087500D02*
D03*
X9837500D02*
D03*
X9712500D02*
D03*
D18*
X11390000Y8357500D02*
D03*
Y9242500D02*
D03*
Y9657500D02*
D03*
Y10542500D02*
D03*
D19*
X11100000Y8737500D02*
D03*
Y8612500D02*
D03*
Y8862500D02*
D03*
Y8987500D02*
D03*
Y10037500D02*
D03*
Y9912500D02*
D03*
Y10162500D02*
D03*
Y10287500D02*
D03*
D20*
X8928500Y10100000D02*
D03*
Y10300000D02*
D03*
X8700000Y10100000D02*
D03*
Y10300000D02*
D03*
X8471500Y10100000D02*
D03*
Y10300000D02*
D03*
X8928500Y8700000D02*
D03*
Y8500000D02*
D03*
X8700000Y8700000D02*
D03*
Y8500000D02*
D03*
X9960000Y10000000D02*
D03*
Y10200000D02*
D03*
D21*
X9400000Y9280000D02*
D03*
X9200000D02*
D03*
X9400000Y9440000D02*
D03*
X9200000D02*
D03*
X10600000Y9200000D02*
D03*
X10800000D02*
D03*
D22*
X10120000Y10006500D02*
D03*
Y10193500D02*
D03*
D23*
X10828299Y8986799D02*
X11100000Y9258500D01*
Y9699299D01*
X10600000Y8986799D02*
X10828299D01*
X9938960Y8382000D02*
Y8709501D01*
X8471500Y9653299D02*
Y9866500D01*
X11100000Y8399299D02*
Y8612500D01*
X10149500Y10400000D02*
X10362701D01*
X9437299D02*
X9650500D01*
X9400000Y9066799D02*
Y9280000D01*
Y8790400D02*
Y9066799D01*
X9309600Y8700000D02*
X9400000Y8790400D01*
X9141701Y8700000D02*
X9309600D01*
X8928500D02*
X9141701D01*
X10606500Y10800000D02*
Y11013201D01*
X9962500Y10700000D02*
Y10913201D01*
X9837500Y10700000D02*
Y11027501D01*
X10129499Y10193500D02*
X10139500Y10203500D01*
X10120000Y10193500D02*
X10129499D01*
X10139500Y10203500D02*
Y10390000D01*
X10149500Y10400000D01*
X11100000Y9912500D02*
Y10037500D01*
Y9699299D02*
Y9912500D01*
X10600000Y8986799D02*
Y9200000D01*
X10313960Y8496300D02*
Y8709501D01*
X9400000Y9440000D02*
Y9653200D01*
X10040000Y9659714D02*
X10058400Y9641314D01*
Y9497499D02*
Y9641314D01*
X10040000Y9659714D02*
Y9825000D01*
X10120000Y9691799D02*
X10200000Y9611799D01*
X9800000Y9497499D02*
Y9611029D01*
X9880000Y9691029D01*
Y9825000D01*
X9960000Y9611799D02*
Y9825000D01*
X10120000Y9691799D02*
Y9825000D01*
X9800000D02*
Y10038200D01*
X10886799Y8737500D02*
X11100000D01*
X10886799Y8862500D02*
X11100000D01*
X10793499Y9400000D02*
X11006700D01*
X10425000Y9200000D02*
X10600000D01*
X10600000Y9200000D01*
X10425000Y8906799D02*
Y9120000D01*
X9880000Y9174670D02*
X9960000Y9094670D01*
Y8975000D02*
Y9094670D01*
X9880000Y9174670D02*
Y9188201D01*
X10040000Y8975000D02*
Y9302501D01*
X9813960Y8496300D02*
Y8709501D01*
X10201460Y8722001D02*
Y8779060D01*
X10188960Y8709501D02*
X10201460Y8722001D01*
X10280000Y8857600D02*
Y8975000D01*
X10201460Y8779060D02*
X10280000Y8857600D01*
X10076460Y8759501D02*
X10200000Y8883041D01*
Y8975000D01*
X10076460Y8722001D02*
Y8759501D01*
X10063960Y8709501D02*
X10076460Y8722001D01*
X10796750Y10433250D02*
Y10796750D01*
Y10433250D02*
X10800000Y10430000D01*
X10793500Y10800000D02*
X10796750Y10796750D01*
X10825000Y10170000D02*
X10942500Y10287500D01*
X10700000Y10170000D02*
X10825000D01*
X10942500Y10287500D02*
X11100000D01*
X10832400Y10045000D02*
X10949900Y10162500D01*
X10705000Y10045000D02*
X10832400D01*
X10949900Y10162500D02*
X11100000D01*
X10700000Y10030000D02*
Y10040000D01*
X10705000Y10045000D01*
X10603250Y9403250D02*
Y9766750D01*
X10600000Y9770000D02*
X10603250Y9766750D01*
Y9403250D02*
X10606499Y9400000D01*
X9960000Y10000000D02*
X9963250Y10003249D01*
X9960000Y9825000D02*
Y10000000D01*
X9963250Y10003249D02*
X10116750D01*
X10120000Y10006500D01*
X10090833Y10584767D02*
X10149500Y10526100D01*
X10090833Y10584767D02*
Y10696667D01*
X10087500Y10700000D02*
X10090833Y10696667D01*
X10149500Y10400000D02*
Y10526100D01*
X9962500Y10400000D02*
Y10700000D01*
X9837500Y10400000D02*
Y10700000D01*
X9400000Y9440000D02*
X9575000D01*
X9400000Y9280000D02*
X9575000D01*
D24*
X8700000Y8700000D02*
Y9200000D01*
Y8700000D02*
X8928500D01*
X9084000Y10100000D02*
X9156700Y10172700D01*
X8928500Y10100000D02*
X9084000D01*
X9156700Y10172700D02*
Y10579100D01*
X9035800Y10700000D02*
X9156700Y10579100D01*
X8887500Y10700000D02*
X9035800D01*
X8471500Y9866500D02*
Y10100000D01*
X8700000D01*
X8928500D01*
X8762500Y10700000D02*
X8887500D01*
D25*
X8200000Y8400000D02*
D03*
X11600000Y11000000D02*
D03*
D26*
X9938960Y8382000D02*
D03*
X8471500Y9653299D02*
D03*
X11100000Y8399299D02*
D03*
X10362701Y10400000D02*
D03*
X9437299D02*
D03*
X9141701Y8700000D02*
D03*
X10606500Y11013201D02*
D03*
X10090833Y11024168D02*
D03*
X9962500Y10913201D02*
D03*
X9837500Y11027501D02*
D03*
X11100000Y9699299D02*
D03*
X10600000Y8986799D02*
D03*
X9400000Y9066799D02*
D03*
Y9653200D02*
D03*
X10058400Y9497499D02*
D03*
X9800000D02*
D03*
X9960000Y9611799D02*
D03*
X10200000D02*
D03*
X9800000Y10038200D02*
D03*
X10886799Y8737500D02*
D03*
Y8862500D02*
D03*
X11006700Y9400000D02*
D03*
X10425000Y8906799D02*
D03*
X10040000Y9302501D02*
D03*
X9880000Y9188201D02*
D03*
X10313960Y8496300D02*
D03*
X9813960D02*
D03*
%TF.MD5,851c08ea7722b3fc9dc8fce8bd1c90da*%
M02*
