%TF.GenerationSoftware,Altium Limited,Altium Designer,23.11.1 (41)*%
G04 Layer_Color=32896*
%FSLAX45Y45*%
%MOMM*%
%TF.SameCoordinates,EE14C10C-1293-43E7-8F5D-FAE76E51A431*%
%TF.FilePolarity,Positive*%
%TF.FileFunction,Other,Top_Courtyard*%
%TF.Part,Single*%
G01*
G75*
%TA.AperFunction,NonConductor*%
%ADD33C,0.05000*%
%ADD50C,0.01000*%
D33*
X8848500Y10050000D02*
Y10350000D01*
X9008500D01*
Y10050000D02*
Y10350000D01*
X8848500Y10050000D02*
X9008500D01*
X8620000D02*
Y10350000D01*
X8780000D01*
Y10050000D02*
Y10350000D01*
X8620000Y10050000D02*
X8780000D01*
X8391500D02*
Y10350000D01*
X8551500D01*
Y10050000D02*
Y10350000D01*
X8391500Y10050000D02*
X8551500D01*
X9008500Y8450000D02*
Y8750000D01*
X8848500Y8450000D02*
X9008500D01*
X8848500D02*
Y8750000D01*
X9008500D01*
X8780000Y8450000D02*
Y8750000D01*
X8620000Y8450000D02*
X8780000D01*
X8620000D02*
Y8750000D01*
X8780000D01*
X9880000Y9950000D02*
Y10250000D01*
X10040000D01*
Y9950000D02*
Y10250000D01*
X9880000Y9950000D02*
X10040000D01*
X9150000Y9200000D02*
X9450000D01*
X9150000D02*
Y9360000D01*
X9450000D01*
Y9200000D02*
Y9360000D01*
X9150000Y9360000D02*
X9450000D01*
X9150000D02*
Y9520000D01*
X9450000D01*
Y9360000D02*
Y9520000D01*
X10550000Y9280000D02*
X10850000D01*
Y9120000D02*
Y9280000D01*
X10550000Y9120000D02*
X10850000D01*
X10550000D02*
Y9280000D01*
D50*
X9500000Y9900000D02*
X10500000D01*
Y8900000D02*
Y9900000D01*
X9500000Y8900000D02*
X10500000D01*
X9500000D02*
Y9900000D01*
X10000000Y9375000D02*
Y9425000D01*
X9975000Y9400000D02*
X10025000D01*
X8300000Y8850000D02*
X9100000D01*
X8300000D02*
Y10000000D01*
X9100000D01*
Y8850000D02*
Y10000000D01*
X10550000Y10050000D02*
X10850000D01*
X10550000Y9750000D02*
Y10050000D01*
Y9750000D02*
X10850000D01*
Y10050000D01*
X10700000Y9875000D02*
Y9925000D01*
X10675000Y9900000D02*
X10725000D01*
X10840000Y9520000D02*
Y9680000D01*
X10560000Y9520000D02*
Y9680000D01*
X10840000D01*
X10560000Y9520000D02*
X10840000D01*
X10675000Y9600000D02*
X10725000D01*
X10700000Y9575000D02*
Y9625000D01*
X9300000Y8809500D02*
X10700000D01*
Y8209500D02*
Y8809500D01*
X9300000Y8209500D02*
X10700000D01*
X9300000D02*
Y8809500D01*
X10000000Y8584500D02*
Y8634500D01*
X9975000Y8609500D02*
X10025000D01*
X11200000Y8775000D02*
Y8825000D01*
X11175000Y8800000D02*
X11225000D01*
X11000000Y8200000D02*
X11600000D01*
Y9400000D01*
X11000000D02*
X11600000D01*
X11000000Y8200000D02*
Y9400000D01*
X8675000Y10800000D02*
X8725000D01*
X8700000Y10775000D02*
Y10825000D01*
X9300000Y10600000D02*
Y11200000D01*
X8100000D02*
X9300000D01*
X8100000Y10600000D02*
Y11200000D01*
Y10600000D02*
X9300000D01*
X9875000Y10800000D02*
X9925000D01*
X9900000Y10775000D02*
Y10825000D01*
X10500000Y10600000D02*
Y11200000D01*
X9300000D02*
X10500000D01*
X9300000Y10600000D02*
Y11200000D01*
Y10600000D02*
X10500000D01*
X11200000Y10075000D02*
Y10125000D01*
X11175000Y10100000D02*
X11225000D01*
X11000000Y9500000D02*
X11600000D01*
Y10700000D01*
X11000000D02*
X11600000D01*
X11000000Y9500000D02*
Y10700000D01*
X10550000Y10150000D02*
X10850000D01*
Y10450000D01*
X10550000D02*
X10850000D01*
X10550000Y10150000D02*
Y10450000D01*
X10700000Y10275000D02*
Y10325000D01*
X10675000Y10300000D02*
X10725000D01*
X10040000Y9960000D02*
X10200000D01*
X10040000Y10240000D02*
X10200000D01*
Y9960000D02*
Y10240000D01*
X10040000Y9960000D02*
Y10240000D01*
X10120000Y10075000D02*
Y10125000D01*
X10095000Y10100000D02*
X10145000D01*
X9884000Y10320000D02*
Y10480000D01*
X9604000Y10320000D02*
Y10480000D01*
X9884000D01*
X9604000Y10320000D02*
X9884000D01*
X9719000Y10400000D02*
X9769000D01*
X9744000Y10375000D02*
Y10425000D01*
X9916000Y10320000D02*
Y10480000D01*
X10196000Y10320000D02*
Y10480000D01*
X9916000Y10320000D02*
X10196000D01*
X9916000Y10480000D02*
X10196000D01*
X10031000Y10400000D02*
X10081000D01*
X10056000Y10375000D02*
Y10425000D01*
X10840000Y10720000D02*
Y10880000D01*
X10560000Y10720000D02*
Y10880000D01*
X10840000D01*
X10560000Y10720000D02*
X10840000D01*
X10675000Y10800000D02*
X10725000D01*
X10700000Y10775000D02*
Y10825000D01*
X10559999Y9320000D02*
Y9480000D01*
X10839999Y9320000D02*
Y9480000D01*
X10559999Y9320000D02*
X10839999D01*
X10559999Y9480000D02*
X10839999D01*
X10674999Y9400000D02*
X10724999D01*
X10699999Y9375000D02*
Y9425000D01*
X10560000Y10520000D02*
Y10680000D01*
X10840000Y10520000D02*
Y10680000D01*
X10560000Y10520000D02*
X10840000D01*
X10560000Y10680000D02*
X10840000D01*
X10675000Y10600000D02*
X10725000D01*
X10700000Y10575000D02*
Y10625000D01*
%TF.MD5,ac4164213433f548231c15bec4fe7d65*%
M02*
