%TF.GenerationSoftware,Altium Limited,Altium Designer,23.11.1 (41)*%
G04 Layer_Physical_Order=2*
G04 Layer_Color=16711680*
%FSLAX45Y45*%
%MOMM*%
%TF.SameCoordinates,EE14C10C-1293-43E7-8F5D-FAE76E51A431*%
%TF.FilePolarity,Positive*%
%TF.FileFunction,Copper,L2,Bot,Signal*%
%TF.Part,Single*%
G01*
G75*
%TA.AperFunction,SMDPad,CuDef*%
%ADD20R,1.20000X0.75000*%
%TA.AperFunction,Conductor*%
%ADD23C,0.50000*%
%TA.AperFunction,ViaPad*%
%ADD25C,5.00000*%
%ADD26C,1.00000*%
%TA.AperFunction,SMDPad,CuDef*%
%ADD27R,0.30000X0.80000*%
%ADD28R,0.80000X0.30000*%
%TA.AperFunction,Conductor*%
%ADD29C,0.30000*%
G36*
X11656158Y11282335D02*
X11692532Y11272589D01*
X11727321Y11258178D01*
X11759929Y11239352D01*
X11789803Y11216429D01*
X11816429Y11189803D01*
X11839352Y11159930D01*
X11858179Y11127319D01*
X11872589Y11092531D01*
X11882335Y11056159D01*
X11887250Y11018828D01*
Y11000000D01*
Y8400000D01*
Y8381172D01*
X11882335Y8343842D01*
X11872589Y8307468D01*
X11858178Y8272679D01*
X11839352Y8240070D01*
X11816429Y8210197D01*
X11789803Y8183571D01*
X11759929Y8160648D01*
X11727319Y8141821D01*
X11692531Y8127411D01*
X11656159Y8117665D01*
X11618828Y8112750D01*
X10972421D01*
X10968569Y8125450D01*
X10972634Y8128166D01*
X11125233Y8280766D01*
X11132969Y8292343D01*
X11135685Y8306000D01*
Y8350132D01*
X11150865Y8365312D01*
X11160000Y8387364D01*
Y8411234D01*
X11150865Y8433286D01*
X11133987Y8450165D01*
X11111934Y8459299D01*
X11088065D01*
X11066012Y8450165D01*
X11049134Y8433286D01*
X11040000Y8411234D01*
Y8387364D01*
X11049134Y8365312D01*
X11064314Y8350132D01*
Y8320781D01*
X10932618Y8189086D01*
X10657814D01*
X10652553Y8201786D01*
X10912033Y8461265D01*
X10919768Y8472843D01*
X10922485Y8486499D01*
Y8688333D01*
X10937664Y8703513D01*
X10946799Y8725565D01*
Y8749435D01*
X10937664Y8771487D01*
X10920786Y8788365D01*
X10909291Y8793127D01*
Y8806873D01*
X10920786Y8811634D01*
X10937664Y8828513D01*
X10946799Y8850565D01*
Y8874435D01*
X10937664Y8896487D01*
X10922485Y8911667D01*
Y9001401D01*
X10919768Y9015057D01*
X10912033Y9026635D01*
X10807534Y9131134D01*
X10795956Y9138869D01*
X10791203Y9139815D01*
X10792454Y9152515D01*
X11042401D01*
X11056057Y9155231D01*
X11067634Y9162967D01*
X11315534Y9410866D01*
X11323269Y9422444D01*
X11325986Y9436100D01*
Y10718800D01*
X11323269Y10732456D01*
X11315534Y10744034D01*
X11021133Y11038434D01*
X11009556Y11046170D01*
X10995899Y11048886D01*
X10655667D01*
X10640487Y11064066D01*
X10618435Y11073201D01*
X10594565D01*
X10572513Y11064066D01*
X10555634Y11047188D01*
X10546500Y11025135D01*
Y11001266D01*
X10555634Y10979213D01*
X10572513Y10962335D01*
X10594565Y10953201D01*
X10618435D01*
X10640487Y10962335D01*
X10655667Y10977515D01*
X10981118D01*
X11254614Y10704018D01*
Y9450882D01*
X11027619Y9223886D01*
X9929167D01*
X9913987Y9239066D01*
X9891935Y9248200D01*
X9868065D01*
X9846013Y9239066D01*
X9829135Y9222188D01*
X9820000Y9200135D01*
Y9176266D01*
X9829135Y9154213D01*
X9846013Y9137335D01*
X9868065Y9128201D01*
X9891935D01*
X9913987Y9137335D01*
X9929167Y9152515D01*
X10200646D01*
X10201897Y9139815D01*
X10197143Y9138869D01*
X10185566Y9131134D01*
X10145218Y9090786D01*
X9819182D01*
X9789286Y9120682D01*
Y9319718D01*
X9816833Y9347265D01*
X9824568Y9358843D01*
X9827285Y9372499D01*
Y9443857D01*
X9833987Y9446633D01*
X9850865Y9463512D01*
X9860000Y9485564D01*
Y9509434D01*
X9850865Y9531486D01*
X9833987Y9548364D01*
X9811935Y9557499D01*
X9788065D01*
X9766013Y9548364D01*
X9749134Y9531486D01*
X9740000Y9509434D01*
Y9485564D01*
X9749134Y9463512D01*
X9755913Y9456733D01*
Y9387280D01*
X9728366Y9359734D01*
X9720631Y9348156D01*
X9717914Y9334500D01*
Y9105900D01*
X9720631Y9092244D01*
X9728366Y9080666D01*
X9779166Y9029866D01*
X9790744Y9022131D01*
X9804400Y9019414D01*
X10160000D01*
X10173656Y9022131D01*
X10185233Y9029866D01*
X10225581Y9070214D01*
X10767518D01*
X10851113Y8986620D01*
Y8911667D01*
X10835933Y8896487D01*
X10826799Y8874435D01*
Y8850565D01*
X10835933Y8828513D01*
X10852812Y8811634D01*
X10864306Y8806873D01*
Y8793127D01*
X10852812Y8788365D01*
X10835933Y8771487D01*
X10826799Y8749435D01*
Y8725565D01*
X10835933Y8703513D01*
X10851113Y8688333D01*
Y8501280D01*
X10602418Y8252586D01*
X10048214D01*
X10042953Y8265286D01*
X10238282Y8460614D01*
X10264793D01*
X10279973Y8445434D01*
X10302025Y8436300D01*
X10325895D01*
X10347947Y8445434D01*
X10363127Y8460614D01*
X10502900D01*
X10516556Y8463331D01*
X10528134Y8471066D01*
X10625234Y8568166D01*
X10632969Y8579744D01*
X10635686Y8593400D01*
Y8937632D01*
X10650865Y8952812D01*
X10660000Y8974864D01*
Y8998734D01*
X10650865Y9020786D01*
X10633987Y9037665D01*
X10611935Y9046799D01*
X10588065D01*
X10566013Y9037665D01*
X10549134Y9020786D01*
X10540000Y8998734D01*
Y8974864D01*
X10549134Y8952812D01*
X10564314Y8937632D01*
Y8608181D01*
X10488118Y8531986D01*
X10363127D01*
X10347947Y8547166D01*
X10325895Y8556300D01*
X10302025D01*
X10279973Y8547166D01*
X10264793Y8531986D01*
X10223500D01*
X10209844Y8529269D01*
X10198266Y8521534D01*
X9992818Y8316086D01*
X9969803D01*
X9967277Y8328786D01*
X9972947Y8331134D01*
X9989826Y8348013D01*
X9998960Y8370065D01*
Y8393935D01*
X9989826Y8415987D01*
X9974646Y8431167D01*
Y8730379D01*
X10115381Y8871113D01*
X10375833D01*
X10391013Y8855934D01*
X10413065Y8846799D01*
X10436935D01*
X10458987Y8855934D01*
X10475866Y8872812D01*
X10485000Y8894864D01*
Y8918734D01*
X10475866Y8940786D01*
X10458987Y8957665D01*
X10436935Y8966799D01*
X10413065D01*
X10391013Y8957665D01*
X10375833Y8942485D01*
X10100599D01*
X10086943Y8939768D01*
X10075365Y8932033D01*
X9913726Y8770394D01*
X9905991Y8758816D01*
X9903274Y8745160D01*
Y8431167D01*
X9888095Y8415987D01*
X9878960Y8393935D01*
Y8370065D01*
X9888095Y8348013D01*
X9904973Y8331134D01*
X9910643Y8328786D01*
X9908117Y8316086D01*
X9349282D01*
X9177387Y8487980D01*
Y8650833D01*
X9192567Y8666013D01*
X9201701Y8688065D01*
Y8711935D01*
X9192567Y8733987D01*
X9175688Y8750866D01*
X9153636Y8760000D01*
X9129766D01*
X9107714Y8750866D01*
X9090836Y8733987D01*
X9081701Y8711935D01*
Y8688065D01*
X9090836Y8666013D01*
X9106015Y8650833D01*
Y8473199D01*
X9108545Y8460483D01*
X9107981Y8459731D01*
X9094756Y8456311D01*
X9014586Y8536482D01*
Y8773618D01*
X9069882Y8828914D01*
X9423400D01*
X9437056Y8831631D01*
X9448634Y8839366D01*
X9562934Y8953666D01*
X9570669Y8965244D01*
X9573386Y8978900D01*
Y9535618D01*
X9825234Y9787466D01*
X9832969Y9799044D01*
X9835686Y9812700D01*
Y9989033D01*
X9850865Y10004213D01*
X9860000Y10026266D01*
Y10050135D01*
X9850865Y10072188D01*
X9833987Y10089066D01*
X9811935Y10098200D01*
X9788065D01*
X9766013Y10089066D01*
X9749134Y10072188D01*
X9740000Y10050135D01*
Y10026266D01*
X9749134Y10004213D01*
X9764314Y9989033D01*
Y9827481D01*
X9512466Y9575634D01*
X9504731Y9564056D01*
X9502014Y9550400D01*
Y8993682D01*
X9408618Y8900286D01*
X9055100D01*
X9041444Y8897569D01*
X9029866Y8889834D01*
X8953666Y8813634D01*
X8945931Y8802056D01*
X8943214Y8788400D01*
Y8521700D01*
X8945931Y8508044D01*
X8953666Y8496466D01*
X9248347Y8201786D01*
X9243086Y8189086D01*
X9057182D01*
X8507186Y8739081D01*
Y9604132D01*
X8522366Y9619312D01*
X8531500Y9641365D01*
Y9665234D01*
X8522366Y9687287D01*
X8505487Y9704165D01*
X8483435Y9713299D01*
X8459566D01*
X8437513Y9704165D01*
X8420635Y9687287D01*
X8411500Y9665234D01*
Y9641365D01*
X8420635Y9619312D01*
X8435814Y9604132D01*
Y8724300D01*
X8438531Y8710643D01*
X8446267Y8699066D01*
X9017166Y8128166D01*
X9021231Y8125450D01*
X9017379Y8112750D01*
X8181172D01*
X8143840Y8117665D01*
X8107468Y8127411D01*
X8072679Y8141821D01*
X8040070Y8160648D01*
X8010197Y8183571D01*
X7983571Y8210197D01*
X7960648Y8240070D01*
X7941821Y8272680D01*
X7927411Y8307469D01*
X7917665Y8343841D01*
X7912750Y8381172D01*
Y8406800D01*
X7912750Y11000075D01*
X7912755Y11018900D01*
X7917678Y11056224D01*
X7927430Y11092588D01*
X7941844Y11127367D01*
X7960675Y11159969D01*
X7983597Y11189833D01*
X8010224Y11216452D01*
X8040094Y11239367D01*
X8072701Y11258189D01*
X8107483Y11272594D01*
X8143849Y11282336D01*
X8181176Y11287250D01*
X11618828D01*
X11656158Y11282335D01*
D02*
G37*
%LPC*%
G36*
X8770000Y9764000D02*
X8710000D01*
Y9726500D01*
X8770000D01*
Y9764000D01*
D02*
G37*
G36*
X8690000D02*
X8630000D01*
Y9726500D01*
X8690000D01*
Y9764000D01*
D02*
G37*
G36*
X8770000Y9706500D02*
X8710000D01*
Y9669000D01*
X8770000D01*
Y9706500D01*
D02*
G37*
G36*
X8690000D02*
X8630000D01*
Y9669000D01*
X8690000D01*
Y9706500D01*
D02*
G37*
G36*
X9025000Y9761500D02*
X8975000D01*
Y9661500D01*
X9025000D01*
Y9761500D01*
D02*
G37*
G36*
X8955000Y9716500D02*
X8855000D01*
X8855000Y9666500D01*
X8855000Y9653800D01*
Y9651499D01*
X8905000D01*
X8955000D01*
Y9666500D01*
X8955000Y9679200D01*
Y9716500D01*
D02*
G37*
G36*
X10102768Y11084168D02*
X10078898D01*
X10056846Y11075033D01*
X10039967Y11058155D01*
X10030833Y11036102D01*
Y11012233D01*
X10039967Y10990180D01*
X10055147Y10975001D01*
Y10838767D01*
X10057864Y10825111D01*
X10065599Y10813533D01*
X10327015Y10552118D01*
Y10449167D01*
X10311835Y10433987D01*
X10302701Y10411935D01*
Y10388065D01*
X10311835Y10366013D01*
X10327015Y10350833D01*
Y9944599D01*
X10329731Y9930943D01*
X10337467Y9919366D01*
X10582767Y9674066D01*
X10594344Y9666330D01*
X10608001Y9663614D01*
X11050833D01*
X11066012Y9648434D01*
X11088065Y9639299D01*
X11111934D01*
X11133987Y9648434D01*
X11150865Y9665312D01*
X11160000Y9687365D01*
Y9711234D01*
X11150865Y9733287D01*
X11133987Y9750165D01*
X11111934Y9759299D01*
X11088065D01*
X11066012Y9750165D01*
X11050833Y9734985D01*
X10622782D01*
X10398386Y9959381D01*
Y10350833D01*
X10413566Y10366013D01*
X10422701Y10388065D01*
Y10411935D01*
X10413566Y10433987D01*
X10398386Y10449167D01*
Y10566899D01*
X10395670Y10580556D01*
X10387934Y10592133D01*
X10126519Y10853549D01*
Y10975001D01*
X10141699Y10990180D01*
X10150833Y11012233D01*
Y11036102D01*
X10141699Y11058155D01*
X10124820Y11075033D01*
X10102768Y11084168D01*
D02*
G37*
G36*
X9867900Y11176090D02*
X9493832D01*
X9484077Y11174149D01*
X9475808Y11168624D01*
X9317273Y11010089D01*
X9312046Y11009049D01*
X9303776Y11003524D01*
X9214876Y10914624D01*
X9209351Y10906355D01*
X9207410Y10896600D01*
Y9726058D01*
X9198342Y9716990D01*
X9095000D01*
X9092538Y9716500D01*
X9045000D01*
Y9679200D01*
X9045000Y9666501D01*
X9044999D01*
Y9666499D01*
X9045000D01*
Y9616990D01*
X8963980D01*
X8955000Y9625970D01*
Y9631499D01*
X8905000D01*
X8855000D01*
Y9566990D01*
X8830000D01*
X8820245Y9565049D01*
X8811976Y9559524D01*
X8794442Y9541990D01*
X8770000D01*
Y9564000D01*
X8630000D01*
Y9469000D01*
X8770000D01*
Y9491010D01*
X8805000D01*
X8814755Y9492951D01*
X8823024Y9498476D01*
X8840558Y9516010D01*
X8905000D01*
X8907461Y9516500D01*
X8955000D01*
Y9566010D01*
X8975000D01*
Y9471500D01*
X9025000D01*
Y9566010D01*
X9045000D01*
Y9516500D01*
X9145000D01*
Y9566010D01*
X9248600D01*
X9258355Y9567951D01*
X9266624Y9573476D01*
X9320859Y9627711D01*
X9345615D01*
X9349134Y9619213D01*
X9364314Y9604033D01*
Y9115966D01*
X9349134Y9100786D01*
X9340000Y9078734D01*
Y9054864D01*
X9349134Y9032812D01*
X9366013Y9015933D01*
X9388065Y9006799D01*
X9411935D01*
X9433987Y9015933D01*
X9450866Y9032812D01*
X9460000Y9054864D01*
Y9078734D01*
X9450866Y9100786D01*
X9435686Y9115966D01*
Y9604033D01*
X9450866Y9619213D01*
X9460000Y9641266D01*
Y9665135D01*
X9450866Y9687188D01*
X9435686Y9702367D01*
Y9968219D01*
X9462533Y9995066D01*
X9470269Y10006644D01*
X9472985Y10020300D01*
Y10350833D01*
X9488165Y10366013D01*
X9497299Y10388065D01*
Y10411935D01*
X9488165Y10433987D01*
X9471287Y10450866D01*
X9449234Y10460000D01*
X9425365D01*
X9403312Y10450866D01*
X9386434Y10433987D01*
X9377300Y10411935D01*
Y10388065D01*
X9386434Y10366013D01*
X9401614Y10350833D01*
Y10035082D01*
X9374766Y10008234D01*
X9367031Y9996657D01*
X9364314Y9983001D01*
Y9702367D01*
X9349134Y9687188D01*
X9345615Y9678690D01*
X9312932D01*
X9307958Y9684816D01*
X9305698Y9690724D01*
X9307249Y9693045D01*
X9309190Y9702800D01*
Y10873342D01*
X9437859Y11002011D01*
X9783115D01*
X9786634Y10993513D01*
X9801814Y10978334D01*
Y10673000D01*
X9804531Y10659344D01*
X9812266Y10647766D01*
X10022714Y10437318D01*
Y9650368D01*
X10014059Y9647021D01*
X10010014Y9646638D01*
X9993987Y9662664D01*
X9971935Y9671799D01*
X9948065D01*
X9926013Y9662664D01*
X9910833Y9647485D01*
X9738799D01*
X9725143Y9644768D01*
X9713565Y9637033D01*
X9639466Y9562934D01*
X9631731Y9551356D01*
X9629014Y9537700D01*
Y8902700D01*
X9631731Y8889044D01*
X9639466Y8877466D01*
X9778274Y8738658D01*
Y8545467D01*
X9763095Y8530287D01*
X9753960Y8508235D01*
Y8484365D01*
X9763095Y8462313D01*
X9779973Y8445434D01*
X9802025Y8436300D01*
X9825895D01*
X9847947Y8445434D01*
X9864826Y8462313D01*
X9873960Y8484365D01*
Y8508235D01*
X9864826Y8530287D01*
X9849646Y8545467D01*
Y8753440D01*
X9846929Y8767096D01*
X9839194Y8778674D01*
X9700386Y8917482D01*
Y9522918D01*
X9753580Y9576113D01*
X9910833D01*
X9926013Y9560933D01*
X9948065Y9551799D01*
X9971935D01*
X9993987Y9560933D01*
X10010014Y9576960D01*
X10014059Y9576577D01*
X10022714Y9573230D01*
Y9546666D01*
X10007534Y9531486D01*
X9998400Y9509434D01*
Y9485564D01*
X10007534Y9463512D01*
X10024413Y9446633D01*
X10046465Y9437499D01*
X10070335D01*
X10092387Y9446633D01*
X10109266Y9463512D01*
X10118400Y9485564D01*
Y9509434D01*
X10109266Y9531486D01*
X10094086Y9546666D01*
Y10436886D01*
X10106786Y10442147D01*
X10164314Y10384619D01*
Y9660966D01*
X10149134Y9645786D01*
X10140000Y9623734D01*
Y9599864D01*
X10149134Y9577812D01*
X10166013Y9560933D01*
X10188065Y9551799D01*
X10211935D01*
X10233987Y9560933D01*
X10250865Y9577812D01*
X10260000Y9599864D01*
Y9623734D01*
X10250865Y9645786D01*
X10235686Y9660966D01*
Y10399400D01*
X10232969Y10413056D01*
X10225234Y10424634D01*
X9998186Y10651682D01*
Y10864034D01*
X10013366Y10879213D01*
X10022500Y10901266D01*
Y10925135D01*
X10013366Y10947188D01*
X9996487Y10964066D01*
X9987990Y10967586D01*
Y11056000D01*
X9986049Y11065755D01*
X9980524Y11074024D01*
X9885924Y11168624D01*
X9877655Y11174149D01*
X9867900Y11176090D01*
D02*
G37*
G36*
X11018635Y9460000D02*
X10994765D01*
X10972713Y9450866D01*
X10957533Y9435686D01*
X10911300D01*
X10897644Y9432969D01*
X10886066Y9425234D01*
X10799019Y9338186D01*
X10089167D01*
X10073987Y9353366D01*
X10051935Y9362500D01*
X10028065D01*
X10006013Y9353366D01*
X9989134Y9336488D01*
X9980000Y9314435D01*
Y9290566D01*
X9989134Y9268513D01*
X10006013Y9251635D01*
X10028065Y9242501D01*
X10051935D01*
X10073987Y9251635D01*
X10089167Y9266815D01*
X10813801D01*
X10827457Y9269531D01*
X10839034Y9277267D01*
X10926082Y9364314D01*
X10957533D01*
X10972713Y9349134D01*
X10994765Y9340000D01*
X11018635D01*
X11040687Y9349134D01*
X11057566Y9366013D01*
X11066700Y9388065D01*
Y9411935D01*
X11057566Y9433987D01*
X11040687Y9450866D01*
X11018635Y9460000D01*
D02*
G37*
%LPD*%
G36*
X9937010Y11045442D02*
Y10967586D01*
X9928513Y10964066D01*
X9911634Y10947188D01*
X9902500Y10925135D01*
Y10901266D01*
X9911634Y10879213D01*
X9926814Y10864034D01*
Y10652114D01*
X9914114Y10646853D01*
X9873186Y10687782D01*
Y10978334D01*
X9888366Y10993513D01*
X9897500Y11015566D01*
Y11039435D01*
X9888366Y11061488D01*
X9871487Y11078366D01*
X9849435Y11087501D01*
X9825565D01*
X9803513Y11078366D01*
X9786634Y11061488D01*
X9783115Y11052990D01*
X9448863D01*
X9444003Y11064724D01*
X9504390Y11125110D01*
X9857342D01*
X9937010Y11045442D01*
D02*
G37*
D20*
X8700000Y9516500D02*
D03*
Y9716500D02*
D03*
D23*
X10362701Y9944599D02*
X10608001Y9699299D01*
X11100000D01*
X10362701Y9944599D02*
Y10400000D01*
X11042401Y9188201D02*
X11290300Y9436100D01*
Y10718800D01*
X10995899Y11013201D02*
X11290300Y10718800D01*
X10606500Y11013201D02*
X10995899D01*
X8471500Y8724300D02*
Y9653299D01*
X9042400Y8153400D02*
X10947400D01*
X8471500Y8724300D02*
X9042400Y8153400D01*
X10947400D02*
X11100000Y8306000D01*
Y8399299D01*
X8978900Y8521700D02*
Y8788400D01*
Y8521700D02*
X9283700Y8216900D01*
X10617200D02*
X10886799Y8486499D01*
X9283700Y8216900D02*
X10617200D01*
X10223500Y8496300D02*
X10502900D01*
X9334500Y8280400D02*
X10007600D01*
X10223500Y8496300D01*
X9141701Y8473199D02*
X9334500Y8280400D01*
X9938960Y8382000D02*
Y8745160D01*
X10886799Y8486499D02*
Y8737500D01*
X8978900Y8788400D02*
X9055100Y8864600D01*
X9423400D01*
X9537700Y8978900D01*
Y9550400D01*
X9800000Y9812700D01*
Y10038200D01*
X9437299Y10020300D02*
Y10400000D01*
X9400000Y9066799D02*
Y9653200D01*
Y9983001D01*
X9437299Y10020300D01*
X10090833Y10838767D02*
X10362701Y10566899D01*
Y10400000D02*
Y10566899D01*
X10090833Y10838767D02*
Y11024168D01*
Y11026744D01*
X9791599Y9489098D02*
X9800000Y9497499D01*
X9791599Y9372499D02*
Y9489098D01*
X9753600Y9334500D02*
X9791599Y9372499D01*
X9753600Y9105900D02*
Y9334500D01*
Y9105900D02*
X9804400Y9055100D01*
X10160000D01*
X10210800Y9105900D01*
X10782300D01*
X10886799Y9001401D01*
Y8862500D02*
Y9001401D01*
X9880000Y9188201D02*
X11042401D01*
X10040000Y9302501D02*
X10813801D01*
X10911300Y9400000D01*
X11006700D01*
X9141701Y8473199D02*
Y8700000D01*
X9813960Y8496300D02*
Y8753440D01*
X9664700Y8902700D02*
X9813960Y8753440D01*
X9664700Y8902700D02*
Y9537700D01*
X9738799Y9611799D01*
X9960000D01*
X10058400Y9497499D02*
Y10452100D01*
X9837500Y10673000D02*
X10058400Y10452100D01*
X9837500Y10673000D02*
Y11027501D01*
X10200000Y9611799D02*
Y10399400D01*
X9962500Y10636900D02*
X10200000Y10399400D01*
X9962500Y10636900D02*
Y10913201D01*
X10600000Y8593400D02*
Y8986799D01*
X10502900Y8496300D02*
X10600000Y8593400D01*
X10100599Y8906799D02*
X10425000D01*
X9938960Y8745160D02*
X10100599Y8906799D01*
D25*
X8200000Y8400000D02*
D03*
X11600000Y11000000D02*
D03*
D26*
X9938960Y8382000D02*
D03*
X8471500Y9653299D02*
D03*
X11100000Y8399299D02*
D03*
X10362701Y10400000D02*
D03*
X9437299D02*
D03*
X9141701Y8700000D02*
D03*
X10606500Y11013201D02*
D03*
X10090833Y11024168D02*
D03*
X9962500Y10913201D02*
D03*
X9837500Y11027501D02*
D03*
X11100000Y9699299D02*
D03*
X10600000Y8986799D02*
D03*
X9400000Y9066799D02*
D03*
Y9653200D02*
D03*
X10058400Y9497499D02*
D03*
X9800000D02*
D03*
X9960000Y9611799D02*
D03*
X10200000D02*
D03*
X9800000Y10038200D02*
D03*
X10886799Y8737500D02*
D03*
Y8862500D02*
D03*
X11006700Y9400000D02*
D03*
X10425000Y8906799D02*
D03*
X10040000Y9302501D02*
D03*
X9880000Y9188201D02*
D03*
X10313960Y8496300D02*
D03*
X9813960D02*
D03*
D27*
X9000000Y9521500D02*
D03*
Y9711500D02*
D03*
D28*
X8905000Y9541500D02*
D03*
Y9591500D02*
D03*
Y9641500D02*
D03*
Y9691500D02*
D03*
X9095000Y9541500D02*
D03*
Y9591500D02*
D03*
Y9641500D02*
D03*
Y9691500D02*
D03*
D29*
X9867900Y11150600D02*
X9962500Y11056000D01*
X9493832Y11150600D02*
X9867900D01*
X9962500Y10913201D02*
Y11056000D01*
X9328732Y10985500D02*
X9493832Y11150600D01*
X9321800Y10985500D02*
X9328732D01*
X9232900Y9715500D02*
Y10896600D01*
X9321800Y10985500D01*
X9095000Y9691500D02*
X9208900D01*
X9232900Y9715500D01*
X9222400Y9641500D02*
X9283700Y9702800D01*
Y10883900D02*
X9427301Y11027501D01*
X9837500D01*
X9283700Y9702800D02*
Y10883900D01*
X9095000Y9641500D02*
X9222400D01*
X9248600Y9591500D02*
X9310300Y9653200D01*
X8905000Y9591500D02*
X9095000D01*
X9248600D01*
X9310300Y9653200D02*
X9400000D01*
X8805000Y9516500D02*
X8830000Y9541500D01*
X8905000D01*
X8700000Y9516500D02*
X8805000D01*
X8905000Y9541500D02*
Y9591500D01*
%TF.MD5,198d79a00225b5a40af118c99bc962fb*%
M02*
