%TF.GenerationSoftware,Altium Limited,Altium Designer,23.11.1 (41)*%
G04 Layer_Color=65535*
%FSLAX45Y45*%
%MOMM*%
%TF.SameCoordinates,EE14C10C-1293-43E7-8F5D-FAE76E51A431*%
%TF.FilePolarity,Positive*%
%TF.FileFunction,Legend,Top*%
%TF.Part,Single*%
G01*
G75*
%TA.AperFunction,NonConductor*%
%ADD30C,0.40000*%
%ADD31C,0.10000*%
%ADD32C,0.25400*%
G36*
X10412768Y9833591D02*
Y9833474D01*
Y9833004D01*
Y9832417D01*
Y9831596D01*
X10412650Y9830540D01*
Y9829366D01*
X10412533Y9827958D01*
X10412416Y9826550D01*
X10412064Y9823382D01*
X10411594Y9820096D01*
X10410890Y9816928D01*
X10410421Y9815402D01*
X10409951Y9813994D01*
Y9813876D01*
X10409834Y9813642D01*
X10409599Y9813290D01*
X10409365Y9812820D01*
X10408661Y9811530D01*
X10407605Y9809887D01*
X10406196Y9808009D01*
X10404553Y9806132D01*
X10402441Y9804137D01*
X10399860Y9802376D01*
X10399742D01*
X10399508Y9802142D01*
X10399155Y9802024D01*
X10398569Y9801672D01*
X10397865Y9801320D01*
X10396926Y9800968D01*
X10395987Y9800616D01*
X10394814Y9800147D01*
X10393523Y9799677D01*
X10392115Y9799325D01*
X10390589Y9798973D01*
X10388829Y9798621D01*
X10387069Y9798387D01*
X10385191Y9798152D01*
X10380967Y9797917D01*
X10379910D01*
X10379089Y9798035D01*
X10378150D01*
X10376977Y9798152D01*
X10375686Y9798269D01*
X10374395Y9798387D01*
X10371461Y9798856D01*
X10368293Y9799560D01*
X10365242Y9800499D01*
X10362308Y9801790D01*
X10362191D01*
X10361956Y9802024D01*
X10361604Y9802259D01*
X10361135Y9802494D01*
X10359844Y9803433D01*
X10358318Y9804723D01*
X10356558Y9806366D01*
X10354915Y9808244D01*
X10353272Y9810591D01*
X10351982Y9813172D01*
Y9813290D01*
X10351864Y9813524D01*
X10351747Y9813994D01*
X10351512Y9814581D01*
X10351277Y9815285D01*
X10351043Y9816223D01*
X10350691Y9817280D01*
X10350456Y9818570D01*
X10350221Y9819979D01*
X10349869Y9821504D01*
X10349635Y9823147D01*
X10349400Y9824907D01*
X10349165Y9826902D01*
X10349048Y9829014D01*
X10348931Y9831244D01*
Y9833591D01*
Y9880530D01*
X10359727D01*
Y9833591D01*
Y9833474D01*
Y9833122D01*
Y9832535D01*
Y9831831D01*
X10359844Y9831009D01*
Y9829953D01*
X10359961Y9827724D01*
X10360196Y9825142D01*
X10360548Y9822560D01*
X10361017Y9820096D01*
X10361252Y9819040D01*
X10361604Y9817984D01*
X10361721Y9817749D01*
X10361956Y9817162D01*
X10362543Y9816341D01*
X10363247Y9815167D01*
X10364068Y9813994D01*
X10365242Y9812703D01*
X10366650Y9811412D01*
X10368293Y9810356D01*
X10368528Y9810239D01*
X10369114Y9809887D01*
X10370171Y9809535D01*
X10371579Y9809065D01*
X10373222Y9808478D01*
X10375334Y9808126D01*
X10377563Y9807774D01*
X10380028Y9807657D01*
X10381201D01*
X10381905Y9807774D01*
X10382961D01*
X10384018Y9807892D01*
X10386599Y9808361D01*
X10389416Y9808948D01*
X10392115Y9809887D01*
X10394696Y9811177D01*
X10395870Y9811999D01*
X10396926Y9812938D01*
X10397043Y9813055D01*
X10397161Y9813172D01*
X10397395Y9813524D01*
X10397747Y9813994D01*
X10398099Y9814698D01*
X10398569Y9815402D01*
X10399038Y9816458D01*
X10399508Y9817514D01*
X10399977Y9818805D01*
X10400329Y9820331D01*
X10400798Y9822091D01*
X10401150Y9823968D01*
X10401502Y9826081D01*
X10401737Y9828310D01*
X10401972Y9830892D01*
Y9833591D01*
Y9880530D01*
X10412768D01*
Y9833591D01*
D02*
G37*
G36*
X10455483Y9880765D02*
X10456421Y9880647D01*
X10457595Y9880530D01*
X10458886Y9880295D01*
X10460176Y9880061D01*
X10463227Y9879239D01*
X10466279Y9878066D01*
X10467804Y9877362D01*
X10469330Y9876540D01*
X10470738Y9875484D01*
X10472029Y9874311D01*
X10472146Y9874193D01*
X10472381Y9874076D01*
X10472615Y9873607D01*
X10473085Y9873137D01*
X10473671Y9872550D01*
X10474258Y9871729D01*
X10474845Y9870908D01*
X10475549Y9869851D01*
X10476723Y9867622D01*
X10477896Y9864806D01*
X10478365Y9863397D01*
X10478600Y9861754D01*
X10478835Y9860112D01*
X10478952Y9858351D01*
Y9858117D01*
Y9857530D01*
X10478835Y9856591D01*
X10478717Y9855300D01*
X10478483Y9853892D01*
X10478013Y9852249D01*
X10477544Y9850489D01*
X10476840Y9848729D01*
X10476723Y9848494D01*
X10476488Y9847907D01*
X10476018Y9846969D01*
X10475314Y9845678D01*
X10474376Y9844270D01*
X10473202Y9842509D01*
X10471794Y9840749D01*
X10470151Y9838754D01*
X10469916Y9838520D01*
X10469330Y9837815D01*
X10468743Y9837229D01*
X10468156Y9836642D01*
X10467452Y9835938D01*
X10466513Y9834999D01*
X10465574Y9834060D01*
X10464401Y9833004D01*
X10463227Y9831831D01*
X10461819Y9830540D01*
X10460294Y9829249D01*
X10458651Y9827724D01*
X10456773Y9826198D01*
X10454896Y9824555D01*
X10454778Y9824438D01*
X10454544Y9824203D01*
X10454074Y9823851D01*
X10453488Y9823382D01*
X10452784Y9822678D01*
X10451962Y9821973D01*
X10450085Y9820448D01*
X10448090Y9818688D01*
X10446212Y9816928D01*
X10444569Y9815402D01*
X10443865Y9814815D01*
X10443278Y9814229D01*
X10443161Y9814111D01*
X10442809Y9813759D01*
X10442340Y9813290D01*
X10441753Y9812586D01*
X10441166Y9811764D01*
X10440462Y9810943D01*
X10439054Y9808948D01*
X10479069D01*
Y9799325D01*
X10425207D01*
Y9799443D01*
Y9799912D01*
Y9800616D01*
X10425324Y9801555D01*
X10425441Y9802611D01*
X10425676Y9803785D01*
X10425911Y9804958D01*
X10426380Y9806249D01*
Y9806366D01*
X10426498Y9806484D01*
X10426732Y9807188D01*
X10427202Y9808244D01*
X10427906Y9809652D01*
X10428845Y9811295D01*
X10430018Y9813172D01*
X10431309Y9815050D01*
X10432952Y9817045D01*
Y9817162D01*
X10433186Y9817280D01*
X10433773Y9817984D01*
X10434829Y9819040D01*
X10436355Y9820565D01*
X10438115Y9822326D01*
X10440345Y9824438D01*
X10443044Y9826785D01*
X10445977Y9829249D01*
X10446095Y9829366D01*
X10446564Y9829718D01*
X10447268Y9830305D01*
X10448090Y9831009D01*
X10449146Y9831948D01*
X10450437Y9833004D01*
X10451727Y9834178D01*
X10453253Y9835469D01*
X10456187Y9838285D01*
X10459120Y9841101D01*
X10460528Y9842509D01*
X10461819Y9843918D01*
X10462993Y9845208D01*
X10463932Y9846499D01*
Y9846617D01*
X10464166Y9846734D01*
X10464401Y9847086D01*
X10464636Y9847555D01*
X10465457Y9848846D01*
X10466396Y9850372D01*
X10467217Y9852249D01*
X10468039Y9854244D01*
X10468508Y9856474D01*
X10468743Y9858586D01*
Y9858703D01*
Y9858821D01*
X10468625Y9859525D01*
X10468508Y9860698D01*
X10468156Y9861989D01*
X10467687Y9863632D01*
X10466865Y9865275D01*
X10465809Y9866918D01*
X10464401Y9868561D01*
X10464166Y9868795D01*
X10463580Y9869265D01*
X10462758Y9869851D01*
X10461467Y9870673D01*
X10459824Y9871377D01*
X10457947Y9872081D01*
X10455717Y9872550D01*
X10453253Y9872668D01*
X10452549D01*
X10452079Y9872550D01*
X10450671Y9872433D01*
X10449028Y9872081D01*
X10447268Y9871612D01*
X10445273Y9870790D01*
X10443396Y9869734D01*
X10441635Y9868326D01*
X10441401Y9868091D01*
X10440931Y9867505D01*
X10440227Y9866566D01*
X10439523Y9865158D01*
X10438702Y9863515D01*
X10437998Y9861402D01*
X10437528Y9859055D01*
X10437294Y9856356D01*
X10427084Y9857413D01*
Y9857530D01*
X10427202Y9857882D01*
Y9858469D01*
X10427319Y9859290D01*
X10427554Y9860229D01*
X10427788Y9861285D01*
X10428140Y9862576D01*
X10428492Y9863867D01*
X10429431Y9866683D01*
X10430839Y9869499D01*
X10431661Y9870908D01*
X10432717Y9872316D01*
X10433773Y9873607D01*
X10434947Y9874780D01*
X10435064Y9874897D01*
X10435299Y9875015D01*
X10435651Y9875367D01*
X10436237Y9875719D01*
X10436942Y9876188D01*
X10437763Y9876658D01*
X10438702Y9877244D01*
X10439875Y9877831D01*
X10441166Y9878418D01*
X10442574Y9879005D01*
X10444100Y9879474D01*
X10445743Y9879943D01*
X10447503Y9880295D01*
X10449380Y9880647D01*
X10451375Y9880765D01*
X10453488Y9880882D01*
X10454661D01*
X10455483Y9880765D01*
D02*
G37*
G36*
X8489819Y8840314D02*
Y8840196D01*
Y8839727D01*
Y8839140D01*
Y8838319D01*
X8489702Y8837263D01*
Y8836089D01*
X8489585Y8834681D01*
X8489467Y8833273D01*
X8489115Y8830105D01*
X8488646Y8826819D01*
X8487942Y8823650D01*
X8487472Y8822125D01*
X8487003Y8820717D01*
Y8820599D01*
X8486886Y8820365D01*
X8486651Y8820013D01*
X8486416Y8819543D01*
X8485712Y8818252D01*
X8484656Y8816609D01*
X8483248Y8814732D01*
X8481605Y8812854D01*
X8479493Y8810859D01*
X8476911Y8809099D01*
X8476794D01*
X8476559Y8808865D01*
X8476207Y8808747D01*
X8475620Y8808395D01*
X8474916Y8808043D01*
X8473977Y8807691D01*
X8473039Y8807339D01*
X8471865Y8806870D01*
X8470574Y8806400D01*
X8469166Y8806048D01*
X8467641Y8805696D01*
X8465880Y8805344D01*
X8464120Y8805109D01*
X8462243Y8804875D01*
X8458018Y8804640D01*
X8456962D01*
X8456141Y8804757D01*
X8455202D01*
X8454028Y8804875D01*
X8452737Y8804992D01*
X8451447Y8805109D01*
X8448513Y8805579D01*
X8445345Y8806283D01*
X8442294Y8807222D01*
X8439360Y8808512D01*
X8439242D01*
X8439008Y8808747D01*
X8438656Y8808982D01*
X8438186Y8809217D01*
X8436895Y8810155D01*
X8435370Y8811446D01*
X8433610Y8813089D01*
X8431967Y8814967D01*
X8430324Y8817314D01*
X8429033Y8819895D01*
Y8820013D01*
X8428916Y8820247D01*
X8428798Y8820717D01*
X8428564Y8821303D01*
X8428329Y8822008D01*
X8428094Y8822946D01*
X8427742Y8824002D01*
X8427508Y8825293D01*
X8427273Y8826701D01*
X8426921Y8828227D01*
X8426686Y8829870D01*
X8426452Y8831630D01*
X8426217Y8833625D01*
X8426099Y8835737D01*
X8425982Y8837967D01*
Y8840314D01*
Y8887253D01*
X8436778D01*
Y8840314D01*
Y8840196D01*
Y8839844D01*
Y8839258D01*
Y8838554D01*
X8436895Y8837732D01*
Y8836676D01*
X8437013Y8834446D01*
X8437248Y8831865D01*
X8437600Y8829283D01*
X8438069Y8826819D01*
X8438304Y8825763D01*
X8438656Y8824707D01*
X8438773Y8824472D01*
X8439008Y8823885D01*
X8439594Y8823064D01*
X8440299Y8821890D01*
X8441120Y8820717D01*
X8442294Y8819426D01*
X8443702Y8818135D01*
X8445345Y8817079D01*
X8445579Y8816962D01*
X8446166Y8816609D01*
X8447222Y8816257D01*
X8448630Y8815788D01*
X8450273Y8815201D01*
X8452385Y8814849D01*
X8454615Y8814497D01*
X8457079Y8814380D01*
X8458253D01*
X8458957Y8814497D01*
X8460013D01*
X8461069Y8814615D01*
X8463651Y8815084D01*
X8466467Y8815671D01*
X8469166Y8816609D01*
X8471748Y8817900D01*
X8472921Y8818722D01*
X8473977Y8819661D01*
X8474095Y8819778D01*
X8474212Y8819895D01*
X8474447Y8820247D01*
X8474799Y8820717D01*
X8475151Y8821421D01*
X8475620Y8822125D01*
X8476090Y8823181D01*
X8476559Y8824237D01*
X8477029Y8825528D01*
X8477381Y8827053D01*
X8477850Y8828814D01*
X8478202Y8830691D01*
X8478554Y8832804D01*
X8478789Y8835033D01*
X8479023Y8837615D01*
Y8840314D01*
Y8887253D01*
X8489819D01*
Y8840314D01*
D02*
G37*
G36*
X8541218Y8806048D02*
X8531243D01*
Y8869533D01*
X8531126Y8869416D01*
X8530539Y8868947D01*
X8529835Y8868243D01*
X8528662Y8867421D01*
X8527371Y8866365D01*
X8525728Y8865192D01*
X8523850Y8863901D01*
X8521738Y8862610D01*
X8521621D01*
X8521503Y8862493D01*
X8520799Y8862023D01*
X8519626Y8861436D01*
X8518218Y8860732D01*
X8516575Y8859911D01*
X8514815Y8859089D01*
X8513054Y8858268D01*
X8511294Y8857564D01*
Y8867186D01*
X8511411D01*
X8511646Y8867421D01*
X8512116Y8867539D01*
X8512702Y8867891D01*
X8513406Y8868243D01*
X8514228Y8868712D01*
X8516223Y8869885D01*
X8518570Y8871176D01*
X8520917Y8872819D01*
X8523381Y8874697D01*
X8525845Y8876692D01*
X8525963Y8876809D01*
X8526080Y8876926D01*
X8526432Y8877278D01*
X8526901Y8877630D01*
X8527958Y8878804D01*
X8529366Y8880212D01*
X8530774Y8881855D01*
X8532299Y8883733D01*
X8533590Y8885610D01*
X8534764Y8887605D01*
X8541218D01*
Y8806048D01*
D02*
G37*
G36*
X10958137Y9916370D02*
X10958020D01*
X10957551D01*
X10956847D01*
X10955908Y9916487D01*
X10954852Y9916605D01*
X10953678Y9916839D01*
X10952505Y9917074D01*
X10951214Y9917544D01*
X10951096D01*
X10950979Y9917661D01*
X10950275Y9917896D01*
X10949219Y9918365D01*
X10947811Y9919069D01*
X10946168Y9920008D01*
X10944290Y9921181D01*
X10942413Y9922472D01*
X10940418Y9924115D01*
X10940300D01*
X10940183Y9924350D01*
X10939479Y9924936D01*
X10938423Y9925993D01*
X10936897Y9927518D01*
X10935137Y9929278D01*
X10933025Y9931508D01*
X10930678Y9934207D01*
X10928214Y9937141D01*
X10928096Y9937258D01*
X10927744Y9937727D01*
X10927157Y9938431D01*
X10926453Y9939253D01*
X10925515Y9940309D01*
X10924458Y9941600D01*
X10923285Y9942891D01*
X10921994Y9944416D01*
X10919178Y9947350D01*
X10916361Y9950284D01*
X10914953Y9951692D01*
X10913545Y9952983D01*
X10912254Y9954156D01*
X10910963Y9955095D01*
X10910846D01*
X10910729Y9955330D01*
X10910377Y9955564D01*
X10909907Y9955799D01*
X10908616Y9956620D01*
X10907091Y9957559D01*
X10905213Y9958381D01*
X10903218Y9959202D01*
X10900989Y9959671D01*
X10898877Y9959906D01*
X10898759D01*
X10898642D01*
X10897938Y9959789D01*
X10896764Y9959671D01*
X10895474Y9959319D01*
X10893831Y9958850D01*
X10892188Y9958029D01*
X10890545Y9956972D01*
X10888902Y9955564D01*
X10888667Y9955330D01*
X10888198Y9954743D01*
X10887611Y9953921D01*
X10886790Y9952631D01*
X10886086Y9950988D01*
X10885382Y9949110D01*
X10884912Y9946881D01*
X10884795Y9944416D01*
Y9943712D01*
X10884912Y9943243D01*
X10885030Y9941835D01*
X10885382Y9940192D01*
X10885851Y9938431D01*
X10886672Y9936437D01*
X10887729Y9934559D01*
X10889137Y9932799D01*
X10889371Y9932564D01*
X10889958Y9932095D01*
X10890897Y9931391D01*
X10892305Y9930687D01*
X10893948Y9929865D01*
X10896060Y9929161D01*
X10898407Y9928692D01*
X10901106Y9928457D01*
X10900050Y9918248D01*
X10899933D01*
X10899581Y9918365D01*
X10898994D01*
X10898173Y9918482D01*
X10897234Y9918717D01*
X10896178Y9918952D01*
X10894887Y9919304D01*
X10893596Y9919656D01*
X10890780Y9920595D01*
X10887963Y9922003D01*
X10886555Y9922824D01*
X10885147Y9923880D01*
X10883856Y9924936D01*
X10882683Y9926110D01*
X10882565Y9926227D01*
X10882448Y9926462D01*
X10882096Y9926814D01*
X10881744Y9927401D01*
X10881274Y9928105D01*
X10880805Y9928926D01*
X10880218Y9929865D01*
X10879632Y9931039D01*
X10879045Y9932329D01*
X10878458Y9933738D01*
X10877989Y9935263D01*
X10877519Y9936906D01*
X10877167Y9938666D01*
X10876815Y9940544D01*
X10876698Y9942539D01*
X10876580Y9944651D01*
Y9945824D01*
X10876698Y9946646D01*
X10876815Y9947585D01*
X10876933Y9948758D01*
X10877167Y9950049D01*
X10877402Y9951340D01*
X10878223Y9954391D01*
X10879397Y9957442D01*
X10880101Y9958967D01*
X10880922Y9960493D01*
X10881978Y9961901D01*
X10883152Y9963192D01*
X10883269Y9963309D01*
X10883387Y9963544D01*
X10883856Y9963779D01*
X10884325Y9964248D01*
X10884912Y9964835D01*
X10885734Y9965422D01*
X10886555Y9966008D01*
X10887611Y9966712D01*
X10889841Y9967886D01*
X10892657Y9969059D01*
X10894065Y9969529D01*
X10895708Y9969763D01*
X10897351Y9969998D01*
X10899111Y9970115D01*
X10899346D01*
X10899933D01*
X10900872Y9969998D01*
X10902162Y9969881D01*
X10903571Y9969646D01*
X10905213Y9969177D01*
X10906974Y9968707D01*
X10908734Y9968003D01*
X10908969Y9967886D01*
X10909555Y9967651D01*
X10910494Y9967182D01*
X10911785Y9966478D01*
X10913193Y9965539D01*
X10914953Y9964365D01*
X10916713Y9962957D01*
X10918708Y9961314D01*
X10918943Y9961080D01*
X10919647Y9960493D01*
X10920234Y9959906D01*
X10920821Y9959319D01*
X10921525Y9958615D01*
X10922464Y9957677D01*
X10923402Y9956738D01*
X10924458Y9955564D01*
X10925632Y9954391D01*
X10926923Y9952983D01*
X10928214Y9951457D01*
X10929739Y9949814D01*
X10931265Y9947937D01*
X10932908Y9946059D01*
X10933025Y9945942D01*
X10933260Y9945707D01*
X10933612Y9945238D01*
X10934081Y9944651D01*
X10934785Y9943947D01*
X10935489Y9943125D01*
X10937015Y9941248D01*
X10938775Y9939253D01*
X10940535Y9937375D01*
X10942061Y9935732D01*
X10942647Y9935028D01*
X10943234Y9934442D01*
X10943351Y9934324D01*
X10943704Y9933972D01*
X10944173Y9933503D01*
X10944877Y9932916D01*
X10945698Y9932329D01*
X10946520Y9931625D01*
X10948515Y9930217D01*
Y9970233D01*
X10958137D01*
Y9916370D01*
D02*
G37*
G36*
X10964474Y9905809D02*
Y9905691D01*
X10964357Y9905457D01*
X10964122Y9904987D01*
X10963887Y9904283D01*
X10963535Y9903462D01*
X10963066Y9902523D01*
X10962597Y9901467D01*
X10962010Y9900293D01*
X10960602Y9897712D01*
X10958959Y9894778D01*
X10956847Y9891610D01*
X10954500Y9888324D01*
Y9888207D01*
X10954734Y9887972D01*
X10954969Y9887385D01*
X10955321Y9886798D01*
X10955673Y9885860D01*
X10956142Y9884921D01*
X10956494Y9883747D01*
X10956964Y9882456D01*
X10957433Y9881048D01*
X10957903Y9879523D01*
X10958724Y9876120D01*
X10959311Y9872365D01*
X10959428Y9870370D01*
X10959546Y9868375D01*
Y9867319D01*
X10959428Y9866497D01*
Y9865558D01*
X10959311Y9864385D01*
X10959076Y9863094D01*
X10958841Y9861686D01*
X10958255Y9858635D01*
X10957316Y9855232D01*
X10956025Y9851711D01*
X10955204Y9850068D01*
X10954265Y9848308D01*
X10954148Y9848191D01*
X10954030Y9847956D01*
X10953678Y9847487D01*
X10953326Y9846900D01*
X10952739Y9846079D01*
X10952035Y9845257D01*
X10950392Y9843262D01*
X10948280Y9841033D01*
X10945698Y9838803D01*
X10942765Y9836573D01*
X10939362Y9834579D01*
X10939244D01*
X10938892Y9834344D01*
X10938423Y9834109D01*
X10937719Y9833874D01*
X10936780Y9833522D01*
X10935724Y9833053D01*
X10934433Y9832584D01*
X10933025Y9832232D01*
X10931499Y9831762D01*
X10929856Y9831293D01*
X10928096Y9830941D01*
X10926101Y9830471D01*
X10921994Y9830002D01*
X10917652Y9829767D01*
X10917535D01*
X10917066D01*
X10916479D01*
X10915657Y9829885D01*
X10914601D01*
X10913310Y9830002D01*
X10911902Y9830119D01*
X10910377Y9830354D01*
X10906974Y9830941D01*
X10903336Y9831762D01*
X10899463Y9832936D01*
X10895708Y9834579D01*
X10895591Y9834696D01*
X10895239Y9834813D01*
X10894769Y9835048D01*
X10894065Y9835517D01*
X10893244Y9835987D01*
X10892305Y9836573D01*
X10890076Y9838216D01*
X10887729Y9840094D01*
X10885264Y9842558D01*
X10882800Y9845257D01*
X10880688Y9848426D01*
X10880570Y9848543D01*
X10880453Y9848895D01*
X10880218Y9849364D01*
X10879866Y9850068D01*
X10879514Y9850890D01*
X10879045Y9851829D01*
X10878575Y9853002D01*
X10878106Y9854293D01*
X10877637Y9855818D01*
X10877167Y9857344D01*
X10876346Y9860747D01*
X10875759Y9864502D01*
X10875524Y9866497D01*
Y9869666D01*
X10875642Y9870487D01*
Y9871543D01*
X10875759Y9872599D01*
X10875994Y9874007D01*
X10876228Y9875416D01*
X10876815Y9878467D01*
X10877754Y9881987D01*
X10879162Y9885390D01*
X10879984Y9887150D01*
X10880922Y9888911D01*
X10881040Y9889028D01*
X10881157Y9889263D01*
X10881509Y9889732D01*
X10881861Y9890436D01*
X10882448Y9891140D01*
X10883152Y9892079D01*
X10884795Y9894074D01*
X10886907Y9896186D01*
X10889489Y9898533D01*
X10892540Y9900763D01*
X10895943Y9902640D01*
X10896060D01*
X10896412Y9902875D01*
X10896882Y9903110D01*
X10897586Y9903344D01*
X10898525Y9903814D01*
X10899581Y9904166D01*
X10900872Y9904635D01*
X10902280Y9905105D01*
X10903805Y9905457D01*
X10905448Y9905926D01*
X10907208Y9906395D01*
X10909086Y9906748D01*
X10913193Y9907217D01*
X10917535Y9907452D01*
X10917652D01*
X10918004D01*
X10918474D01*
X10919178D01*
X10920117Y9907334D01*
X10921173D01*
X10922346Y9907217D01*
X10923520Y9907100D01*
X10926336Y9906748D01*
X10929387Y9906161D01*
X10932555Y9905457D01*
X10935607Y9904401D01*
X10935724D01*
X10935959Y9904283D01*
X10936428Y9904049D01*
X10936897Y9903814D01*
X10937601Y9903462D01*
X10938423Y9903110D01*
X10940300Y9902171D01*
X10942530Y9900880D01*
X10944877Y9899237D01*
X10947224Y9897360D01*
X10949571Y9895247D01*
Y9895365D01*
X10949806Y9895599D01*
X10950040Y9895952D01*
X10950392Y9896538D01*
X10950862Y9897125D01*
X10951331Y9897946D01*
X10952387Y9899707D01*
X10953678Y9901819D01*
X10954969Y9904166D01*
X10956025Y9906630D01*
X10957081Y9908977D01*
X10964474Y9905809D01*
D02*
G37*
G36*
X10888433Y9665363D02*
X10888668Y9665128D01*
X10889137Y9664659D01*
X10889841Y9664189D01*
X10890662Y9663485D01*
X10891601Y9662546D01*
X10892775Y9661608D01*
X10894183Y9660551D01*
X10895591Y9659495D01*
X10897234Y9658204D01*
X10899112Y9656914D01*
X10900989Y9655623D01*
X10903101Y9654215D01*
X10905331Y9652806D01*
X10907795Y9651398D01*
X10910260Y9649990D01*
X10910377Y9649873D01*
X10910846Y9649638D01*
X10911550Y9649286D01*
X10912607Y9648699D01*
X10913897Y9648113D01*
X10915306Y9647408D01*
X10916948Y9646587D01*
X10918826Y9645766D01*
X10920938Y9644827D01*
X10923051Y9643771D01*
X10925398Y9642832D01*
X10927862Y9641893D01*
X10932908Y9640016D01*
X10938306Y9638255D01*
X10938423D01*
X10938775Y9638138D01*
X10939362Y9638021D01*
X10940066Y9637786D01*
X10941005Y9637551D01*
X10942178Y9637317D01*
X10943469Y9636964D01*
X10944877Y9636730D01*
X10946520Y9636378D01*
X10948280Y9636026D01*
X10952036Y9635439D01*
X10956143Y9634852D01*
X10960602Y9634500D01*
Y9624291D01*
X10960485D01*
X10960133D01*
X10959663D01*
X10958959Y9624408D01*
X10958020D01*
X10956847Y9624526D01*
X10955556Y9624643D01*
X10954148Y9624760D01*
X10952505Y9624995D01*
X10950862Y9625230D01*
X10948867Y9625582D01*
X10946872Y9625934D01*
X10944760Y9626286D01*
X10942413Y9626755D01*
X10937602Y9627929D01*
X10937484D01*
X10937015Y9628046D01*
X10936311Y9628281D01*
X10935255Y9628633D01*
X10934081Y9628985D01*
X10932673Y9629454D01*
X10931030Y9629924D01*
X10929270Y9630628D01*
X10927275Y9631332D01*
X10925280Y9632036D01*
X10920821Y9633796D01*
X10916127Y9635908D01*
X10911433Y9638255D01*
X10911316Y9638373D01*
X10910846Y9638607D01*
X10910260Y9638959D01*
X10909321Y9639429D01*
X10908265Y9640016D01*
X10906974Y9640837D01*
X10905566Y9641658D01*
X10904040Y9642597D01*
X10900637Y9644827D01*
X10897117Y9647174D01*
X10893479Y9649873D01*
X10890076Y9652689D01*
Y9612908D01*
X10880453D01*
Y9665480D01*
X10888316D01*
X10888433Y9665363D01*
D02*
G37*
G36*
X10960602Y9592490D02*
X10943704Y9581811D01*
X10943586D01*
X10943352Y9581576D01*
X10943000Y9581342D01*
X10942530Y9580989D01*
X10941239Y9580168D01*
X10939597Y9579112D01*
X10937836Y9577821D01*
X10935959Y9576530D01*
X10934199Y9575239D01*
X10932556Y9574066D01*
X10932438Y9573949D01*
X10931969Y9573597D01*
X10931265Y9573010D01*
X10930443Y9572188D01*
X10928683Y9570428D01*
X10927862Y9569489D01*
X10927158Y9568551D01*
X10927040Y9568433D01*
X10926923Y9568199D01*
X10926688Y9567729D01*
X10926336Y9567025D01*
X10925984Y9566321D01*
X10925632Y9565500D01*
X10925045Y9563622D01*
Y9563505D01*
X10924928Y9563270D01*
Y9562801D01*
X10924811Y9562214D01*
X10924693Y9561392D01*
Y9560454D01*
X10924576Y9559163D01*
Y9545316D01*
X10960602D01*
Y9534520D01*
X10879397D01*
Y9572188D01*
X10879514Y9573127D01*
Y9574183D01*
X10879632Y9576648D01*
X10879984Y9579229D01*
X10880336Y9582046D01*
X10880923Y9584627D01*
X10881275Y9585918D01*
X10881627Y9586974D01*
Y9587092D01*
X10881744Y9587209D01*
X10882096Y9587913D01*
X10882565Y9588969D01*
X10883387Y9590260D01*
X10884443Y9591668D01*
X10885851Y9593194D01*
X10887494Y9594602D01*
X10889372Y9596010D01*
X10889489D01*
X10889606Y9596127D01*
X10890310Y9596597D01*
X10891484Y9597066D01*
X10893009Y9597770D01*
X10894770Y9598357D01*
X10896882Y9598944D01*
X10899112Y9599296D01*
X10901576Y9599413D01*
X10901693D01*
X10901928D01*
X10902397D01*
X10902984Y9599296D01*
X10903805D01*
X10904627Y9599178D01*
X10906622Y9598709D01*
X10908969Y9598005D01*
X10911433Y9597066D01*
X10913897Y9595658D01*
X10915071Y9594719D01*
X10916244Y9593780D01*
X10916362Y9593663D01*
X10916479Y9593546D01*
X10916831Y9593194D01*
X10917183Y9592724D01*
X10917653Y9592138D01*
X10918122Y9591433D01*
X10918709Y9590495D01*
X10919413Y9589556D01*
X10919999Y9588382D01*
X10920586Y9587092D01*
X10921290Y9585683D01*
X10921877Y9584158D01*
X10922346Y9582398D01*
X10922933Y9580637D01*
X10923285Y9578643D01*
X10923637Y9576530D01*
X10923755Y9576765D01*
X10923989Y9577234D01*
X10924459Y9577938D01*
X10924928Y9578877D01*
X10926219Y9580989D01*
X10927040Y9582046D01*
X10927744Y9582984D01*
X10927979Y9583219D01*
X10928566Y9583806D01*
X10929505Y9584745D01*
X10930678Y9585918D01*
X10932321Y9587209D01*
X10934081Y9588734D01*
X10936194Y9590260D01*
X10938540Y9591903D01*
X10960602Y9605867D01*
Y9592490D01*
D02*
G37*
G36*
X9412780Y8650342D02*
Y8650225D01*
Y8649873D01*
Y8649404D01*
Y8648699D01*
X9412663Y8647761D01*
Y8646822D01*
X9412428Y8644592D01*
X9412193Y8642011D01*
X9411724Y8639312D01*
X9411020Y8636847D01*
X9410198Y8634500D01*
Y8634383D01*
X9410081Y8634266D01*
X9409729Y8633562D01*
X9409142Y8632623D01*
X9408321Y8631332D01*
X9407147Y8630041D01*
X9405856Y8628633D01*
X9404214Y8627225D01*
X9402336Y8626051D01*
X9402101Y8625934D01*
X9401397Y8625582D01*
X9400341Y8625113D01*
X9398816Y8624643D01*
X9396938Y8624056D01*
X9394826Y8623587D01*
X9392479Y8623235D01*
X9389897Y8623118D01*
X9388841D01*
X9388137Y8623235D01*
X9387198Y8623352D01*
X9386259Y8623470D01*
X9383795Y8623939D01*
X9381213Y8624643D01*
X9378514Y8625699D01*
X9377106Y8626403D01*
X9375815Y8627225D01*
X9374642Y8628164D01*
X9373468Y8629220D01*
X9373351Y8629337D01*
X9373234Y8629454D01*
X9372999Y8629924D01*
X9372647Y8630393D01*
X9372178Y8630980D01*
X9371708Y8631801D01*
X9371239Y8632740D01*
X9370652Y8633796D01*
X9370183Y8634970D01*
X9369713Y8636378D01*
X9369244Y8637786D01*
X9368775Y8639429D01*
X9368540Y8641189D01*
X9368188Y8643184D01*
X9368070Y8645179D01*
Y8647409D01*
X9377810Y8648817D01*
Y8648699D01*
Y8648465D01*
Y8647995D01*
X9377928Y8647291D01*
X9378045Y8646587D01*
Y8645766D01*
X9378397Y8643771D01*
X9378749Y8641659D01*
X9379453Y8639546D01*
X9380157Y8637669D01*
X9380627Y8636847D01*
X9381213Y8636143D01*
X9381331Y8636026D01*
X9381800Y8635674D01*
X9382504Y8635087D01*
X9383443Y8634500D01*
X9384734Y8633796D01*
X9386142Y8633327D01*
X9387902Y8632858D01*
X9389780Y8632740D01*
X9390484D01*
X9391188Y8632858D01*
X9392244Y8632975D01*
X9393300Y8633210D01*
X9394474Y8633444D01*
X9395647Y8633914D01*
X9396821Y8634500D01*
X9396938Y8634618D01*
X9397290Y8634852D01*
X9397759Y8635322D01*
X9398464Y8635791D01*
X9399050Y8636613D01*
X9399754Y8637434D01*
X9400341Y8638373D01*
X9400811Y8639546D01*
Y8639664D01*
X9401045Y8640133D01*
X9401163Y8640955D01*
X9401397Y8642011D01*
X9401632Y8643419D01*
X9401749Y8645179D01*
X9401984Y8647291D01*
Y8649756D01*
Y8705731D01*
X9412780D01*
Y8650342D01*
D02*
G37*
G36*
X9455143Y8705965D02*
X9456081Y8705848D01*
X9457255Y8705731D01*
X9458546Y8705496D01*
X9459837Y8705261D01*
X9462888Y8704440D01*
X9465939Y8703266D01*
X9467464Y8702562D01*
X9468990Y8701741D01*
X9470398Y8700685D01*
X9471689Y8699511D01*
X9471806Y8699394D01*
X9472041Y8699276D01*
X9472275Y8698807D01*
X9472745Y8698338D01*
X9473332Y8697751D01*
X9473918Y8696930D01*
X9474505Y8696108D01*
X9475209Y8695052D01*
X9476383Y8692822D01*
X9477556Y8690006D01*
X9478025Y8688598D01*
X9478260Y8686955D01*
X9478495Y8685312D01*
X9478612Y8683552D01*
Y8683317D01*
Y8682730D01*
X9478495Y8681792D01*
X9478378Y8680501D01*
X9478143Y8679093D01*
X9477673Y8677450D01*
X9477204Y8675690D01*
X9476500Y8673929D01*
X9476383Y8673695D01*
X9476148Y8673108D01*
X9475679Y8672169D01*
X9474974Y8670878D01*
X9474036Y8669470D01*
X9472862Y8667710D01*
X9471454Y8665950D01*
X9469811Y8663955D01*
X9469576Y8663720D01*
X9468990Y8663016D01*
X9468403Y8662429D01*
X9467816Y8661842D01*
X9467112Y8661138D01*
X9466173Y8660200D01*
X9465235Y8659261D01*
X9464061Y8658205D01*
X9462888Y8657031D01*
X9461479Y8655740D01*
X9459954Y8654450D01*
X9458311Y8652924D01*
X9456433Y8651398D01*
X9454556Y8649756D01*
X9454439Y8649638D01*
X9454204Y8649404D01*
X9453734Y8649052D01*
X9453148Y8648582D01*
X9452444Y8647878D01*
X9451622Y8647174D01*
X9449745Y8645648D01*
X9447750Y8643888D01*
X9445872Y8642128D01*
X9444229Y8640602D01*
X9443525Y8640016D01*
X9442938Y8639429D01*
X9442821Y8639312D01*
X9442469Y8638960D01*
X9442000Y8638490D01*
X9441413Y8637786D01*
X9440826Y8636965D01*
X9440122Y8636143D01*
X9438714Y8634148D01*
X9478730D01*
Y8624526D01*
X9424867D01*
Y8624643D01*
Y8625113D01*
Y8625817D01*
X9424984Y8626755D01*
X9425102Y8627812D01*
X9425336Y8628985D01*
X9425571Y8630159D01*
X9426040Y8631449D01*
Y8631567D01*
X9426158Y8631684D01*
X9426392Y8632388D01*
X9426862Y8633444D01*
X9427566Y8634852D01*
X9428505Y8636495D01*
X9429678Y8638373D01*
X9430969Y8640250D01*
X9432612Y8642245D01*
Y8642363D01*
X9432847Y8642480D01*
X9433433Y8643184D01*
X9434489Y8644240D01*
X9436015Y8645766D01*
X9437775Y8647526D01*
X9440005Y8649638D01*
X9442704Y8651985D01*
X9445637Y8654450D01*
X9445755Y8654567D01*
X9446224Y8654919D01*
X9446928Y8655506D01*
X9447750Y8656210D01*
X9448806Y8657149D01*
X9450097Y8658205D01*
X9451387Y8659378D01*
X9452913Y8660669D01*
X9455847Y8663485D01*
X9458780Y8666302D01*
X9460189Y8667710D01*
X9461479Y8669118D01*
X9462653Y8670409D01*
X9463592Y8671700D01*
Y8671817D01*
X9463826Y8671934D01*
X9464061Y8672286D01*
X9464296Y8672756D01*
X9465117Y8674047D01*
X9466056Y8675572D01*
X9466877Y8677450D01*
X9467699Y8679445D01*
X9468168Y8681674D01*
X9468403Y8683787D01*
Y8683904D01*
Y8684021D01*
X9468286Y8684725D01*
X9468168Y8685899D01*
X9467816Y8687190D01*
X9467347Y8688833D01*
X9466525Y8690475D01*
X9465469Y8692118D01*
X9464061Y8693761D01*
X9463826Y8693996D01*
X9463240Y8694465D01*
X9462418Y8695052D01*
X9461127Y8695873D01*
X9459485Y8696577D01*
X9457607Y8697282D01*
X9455377Y8697751D01*
X9452913Y8697868D01*
X9452209D01*
X9451740Y8697751D01*
X9450331Y8697634D01*
X9448688Y8697282D01*
X9446928Y8696812D01*
X9444933Y8695991D01*
X9443056Y8694935D01*
X9441296Y8693526D01*
X9441061Y8693292D01*
X9440591Y8692705D01*
X9439887Y8691766D01*
X9439183Y8690358D01*
X9438362Y8688715D01*
X9437658Y8686603D01*
X9437188Y8684256D01*
X9436954Y8681557D01*
X9426744Y8682613D01*
Y8682730D01*
X9426862Y8683082D01*
Y8683669D01*
X9426979Y8684491D01*
X9427214Y8685429D01*
X9427449Y8686486D01*
X9427801Y8687776D01*
X9428153Y8689067D01*
X9429091Y8691884D01*
X9430500Y8694700D01*
X9431321Y8696108D01*
X9432377Y8697516D01*
X9433433Y8698807D01*
X9434607Y8699981D01*
X9434724Y8700098D01*
X9434959Y8700215D01*
X9435311Y8700567D01*
X9435898Y8700919D01*
X9436602Y8701389D01*
X9437423Y8701858D01*
X9438362Y8702445D01*
X9439535Y8703032D01*
X9440826Y8703618D01*
X9442234Y8704205D01*
X9443760Y8704674D01*
X9445403Y8705144D01*
X9447163Y8705496D01*
X9449041Y8705848D01*
X9451035Y8705965D01*
X9453148Y8706083D01*
X9454321D01*
X9455143Y8705965D01*
D02*
G37*
G36*
X11114316Y9305916D02*
X11115255Y9305799D01*
X11116311Y9305682D01*
X11117602Y9305447D01*
X11118893Y9305212D01*
X11121944Y9304508D01*
X11125112Y9303335D01*
X11126755Y9302631D01*
X11128281Y9301692D01*
X11129923Y9300753D01*
X11131449Y9299580D01*
X11131566Y9299462D01*
X11131918Y9299228D01*
X11132388Y9298758D01*
X11132974Y9298171D01*
X11133679Y9297350D01*
X11134617Y9296411D01*
X11135439Y9295238D01*
X11136378Y9293947D01*
X11137316Y9292539D01*
X11138138Y9290896D01*
X11138959Y9289136D01*
X11139781Y9287258D01*
X11140367Y9285263D01*
X11140837Y9283034D01*
X11141189Y9280687D01*
X11141306Y9278222D01*
Y9277166D01*
X11141189Y9276345D01*
X11141071Y9275406D01*
X11140954Y9274350D01*
X11140837Y9273059D01*
X11140485Y9271768D01*
X11139781Y9268834D01*
X11138724Y9265901D01*
X11138020Y9264375D01*
X11137199Y9262850D01*
X11136260Y9261441D01*
X11135204Y9260033D01*
X11135087Y9259916D01*
X11134969Y9259681D01*
X11134500Y9259447D01*
X11134031Y9258977D01*
X11133444Y9258390D01*
X11132740Y9257804D01*
X11131801Y9257100D01*
X11130745Y9256513D01*
X11129689Y9255809D01*
X11128398Y9255105D01*
X11125582Y9253814D01*
X11122296Y9252758D01*
X11120536Y9252406D01*
X11118658Y9252171D01*
X11117837Y9262615D01*
X11117954D01*
X11118189D01*
X11118541Y9262732D01*
X11119127Y9262850D01*
X11120418Y9263202D01*
X11122178Y9263671D01*
X11123939Y9264375D01*
X11125934Y9265314D01*
X11127694Y9266487D01*
X11129337Y9267896D01*
X11129454Y9268130D01*
X11129923Y9268600D01*
X11130510Y9269538D01*
X11131214Y9270829D01*
X11131918Y9272237D01*
X11132505Y9273998D01*
X11132974Y9275993D01*
X11133092Y9278222D01*
Y9278926D01*
X11132974Y9279396D01*
X11132857Y9280804D01*
X11132388Y9282447D01*
X11131801Y9284442D01*
X11130862Y9286437D01*
X11129454Y9288549D01*
X11128633Y9289488D01*
X11127694Y9290426D01*
X11127576Y9290544D01*
X11127459Y9290661D01*
X11127107Y9290896D01*
X11126755Y9291248D01*
X11125464Y9292069D01*
X11123821Y9293008D01*
X11121826Y9293830D01*
X11119362Y9294651D01*
X11116428Y9295238D01*
X11114903Y9295472D01*
X11113260D01*
X11113143D01*
X11112908D01*
X11112439D01*
X11111852Y9295355D01*
X11111148D01*
X11110326Y9295238D01*
X11108449Y9294886D01*
X11106219Y9294299D01*
X11103989Y9293477D01*
X11101877Y9292304D01*
X11099882Y9290661D01*
X11099765D01*
X11099648Y9290426D01*
X11099061Y9289840D01*
X11098239Y9288784D01*
X11097301Y9287375D01*
X11096479Y9285498D01*
X11095658Y9283386D01*
X11095071Y9280921D01*
X11094836Y9279513D01*
Y9277283D01*
X11094954Y9276345D01*
X11095071Y9275171D01*
X11095423Y9273763D01*
X11095775Y9272355D01*
X11096362Y9270829D01*
X11097066Y9269304D01*
X11097183Y9269186D01*
X11097418Y9268717D01*
X11098005Y9268013D01*
X11098591Y9267074D01*
X11099413Y9266135D01*
X11100469Y9265197D01*
X11101525Y9264140D01*
X11102816Y9263319D01*
X11101525Y9253931D01*
X11059749Y9261794D01*
Y9302161D01*
X11069254D01*
Y9269656D01*
X11091199Y9265314D01*
X11091081Y9265431D01*
X11090964Y9265666D01*
X11090729Y9266018D01*
X11090377Y9266605D01*
X11090025Y9267309D01*
X11089556Y9268130D01*
X11088617Y9270008D01*
X11087678Y9272355D01*
X11086857Y9274936D01*
X11086270Y9277753D01*
X11086035Y9279161D01*
Y9281743D01*
X11086153Y9282447D01*
X11086270Y9283386D01*
X11086387Y9284442D01*
X11086622Y9285615D01*
X11086974Y9286906D01*
X11087795Y9289722D01*
X11088382Y9291248D01*
X11089204Y9292773D01*
X11090025Y9294299D01*
X11090964Y9295824D01*
X11092137Y9297233D01*
X11093428Y9298641D01*
X11093546Y9298758D01*
X11093780Y9298993D01*
X11094132Y9299345D01*
X11094719Y9299814D01*
X11095540Y9300401D01*
X11096362Y9300988D01*
X11097418Y9301692D01*
X11098591Y9302396D01*
X11099882Y9302983D01*
X11101290Y9303687D01*
X11102933Y9304273D01*
X11104576Y9304860D01*
X11106336Y9305330D01*
X11108331Y9305682D01*
X11110326Y9305916D01*
X11112439Y9306034D01*
X11112556D01*
X11112908D01*
X11113495D01*
X11114316Y9305916D01*
D02*
G37*
G36*
X11116663Y9238559D02*
X11117602D01*
X11119831Y9238324D01*
X11122413Y9238089D01*
X11125112Y9237620D01*
X11127576Y9236916D01*
X11129923Y9236094D01*
X11130041D01*
X11130158Y9235977D01*
X11130862Y9235625D01*
X11131801Y9235038D01*
X11133092Y9234217D01*
X11134383Y9233043D01*
X11135791Y9231752D01*
X11137199Y9230110D01*
X11138372Y9228232D01*
X11138490Y9227997D01*
X11138842Y9227293D01*
X11139311Y9226237D01*
X11139781Y9224712D01*
X11140367Y9222834D01*
X11140837Y9220722D01*
X11141189Y9218375D01*
X11141306Y9215793D01*
Y9214737D01*
X11141189Y9214033D01*
X11141071Y9213094D01*
X11140954Y9212155D01*
X11140485Y9209691D01*
X11139781Y9207109D01*
X11138724Y9204410D01*
X11138020Y9203002D01*
X11137199Y9201711D01*
X11136260Y9200538D01*
X11135204Y9199364D01*
X11135087Y9199247D01*
X11134969Y9199130D01*
X11134500Y9198895D01*
X11134031Y9198543D01*
X11133444Y9198074D01*
X11132622Y9197604D01*
X11131684Y9197135D01*
X11130627Y9196548D01*
X11129454Y9196079D01*
X11128046Y9195609D01*
X11126638Y9195140D01*
X11124995Y9194670D01*
X11123235Y9194436D01*
X11121240Y9194084D01*
X11119245Y9193966D01*
X11117015D01*
X11115607Y9203706D01*
X11115724D01*
X11115959D01*
X11116428D01*
X11117132Y9203824D01*
X11117837Y9203941D01*
X11118658D01*
X11120653Y9204293D01*
X11122765Y9204645D01*
X11124877Y9205349D01*
X11126755Y9206053D01*
X11127576Y9206523D01*
X11128281Y9207109D01*
X11128398Y9207227D01*
X11128750Y9207696D01*
X11129337Y9208400D01*
X11129923Y9209339D01*
X11130627Y9210630D01*
X11131097Y9212038D01*
X11131566Y9213798D01*
X11131684Y9215676D01*
Y9216380D01*
X11131566Y9217084D01*
X11131449Y9218140D01*
X11131214Y9219196D01*
X11130980Y9220370D01*
X11130510Y9221543D01*
X11129923Y9222717D01*
X11129806Y9222834D01*
X11129571Y9223186D01*
X11129102Y9223655D01*
X11128633Y9224360D01*
X11127811Y9224946D01*
X11126990Y9225650D01*
X11126051Y9226237D01*
X11124877Y9226706D01*
X11124760D01*
X11124291Y9226941D01*
X11123469Y9227059D01*
X11122413Y9227293D01*
X11121005Y9227528D01*
X11119245Y9227645D01*
X11117132Y9227880D01*
X11114668D01*
X11058693D01*
Y9238676D01*
X11114081D01*
X11114199D01*
X11114551D01*
X11115020D01*
X11115724D01*
X11116663Y9238559D01*
D02*
G37*
G36*
X8885471Y10488216D02*
X8886527Y10488098D01*
X8887818Y10487981D01*
X8889108Y10487864D01*
X8890634Y10487512D01*
X8893802Y10486808D01*
X8897323Y10485751D01*
X8899083Y10485047D01*
X8900726Y10484226D01*
X8902369Y10483170D01*
X8904012Y10482114D01*
X8904129Y10481996D01*
X8904364Y10481879D01*
X8904833Y10481527D01*
X8905420Y10480940D01*
X8906007Y10480353D01*
X8906828Y10479532D01*
X8907649Y10478593D01*
X8908588Y10477654D01*
X8909527Y10476481D01*
X8910466Y10475073D01*
X8911522Y10473665D01*
X8912461Y10472139D01*
X8913282Y10470379D01*
X8914221Y10468619D01*
X8914925Y10466741D01*
X8915629Y10464629D01*
X8905068Y10462164D01*
Y10462282D01*
X8904950Y10462517D01*
X8904716Y10462986D01*
X8904481Y10463573D01*
X8904246Y10464277D01*
X8903894Y10465216D01*
X8902956Y10467093D01*
X8901782Y10469205D01*
X8900374Y10471318D01*
X8898614Y10473313D01*
X8896736Y10475073D01*
X8896501Y10475307D01*
X8895797Y10475777D01*
X8894624Y10476364D01*
X8893098Y10477185D01*
X8891103Y10477889D01*
X8888874Y10478593D01*
X8886175Y10479063D01*
X8883241Y10479180D01*
X8882302D01*
X8881716Y10479063D01*
X8880894D01*
X8879955Y10478945D01*
X8877726Y10478593D01*
X8875261Y10478124D01*
X8872680Y10477302D01*
X8869981Y10476129D01*
X8867516Y10474603D01*
X8867399D01*
X8867282Y10474369D01*
X8866460Y10473782D01*
X8865404Y10472843D01*
X8864113Y10471435D01*
X8862588Y10469675D01*
X8861180Y10467680D01*
X8859889Y10465216D01*
X8858715Y10462517D01*
Y10462399D01*
X8858598Y10462164D01*
X8858481Y10461812D01*
X8858363Y10461226D01*
X8858129Y10460522D01*
X8857894Y10459700D01*
X8857542Y10457705D01*
X8857072Y10455358D01*
X8856603Y10452777D01*
X8856368Y10449960D01*
X8856251Y10446909D01*
Y10446792D01*
Y10446440D01*
Y10445853D01*
Y10445149D01*
X8856368Y10444328D01*
Y10443271D01*
X8856486Y10442098D01*
X8856603Y10440807D01*
X8856955Y10437991D01*
X8857542Y10434940D01*
X8858246Y10431889D01*
X8859185Y10428838D01*
Y10428720D01*
X8859302Y10428486D01*
X8859537Y10428134D01*
X8859771Y10427547D01*
X8860476Y10426139D01*
X8861532Y10424496D01*
X8862823Y10422618D01*
X8864465Y10420623D01*
X8866343Y10418863D01*
X8868573Y10417220D01*
X8868690D01*
X8868925Y10417103D01*
X8869277Y10416868D01*
X8869746Y10416633D01*
X8870333Y10416399D01*
X8871037Y10416047D01*
X8872680Y10415343D01*
X8874792Y10414639D01*
X8877139Y10414052D01*
X8879721Y10413582D01*
X8882420Y10413465D01*
X8883241D01*
X8883945Y10413582D01*
X8884767D01*
X8885588Y10413700D01*
X8887700Y10414169D01*
X8890165Y10414756D01*
X8892629Y10415695D01*
X8895211Y10416986D01*
X8896501Y10417690D01*
X8897675Y10418628D01*
X8897792Y10418746D01*
X8897910Y10418863D01*
X8898262Y10419215D01*
X8898731Y10419567D01*
X8899200Y10420154D01*
X8899787Y10420858D01*
X8900491Y10421562D01*
X8901078Y10422501D01*
X8901782Y10423557D01*
X8902603Y10424730D01*
X8903308Y10425904D01*
X8904012Y10427312D01*
X8904598Y10428838D01*
X8905185Y10430481D01*
X8905772Y10432241D01*
X8906241Y10434118D01*
X8917037Y10431419D01*
Y10431302D01*
X8916920Y10430833D01*
X8916685Y10430128D01*
X8916333Y10429190D01*
X8915981Y10428134D01*
X8915512Y10426843D01*
X8914925Y10425435D01*
X8914221Y10423909D01*
X8912578Y10420623D01*
X8910466Y10417338D01*
X8909175Y10415695D01*
X8907884Y10414052D01*
X8906476Y10412644D01*
X8904833Y10411235D01*
X8904716Y10411118D01*
X8904481Y10410883D01*
X8903894Y10410649D01*
X8903308Y10410179D01*
X8902369Y10409593D01*
X8901430Y10409006D01*
X8900139Y10408419D01*
X8898848Y10407832D01*
X8897323Y10407128D01*
X8895680Y10406542D01*
X8893920Y10405955D01*
X8892042Y10405368D01*
X8890047Y10404899D01*
X8887935Y10404664D01*
X8885705Y10404429D01*
X8883358Y10404312D01*
X8882068D01*
X8881129Y10404429D01*
X8880073D01*
X8878782Y10404547D01*
X8877374Y10404781D01*
X8875731Y10405016D01*
X8872328Y10405603D01*
X8868807Y10406542D01*
X8865287Y10407832D01*
X8863644Y10408654D01*
X8862001Y10409593D01*
X8861884Y10409710D01*
X8861649Y10409827D01*
X8861180Y10410179D01*
X8860710Y10410649D01*
X8860006Y10411118D01*
X8859185Y10411822D01*
X8858246Y10412644D01*
X8857307Y10413582D01*
X8856368Y10414639D01*
X8855312Y10415695D01*
X8853200Y10418394D01*
X8851205Y10421562D01*
X8849445Y10425083D01*
Y10425200D01*
X8849210Y10425552D01*
X8849093Y10426139D01*
X8848741Y10426843D01*
X8848506Y10427782D01*
X8848154Y10428955D01*
X8847685Y10430246D01*
X8847333Y10431654D01*
X8846981Y10433180D01*
X8846511Y10434940D01*
X8845924Y10438578D01*
X8845455Y10442685D01*
X8845220Y10446909D01*
Y10447027D01*
Y10447496D01*
Y10448200D01*
X8845338Y10449022D01*
Y10450195D01*
X8845455Y10451368D01*
X8845572Y10452894D01*
X8845807Y10454420D01*
X8846394Y10457823D01*
X8847215Y10461578D01*
X8848389Y10465333D01*
X8850032Y10468971D01*
X8850149Y10469088D01*
X8850266Y10469440D01*
X8850501Y10469909D01*
X8850970Y10470496D01*
X8851440Y10471318D01*
X8852026Y10472256D01*
X8853552Y10474369D01*
X8855547Y10476716D01*
X8857894Y10479063D01*
X8860593Y10481410D01*
X8863761Y10483404D01*
X8863879Y10483522D01*
X8864231Y10483639D01*
X8864700Y10483874D01*
X8865287Y10484226D01*
X8866226Y10484578D01*
X8867164Y10484930D01*
X8868338Y10485399D01*
X8869629Y10485869D01*
X8871037Y10486338D01*
X8872562Y10486808D01*
X8875848Y10487512D01*
X8879603Y10488098D01*
X8883476Y10488333D01*
X8884649D01*
X8885471Y10488216D01*
D02*
G37*
G36*
X8963742Y10405720D02*
X8953767D01*
Y10469205D01*
X8953650Y10469088D01*
X8953063Y10468619D01*
X8952359Y10467915D01*
X8951186Y10467093D01*
X8949895Y10466037D01*
X8948252Y10464863D01*
X8946374Y10463573D01*
X8944262Y10462282D01*
X8944145D01*
X8944027Y10462164D01*
X8943323Y10461695D01*
X8942150Y10461108D01*
X8940742Y10460404D01*
X8939099Y10459583D01*
X8937338Y10458761D01*
X8935578Y10457940D01*
X8933818Y10457236D01*
Y10466858D01*
X8933935D01*
X8934170Y10467093D01*
X8934639Y10467210D01*
X8935226Y10467563D01*
X8935930Y10467915D01*
X8936752Y10468384D01*
X8938747Y10469557D01*
X8941094Y10470848D01*
X8943441Y10472491D01*
X8945905Y10474369D01*
X8948369Y10476364D01*
X8948487Y10476481D01*
X8948604Y10476598D01*
X8948956Y10476950D01*
X8949425Y10477302D01*
X8950481Y10478476D01*
X8951890Y10479884D01*
X8953298Y10481527D01*
X8954823Y10483404D01*
X8956114Y10485282D01*
X8957288Y10487277D01*
X8963742D01*
Y10405720D01*
D02*
G37*
G36*
X8656870Y10488216D02*
X8657927Y10488098D01*
X8659217Y10487981D01*
X8660508Y10487864D01*
X8662034Y10487512D01*
X8665202Y10486808D01*
X8668723Y10485751D01*
X8670483Y10485047D01*
X8672126Y10484226D01*
X8673769Y10483170D01*
X8675411Y10482114D01*
X8675529Y10481996D01*
X8675763Y10481879D01*
X8676233Y10481527D01*
X8676820Y10480940D01*
X8677406Y10480353D01*
X8678228Y10479532D01*
X8679049Y10478593D01*
X8679988Y10477654D01*
X8680927Y10476481D01*
X8681866Y10475073D01*
X8682922Y10473665D01*
X8683860Y10472139D01*
X8684682Y10470379D01*
X8685621Y10468619D01*
X8686325Y10466741D01*
X8687029Y10464629D01*
X8676468Y10462164D01*
Y10462282D01*
X8676350Y10462517D01*
X8676115Y10462986D01*
X8675881Y10463573D01*
X8675646Y10464277D01*
X8675294Y10465216D01*
X8674355Y10467093D01*
X8673182Y10469205D01*
X8671774Y10471318D01*
X8670013Y10473313D01*
X8668136Y10475073D01*
X8667901Y10475307D01*
X8667197Y10475777D01*
X8666024Y10476364D01*
X8664498Y10477185D01*
X8662503Y10477889D01*
X8660274Y10478593D01*
X8657575Y10479063D01*
X8654641Y10479180D01*
X8653702D01*
X8653115Y10479063D01*
X8652294D01*
X8651355Y10478945D01*
X8649125Y10478593D01*
X8646661Y10478124D01*
X8644079Y10477302D01*
X8641380Y10476129D01*
X8638916Y10474603D01*
X8638799D01*
X8638681Y10474369D01*
X8637860Y10473782D01*
X8636804Y10472843D01*
X8635513Y10471435D01*
X8633988Y10469675D01*
X8632579Y10467680D01*
X8631289Y10465216D01*
X8630115Y10462517D01*
Y10462399D01*
X8629998Y10462164D01*
X8629880Y10461812D01*
X8629763Y10461226D01*
X8629528Y10460522D01*
X8629294Y10459700D01*
X8628942Y10457705D01*
X8628472Y10455358D01*
X8628003Y10452777D01*
X8627768Y10449960D01*
X8627651Y10446909D01*
Y10446792D01*
Y10446440D01*
Y10445853D01*
Y10445149D01*
X8627768Y10444328D01*
Y10443271D01*
X8627885Y10442098D01*
X8628003Y10440807D01*
X8628355Y10437991D01*
X8628942Y10434940D01*
X8629646Y10431889D01*
X8630584Y10428838D01*
Y10428720D01*
X8630702Y10428486D01*
X8630937Y10428134D01*
X8631171Y10427547D01*
X8631875Y10426139D01*
X8632931Y10424496D01*
X8634222Y10422618D01*
X8635865Y10420623D01*
X8637743Y10418863D01*
X8639972Y10417220D01*
X8640090D01*
X8640324Y10417103D01*
X8640676Y10416868D01*
X8641146Y10416633D01*
X8641733Y10416399D01*
X8642437Y10416047D01*
X8644079Y10415343D01*
X8646192Y10414639D01*
X8648539Y10414052D01*
X8651120Y10413582D01*
X8653819Y10413465D01*
X8654641D01*
X8655345Y10413582D01*
X8656166D01*
X8656988Y10413700D01*
X8659100Y10414169D01*
X8661564Y10414756D01*
X8664029Y10415695D01*
X8666610Y10416986D01*
X8667901Y10417690D01*
X8669075Y10418628D01*
X8669192Y10418746D01*
X8669309Y10418863D01*
X8669661Y10419215D01*
X8670131Y10419567D01*
X8670600Y10420154D01*
X8671187Y10420858D01*
X8671891Y10421562D01*
X8672478Y10422501D01*
X8673182Y10423557D01*
X8674003Y10424730D01*
X8674707Y10425904D01*
X8675411Y10427312D01*
X8675998Y10428838D01*
X8676585Y10430481D01*
X8677172Y10432241D01*
X8677641Y10434118D01*
X8688437Y10431419D01*
Y10431302D01*
X8688320Y10430833D01*
X8688085Y10430128D01*
X8687733Y10429190D01*
X8687381Y10428134D01*
X8686912Y10426843D01*
X8686325Y10425435D01*
X8685621Y10423909D01*
X8683978Y10420623D01*
X8681866Y10417338D01*
X8680575Y10415695D01*
X8679284Y10414052D01*
X8677876Y10412644D01*
X8676233Y10411235D01*
X8676115Y10411118D01*
X8675881Y10410883D01*
X8675294Y10410649D01*
X8674707Y10410179D01*
X8673769Y10409593D01*
X8672830Y10409006D01*
X8671539Y10408419D01*
X8670248Y10407832D01*
X8668723Y10407128D01*
X8667080Y10406542D01*
X8665319Y10405955D01*
X8663442Y10405368D01*
X8661447Y10404899D01*
X8659335Y10404664D01*
X8657105Y10404429D01*
X8654758Y10404312D01*
X8653467D01*
X8652529Y10404429D01*
X8651472D01*
X8650182Y10404547D01*
X8648773Y10404781D01*
X8647131Y10405016D01*
X8643727Y10405603D01*
X8640207Y10406542D01*
X8636687Y10407832D01*
X8635044Y10408654D01*
X8633401Y10409593D01*
X8633283Y10409710D01*
X8633049Y10409827D01*
X8632579Y10410179D01*
X8632110Y10410649D01*
X8631406Y10411118D01*
X8630584Y10411822D01*
X8629646Y10412644D01*
X8628707Y10413582D01*
X8627768Y10414639D01*
X8626712Y10415695D01*
X8624600Y10418394D01*
X8622605Y10421562D01*
X8620845Y10425083D01*
Y10425200D01*
X8620610Y10425552D01*
X8620493Y10426139D01*
X8620140Y10426843D01*
X8619906Y10427782D01*
X8619554Y10428955D01*
X8619084Y10430246D01*
X8618732Y10431654D01*
X8618380Y10433180D01*
X8617911Y10434940D01*
X8617324Y10438578D01*
X8616855Y10442685D01*
X8616620Y10446909D01*
Y10447027D01*
Y10447496D01*
Y10448200D01*
X8616737Y10449022D01*
Y10450195D01*
X8616855Y10451368D01*
X8616972Y10452894D01*
X8617207Y10454420D01*
X8617794Y10457823D01*
X8618615Y10461578D01*
X8619788Y10465333D01*
X8621431Y10468971D01*
X8621549Y10469088D01*
X8621666Y10469440D01*
X8621901Y10469909D01*
X8622370Y10470496D01*
X8622839Y10471318D01*
X8623426Y10472256D01*
X8624952Y10474369D01*
X8626947Y10476716D01*
X8629294Y10479063D01*
X8631993Y10481410D01*
X8635161Y10483404D01*
X8635278Y10483522D01*
X8635630Y10483639D01*
X8636100Y10483874D01*
X8636687Y10484226D01*
X8637625Y10484578D01*
X8638564Y10484930D01*
X8639738Y10485399D01*
X8641028Y10485869D01*
X8642437Y10486338D01*
X8643962Y10486808D01*
X8647248Y10487512D01*
X8651003Y10488098D01*
X8654876Y10488333D01*
X8656049D01*
X8656870Y10488216D01*
D02*
G37*
G36*
X8726458Y10487160D02*
X8727397Y10487042D01*
X8728570Y10486925D01*
X8729861Y10486690D01*
X8731152Y10486456D01*
X8734203Y10485634D01*
X8737254Y10484461D01*
X8738779Y10483757D01*
X8740305Y10482935D01*
X8741713Y10481879D01*
X8743004Y10480705D01*
X8743121Y10480588D01*
X8743356Y10480471D01*
X8743591Y10480001D01*
X8744060Y10479532D01*
X8744647Y10478945D01*
X8745233Y10478124D01*
X8745820Y10477302D01*
X8746524Y10476246D01*
X8747698Y10474017D01*
X8748871Y10471200D01*
X8749341Y10469792D01*
X8749575Y10468149D01*
X8749810Y10466506D01*
X8749927Y10464746D01*
Y10464511D01*
Y10463925D01*
X8749810Y10462986D01*
X8749693Y10461695D01*
X8749458Y10460287D01*
X8748989Y10458644D01*
X8748519Y10456884D01*
X8747815Y10455124D01*
X8747698Y10454889D01*
X8747463Y10454302D01*
X8746994Y10453363D01*
X8746290Y10452073D01*
X8745351Y10450664D01*
X8744177Y10448904D01*
X8742769Y10447144D01*
X8741126Y10445149D01*
X8740892Y10444914D01*
X8740305Y10444210D01*
X8739718Y10443624D01*
X8739131Y10443037D01*
X8738427Y10442333D01*
X8737488Y10441394D01*
X8736550Y10440455D01*
X8735376Y10439399D01*
X8734203Y10438226D01*
X8732795Y10436935D01*
X8731269Y10435644D01*
X8729626Y10434118D01*
X8727749Y10432593D01*
X8725871Y10430950D01*
X8725754Y10430833D01*
X8725519Y10430598D01*
X8725050Y10430246D01*
X8724463Y10429776D01*
X8723759Y10429072D01*
X8722937Y10428368D01*
X8721060Y10426843D01*
X8719065Y10425083D01*
X8717187Y10423322D01*
X8715544Y10421797D01*
X8714840Y10421210D01*
X8714254Y10420623D01*
X8714136Y10420506D01*
X8713784Y10420154D01*
X8713315Y10419685D01*
X8712728Y10418980D01*
X8712141Y10418159D01*
X8711437Y10417338D01*
X8710029Y10415343D01*
X8750045D01*
Y10405720D01*
X8696182D01*
Y10405837D01*
Y10406307D01*
Y10407011D01*
X8696299Y10407950D01*
X8696417Y10409006D01*
X8696651Y10410179D01*
X8696886Y10411353D01*
X8697355Y10412644D01*
Y10412761D01*
X8697473Y10412878D01*
X8697708Y10413582D01*
X8698177Y10414639D01*
X8698881Y10416047D01*
X8699820Y10417690D01*
X8700993Y10419567D01*
X8702284Y10421445D01*
X8703927Y10423440D01*
Y10423557D01*
X8704162Y10423674D01*
X8704748Y10424378D01*
X8705805Y10425435D01*
X8707330Y10426960D01*
X8709090Y10428720D01*
X8711320Y10430833D01*
X8714019Y10433180D01*
X8716953Y10435644D01*
X8717070Y10435761D01*
X8717539Y10436113D01*
X8718243Y10436700D01*
X8719065Y10437404D01*
X8720121Y10438343D01*
X8721412Y10439399D01*
X8722703Y10440572D01*
X8724228Y10441863D01*
X8727162Y10444680D01*
X8730096Y10447496D01*
X8731504Y10448904D01*
X8732795Y10450312D01*
X8733968Y10451603D01*
X8734907Y10452894D01*
Y10453011D01*
X8735142Y10453129D01*
X8735376Y10453481D01*
X8735611Y10453950D01*
X8736432Y10455241D01*
X8737371Y10456766D01*
X8738193Y10458644D01*
X8739014Y10460639D01*
X8739483Y10462869D01*
X8739718Y10464981D01*
Y10465098D01*
Y10465216D01*
X8739601Y10465920D01*
X8739483Y10467093D01*
X8739131Y10468384D01*
X8738662Y10470027D01*
X8737841Y10471670D01*
X8736784Y10473313D01*
X8735376Y10474955D01*
X8735142Y10475190D01*
X8734555Y10475660D01*
X8733733Y10476246D01*
X8732443Y10477068D01*
X8730800Y10477772D01*
X8728922Y10478476D01*
X8726692Y10478945D01*
X8724228Y10479063D01*
X8723524D01*
X8723055Y10478945D01*
X8721647Y10478828D01*
X8720004Y10478476D01*
X8718243Y10478006D01*
X8716249Y10477185D01*
X8714371Y10476129D01*
X8712611Y10474721D01*
X8712376Y10474486D01*
X8711907Y10473899D01*
X8711203Y10472961D01*
X8710498Y10471552D01*
X8709677Y10469909D01*
X8708973Y10467797D01*
X8708504Y10465450D01*
X8708269Y10462751D01*
X8698060Y10463807D01*
Y10463925D01*
X8698177Y10464277D01*
Y10464863D01*
X8698294Y10465685D01*
X8698529Y10466624D01*
X8698764Y10467680D01*
X8699116Y10468971D01*
X8699468Y10470262D01*
X8700407Y10473078D01*
X8701815Y10475894D01*
X8702636Y10477302D01*
X8703692Y10478711D01*
X8704748Y10480001D01*
X8705922Y10481175D01*
X8706039Y10481292D01*
X8706274Y10481410D01*
X8706626Y10481762D01*
X8707213Y10482114D01*
X8707917Y10482583D01*
X8708738Y10483052D01*
X8709677Y10483639D01*
X8710850Y10484226D01*
X8712141Y10484813D01*
X8713550Y10485399D01*
X8715075Y10485869D01*
X8716718Y10486338D01*
X8718478Y10486690D01*
X8720356Y10487042D01*
X8722351Y10487160D01*
X8724463Y10487277D01*
X8725636D01*
X8726458Y10487160D01*
D02*
G37*
G36*
X8428271Y10488216D02*
X8429327Y10488098D01*
X8430618Y10487981D01*
X8431908Y10487864D01*
X8433434Y10487512D01*
X8436602Y10486808D01*
X8440123Y10485751D01*
X8441883Y10485047D01*
X8443526Y10484226D01*
X8445169Y10483170D01*
X8446812Y10482114D01*
X8446929Y10481996D01*
X8447164Y10481879D01*
X8447633Y10481527D01*
X8448220Y10480940D01*
X8448807Y10480353D01*
X8449628Y10479532D01*
X8450449Y10478593D01*
X8451388Y10477654D01*
X8452327Y10476481D01*
X8453266Y10475073D01*
X8454322Y10473665D01*
X8455261Y10472139D01*
X8456082Y10470379D01*
X8457021Y10468619D01*
X8457725Y10466741D01*
X8458429Y10464629D01*
X8447868Y10462164D01*
Y10462282D01*
X8447750Y10462517D01*
X8447516Y10462986D01*
X8447281Y10463573D01*
X8447046Y10464277D01*
X8446694Y10465216D01*
X8445756Y10467093D01*
X8444582Y10469205D01*
X8443174Y10471318D01*
X8441414Y10473313D01*
X8439536Y10475073D01*
X8439301Y10475307D01*
X8438597Y10475777D01*
X8437424Y10476364D01*
X8435898Y10477185D01*
X8433903Y10477889D01*
X8431674Y10478593D01*
X8428975Y10479063D01*
X8426041Y10479180D01*
X8425102D01*
X8424516Y10479063D01*
X8423694D01*
X8422755Y10478945D01*
X8420526Y10478593D01*
X8418061Y10478124D01*
X8415480Y10477302D01*
X8412781Y10476129D01*
X8410316Y10474603D01*
X8410199D01*
X8410082Y10474369D01*
X8409260Y10473782D01*
X8408204Y10472843D01*
X8406913Y10471435D01*
X8405388Y10469675D01*
X8403980Y10467680D01*
X8402689Y10465216D01*
X8401515Y10462517D01*
Y10462399D01*
X8401398Y10462164D01*
X8401281Y10461812D01*
X8401163Y10461226D01*
X8400929Y10460522D01*
X8400694Y10459700D01*
X8400342Y10457705D01*
X8399872Y10455358D01*
X8399403Y10452777D01*
X8399168Y10449960D01*
X8399051Y10446909D01*
Y10446792D01*
Y10446440D01*
Y10445853D01*
Y10445149D01*
X8399168Y10444328D01*
Y10443271D01*
X8399286Y10442098D01*
X8399403Y10440807D01*
X8399755Y10437991D01*
X8400342Y10434940D01*
X8401046Y10431889D01*
X8401985Y10428838D01*
Y10428720D01*
X8402102Y10428486D01*
X8402337Y10428134D01*
X8402571Y10427547D01*
X8403276Y10426139D01*
X8404332Y10424496D01*
X8405623Y10422618D01*
X8407265Y10420623D01*
X8409143Y10418863D01*
X8411373Y10417220D01*
X8411490D01*
X8411725Y10417103D01*
X8412077Y10416868D01*
X8412546Y10416633D01*
X8413133Y10416399D01*
X8413837Y10416047D01*
X8415480Y10415343D01*
X8417592Y10414639D01*
X8419939Y10414052D01*
X8422521Y10413582D01*
X8425220Y10413465D01*
X8426041D01*
X8426745Y10413582D01*
X8427567D01*
X8428388Y10413700D01*
X8430500Y10414169D01*
X8432965Y10414756D01*
X8435429Y10415695D01*
X8438011Y10416986D01*
X8439301Y10417690D01*
X8440475Y10418628D01*
X8440592Y10418746D01*
X8440710Y10418863D01*
X8441062Y10419215D01*
X8441531Y10419567D01*
X8442000Y10420154D01*
X8442587Y10420858D01*
X8443291Y10421562D01*
X8443878Y10422501D01*
X8444582Y10423557D01*
X8445403Y10424730D01*
X8446108Y10425904D01*
X8446812Y10427312D01*
X8447398Y10428838D01*
X8447985Y10430481D01*
X8448572Y10432241D01*
X8449041Y10434118D01*
X8459837Y10431419D01*
Y10431302D01*
X8459720Y10430833D01*
X8459485Y10430128D01*
X8459133Y10429190D01*
X8458781Y10428134D01*
X8458312Y10426843D01*
X8457725Y10425435D01*
X8457021Y10423909D01*
X8455378Y10420623D01*
X8453266Y10417338D01*
X8451975Y10415695D01*
X8450684Y10414052D01*
X8449276Y10412644D01*
X8447633Y10411235D01*
X8447516Y10411118D01*
X8447281Y10410883D01*
X8446694Y10410649D01*
X8446108Y10410179D01*
X8445169Y10409593D01*
X8444230Y10409006D01*
X8442939Y10408419D01*
X8441648Y10407832D01*
X8440123Y10407128D01*
X8438480Y10406542D01*
X8436720Y10405955D01*
X8434842Y10405368D01*
X8432847Y10404899D01*
X8430735Y10404664D01*
X8428505Y10404429D01*
X8426158Y10404312D01*
X8424868D01*
X8423929Y10404429D01*
X8422873D01*
X8421582Y10404547D01*
X8420174Y10404781D01*
X8418531Y10405016D01*
X8415128Y10405603D01*
X8411607Y10406542D01*
X8408087Y10407832D01*
X8406444Y10408654D01*
X8404801Y10409593D01*
X8404684Y10409710D01*
X8404449Y10409827D01*
X8403980Y10410179D01*
X8403510Y10410649D01*
X8402806Y10411118D01*
X8401985Y10411822D01*
X8401046Y10412644D01*
X8400107Y10413582D01*
X8399168Y10414639D01*
X8398112Y10415695D01*
X8396000Y10418394D01*
X8394005Y10421562D01*
X8392245Y10425083D01*
Y10425200D01*
X8392010Y10425552D01*
X8391893Y10426139D01*
X8391541Y10426843D01*
X8391306Y10427782D01*
X8390954Y10428955D01*
X8390485Y10430246D01*
X8390133Y10431654D01*
X8389781Y10433180D01*
X8389311Y10434940D01*
X8388724Y10438578D01*
X8388255Y10442685D01*
X8388020Y10446909D01*
Y10447027D01*
Y10447496D01*
Y10448200D01*
X8388138Y10449022D01*
Y10450195D01*
X8388255Y10451368D01*
X8388372Y10452894D01*
X8388607Y10454420D01*
X8389194Y10457823D01*
X8390015Y10461578D01*
X8391189Y10465333D01*
X8392832Y10468971D01*
X8392949Y10469088D01*
X8393066Y10469440D01*
X8393301Y10469909D01*
X8393770Y10470496D01*
X8394240Y10471318D01*
X8394826Y10472256D01*
X8396352Y10474369D01*
X8398347Y10476716D01*
X8400694Y10479063D01*
X8403393Y10481410D01*
X8406561Y10483404D01*
X8406679Y10483522D01*
X8407031Y10483639D01*
X8407500Y10483874D01*
X8408087Y10484226D01*
X8409026Y10484578D01*
X8409964Y10484930D01*
X8411138Y10485399D01*
X8412429Y10485869D01*
X8413837Y10486338D01*
X8415362Y10486808D01*
X8418648Y10487512D01*
X8422403Y10488098D01*
X8426276Y10488333D01*
X8427449D01*
X8428271Y10488216D01*
D02*
G37*
G36*
X8496919Y10487160D02*
X8498445Y10486925D01*
X8500322Y10486573D01*
X8502435Y10485986D01*
X8504547Y10485282D01*
X8506659Y10484343D01*
X8506776D01*
X8506894Y10484226D01*
X8507598Y10483874D01*
X8508654Y10483170D01*
X8509828Y10482348D01*
X8511236Y10481175D01*
X8512644Y10479884D01*
X8514052Y10478359D01*
X8515226Y10476598D01*
X8515343Y10476364D01*
X8515695Y10475777D01*
X8516164Y10474721D01*
X8516751Y10473430D01*
X8517338Y10471904D01*
X8517807Y10470144D01*
X8518159Y10468149D01*
X8518277Y10466154D01*
Y10465920D01*
Y10465216D01*
X8518159Y10464277D01*
X8517925Y10462986D01*
X8517572Y10461460D01*
X8516986Y10459818D01*
X8516282Y10458175D01*
X8515343Y10456532D01*
X8515226Y10456297D01*
X8514873Y10455828D01*
X8514169Y10455006D01*
X8513231Y10454067D01*
X8512057Y10453011D01*
X8510649Y10451838D01*
X8509006Y10450782D01*
X8507011Y10449726D01*
X8507129D01*
X8507363Y10449608D01*
X8507715Y10449491D01*
X8508185Y10449374D01*
X8509475Y10448904D01*
X8511118Y10448200D01*
X8512996Y10447261D01*
X8514873Y10446088D01*
X8516634Y10444562D01*
X8518277Y10442802D01*
X8518394Y10442567D01*
X8518863Y10441863D01*
X8519567Y10440690D01*
X8520272Y10439164D01*
X8520976Y10437287D01*
X8521680Y10435057D01*
X8522149Y10432475D01*
X8522266Y10429659D01*
Y10429542D01*
Y10429190D01*
Y10428603D01*
X8522149Y10427899D01*
X8522032Y10426960D01*
X8521797Y10425904D01*
X8521562Y10424730D01*
X8521328Y10423440D01*
X8520389Y10420623D01*
X8519685Y10419098D01*
X8518981Y10417690D01*
X8518042Y10416164D01*
X8516986Y10414639D01*
X8515812Y10413113D01*
X8514404Y10411705D01*
X8514287Y10411588D01*
X8514052Y10411353D01*
X8513583Y10411001D01*
X8512996Y10410531D01*
X8512292Y10409945D01*
X8511353Y10409358D01*
X8510297Y10408654D01*
X8509006Y10408067D01*
X8507715Y10407363D01*
X8506190Y10406659D01*
X8504664Y10406072D01*
X8502904Y10405485D01*
X8501026Y10405016D01*
X8499032Y10404664D01*
X8497037Y10404429D01*
X8494807Y10404312D01*
X8493751D01*
X8493047Y10404429D01*
X8492108Y10404547D01*
X8491052Y10404664D01*
X8489878Y10404899D01*
X8488588Y10405133D01*
X8485771Y10405837D01*
X8482837Y10407011D01*
X8481312Y10407715D01*
X8479904Y10408536D01*
X8478496Y10409593D01*
X8477087Y10410649D01*
X8476970Y10410766D01*
X8476735Y10411001D01*
X8476383Y10411353D01*
X8476031Y10411822D01*
X8475445Y10412409D01*
X8474858Y10413230D01*
X8474154Y10414052D01*
X8473450Y10415108D01*
X8472746Y10416281D01*
X8472041Y10417455D01*
X8470751Y10420271D01*
X8469695Y10423557D01*
X8469342Y10425317D01*
X8469108Y10427195D01*
X8479082Y10428486D01*
Y10428368D01*
X8479200Y10428134D01*
X8479317Y10427664D01*
X8479434Y10427077D01*
X8479552Y10426373D01*
X8479786Y10425552D01*
X8480373Y10423792D01*
X8481195Y10421679D01*
X8482251Y10419685D01*
X8483424Y10417807D01*
X8484832Y10416164D01*
X8485067Y10416047D01*
X8485536Y10415577D01*
X8486475Y10414991D01*
X8487649Y10414404D01*
X8489057Y10413700D01*
X8490817Y10413113D01*
X8492812Y10412644D01*
X8494924Y10412526D01*
X8495628D01*
X8496098Y10412644D01*
X8497389Y10412761D01*
X8499032Y10413113D01*
X8500909Y10413700D01*
X8502904Y10414521D01*
X8504899Y10415695D01*
X8506776Y10417338D01*
X8507011Y10417572D01*
X8507598Y10418276D01*
X8508302Y10419332D01*
X8509241Y10420741D01*
X8510180Y10422501D01*
X8510884Y10424496D01*
X8511470Y10426843D01*
X8511705Y10429424D01*
Y10429542D01*
Y10429776D01*
Y10430128D01*
X8511588Y10430598D01*
X8511470Y10431889D01*
X8511118Y10433414D01*
X8510649Y10435292D01*
X8509828Y10437169D01*
X8508654Y10439047D01*
X8507129Y10440807D01*
X8506894Y10441042D01*
X8506307Y10441511D01*
X8505368Y10442215D01*
X8504077Y10443037D01*
X8502435Y10443858D01*
X8500440Y10444562D01*
X8498210Y10445032D01*
X8495746Y10445266D01*
X8494690D01*
X8493868Y10445149D01*
X8492812Y10445032D01*
X8491639Y10444797D01*
X8490230Y10444562D01*
X8488705Y10444210D01*
X8489878Y10453011D01*
X8490465D01*
X8490935Y10452894D01*
X8492460D01*
X8493751Y10453129D01*
X8495276Y10453363D01*
X8497037Y10453715D01*
X8499032Y10454302D01*
X8500909Y10455124D01*
X8502904Y10456180D01*
X8503021D01*
X8503139Y10456297D01*
X8503725Y10456766D01*
X8504547Y10457588D01*
X8505486Y10458644D01*
X8506424Y10460170D01*
X8507246Y10461930D01*
X8507833Y10463925D01*
X8508067Y10465098D01*
Y10466389D01*
Y10466506D01*
Y10466624D01*
Y10467328D01*
X8507833Y10468267D01*
X8507598Y10469557D01*
X8507129Y10470966D01*
X8506542Y10472491D01*
X8505603Y10474017D01*
X8504312Y10475425D01*
X8504195Y10475542D01*
X8503608Y10476012D01*
X8502787Y10476598D01*
X8501731Y10477302D01*
X8500322Y10477889D01*
X8498679Y10478476D01*
X8496802Y10478945D01*
X8494690Y10479063D01*
X8493751D01*
X8492695Y10478828D01*
X8491287Y10478593D01*
X8489761Y10478124D01*
X8488235Y10477537D01*
X8486593Y10476598D01*
X8485067Y10475425D01*
X8484950Y10475307D01*
X8484480Y10474721D01*
X8483776Y10473899D01*
X8482955Y10472726D01*
X8482133Y10471200D01*
X8481312Y10469323D01*
X8480608Y10467093D01*
X8480138Y10464511D01*
X8470164Y10466272D01*
Y10466389D01*
X8470281Y10466741D01*
X8470399Y10467210D01*
X8470516Y10467915D01*
X8470751Y10468736D01*
X8471103Y10469675D01*
X8471807Y10471904D01*
X8472980Y10474486D01*
X8474388Y10477068D01*
X8476149Y10479532D01*
X8478378Y10481762D01*
X8478496Y10481879D01*
X8478730Y10481996D01*
X8479082Y10482231D01*
X8479552Y10482583D01*
X8480138Y10483052D01*
X8480960Y10483522D01*
X8481781Y10483991D01*
X8482837Y10484578D01*
X8485184Y10485517D01*
X8487883Y10486456D01*
X8491052Y10487042D01*
X8492695Y10487277D01*
X8495628D01*
X8496919Y10487160D01*
D02*
G37*
G36*
X8885371Y8888016D02*
X8886427Y8887898D01*
X8887718Y8887781D01*
X8889008Y8887664D01*
X8890534Y8887312D01*
X8893702Y8886608D01*
X8897223Y8885551D01*
X8898983Y8884847D01*
X8900626Y8884026D01*
X8902269Y8882970D01*
X8903912Y8881914D01*
X8904029Y8881796D01*
X8904264Y8881679D01*
X8904733Y8881327D01*
X8905320Y8880740D01*
X8905906Y8880153D01*
X8906728Y8879332D01*
X8907549Y8878393D01*
X8908488Y8877454D01*
X8909427Y8876281D01*
X8910366Y8874873D01*
X8911422Y8873465D01*
X8912361Y8871939D01*
X8913182Y8870179D01*
X8914121Y8868419D01*
X8914825Y8866541D01*
X8915529Y8864429D01*
X8904968Y8861964D01*
Y8862082D01*
X8904850Y8862317D01*
X8904616Y8862786D01*
X8904381Y8863373D01*
X8904146Y8864077D01*
X8903794Y8865016D01*
X8902855Y8866893D01*
X8901682Y8869005D01*
X8900274Y8871118D01*
X8898514Y8873113D01*
X8896636Y8874873D01*
X8896401Y8875107D01*
X8895697Y8875577D01*
X8894524Y8876164D01*
X8892998Y8876985D01*
X8891003Y8877689D01*
X8888774Y8878393D01*
X8886075Y8878863D01*
X8883141Y8878980D01*
X8882202D01*
X8881615Y8878863D01*
X8880794D01*
X8879855Y8878745D01*
X8877626Y8878393D01*
X8875161Y8877924D01*
X8872580Y8877102D01*
X8869881Y8875929D01*
X8867416Y8874403D01*
X8867299D01*
X8867182Y8874169D01*
X8866360Y8873582D01*
X8865304Y8872643D01*
X8864013Y8871235D01*
X8862488Y8869475D01*
X8861080Y8867480D01*
X8859789Y8865016D01*
X8858615Y8862317D01*
Y8862199D01*
X8858498Y8861964D01*
X8858381Y8861612D01*
X8858263Y8861026D01*
X8858029Y8860322D01*
X8857794Y8859500D01*
X8857442Y8857505D01*
X8856972Y8855158D01*
X8856503Y8852577D01*
X8856268Y8849760D01*
X8856151Y8846709D01*
Y8846592D01*
Y8846240D01*
Y8845653D01*
Y8844949D01*
X8856268Y8844128D01*
Y8843071D01*
X8856386Y8841898D01*
X8856503Y8840607D01*
X8856855Y8837791D01*
X8857442Y8834740D01*
X8858146Y8831689D01*
X8859085Y8828638D01*
Y8828520D01*
X8859202Y8828286D01*
X8859437Y8827934D01*
X8859671Y8827347D01*
X8860375Y8825939D01*
X8861432Y8824296D01*
X8862722Y8822418D01*
X8864365Y8820423D01*
X8866243Y8818663D01*
X8868472Y8817020D01*
X8868590D01*
X8868825Y8816903D01*
X8869177Y8816668D01*
X8869646Y8816433D01*
X8870233Y8816199D01*
X8870937Y8815847D01*
X8872580Y8815143D01*
X8874692Y8814439D01*
X8877039Y8813852D01*
X8879621Y8813382D01*
X8882320Y8813265D01*
X8883141D01*
X8883845Y8813382D01*
X8884667D01*
X8885488Y8813500D01*
X8887600Y8813969D01*
X8890065Y8814556D01*
X8892529Y8815495D01*
X8895110Y8816786D01*
X8896401Y8817490D01*
X8897575Y8818428D01*
X8897692Y8818546D01*
X8897809Y8818663D01*
X8898162Y8819015D01*
X8898631Y8819367D01*
X8899100Y8819954D01*
X8899687Y8820658D01*
X8900391Y8821362D01*
X8900978Y8822301D01*
X8901682Y8823357D01*
X8902503Y8824530D01*
X8903207Y8825704D01*
X8903912Y8827112D01*
X8904498Y8828638D01*
X8905085Y8830281D01*
X8905672Y8832041D01*
X8906141Y8833918D01*
X8916937Y8831219D01*
Y8831102D01*
X8916820Y8830633D01*
X8916585Y8829928D01*
X8916233Y8828990D01*
X8915881Y8827934D01*
X8915412Y8826643D01*
X8914825Y8825235D01*
X8914121Y8823709D01*
X8912478Y8820423D01*
X8910366Y8817138D01*
X8909075Y8815495D01*
X8907784Y8813852D01*
X8906376Y8812444D01*
X8904733Y8811035D01*
X8904616Y8810918D01*
X8904381Y8810683D01*
X8903794Y8810449D01*
X8903207Y8809979D01*
X8902269Y8809393D01*
X8901330Y8808806D01*
X8900039Y8808219D01*
X8898748Y8807632D01*
X8897223Y8806928D01*
X8895580Y8806342D01*
X8893820Y8805755D01*
X8891942Y8805168D01*
X8889947Y8804699D01*
X8887835Y8804464D01*
X8885605Y8804229D01*
X8883258Y8804112D01*
X8881968D01*
X8881029Y8804229D01*
X8879973D01*
X8878682Y8804347D01*
X8877274Y8804581D01*
X8875631Y8804816D01*
X8872228Y8805403D01*
X8868707Y8806342D01*
X8865187Y8807632D01*
X8863544Y8808454D01*
X8861901Y8809393D01*
X8861784Y8809510D01*
X8861549Y8809627D01*
X8861080Y8809979D01*
X8860610Y8810449D01*
X8859906Y8810918D01*
X8859085Y8811622D01*
X8858146Y8812444D01*
X8857207Y8813382D01*
X8856268Y8814439D01*
X8855212Y8815495D01*
X8853100Y8818194D01*
X8851105Y8821362D01*
X8849345Y8824883D01*
Y8825000D01*
X8849110Y8825352D01*
X8848993Y8825939D01*
X8848641Y8826643D01*
X8848406Y8827582D01*
X8848054Y8828755D01*
X8847585Y8830046D01*
X8847232Y8831454D01*
X8846880Y8832980D01*
X8846411Y8834740D01*
X8845824Y8838378D01*
X8845355Y8842485D01*
X8845120Y8846709D01*
Y8846827D01*
Y8847296D01*
Y8848000D01*
X8845238Y8848822D01*
Y8849995D01*
X8845355Y8851168D01*
X8845472Y8852694D01*
X8845707Y8854220D01*
X8846294Y8857623D01*
X8847115Y8861378D01*
X8848289Y8865133D01*
X8849931Y8868771D01*
X8850049Y8868888D01*
X8850166Y8869240D01*
X8850401Y8869709D01*
X8850870Y8870296D01*
X8851340Y8871118D01*
X8851926Y8872056D01*
X8853452Y8874169D01*
X8855447Y8876516D01*
X8857794Y8878863D01*
X8860493Y8881210D01*
X8863661Y8883204D01*
X8863779Y8883322D01*
X8864131Y8883439D01*
X8864600Y8883674D01*
X8865187Y8884026D01*
X8866126Y8884378D01*
X8867064Y8884730D01*
X8868238Y8885199D01*
X8869529Y8885669D01*
X8870937Y8886138D01*
X8872462Y8886608D01*
X8875748Y8887312D01*
X8879503Y8887898D01*
X8883376Y8888133D01*
X8884549D01*
X8885371Y8888016D01*
D02*
G37*
G36*
X8967984Y8834153D02*
X8979014D01*
Y8825000D01*
X8967984D01*
Y8805520D01*
X8958009D01*
Y8825000D01*
X8922687D01*
Y8834153D01*
X8959887Y8886725D01*
X8967984D01*
Y8834153D01*
D02*
G37*
G36*
X8656770Y8888016D02*
X8657826Y8887898D01*
X8659117Y8887781D01*
X8660408Y8887664D01*
X8661934Y8887312D01*
X8665102Y8886608D01*
X8668622Y8885551D01*
X8670383Y8884847D01*
X8672026Y8884026D01*
X8673668Y8882970D01*
X8675311Y8881914D01*
X8675429Y8881796D01*
X8675663Y8881679D01*
X8676133Y8881327D01*
X8676720Y8880740D01*
X8677306Y8880153D01*
X8678128Y8879332D01*
X8678949Y8878393D01*
X8679888Y8877454D01*
X8680827Y8876281D01*
X8681765Y8874873D01*
X8682822Y8873465D01*
X8683760Y8871939D01*
X8684582Y8870179D01*
X8685521Y8868419D01*
X8686225Y8866541D01*
X8686929Y8864429D01*
X8676367Y8861964D01*
Y8862082D01*
X8676250Y8862317D01*
X8676015Y8862786D01*
X8675781Y8863373D01*
X8675546Y8864077D01*
X8675194Y8865016D01*
X8674255Y8866893D01*
X8673082Y8869005D01*
X8671674Y8871118D01*
X8669913Y8873113D01*
X8668036Y8874873D01*
X8667801Y8875107D01*
X8667097Y8875577D01*
X8665923Y8876164D01*
X8664398Y8876985D01*
X8662403Y8877689D01*
X8660173Y8878393D01*
X8657474Y8878863D01*
X8654541Y8878980D01*
X8653602D01*
X8653015Y8878863D01*
X8652194D01*
X8651255Y8878745D01*
X8649025Y8878393D01*
X8646561Y8877924D01*
X8643979Y8877102D01*
X8641280Y8875929D01*
X8638816Y8874403D01*
X8638699D01*
X8638581Y8874169D01*
X8637760Y8873582D01*
X8636704Y8872643D01*
X8635413Y8871235D01*
X8633887Y8869475D01*
X8632479Y8867480D01*
X8631188Y8865016D01*
X8630015Y8862317D01*
Y8862199D01*
X8629898Y8861964D01*
X8629780Y8861612D01*
X8629663Y8861026D01*
X8629428Y8860322D01*
X8629194Y8859500D01*
X8628842Y8857505D01*
X8628372Y8855158D01*
X8627903Y8852577D01*
X8627668Y8849760D01*
X8627551Y8846709D01*
Y8846592D01*
Y8846240D01*
Y8845653D01*
Y8844949D01*
X8627668Y8844128D01*
Y8843071D01*
X8627785Y8841898D01*
X8627903Y8840607D01*
X8628255Y8837791D01*
X8628842Y8834740D01*
X8629546Y8831689D01*
X8630484Y8828638D01*
Y8828520D01*
X8630602Y8828286D01*
X8630836Y8827934D01*
X8631071Y8827347D01*
X8631775Y8825939D01*
X8632831Y8824296D01*
X8634122Y8822418D01*
X8635765Y8820423D01*
X8637643Y8818663D01*
X8639872Y8817020D01*
X8639990D01*
X8640224Y8816903D01*
X8640576Y8816668D01*
X8641046Y8816433D01*
X8641632Y8816199D01*
X8642337Y8815847D01*
X8643979Y8815143D01*
X8646092Y8814439D01*
X8648439Y8813852D01*
X8651020Y8813382D01*
X8653719Y8813265D01*
X8654541D01*
X8655245Y8813382D01*
X8656066D01*
X8656888Y8813500D01*
X8659000Y8813969D01*
X8661464Y8814556D01*
X8663929Y8815495D01*
X8666510Y8816786D01*
X8667801Y8817490D01*
X8668975Y8818428D01*
X8669092Y8818546D01*
X8669209Y8818663D01*
X8669561Y8819015D01*
X8670031Y8819367D01*
X8670500Y8819954D01*
X8671087Y8820658D01*
X8671791Y8821362D01*
X8672378Y8822301D01*
X8673082Y8823357D01*
X8673903Y8824530D01*
X8674607Y8825704D01*
X8675311Y8827112D01*
X8675898Y8828638D01*
X8676485Y8830281D01*
X8677072Y8832041D01*
X8677541Y8833918D01*
X8688337Y8831219D01*
Y8831102D01*
X8688220Y8830633D01*
X8687985Y8829928D01*
X8687633Y8828990D01*
X8687281Y8827934D01*
X8686811Y8826643D01*
X8686225Y8825235D01*
X8685521Y8823709D01*
X8683878Y8820423D01*
X8681765Y8817138D01*
X8680475Y8815495D01*
X8679184Y8813852D01*
X8677776Y8812444D01*
X8676133Y8811035D01*
X8676015Y8810918D01*
X8675781Y8810683D01*
X8675194Y8810449D01*
X8674607Y8809979D01*
X8673668Y8809393D01*
X8672730Y8808806D01*
X8671439Y8808219D01*
X8670148Y8807632D01*
X8668622Y8806928D01*
X8666980Y8806342D01*
X8665219Y8805755D01*
X8663342Y8805168D01*
X8661347Y8804699D01*
X8659235Y8804464D01*
X8657005Y8804229D01*
X8654658Y8804112D01*
X8653367D01*
X8652428Y8804229D01*
X8651372D01*
X8650082Y8804347D01*
X8648673Y8804581D01*
X8647030Y8804816D01*
X8643627Y8805403D01*
X8640107Y8806342D01*
X8636586Y8807632D01*
X8634944Y8808454D01*
X8633301Y8809393D01*
X8633183Y8809510D01*
X8632949Y8809627D01*
X8632479Y8809979D01*
X8632010Y8810449D01*
X8631306Y8810918D01*
X8630484Y8811622D01*
X8629546Y8812444D01*
X8628607Y8813382D01*
X8627668Y8814439D01*
X8626612Y8815495D01*
X8624500Y8818194D01*
X8622505Y8821362D01*
X8620745Y8824883D01*
Y8825000D01*
X8620510Y8825352D01*
X8620392Y8825939D01*
X8620040Y8826643D01*
X8619806Y8827582D01*
X8619454Y8828755D01*
X8618984Y8830046D01*
X8618632Y8831454D01*
X8618280Y8832980D01*
X8617811Y8834740D01*
X8617224Y8838378D01*
X8616755Y8842485D01*
X8616520Y8846709D01*
Y8846827D01*
Y8847296D01*
Y8848000D01*
X8616637Y8848822D01*
Y8849995D01*
X8616755Y8851168D01*
X8616872Y8852694D01*
X8617107Y8854220D01*
X8617693Y8857623D01*
X8618515Y8861378D01*
X8619688Y8865133D01*
X8621331Y8868771D01*
X8621449Y8868888D01*
X8621566Y8869240D01*
X8621801Y8869709D01*
X8622270Y8870296D01*
X8622739Y8871118D01*
X8623326Y8872056D01*
X8624852Y8874169D01*
X8626847Y8876516D01*
X8629194Y8878863D01*
X8631893Y8881210D01*
X8635061Y8883204D01*
X8635178Y8883322D01*
X8635530Y8883439D01*
X8636000Y8883674D01*
X8636586Y8884026D01*
X8637525Y8884378D01*
X8638464Y8884730D01*
X8639638Y8885199D01*
X8640928Y8885669D01*
X8642337Y8886138D01*
X8643862Y8886608D01*
X8647148Y8887312D01*
X8650903Y8887898D01*
X8654775Y8888133D01*
X8655949D01*
X8656770Y8888016D01*
D02*
G37*
G36*
X8747480Y8876164D02*
X8714975D01*
X8710633Y8854220D01*
X8710750Y8854337D01*
X8710985Y8854454D01*
X8711337Y8854689D01*
X8711924Y8855041D01*
X8712628Y8855393D01*
X8713449Y8855862D01*
X8715327Y8856801D01*
X8717674Y8857740D01*
X8720256Y8858561D01*
X8723072Y8859148D01*
X8724480Y8859383D01*
X8727062D01*
X8727766Y8859265D01*
X8728705Y8859148D01*
X8729761Y8859031D01*
X8730934Y8858796D01*
X8732225Y8858444D01*
X8735041Y8857623D01*
X8736567Y8857036D01*
X8738093Y8856214D01*
X8739618Y8855393D01*
X8741144Y8854454D01*
X8742552Y8853281D01*
X8743960Y8851990D01*
X8744077Y8851873D01*
X8744312Y8851638D01*
X8744664Y8851286D01*
X8745133Y8850699D01*
X8745720Y8849878D01*
X8746307Y8849056D01*
X8747011Y8848000D01*
X8747715Y8846827D01*
X8748302Y8845536D01*
X8749006Y8844128D01*
X8749593Y8842485D01*
X8750179Y8840842D01*
X8750649Y8839082D01*
X8751001Y8837087D01*
X8751235Y8835092D01*
X8751353Y8832980D01*
Y8832862D01*
Y8832510D01*
Y8831923D01*
X8751235Y8831102D01*
X8751118Y8830163D01*
X8751001Y8829107D01*
X8750766Y8827816D01*
X8750531Y8826525D01*
X8749827Y8823474D01*
X8748654Y8820306D01*
X8747950Y8818663D01*
X8747011Y8817138D01*
X8746072Y8815495D01*
X8744899Y8813969D01*
X8744781Y8813852D01*
X8744547Y8813500D01*
X8744077Y8813030D01*
X8743491Y8812444D01*
X8742669Y8811740D01*
X8741730Y8810801D01*
X8740557Y8809979D01*
X8739266Y8809041D01*
X8737858Y8808102D01*
X8736215Y8807280D01*
X8734455Y8806459D01*
X8732577Y8805637D01*
X8730582Y8805051D01*
X8728353Y8804581D01*
X8726006Y8804229D01*
X8723541Y8804112D01*
X8722485D01*
X8721664Y8804229D01*
X8720725Y8804347D01*
X8719669Y8804464D01*
X8718378Y8804581D01*
X8717087Y8804933D01*
X8714154Y8805637D01*
X8711220Y8806694D01*
X8709694Y8807398D01*
X8708169Y8808219D01*
X8706761Y8809158D01*
X8705352Y8810214D01*
X8705235Y8810331D01*
X8705000Y8810449D01*
X8704766Y8810918D01*
X8704296Y8811388D01*
X8703710Y8811974D01*
X8703123Y8812678D01*
X8702419Y8813617D01*
X8701832Y8814673D01*
X8701128Y8815729D01*
X8700424Y8817020D01*
X8699133Y8819837D01*
X8698077Y8823122D01*
X8697725Y8824883D01*
X8697490Y8826760D01*
X8707934Y8827582D01*
Y8827464D01*
Y8827229D01*
X8708051Y8826877D01*
X8708169Y8826291D01*
X8708521Y8825000D01*
X8708990Y8823240D01*
X8709694Y8821479D01*
X8710633Y8819485D01*
X8711807Y8817724D01*
X8713215Y8816081D01*
X8713449Y8815964D01*
X8713919Y8815495D01*
X8714858Y8814908D01*
X8716148Y8814204D01*
X8717557Y8813500D01*
X8719317Y8812913D01*
X8721312Y8812444D01*
X8723541Y8812326D01*
X8724245D01*
X8724715Y8812444D01*
X8726123Y8812561D01*
X8727766Y8813030D01*
X8729761Y8813617D01*
X8731756Y8814556D01*
X8733868Y8815964D01*
X8734807Y8816786D01*
X8735746Y8817724D01*
X8735863Y8817842D01*
X8735980Y8817959D01*
X8736215Y8818311D01*
X8736567Y8818663D01*
X8737388Y8819954D01*
X8738327Y8821597D01*
X8739149Y8823592D01*
X8739970Y8826056D01*
X8740557Y8828990D01*
X8740792Y8830515D01*
Y8832158D01*
Y8832275D01*
Y8832510D01*
Y8832980D01*
X8740674Y8833566D01*
Y8834270D01*
X8740557Y8835092D01*
X8740205Y8836969D01*
X8739618Y8839199D01*
X8738797Y8841429D01*
X8737623Y8843541D01*
X8735980Y8845536D01*
Y8845653D01*
X8735746Y8845770D01*
X8735159Y8846357D01*
X8734103Y8847179D01*
X8732694Y8848117D01*
X8730817Y8848939D01*
X8728705Y8849760D01*
X8726240Y8850347D01*
X8724832Y8850582D01*
X8722603D01*
X8721664Y8850464D01*
X8720490Y8850347D01*
X8719082Y8849995D01*
X8717674Y8849643D01*
X8716148Y8849056D01*
X8714623Y8848352D01*
X8714506Y8848235D01*
X8714036Y8848000D01*
X8713332Y8847413D01*
X8712393Y8846827D01*
X8711455Y8846005D01*
X8710516Y8844949D01*
X8709460Y8843893D01*
X8708638Y8842602D01*
X8699250Y8843893D01*
X8707113Y8885669D01*
X8747480D01*
Y8876164D01*
D02*
G37*
G36*
X9833411Y10160405D02*
X9834115D01*
X9835993Y10160053D01*
X9838223Y10159701D01*
X9840570Y10159115D01*
X9843151Y10158293D01*
X9845616Y10157120D01*
X9845733D01*
X9845850Y10157002D01*
X9846202Y10156768D01*
X9846672Y10156533D01*
X9847845Y10155829D01*
X9849371Y10154773D01*
X9851014Y10153482D01*
X9852656Y10151956D01*
X9854299Y10150079D01*
X9855707Y10148084D01*
Y10147966D01*
X9855825Y10147849D01*
X9856060Y10147497D01*
X9856177Y10147028D01*
X9856764Y10145854D01*
X9857350Y10144329D01*
X9858054Y10142334D01*
X9858524Y10140104D01*
X9858993Y10137640D01*
X9859111Y10134941D01*
Y10134354D01*
X9858993Y10133767D01*
Y10132829D01*
X9858876Y10131772D01*
X9858641Y10130599D01*
X9858289Y10129191D01*
X9857937Y10127783D01*
X9857468Y10126140D01*
X9856881Y10124497D01*
X9856177Y10122854D01*
X9855238Y10121094D01*
X9854182Y10119451D01*
X9853008Y10117808D01*
X9851600Y10116165D01*
X9849957Y10114640D01*
X9849840Y10114522D01*
X9849488Y10114288D01*
X9849019Y10113936D01*
X9848197Y10113466D01*
X9847141Y10112762D01*
X9845968Y10112175D01*
X9844442Y10111471D01*
X9842799Y10110767D01*
X9840804Y10109946D01*
X9838575Y10109242D01*
X9836110Y10108655D01*
X9833411Y10108068D01*
X9830360Y10107481D01*
X9827075Y10107129D01*
X9823554Y10106895D01*
X9819799Y10106777D01*
X9819682D01*
X9819564D01*
X9819212D01*
X9818743D01*
X9817569Y10106895D01*
X9815927D01*
X9814049Y10107012D01*
X9811819Y10107247D01*
X9809355Y10107481D01*
X9806656Y10107833D01*
X9803957Y10108303D01*
X9801023Y10108890D01*
X9798207Y10109594D01*
X9795391Y10110415D01*
X9792692Y10111471D01*
X9790110Y10112645D01*
X9787646Y10113936D01*
X9785533Y10115461D01*
X9785416Y10115578D01*
X9785181Y10115813D01*
X9784712Y10116283D01*
X9784008Y10116869D01*
X9783304Y10117573D01*
X9782600Y10118512D01*
X9781661Y10119686D01*
X9780839Y10120859D01*
X9780018Y10122267D01*
X9779079Y10123793D01*
X9778375Y10125553D01*
X9777554Y10127313D01*
X9776967Y10129308D01*
X9776498Y10131420D01*
X9776263Y10133650D01*
X9776146Y10135997D01*
Y10136936D01*
X9776263Y10137640D01*
Y10138461D01*
X9776380Y10139400D01*
X9776850Y10141630D01*
X9777436Y10144094D01*
X9778375Y10146676D01*
X9779783Y10149257D01*
X9780605Y10150548D01*
X9781544Y10151722D01*
X9781661Y10151839D01*
X9781778Y10151956D01*
X9782130Y10152308D01*
X9782482Y10152660D01*
X9783069Y10153247D01*
X9783773Y10153717D01*
X9785416Y10155007D01*
X9787528Y10156298D01*
X9790110Y10157472D01*
X9793044Y10158528D01*
X9796329Y10159232D01*
X9797151Y10149257D01*
X9797033D01*
X9796916Y10149140D01*
X9796212Y10149023D01*
X9795156Y10148671D01*
X9793865Y10148201D01*
X9792457Y10147732D01*
X9791049Y10147028D01*
X9789758Y10146206D01*
X9788702Y10145385D01*
X9788467Y10145150D01*
X9787998Y10144681D01*
X9787294Y10143859D01*
X9786472Y10142686D01*
X9785768Y10141160D01*
X9785064Y10139517D01*
X9784595Y10137523D01*
X9784360Y10135410D01*
Y10134589D01*
X9784477Y10133650D01*
X9784712Y10132594D01*
X9785064Y10131186D01*
X9785533Y10129778D01*
X9786120Y10128369D01*
X9787059Y10126961D01*
X9787176Y10126727D01*
X9787646Y10126140D01*
X9788467Y10125318D01*
X9789641Y10124262D01*
X9791049Y10123089D01*
X9792692Y10121798D01*
X9794804Y10120624D01*
X9797151Y10119451D01*
X9797268D01*
X9797503Y10119334D01*
X9797855Y10119216D01*
X9798324Y10118982D01*
X9799028Y10118864D01*
X9799850Y10118629D01*
X9800789Y10118395D01*
X9801962Y10118160D01*
X9803253Y10117808D01*
X9804661Y10117573D01*
X9806187Y10117339D01*
X9807830Y10117221D01*
X9809707Y10116987D01*
X9811585Y10116869D01*
X9813697Y10116752D01*
X9815809D01*
X9815692Y10116869D01*
X9814988Y10117339D01*
X9814049Y10118160D01*
X9812875Y10119216D01*
X9811467Y10120390D01*
X9810176Y10121915D01*
X9808886Y10123558D01*
X9807712Y10125436D01*
Y10125553D01*
X9807595Y10125670D01*
X9807243Y10126374D01*
X9806891Y10127431D01*
X9806304Y10128839D01*
X9805835Y10130482D01*
X9805483Y10132359D01*
X9805131Y10134354D01*
X9805013Y10136466D01*
Y10137405D01*
X9805131Y10138109D01*
X9805248Y10139048D01*
X9805365Y10139987D01*
X9805600Y10141160D01*
X9805952Y10142334D01*
X9806773Y10145033D01*
X9807360Y10146441D01*
X9808182Y10147849D01*
X9809003Y10149257D01*
X9809942Y10150783D01*
X9811115Y10152191D01*
X9812406Y10153482D01*
X9812523Y10153599D01*
X9812758Y10153834D01*
X9813110Y10154186D01*
X9813697Y10154538D01*
X9814518Y10155125D01*
X9815340Y10155711D01*
X9816396Y10156298D01*
X9817569Y10157002D01*
X9818860Y10157706D01*
X9820268Y10158293D01*
X9821911Y10158880D01*
X9823554Y10159467D01*
X9825314Y10159819D01*
X9827309Y10160171D01*
X9829304Y10160405D01*
X9831416Y10160523D01*
X9831534D01*
X9831768D01*
X9832121D01*
X9832707D01*
X9833411Y10160405D01*
D02*
G37*
G36*
X9832590Y10097976D02*
X9833294Y10097742D01*
X9834233Y10097390D01*
X9835289Y10097037D01*
X9836580Y10096568D01*
X9837988Y10095981D01*
X9839513Y10095277D01*
X9842799Y10093634D01*
X9846085Y10091522D01*
X9847728Y10090231D01*
X9849371Y10088940D01*
X9850779Y10087532D01*
X9852187Y10085889D01*
X9852304Y10085772D01*
X9852539Y10085537D01*
X9852774Y10084951D01*
X9853243Y10084364D01*
X9853830Y10083425D01*
X9854417Y10082486D01*
X9855003Y10081195D01*
X9855590Y10079905D01*
X9856294Y10078379D01*
X9856881Y10076736D01*
X9857468Y10074976D01*
X9858054Y10073098D01*
X9858524Y10071104D01*
X9858759Y10068991D01*
X9858993Y10066762D01*
X9859111Y10064415D01*
Y10063124D01*
X9858993Y10062185D01*
Y10061129D01*
X9858876Y10059838D01*
X9858641Y10058430D01*
X9858406Y10056787D01*
X9857820Y10053384D01*
X9856881Y10049864D01*
X9855590Y10046343D01*
X9854769Y10044700D01*
X9853830Y10043057D01*
X9853713Y10042940D01*
X9853595Y10042705D01*
X9853243Y10042236D01*
X9852774Y10041767D01*
X9852304Y10041062D01*
X9851600Y10040241D01*
X9850779Y10039302D01*
X9849840Y10038363D01*
X9848784Y10037425D01*
X9847728Y10036369D01*
X9845029Y10034256D01*
X9841860Y10032261D01*
X9838340Y10030501D01*
X9838223D01*
X9837871Y10030266D01*
X9837284Y10030149D01*
X9836580Y10029797D01*
X9835641Y10029562D01*
X9834468Y10029210D01*
X9833177Y10028741D01*
X9831768Y10028389D01*
X9830243Y10028037D01*
X9828483Y10027567D01*
X9824845Y10026981D01*
X9820738Y10026511D01*
X9816513Y10026277D01*
X9816396D01*
X9815927D01*
X9815222D01*
X9814401Y10026394D01*
X9813228D01*
X9812054Y10026511D01*
X9810529Y10026629D01*
X9809003Y10026863D01*
X9805600Y10027450D01*
X9801845Y10028272D01*
X9798090Y10029445D01*
X9794452Y10031088D01*
X9794334Y10031205D01*
X9793982Y10031323D01*
X9793513Y10031557D01*
X9792926Y10032027D01*
X9792105Y10032496D01*
X9791166Y10033083D01*
X9789054Y10034608D01*
X9786707Y10036603D01*
X9784360Y10038950D01*
X9782013Y10041649D01*
X9780018Y10044818D01*
X9779901Y10044935D01*
X9779783Y10045287D01*
X9779549Y10045756D01*
X9779197Y10046343D01*
X9778845Y10047282D01*
X9778493Y10048221D01*
X9778023Y10049394D01*
X9777554Y10050685D01*
X9777084Y10052093D01*
X9776615Y10053619D01*
X9775911Y10056904D01*
X9775324Y10060660D01*
X9775089Y10064532D01*
Y10065706D01*
X9775207Y10066527D01*
X9775324Y10067583D01*
X9775441Y10068874D01*
X9775559Y10070165D01*
X9775911Y10071690D01*
X9776615Y10074859D01*
X9777671Y10078379D01*
X9778375Y10080139D01*
X9779197Y10081782D01*
X9780253Y10083425D01*
X9781309Y10085068D01*
X9781426Y10085185D01*
X9781544Y10085420D01*
X9781896Y10085889D01*
X9782482Y10086476D01*
X9783069Y10087063D01*
X9783891Y10087884D01*
X9784829Y10088706D01*
X9785768Y10089645D01*
X9786942Y10090583D01*
X9788350Y10091522D01*
X9789758Y10092578D01*
X9791283Y10093517D01*
X9793044Y10094338D01*
X9794804Y10095277D01*
X9796681Y10095981D01*
X9798794Y10096685D01*
X9801258Y10086124D01*
X9801141D01*
X9800906Y10086007D01*
X9800437Y10085772D01*
X9799850Y10085537D01*
X9799146Y10085303D01*
X9798207Y10084951D01*
X9796329Y10084012D01*
X9794217Y10082838D01*
X9792105Y10081430D01*
X9790110Y10079670D01*
X9788350Y10077792D01*
X9788115Y10077558D01*
X9787646Y10076854D01*
X9787059Y10075680D01*
X9786237Y10074155D01*
X9785533Y10072160D01*
X9784829Y10069930D01*
X9784360Y10067231D01*
X9784243Y10064297D01*
Y10063359D01*
X9784360Y10062772D01*
Y10061950D01*
X9784477Y10061012D01*
X9784829Y10058782D01*
X9785299Y10056318D01*
X9786120Y10053736D01*
X9787294Y10051037D01*
X9788819Y10048573D01*
Y10048455D01*
X9789054Y10048338D01*
X9789641Y10047517D01*
X9790579Y10046460D01*
X9791988Y10045170D01*
X9793748Y10043644D01*
X9795743Y10042236D01*
X9798207Y10040945D01*
X9800906Y10039772D01*
X9801023D01*
X9801258Y10039654D01*
X9801610Y10039537D01*
X9802197Y10039420D01*
X9802901Y10039185D01*
X9803722Y10038950D01*
X9805717Y10038598D01*
X9808064Y10038129D01*
X9810646Y10037659D01*
X9813462Y10037425D01*
X9816513Y10037307D01*
X9816631D01*
X9816983D01*
X9817569D01*
X9818273D01*
X9819095Y10037425D01*
X9820151D01*
X9821325Y10037542D01*
X9822615Y10037659D01*
X9825432Y10038011D01*
X9828483Y10038598D01*
X9831534Y10039302D01*
X9834585Y10040241D01*
X9834702D01*
X9834937Y10040358D01*
X9835289Y10040593D01*
X9835876Y10040828D01*
X9837284Y10041532D01*
X9838927Y10042588D01*
X9840804Y10043879D01*
X9842799Y10045522D01*
X9844559Y10047399D01*
X9846202Y10049629D01*
Y10049746D01*
X9846320Y10049981D01*
X9846554Y10050333D01*
X9846789Y10050802D01*
X9847024Y10051389D01*
X9847376Y10052093D01*
X9848080Y10053736D01*
X9848784Y10055848D01*
X9849371Y10058195D01*
X9849840Y10060777D01*
X9849957Y10063476D01*
Y10064297D01*
X9849840Y10065001D01*
Y10065823D01*
X9849723Y10066644D01*
X9849253Y10068757D01*
X9848667Y10071221D01*
X9847728Y10073685D01*
X9846437Y10076267D01*
X9845733Y10077558D01*
X9844794Y10078731D01*
X9844677Y10078849D01*
X9844559Y10078966D01*
X9844207Y10079318D01*
X9843855Y10079787D01*
X9843269Y10080257D01*
X9842565Y10080843D01*
X9841860Y10081548D01*
X9840922Y10082134D01*
X9839866Y10082838D01*
X9838692Y10083660D01*
X9837519Y10084364D01*
X9836110Y10085068D01*
X9834585Y10085655D01*
X9832942Y10086241D01*
X9831182Y10086828D01*
X9829304Y10087298D01*
X9832003Y10098094D01*
X9832121D01*
X9832590Y10097976D01*
D02*
G37*
G36*
X9273127Y9175193D02*
X9274183Y9175076D01*
X9275474Y9174958D01*
X9276765Y9174841D01*
X9278291Y9174489D01*
X9281459Y9173785D01*
X9284979Y9172729D01*
X9286740Y9172025D01*
X9288382Y9171203D01*
X9290025Y9170147D01*
X9291668Y9169091D01*
X9291786Y9168974D01*
X9292020Y9168856D01*
X9292490Y9168504D01*
X9293076Y9167917D01*
X9293663Y9167331D01*
X9294485Y9166509D01*
X9295306Y9165570D01*
X9296245Y9164632D01*
X9297184Y9163458D01*
X9298122Y9162050D01*
X9299179Y9160642D01*
X9300117Y9159116D01*
X9300939Y9157356D01*
X9301878Y9155596D01*
X9302582Y9153718D01*
X9303286Y9151606D01*
X9292724Y9149142D01*
Y9149259D01*
X9292607Y9149494D01*
X9292372Y9149963D01*
X9292138Y9150550D01*
X9291903Y9151254D01*
X9291551Y9152193D01*
X9290612Y9154070D01*
X9289439Y9156183D01*
X9288030Y9158295D01*
X9286270Y9160290D01*
X9284393Y9162050D01*
X9284158Y9162285D01*
X9283454Y9162754D01*
X9282280Y9163341D01*
X9280755Y9164162D01*
X9278760Y9164866D01*
X9276530Y9165570D01*
X9273831Y9166040D01*
X9270898Y9166157D01*
X9269959D01*
X9269372Y9166040D01*
X9268551D01*
X9267612Y9165922D01*
X9265382Y9165570D01*
X9262918Y9165101D01*
X9260336Y9164280D01*
X9257637Y9163106D01*
X9255173Y9161581D01*
X9255056D01*
X9254938Y9161346D01*
X9254117Y9160759D01*
X9253061Y9159820D01*
X9251770Y9158412D01*
X9250244Y9156652D01*
X9248836Y9154657D01*
X9247545Y9152193D01*
X9246372Y9149494D01*
Y9149376D01*
X9246255Y9149142D01*
X9246137Y9148790D01*
X9246020Y9148203D01*
X9245785Y9147499D01*
X9245550Y9146677D01*
X9245198Y9144682D01*
X9244729Y9142336D01*
X9244260Y9139754D01*
X9244025Y9136938D01*
X9243908Y9133886D01*
Y9133769D01*
Y9133417D01*
Y9132830D01*
Y9132126D01*
X9244025Y9131305D01*
Y9130249D01*
X9244142Y9129075D01*
X9244260Y9127784D01*
X9244612Y9124968D01*
X9245198Y9121917D01*
X9245903Y9118866D01*
X9246841Y9115815D01*
Y9115698D01*
X9246959Y9115463D01*
X9247193Y9115111D01*
X9247428Y9114524D01*
X9248132Y9113116D01*
X9249188Y9111473D01*
X9250479Y9109595D01*
X9252122Y9107601D01*
X9254000Y9105840D01*
X9256229Y9104197D01*
X9256346D01*
X9256581Y9104080D01*
X9256933Y9103845D01*
X9257403Y9103611D01*
X9257989Y9103376D01*
X9258693Y9103024D01*
X9260336Y9102320D01*
X9262449Y9101616D01*
X9264796Y9101029D01*
X9267377Y9100560D01*
X9270076Y9100442D01*
X9270898D01*
X9271602Y9100560D01*
X9272423D01*
X9273245Y9100677D01*
X9275357Y9101146D01*
X9277821Y9101733D01*
X9280285Y9102672D01*
X9282867Y9103963D01*
X9284158Y9104667D01*
X9285331Y9105606D01*
X9285449Y9105723D01*
X9285566Y9105840D01*
X9285918Y9106192D01*
X9286388Y9106544D01*
X9286857Y9107131D01*
X9287444Y9107835D01*
X9288148Y9108539D01*
X9288735Y9109478D01*
X9289439Y9110534D01*
X9290260Y9111708D01*
X9290964Y9112881D01*
X9291668Y9114289D01*
X9292255Y9115815D01*
X9292842Y9117458D01*
X9293428Y9119218D01*
X9293898Y9121096D01*
X9304694Y9118397D01*
Y9118279D01*
X9304577Y9117810D01*
X9304342Y9117106D01*
X9303990Y9116167D01*
X9303638Y9115111D01*
X9303168Y9113820D01*
X9302582Y9112412D01*
X9301878Y9110886D01*
X9300235Y9107601D01*
X9298122Y9104315D01*
X9296832Y9102672D01*
X9295541Y9101029D01*
X9294133Y9099621D01*
X9292490Y9098213D01*
X9292372Y9098095D01*
X9292138Y9097861D01*
X9291551Y9097626D01*
X9290964Y9097157D01*
X9290025Y9096570D01*
X9289087Y9095983D01*
X9287796Y9095396D01*
X9286505Y9094810D01*
X9284979Y9094106D01*
X9283337Y9093519D01*
X9281576Y9092932D01*
X9279699Y9092345D01*
X9277704Y9091876D01*
X9275592Y9091641D01*
X9273362Y9091407D01*
X9271015Y9091289D01*
X9269724D01*
X9268785Y9091407D01*
X9267729D01*
X9266438Y9091524D01*
X9265030Y9091759D01*
X9263387Y9091993D01*
X9259984Y9092580D01*
X9256464Y9093519D01*
X9252943Y9094810D01*
X9251301Y9095631D01*
X9249658Y9096570D01*
X9249540Y9096687D01*
X9249306Y9096805D01*
X9248836Y9097157D01*
X9248367Y9097626D01*
X9247663Y9098095D01*
X9246841Y9098799D01*
X9245903Y9099621D01*
X9244964Y9100560D01*
X9244025Y9101616D01*
X9242969Y9102672D01*
X9240857Y9105371D01*
X9238862Y9108539D01*
X9237101Y9112060D01*
Y9112177D01*
X9236867Y9112529D01*
X9236749Y9113116D01*
X9236397Y9113820D01*
X9236163Y9114759D01*
X9235811Y9115932D01*
X9235341Y9117223D01*
X9234989Y9118631D01*
X9234637Y9120157D01*
X9234168Y9121917D01*
X9233581Y9125555D01*
X9233112Y9129662D01*
X9232877Y9133886D01*
Y9134004D01*
Y9134473D01*
Y9135177D01*
X9232994Y9135999D01*
Y9137172D01*
X9233112Y9138346D01*
X9233229Y9139871D01*
X9233464Y9141397D01*
X9234050Y9144800D01*
X9234872Y9148555D01*
X9236045Y9152310D01*
X9237688Y9155948D01*
X9237806Y9156065D01*
X9237923Y9156417D01*
X9238158Y9156887D01*
X9238627Y9157473D01*
X9239096Y9158295D01*
X9239683Y9159234D01*
X9241209Y9161346D01*
X9243204Y9163693D01*
X9245550Y9166040D01*
X9248249Y9168387D01*
X9251418Y9170382D01*
X9251535Y9170499D01*
X9251887Y9170616D01*
X9252357Y9170851D01*
X9252943Y9171203D01*
X9253882Y9171555D01*
X9254821Y9171907D01*
X9255994Y9172377D01*
X9257285Y9172846D01*
X9258693Y9173315D01*
X9260219Y9173785D01*
X9263505Y9174489D01*
X9267260Y9175076D01*
X9271132Y9175310D01*
X9272306D01*
X9273127Y9175193D01*
D02*
G37*
G36*
X9367123Y9164984D02*
X9367006Y9164866D01*
X9366771Y9164632D01*
X9366302Y9164162D01*
X9365832Y9163458D01*
X9365128Y9162637D01*
X9364189Y9161698D01*
X9363251Y9160524D01*
X9362194Y9159116D01*
X9361138Y9157708D01*
X9359847Y9156065D01*
X9358557Y9154188D01*
X9357266Y9152310D01*
X9355858Y9150198D01*
X9354449Y9147968D01*
X9353041Y9145504D01*
X9351633Y9143040D01*
X9351516Y9142922D01*
X9351281Y9142453D01*
X9350929Y9141749D01*
X9350342Y9140693D01*
X9349755Y9139402D01*
X9349051Y9137994D01*
X9348230Y9136351D01*
X9347409Y9134473D01*
X9346470Y9132361D01*
X9345414Y9130249D01*
X9344475Y9127902D01*
X9343536Y9125437D01*
X9341658Y9120391D01*
X9339898Y9114993D01*
Y9114876D01*
X9339781Y9114524D01*
X9339664Y9113937D01*
X9339429Y9113233D01*
X9339194Y9112294D01*
X9338959Y9111121D01*
X9338607Y9109830D01*
X9338373Y9108422D01*
X9338021Y9106779D01*
X9337669Y9105019D01*
X9337082Y9101264D01*
X9336495Y9097157D01*
X9336143Y9092697D01*
X9325934D01*
Y9092815D01*
Y9093167D01*
Y9093636D01*
X9326051Y9094340D01*
Y9095279D01*
X9326169Y9096452D01*
X9326286Y9097743D01*
X9326403Y9099151D01*
X9326638Y9100794D01*
X9326873Y9102437D01*
X9327225Y9104432D01*
X9327577Y9106427D01*
X9327929Y9108539D01*
X9328398Y9110886D01*
X9329572Y9115698D01*
Y9115815D01*
X9329689Y9116284D01*
X9329924Y9116988D01*
X9330276Y9118045D01*
X9330628Y9119218D01*
X9331097Y9120626D01*
X9331567Y9122269D01*
X9332271Y9124029D01*
X9332975Y9126024D01*
X9333679Y9128019D01*
X9335439Y9132478D01*
X9337551Y9137172D01*
X9339898Y9141866D01*
X9340016Y9141983D01*
X9340250Y9142453D01*
X9340602Y9143040D01*
X9341072Y9143978D01*
X9341658Y9145035D01*
X9342480Y9146325D01*
X9343301Y9147734D01*
X9344240Y9149259D01*
X9346470Y9152662D01*
X9348817Y9156183D01*
X9351516Y9159820D01*
X9354332Y9163223D01*
X9314551D01*
Y9172846D01*
X9367123D01*
Y9164984D01*
D02*
G37*
G36*
X9273069Y9632393D02*
X9274125Y9632276D01*
X9275416Y9632158D01*
X9276706Y9632041D01*
X9278232Y9631689D01*
X9281400Y9630985D01*
X9284921Y9629929D01*
X9286681Y9629225D01*
X9288324Y9628403D01*
X9289967Y9627347D01*
X9291610Y9626291D01*
X9291727Y9626174D01*
X9291962Y9626056D01*
X9292431Y9625704D01*
X9293018Y9625117D01*
X9293604Y9624531D01*
X9294426Y9623709D01*
X9295247Y9622770D01*
X9296186Y9621832D01*
X9297125Y9620658D01*
X9298064Y9619250D01*
X9299120Y9617842D01*
X9300059Y9616316D01*
X9300880Y9614556D01*
X9301819Y9612796D01*
X9302523Y9610918D01*
X9303227Y9608806D01*
X9292666Y9606342D01*
Y9606459D01*
X9292548Y9606694D01*
X9292314Y9607163D01*
X9292079Y9607750D01*
X9291844Y9608454D01*
X9291492Y9609393D01*
X9290553Y9611270D01*
X9289380Y9613383D01*
X9287972Y9615495D01*
X9286212Y9617490D01*
X9284334Y9619250D01*
X9284099Y9619485D01*
X9283395Y9619954D01*
X9282222Y9620541D01*
X9280696Y9621362D01*
X9278701Y9622066D01*
X9276472Y9622770D01*
X9273773Y9623240D01*
X9270839Y9623357D01*
X9269900D01*
X9269313Y9623240D01*
X9268492D01*
X9267553Y9623122D01*
X9265324Y9622770D01*
X9262859Y9622301D01*
X9260278Y9621480D01*
X9257579Y9620306D01*
X9255114Y9618781D01*
X9254997D01*
X9254880Y9618546D01*
X9254058Y9617959D01*
X9253002Y9617020D01*
X9251711Y9615612D01*
X9250186Y9613852D01*
X9248778Y9611857D01*
X9247487Y9609393D01*
X9246313Y9606694D01*
Y9606576D01*
X9246196Y9606342D01*
X9246079Y9605990D01*
X9245961Y9605403D01*
X9245726Y9604699D01*
X9245492Y9603877D01*
X9245140Y9601882D01*
X9244670Y9599536D01*
X9244201Y9596954D01*
X9243966Y9594138D01*
X9243849Y9591086D01*
Y9590969D01*
Y9590617D01*
Y9590030D01*
Y9589326D01*
X9243966Y9588505D01*
Y9587449D01*
X9244084Y9586275D01*
X9244201Y9584984D01*
X9244553Y9582168D01*
X9245140Y9579117D01*
X9245844Y9576066D01*
X9246783Y9573015D01*
Y9572898D01*
X9246900Y9572663D01*
X9247135Y9572311D01*
X9247369Y9571724D01*
X9248073Y9570316D01*
X9249130Y9568673D01*
X9250420Y9566795D01*
X9252063Y9564801D01*
X9253941Y9563040D01*
X9256170Y9561397D01*
X9256288D01*
X9256523Y9561280D01*
X9256875Y9561045D01*
X9257344Y9560811D01*
X9257931Y9560576D01*
X9258635Y9560224D01*
X9260278Y9559520D01*
X9262390Y9558816D01*
X9264737Y9558229D01*
X9267319Y9557760D01*
X9270018Y9557642D01*
X9270839D01*
X9271543Y9557760D01*
X9272364D01*
X9273186Y9557877D01*
X9275298Y9558346D01*
X9277762Y9558933D01*
X9280227Y9559872D01*
X9282808Y9561163D01*
X9284099Y9561867D01*
X9285273Y9562806D01*
X9285390Y9562923D01*
X9285507Y9563040D01*
X9285860Y9563392D01*
X9286329Y9563744D01*
X9286798Y9564331D01*
X9287385Y9565035D01*
X9288089Y9565739D01*
X9288676Y9566678D01*
X9289380Y9567734D01*
X9290201Y9568908D01*
X9290905Y9570081D01*
X9291610Y9571489D01*
X9292196Y9573015D01*
X9292783Y9574658D01*
X9293370Y9576418D01*
X9293839Y9578296D01*
X9304635Y9575597D01*
Y9575479D01*
X9304518Y9575010D01*
X9304283Y9574306D01*
X9303931Y9573367D01*
X9303579Y9572311D01*
X9303110Y9571020D01*
X9302523Y9569612D01*
X9301819Y9568086D01*
X9300176Y9564801D01*
X9298064Y9561515D01*
X9296773Y9559872D01*
X9295482Y9558229D01*
X9294074Y9556821D01*
X9292431Y9555413D01*
X9292314Y9555295D01*
X9292079Y9555061D01*
X9291492Y9554826D01*
X9290905Y9554357D01*
X9289967Y9553770D01*
X9289028Y9553183D01*
X9287737Y9552596D01*
X9286446Y9552010D01*
X9284921Y9551306D01*
X9283278Y9550719D01*
X9281518Y9550132D01*
X9279640Y9549545D01*
X9277645Y9549076D01*
X9275533Y9548841D01*
X9273303Y9548607D01*
X9270956Y9548489D01*
X9269665D01*
X9268727Y9548607D01*
X9267671D01*
X9266380Y9548724D01*
X9264972Y9548959D01*
X9263329Y9549193D01*
X9259926Y9549780D01*
X9256405Y9550719D01*
X9252885Y9552010D01*
X9251242Y9552831D01*
X9249599Y9553770D01*
X9249482Y9553887D01*
X9249247Y9554005D01*
X9248778Y9554357D01*
X9248308Y9554826D01*
X9247604Y9555295D01*
X9246783Y9555999D01*
X9245844Y9556821D01*
X9244905Y9557760D01*
X9243966Y9558816D01*
X9242910Y9559872D01*
X9240798Y9562571D01*
X9238803Y9565739D01*
X9237043Y9569260D01*
Y9569377D01*
X9236808Y9569729D01*
X9236691Y9570316D01*
X9236339Y9571020D01*
X9236104Y9571959D01*
X9235752Y9573132D01*
X9235283Y9574423D01*
X9234930Y9575831D01*
X9234578Y9577357D01*
X9234109Y9579117D01*
X9233522Y9582755D01*
X9233053Y9586862D01*
X9232818Y9591086D01*
Y9591204D01*
Y9591673D01*
Y9592377D01*
X9232936Y9593199D01*
Y9594372D01*
X9233053Y9595546D01*
X9233170Y9597071D01*
X9233405Y9598597D01*
X9233992Y9602000D01*
X9234813Y9605755D01*
X9235987Y9609510D01*
X9237629Y9613148D01*
X9237747Y9613265D01*
X9237864Y9613617D01*
X9238099Y9614087D01*
X9238568Y9614673D01*
X9239038Y9615495D01*
X9239624Y9616434D01*
X9241150Y9618546D01*
X9243145Y9620893D01*
X9245492Y9623240D01*
X9248191Y9625587D01*
X9251359Y9627582D01*
X9251477Y9627699D01*
X9251829Y9627816D01*
X9252298Y9628051D01*
X9252885Y9628403D01*
X9253824Y9628755D01*
X9254762Y9629107D01*
X9255936Y9629577D01*
X9257227Y9630046D01*
X9258635Y9630515D01*
X9260160Y9630985D01*
X9263446Y9631689D01*
X9267201Y9632276D01*
X9271074Y9632510D01*
X9272247D01*
X9273069Y9632393D01*
D02*
G37*
G36*
X9341952Y9631337D02*
X9342891Y9631219D01*
X9343947Y9631102D01*
X9345120Y9630985D01*
X9346294Y9630633D01*
X9349110Y9629929D01*
X9351926Y9628873D01*
X9353335Y9628168D01*
X9354743Y9627347D01*
X9356034Y9626291D01*
X9357324Y9625235D01*
X9357442Y9625117D01*
X9357559Y9625000D01*
X9357911Y9624648D01*
X9358381Y9624179D01*
X9358850Y9623475D01*
X9359437Y9622770D01*
X9360610Y9621010D01*
X9361784Y9618781D01*
X9362840Y9616199D01*
X9363661Y9613265D01*
X9363779Y9611740D01*
X9363896Y9610097D01*
Y9609980D01*
Y9609862D01*
Y9609158D01*
X9363779Y9608102D01*
X9363544Y9606811D01*
X9363192Y9605168D01*
X9362605Y9603525D01*
X9361901Y9601882D01*
X9360845Y9600240D01*
X9360728Y9600005D01*
X9360258Y9599536D01*
X9359554Y9598831D01*
X9358615Y9597893D01*
X9357324Y9596837D01*
X9355799Y9595780D01*
X9354039Y9594724D01*
X9351926Y9593785D01*
X9352044D01*
X9352278Y9593668D01*
X9352631Y9593551D01*
X9353100Y9593316D01*
X9354508Y9592729D01*
X9356151Y9591908D01*
X9357911Y9590734D01*
X9359789Y9589444D01*
X9361549Y9587801D01*
X9363192Y9585923D01*
Y9585806D01*
X9363309Y9585688D01*
X9363779Y9584984D01*
X9364483Y9583811D01*
X9365187Y9582285D01*
X9365891Y9580408D01*
X9366595Y9578178D01*
X9367064Y9575714D01*
X9367182Y9573015D01*
Y9572898D01*
Y9572545D01*
Y9571959D01*
X9367064Y9571255D01*
X9366947Y9570433D01*
X9366830Y9569377D01*
X9366595Y9568204D01*
X9366243Y9566913D01*
X9365421Y9564214D01*
X9364835Y9562688D01*
X9364013Y9561280D01*
X9363192Y9559755D01*
X9362253Y9558346D01*
X9361080Y9556938D01*
X9359789Y9555530D01*
X9359671Y9555413D01*
X9359437Y9555178D01*
X9359085Y9554826D01*
X9358498Y9554474D01*
X9357676Y9553887D01*
X9356855Y9553300D01*
X9355799Y9552714D01*
X9354625Y9552010D01*
X9353335Y9551306D01*
X9351809Y9550719D01*
X9350166Y9550132D01*
X9348523Y9549545D01*
X9346646Y9549193D01*
X9344651Y9548841D01*
X9342656Y9548607D01*
X9340426Y9548489D01*
X9339253D01*
X9338431Y9548607D01*
X9337375Y9548724D01*
X9336202Y9548841D01*
X9334911Y9549076D01*
X9333503Y9549428D01*
X9330334Y9550249D01*
X9328692Y9550836D01*
X9327166Y9551423D01*
X9325523Y9552244D01*
X9323880Y9553183D01*
X9322355Y9554239D01*
X9320947Y9555530D01*
X9320829Y9555647D01*
X9320595Y9555882D01*
X9320242Y9556234D01*
X9319773Y9556821D01*
X9319304Y9557525D01*
X9318600Y9558346D01*
X9318013Y9559285D01*
X9317309Y9560459D01*
X9316605Y9561632D01*
X9316018Y9563040D01*
X9314844Y9565974D01*
X9314375Y9567734D01*
X9314023Y9569494D01*
X9313788Y9571372D01*
X9313671Y9573250D01*
Y9573367D01*
Y9573602D01*
Y9574071D01*
X9313788Y9574540D01*
Y9575245D01*
X9313906Y9576066D01*
X9314140Y9577944D01*
X9314610Y9580056D01*
X9315314Y9582168D01*
X9316370Y9584398D01*
X9317661Y9586510D01*
Y9586627D01*
X9317896Y9586745D01*
X9318365Y9587331D01*
X9319304Y9588270D01*
X9320595Y9589444D01*
X9322237Y9590617D01*
X9324232Y9591908D01*
X9326462Y9592964D01*
X9329161Y9593785D01*
X9329044D01*
X9328926Y9593903D01*
X9328574Y9594020D01*
X9328105Y9594255D01*
X9327049Y9594724D01*
X9325640Y9595428D01*
X9324115Y9596367D01*
X9322589Y9597541D01*
X9321181Y9598831D01*
X9319890Y9600240D01*
X9319773Y9600474D01*
X9319421Y9600944D01*
X9318952Y9601882D01*
X9318482Y9603056D01*
X9317896Y9604582D01*
X9317426Y9606342D01*
X9317074Y9608337D01*
X9316957Y9610449D01*
Y9610566D01*
Y9610801D01*
Y9611270D01*
X9317074Y9611974D01*
X9317191Y9612679D01*
X9317309Y9613617D01*
X9317778Y9615612D01*
X9318482Y9617959D01*
X9319656Y9620423D01*
X9320360Y9621714D01*
X9321181Y9623005D01*
X9322237Y9624179D01*
X9323294Y9625352D01*
X9323411Y9625469D01*
X9323646Y9625587D01*
X9323998Y9625939D01*
X9324467Y9626291D01*
X9325054Y9626760D01*
X9325875Y9627230D01*
X9326814Y9627816D01*
X9327753Y9628403D01*
X9328926Y9628990D01*
X9330217Y9629577D01*
X9331625Y9630046D01*
X9333151Y9630515D01*
X9336436Y9631219D01*
X9338314Y9631337D01*
X9340192Y9631454D01*
X9341248D01*
X9341952Y9631337D01*
D02*
G37*
G36*
X10922229Y9267064D02*
X10923754D01*
X10925515Y9266947D01*
X10927275Y9266712D01*
X10931265Y9266360D01*
X10935489Y9265773D01*
X10939479Y9264952D01*
X10941474Y9264365D01*
X10943234Y9263779D01*
X10943351D01*
X10943586Y9263661D01*
X10944056Y9263426D01*
X10944760Y9263192D01*
X10945464Y9262840D01*
X10946403Y9262370D01*
X10948397Y9261197D01*
X10950627Y9259789D01*
X10952974Y9258146D01*
X10955204Y9256034D01*
X10957199Y9253687D01*
Y9253569D01*
X10957433Y9253335D01*
X10957668Y9252983D01*
X10957903Y9252513D01*
X10958255Y9251809D01*
X10958724Y9251105D01*
X10959193Y9250166D01*
X10959546Y9249227D01*
X10960484Y9246998D01*
X10961306Y9244299D01*
X10961775Y9241365D01*
X10962010Y9238079D01*
Y9237141D01*
X10961892Y9236554D01*
Y9235732D01*
X10961775Y9234794D01*
X10961306Y9232564D01*
X10960719Y9230100D01*
X10959780Y9227518D01*
X10958489Y9224936D01*
X10957668Y9223646D01*
X10956729Y9222472D01*
X10956612Y9222355D01*
X10956494Y9222237D01*
X10956142Y9221885D01*
X10955790Y9221533D01*
X10955204Y9221064D01*
X10954500Y9220477D01*
X10952857Y9219304D01*
X10950744Y9218130D01*
X10948163Y9216957D01*
X10945229Y9216018D01*
X10941826Y9215314D01*
X10941005Y9224936D01*
X10941122D01*
X10941357Y9225054D01*
X10941591D01*
X10942061Y9225171D01*
X10943351Y9225523D01*
X10944760Y9225992D01*
X10946403Y9226579D01*
X10948045Y9227401D01*
X10949571Y9228339D01*
X10950862Y9229513D01*
X10950979Y9229630D01*
X10951331Y9230100D01*
X10951801Y9230921D01*
X10952270Y9231860D01*
X10952857Y9233151D01*
X10953326Y9234676D01*
X10953678Y9236436D01*
X10953795Y9238314D01*
Y9239135D01*
X10953678Y9239957D01*
X10953561Y9241013D01*
X10953326Y9242304D01*
X10952974Y9243595D01*
X10952505Y9245003D01*
X10951801Y9246294D01*
X10951683Y9246411D01*
X10951449Y9246880D01*
X10950979Y9247585D01*
X10950275Y9248289D01*
X10949454Y9249227D01*
X10948515Y9250166D01*
X10947459Y9251105D01*
X10946168Y9252044D01*
X10946050Y9252161D01*
X10945464Y9252396D01*
X10944642Y9252865D01*
X10943586Y9253335D01*
X10942178Y9253921D01*
X10940535Y9254508D01*
X10938658Y9255095D01*
X10936545Y9255682D01*
X10936428D01*
X10936311Y9255799D01*
X10935959D01*
X10935489Y9255916D01*
X10934316Y9256151D01*
X10932790Y9256503D01*
X10930913Y9256738D01*
X10928918Y9256972D01*
X10926688Y9257090D01*
X10924341Y9257207D01*
X10924224D01*
X10923872D01*
X10923285D01*
X10922346D01*
X10922581Y9257090D01*
X10923168Y9256620D01*
X10923989Y9255916D01*
X10925163Y9255095D01*
X10926336Y9253921D01*
X10927627Y9252513D01*
X10928918Y9250870D01*
X10930091Y9248993D01*
X10930209Y9248758D01*
X10930561Y9248054D01*
X10931030Y9246998D01*
X10931499Y9245707D01*
X10932086Y9243947D01*
X10932555Y9242069D01*
X10932908Y9239957D01*
X10933025Y9237727D01*
Y9236788D01*
X10932908Y9236084D01*
X10932790Y9235146D01*
X10932673Y9234207D01*
X10932438Y9233033D01*
X10932086Y9231860D01*
X10931265Y9229161D01*
X10930678Y9227753D01*
X10929974Y9226345D01*
X10929152Y9224819D01*
X10928096Y9223411D01*
X10927040Y9222003D01*
X10925749Y9220712D01*
X10925632Y9220594D01*
X10925397Y9220360D01*
X10925045Y9220125D01*
X10924458Y9219656D01*
X10923637Y9219069D01*
X10922816Y9218482D01*
X10921759Y9217895D01*
X10920586Y9217309D01*
X10919295Y9216605D01*
X10917887Y9216018D01*
X10916244Y9215431D01*
X10914601Y9214844D01*
X10912724Y9214375D01*
X10910729Y9214140D01*
X10908734Y9213906D01*
X10906504Y9213788D01*
X10906387D01*
X10905917D01*
X10905331D01*
X10904509Y9213906D01*
X10903453Y9214023D01*
X10902162Y9214140D01*
X10900872Y9214375D01*
X10899346Y9214727D01*
X10896295Y9215548D01*
X10894652Y9216135D01*
X10892892Y9216839D01*
X10891249Y9217661D01*
X10889723Y9218717D01*
X10888081Y9219773D01*
X10886672Y9221064D01*
X10886555Y9221181D01*
X10886320Y9221416D01*
X10885968Y9221768D01*
X10885499Y9222355D01*
X10884912Y9223059D01*
X10884208Y9223998D01*
X10883621Y9224936D01*
X10882800Y9226110D01*
X10882096Y9227283D01*
X10881509Y9228691D01*
X10880218Y9231860D01*
X10879749Y9233503D01*
X10879397Y9235380D01*
X10879162Y9237258D01*
X10879045Y9239253D01*
Y9240074D01*
X10879162Y9240661D01*
Y9241248D01*
X10879279Y9242069D01*
X10879632Y9244064D01*
X10880101Y9246294D01*
X10880922Y9248758D01*
X10881978Y9251222D01*
X10883387Y9253687D01*
Y9253804D01*
X10883621Y9253921D01*
X10883856Y9254273D01*
X10884208Y9254743D01*
X10885147Y9255916D01*
X10886438Y9257442D01*
X10888198Y9258967D01*
X10890310Y9260727D01*
X10892775Y9262253D01*
X10895591Y9263661D01*
X10895708D01*
X10895943Y9263779D01*
X10896412Y9264013D01*
X10896999Y9264248D01*
X10897820Y9264483D01*
X10898877Y9264835D01*
X10900050Y9265069D01*
X10901341Y9265421D01*
X10902866Y9265773D01*
X10904627Y9266125D01*
X10906504Y9266360D01*
X10908499Y9266595D01*
X10910729Y9266830D01*
X10913076Y9267064D01*
X10915657Y9267182D01*
X10918356D01*
X10918474D01*
X10919060D01*
X10919882D01*
X10920938D01*
X10922229Y9267064D01*
D02*
G37*
G36*
X10935489Y9204518D02*
X10936193Y9204283D01*
X10937132Y9203931D01*
X10938188Y9203579D01*
X10939479Y9203110D01*
X10940887Y9202523D01*
X10942413Y9201819D01*
X10945698Y9200176D01*
X10948984Y9198064D01*
X10950627Y9196773D01*
X10952270Y9195482D01*
X10953678Y9194074D01*
X10955086Y9192431D01*
X10955204Y9192314D01*
X10955438Y9192079D01*
X10955673Y9191492D01*
X10956142Y9190905D01*
X10956729Y9189967D01*
X10957316Y9189028D01*
X10957903Y9187737D01*
X10958489Y9186446D01*
X10959193Y9184921D01*
X10959780Y9183278D01*
X10960367Y9181518D01*
X10960954Y9179640D01*
X10961423Y9177645D01*
X10961658Y9175533D01*
X10961892Y9173303D01*
X10962010Y9170956D01*
Y9169665D01*
X10961892Y9168727D01*
Y9167671D01*
X10961775Y9166380D01*
X10961540Y9164972D01*
X10961306Y9163329D01*
X10960719Y9159926D01*
X10959780Y9156405D01*
X10958489Y9152885D01*
X10957668Y9151242D01*
X10956729Y9149599D01*
X10956612Y9149482D01*
X10956494Y9149247D01*
X10956142Y9148777D01*
X10955673Y9148308D01*
X10955204Y9147604D01*
X10954500Y9146783D01*
X10953678Y9145844D01*
X10952739Y9144905D01*
X10951683Y9143966D01*
X10950627Y9142910D01*
X10947928Y9140798D01*
X10944760Y9138803D01*
X10941239Y9137043D01*
X10941122D01*
X10940770Y9136808D01*
X10940183Y9136691D01*
X10939479Y9136339D01*
X10938540Y9136104D01*
X10937367Y9135752D01*
X10936076Y9135282D01*
X10934668Y9134930D01*
X10933142Y9134578D01*
X10931382Y9134109D01*
X10927744Y9133522D01*
X10923637Y9133053D01*
X10919413Y9132818D01*
X10919295D01*
X10918826D01*
X10918122D01*
X10917300Y9132936D01*
X10916127D01*
X10914953Y9133053D01*
X10913428Y9133170D01*
X10911902Y9133405D01*
X10908499Y9133992D01*
X10904744Y9134813D01*
X10900989Y9135987D01*
X10897351Y9137629D01*
X10897234Y9137747D01*
X10896882Y9137864D01*
X10896412Y9138099D01*
X10895826Y9138568D01*
X10895004Y9139038D01*
X10894065Y9139624D01*
X10891953Y9141150D01*
X10889606Y9143145D01*
X10887259Y9145492D01*
X10884912Y9148191D01*
X10882917Y9151359D01*
X10882800Y9151476D01*
X10882683Y9151829D01*
X10882448Y9152298D01*
X10882096Y9152885D01*
X10881744Y9153823D01*
X10881392Y9154762D01*
X10880922Y9155936D01*
X10880453Y9157227D01*
X10879984Y9158635D01*
X10879514Y9160160D01*
X10878810Y9163446D01*
X10878223Y9167201D01*
X10877989Y9171074D01*
Y9172247D01*
X10878106Y9173069D01*
X10878223Y9174125D01*
X10878341Y9175415D01*
X10878458Y9176706D01*
X10878810Y9178232D01*
X10879514Y9181400D01*
X10880570Y9184921D01*
X10881274Y9186681D01*
X10882096Y9188324D01*
X10883152Y9189967D01*
X10884208Y9191610D01*
X10884325Y9191727D01*
X10884443Y9191962D01*
X10884795Y9192431D01*
X10885382Y9193018D01*
X10885968Y9193604D01*
X10886790Y9194426D01*
X10887729Y9195247D01*
X10888667Y9196186D01*
X10889841Y9197125D01*
X10891249Y9198064D01*
X10892657Y9199120D01*
X10894183Y9200059D01*
X10895943Y9200880D01*
X10897703Y9201819D01*
X10899581Y9202523D01*
X10901693Y9203227D01*
X10904157Y9192666D01*
X10904040D01*
X10903805Y9192548D01*
X10903336Y9192314D01*
X10902749Y9192079D01*
X10902045Y9191844D01*
X10901106Y9191492D01*
X10899229Y9190553D01*
X10897116Y9189380D01*
X10895004Y9187972D01*
X10893009Y9186211D01*
X10891249Y9184334D01*
X10891014Y9184099D01*
X10890545Y9183395D01*
X10889958Y9182222D01*
X10889137Y9180696D01*
X10888433Y9178701D01*
X10887729Y9176472D01*
X10887259Y9173773D01*
X10887142Y9170839D01*
Y9169900D01*
X10887259Y9169313D01*
Y9168492D01*
X10887376Y9167553D01*
X10887729Y9165324D01*
X10888198Y9162859D01*
X10889019Y9160278D01*
X10890193Y9157579D01*
X10891718Y9155114D01*
Y9154997D01*
X10891953Y9154880D01*
X10892540Y9154058D01*
X10893479Y9153002D01*
X10894887Y9151711D01*
X10896647Y9150186D01*
X10898642Y9148777D01*
X10901106Y9147487D01*
X10903805Y9146313D01*
X10903923D01*
X10904157Y9146196D01*
X10904509Y9146078D01*
X10905096Y9145961D01*
X10905800Y9145726D01*
X10906622Y9145492D01*
X10908616Y9145140D01*
X10910963Y9144670D01*
X10913545Y9144201D01*
X10916361Y9143966D01*
X10919413Y9143849D01*
X10919530D01*
X10919882D01*
X10920469D01*
X10921173D01*
X10921994Y9143966D01*
X10923050D01*
X10924224Y9144084D01*
X10925515Y9144201D01*
X10928331Y9144553D01*
X10931382Y9145140D01*
X10934433Y9145844D01*
X10937484Y9146783D01*
X10937601D01*
X10937836Y9146900D01*
X10938188Y9147135D01*
X10938775Y9147369D01*
X10940183Y9148073D01*
X10941826Y9149130D01*
X10943704Y9150420D01*
X10945698Y9152063D01*
X10947459Y9153941D01*
X10949102Y9156170D01*
Y9156288D01*
X10949219Y9156522D01*
X10949454Y9156874D01*
X10949688Y9157344D01*
X10949923Y9157931D01*
X10950275Y9158635D01*
X10950979Y9160278D01*
X10951683Y9162390D01*
X10952270Y9164737D01*
X10952739Y9167318D01*
X10952857Y9170017D01*
Y9170839D01*
X10952739Y9171543D01*
Y9172364D01*
X10952622Y9173186D01*
X10952153Y9175298D01*
X10951566Y9177762D01*
X10950627Y9180227D01*
X10949336Y9182808D01*
X10948632Y9184099D01*
X10947693Y9185273D01*
X10947576Y9185390D01*
X10947459Y9185507D01*
X10947107Y9185859D01*
X10946755Y9186329D01*
X10946168Y9186798D01*
X10945464Y9187385D01*
X10944760Y9188089D01*
X10943821Y9188676D01*
X10942765Y9189380D01*
X10941591Y9190201D01*
X10940418Y9190905D01*
X10939010Y9191610D01*
X10937484Y9192196D01*
X10935841Y9192783D01*
X10934081Y9193370D01*
X10932203Y9193839D01*
X10934902Y9204635D01*
X10935020D01*
X10935489Y9204518D01*
D02*
G37*
G36*
X8239132Y10729942D02*
Y10729825D01*
Y10729473D01*
Y10729003D01*
Y10728299D01*
X8239014Y10727361D01*
Y10726422D01*
X8238780Y10724192D01*
X8238545Y10721611D01*
X8238075Y10718912D01*
X8237371Y10716447D01*
X8236550Y10714100D01*
Y10713983D01*
X8236433Y10713866D01*
X8236081Y10713161D01*
X8235494Y10712223D01*
X8234672Y10710932D01*
X8233499Y10709641D01*
X8232208Y10708233D01*
X8230565Y10706825D01*
X8228688Y10705651D01*
X8228453Y10705534D01*
X8227749Y10705182D01*
X8226693Y10704712D01*
X8225167Y10704243D01*
X8223290Y10703656D01*
X8221177Y10703187D01*
X8218830Y10702835D01*
X8216249Y10702717D01*
X8215193D01*
X8214489Y10702835D01*
X8213550Y10702952D01*
X8212611Y10703070D01*
X8210147Y10703539D01*
X8207565Y10704243D01*
X8204866Y10705299D01*
X8203458Y10706003D01*
X8202167Y10706825D01*
X8200994Y10707763D01*
X8199820Y10708820D01*
X8199703Y10708937D01*
X8199585Y10709054D01*
X8199351Y10709524D01*
X8198999Y10709993D01*
X8198529Y10710580D01*
X8198060Y10711401D01*
X8197590Y10712340D01*
X8197004Y10713396D01*
X8196534Y10714570D01*
X8196065Y10715978D01*
X8195595Y10717386D01*
X8195126Y10719029D01*
X8194891Y10720789D01*
X8194539Y10722784D01*
X8194422Y10724779D01*
Y10727009D01*
X8204162Y10728417D01*
Y10728299D01*
Y10728065D01*
Y10727595D01*
X8204279Y10726891D01*
X8204397Y10726187D01*
Y10725366D01*
X8204749Y10723371D01*
X8205101Y10721258D01*
X8205805Y10719146D01*
X8206509Y10717269D01*
X8206978Y10716447D01*
X8207565Y10715743D01*
X8207682Y10715626D01*
X8208152Y10715274D01*
X8208856Y10714687D01*
X8209795Y10714100D01*
X8211085Y10713396D01*
X8212494Y10712927D01*
X8214254Y10712457D01*
X8216131Y10712340D01*
X8216835D01*
X8217540Y10712457D01*
X8218596Y10712575D01*
X8219652Y10712809D01*
X8220825Y10713044D01*
X8221999Y10713513D01*
X8223172Y10714100D01*
X8223290Y10714218D01*
X8223642Y10714452D01*
X8224111Y10714922D01*
X8224815Y10715391D01*
X8225402Y10716213D01*
X8226106Y10717034D01*
X8226693Y10717973D01*
X8227162Y10719146D01*
Y10719264D01*
X8227397Y10719733D01*
X8227514Y10720554D01*
X8227749Y10721611D01*
X8227984Y10723019D01*
X8228101Y10724779D01*
X8228336Y10726891D01*
Y10729355D01*
Y10785330D01*
X8239132D01*
Y10729942D01*
D02*
G37*
G36*
X8290178Y10704126D02*
X8280203D01*
Y10767611D01*
X8280086Y10767494D01*
X8279499Y10767024D01*
X8278795Y10766320D01*
X8277622Y10765499D01*
X8276331Y10764443D01*
X8274688Y10763269D01*
X8272810Y10761978D01*
X8270698Y10760687D01*
X8270581D01*
X8270464Y10760570D01*
X8269759Y10760101D01*
X8268586Y10759514D01*
X8267178Y10758810D01*
X8265535Y10757988D01*
X8263775Y10757167D01*
X8262014Y10756346D01*
X8260254Y10755641D01*
Y10765264D01*
X8260372D01*
X8260606Y10765499D01*
X8261076Y10765616D01*
X8261662Y10765968D01*
X8262367Y10766320D01*
X8263188Y10766789D01*
X8265183Y10767963D01*
X8267530Y10769254D01*
X8269877Y10770897D01*
X8272341Y10772774D01*
X8274805Y10774769D01*
X8274923Y10774887D01*
X8275040Y10775004D01*
X8275392Y10775356D01*
X8275862Y10775708D01*
X8276918Y10776881D01*
X8278326Y10778290D01*
X8279734Y10779932D01*
X8281260Y10781810D01*
X8282550Y10783688D01*
X8283724Y10785683D01*
X8290178D01*
Y10704126D01*
D02*
G37*
G36*
X9479193Y10785565D02*
X9480719Y10785330D01*
X9482596Y10784978D01*
X9484708Y10784392D01*
X9486821Y10783688D01*
X9488933Y10782749D01*
X9489050D01*
X9489168Y10782631D01*
X9489872Y10782279D01*
X9490928Y10781575D01*
X9492101Y10780754D01*
X9493510Y10779580D01*
X9494918Y10778290D01*
X9496326Y10776764D01*
X9497499Y10775004D01*
X9497617Y10774769D01*
X9497969Y10774182D01*
X9498438Y10773126D01*
X9499025Y10771835D01*
X9499612Y10770310D01*
X9500081Y10768550D01*
X9500433Y10766555D01*
X9500550Y10764560D01*
Y10764325D01*
Y10763621D01*
X9500433Y10762682D01*
X9500198Y10761391D01*
X9499846Y10759866D01*
X9499260Y10758223D01*
X9498556Y10756580D01*
X9497617Y10754937D01*
X9497499Y10754703D01*
X9497147Y10754233D01*
X9496443Y10753412D01*
X9495505Y10752473D01*
X9494331Y10751417D01*
X9492923Y10750243D01*
X9491280Y10749187D01*
X9489285Y10748131D01*
X9489402D01*
X9489637Y10748014D01*
X9489989Y10747896D01*
X9490459Y10747779D01*
X9491749Y10747310D01*
X9493392Y10746606D01*
X9495270Y10745667D01*
X9497147Y10744493D01*
X9498908Y10742968D01*
X9500550Y10741208D01*
X9500668Y10740973D01*
X9501137Y10740269D01*
X9501841Y10739095D01*
X9502545Y10737570D01*
X9503249Y10735692D01*
X9503954Y10733463D01*
X9504423Y10730881D01*
X9504540Y10728065D01*
Y10727947D01*
Y10727595D01*
Y10727009D01*
X9504423Y10726304D01*
X9504306Y10725366D01*
X9504071Y10724310D01*
X9503836Y10723136D01*
X9503602Y10721845D01*
X9502663Y10719029D01*
X9501959Y10717503D01*
X9501255Y10716095D01*
X9500316Y10714570D01*
X9499260Y10713044D01*
X9498086Y10711519D01*
X9496678Y10710110D01*
X9496561Y10709993D01*
X9496326Y10709758D01*
X9495857Y10709406D01*
X9495270Y10708937D01*
X9494566Y10708350D01*
X9493627Y10707763D01*
X9492571Y10707059D01*
X9491280Y10706473D01*
X9489989Y10705769D01*
X9488464Y10705064D01*
X9486938Y10704478D01*
X9485178Y10703891D01*
X9483300Y10703422D01*
X9481305Y10703070D01*
X9479310Y10702835D01*
X9477081Y10702717D01*
X9476025D01*
X9475321Y10702835D01*
X9474382Y10702952D01*
X9473326Y10703070D01*
X9472152Y10703304D01*
X9470861Y10703539D01*
X9468045Y10704243D01*
X9465111Y10705416D01*
X9463586Y10706121D01*
X9462178Y10706942D01*
X9460769Y10707998D01*
X9459361Y10709054D01*
X9459244Y10709172D01*
X9459009Y10709406D01*
X9458657Y10709758D01*
X9458305Y10710228D01*
X9457718Y10710814D01*
X9457132Y10711636D01*
X9456428Y10712457D01*
X9455724Y10713513D01*
X9455019Y10714687D01*
X9454315Y10715860D01*
X9453025Y10718677D01*
X9451968Y10721963D01*
X9451616Y10723723D01*
X9451382Y10725600D01*
X9461356Y10726891D01*
Y10726774D01*
X9461474Y10726539D01*
X9461591Y10726070D01*
X9461708Y10725483D01*
X9461826Y10724779D01*
X9462060Y10723957D01*
X9462647Y10722197D01*
X9463469Y10720085D01*
X9464525Y10718090D01*
X9465698Y10716213D01*
X9467106Y10714570D01*
X9467341Y10714452D01*
X9467810Y10713983D01*
X9468749Y10713396D01*
X9469923Y10712809D01*
X9471331Y10712105D01*
X9473091Y10711519D01*
X9475086Y10711049D01*
X9477198Y10710932D01*
X9477902D01*
X9478372Y10711049D01*
X9479663Y10711167D01*
X9481305Y10711519D01*
X9483183Y10712105D01*
X9485178Y10712927D01*
X9487173Y10714100D01*
X9489050Y10715743D01*
X9489285Y10715978D01*
X9489872Y10716682D01*
X9490576Y10717738D01*
X9491515Y10719146D01*
X9492453Y10720906D01*
X9493158Y10722901D01*
X9493744Y10725248D01*
X9493979Y10727830D01*
Y10727947D01*
Y10728182D01*
Y10728534D01*
X9493862Y10729003D01*
X9493744Y10730294D01*
X9493392Y10731820D01*
X9492923Y10733697D01*
X9492101Y10735575D01*
X9490928Y10737452D01*
X9489402Y10739213D01*
X9489168Y10739447D01*
X9488581Y10739917D01*
X9487642Y10740621D01*
X9486351Y10741442D01*
X9484708Y10742264D01*
X9482714Y10742968D01*
X9480484Y10743437D01*
X9478020Y10743672D01*
X9476964D01*
X9476142Y10743555D01*
X9475086Y10743437D01*
X9473912Y10743203D01*
X9472504Y10742968D01*
X9470979Y10742616D01*
X9472152Y10751417D01*
X9472739D01*
X9473208Y10751300D01*
X9474734D01*
X9476025Y10751534D01*
X9477550Y10751769D01*
X9479310Y10752121D01*
X9481305Y10752708D01*
X9483183Y10753529D01*
X9485178Y10754585D01*
X9485295D01*
X9485413Y10754703D01*
X9485999Y10755172D01*
X9486821Y10755993D01*
X9487760Y10757050D01*
X9488698Y10758575D01*
X9489520Y10760335D01*
X9490106Y10762330D01*
X9490341Y10763504D01*
Y10764795D01*
Y10764912D01*
Y10765029D01*
Y10765733D01*
X9490106Y10766672D01*
X9489872Y10767963D01*
X9489402Y10769371D01*
X9488816Y10770897D01*
X9487877Y10772422D01*
X9486586Y10773830D01*
X9486469Y10773948D01*
X9485882Y10774417D01*
X9485061Y10775004D01*
X9484004Y10775708D01*
X9482596Y10776295D01*
X9480953Y10776881D01*
X9479076Y10777351D01*
X9476964Y10777468D01*
X9476025D01*
X9474969Y10777233D01*
X9473560Y10776999D01*
X9472035Y10776529D01*
X9470509Y10775943D01*
X9468867Y10775004D01*
X9467341Y10773830D01*
X9467224Y10773713D01*
X9466754Y10773126D01*
X9466050Y10772305D01*
X9465229Y10771131D01*
X9464407Y10769606D01*
X9463586Y10767728D01*
X9462882Y10765499D01*
X9462412Y10762917D01*
X9452438Y10764677D01*
Y10764795D01*
X9452555Y10765147D01*
X9452672Y10765616D01*
X9452790Y10766320D01*
X9453025Y10767142D01*
X9453377Y10768080D01*
X9454081Y10770310D01*
X9455254Y10772892D01*
X9456662Y10775473D01*
X9458423Y10777938D01*
X9460652Y10780167D01*
X9460769Y10780285D01*
X9461004Y10780402D01*
X9461356Y10780637D01*
X9461826Y10780989D01*
X9462412Y10781458D01*
X9463234Y10781927D01*
X9464055Y10782397D01*
X9465111Y10782984D01*
X9467458Y10783922D01*
X9470157Y10784861D01*
X9473326Y10785448D01*
X9474969Y10785683D01*
X9477902D01*
X9479193Y10785565D01*
D02*
G37*
G36*
X9437769Y10729942D02*
Y10729825D01*
Y10729473D01*
Y10729003D01*
Y10728299D01*
X9437652Y10727361D01*
Y10726422D01*
X9437417Y10724192D01*
X9437183Y10721611D01*
X9436713Y10718912D01*
X9436009Y10716447D01*
X9435188Y10714100D01*
Y10713983D01*
X9435070Y10713866D01*
X9434718Y10713161D01*
X9434131Y10712223D01*
X9433310Y10710932D01*
X9432137Y10709641D01*
X9430846Y10708233D01*
X9429203Y10706825D01*
X9427325Y10705651D01*
X9427091Y10705534D01*
X9426387Y10705182D01*
X9425330Y10704712D01*
X9423805Y10704243D01*
X9421927Y10703656D01*
X9419815Y10703187D01*
X9417468Y10702835D01*
X9414886Y10702717D01*
X9413830D01*
X9413126Y10702835D01*
X9412187Y10702952D01*
X9411249Y10703070D01*
X9408784Y10703539D01*
X9406203Y10704243D01*
X9403504Y10705299D01*
X9402095Y10706003D01*
X9400805Y10706825D01*
X9399631Y10707763D01*
X9398458Y10708820D01*
X9398340Y10708937D01*
X9398223Y10709054D01*
X9397988Y10709524D01*
X9397636Y10709993D01*
X9397167Y10710580D01*
X9396697Y10711401D01*
X9396228Y10712340D01*
X9395641Y10713396D01*
X9395172Y10714570D01*
X9394703Y10715978D01*
X9394233Y10717386D01*
X9393764Y10719029D01*
X9393529Y10720789D01*
X9393177Y10722784D01*
X9393060Y10724779D01*
Y10727009D01*
X9402800Y10728417D01*
Y10728299D01*
Y10728065D01*
Y10727595D01*
X9402917Y10726891D01*
X9403034Y10726187D01*
Y10725366D01*
X9403386Y10723371D01*
X9403738Y10721258D01*
X9404442Y10719146D01*
X9405147Y10717269D01*
X9405616Y10716447D01*
X9406203Y10715743D01*
X9406320Y10715626D01*
X9406789Y10715274D01*
X9407494Y10714687D01*
X9408432Y10714100D01*
X9409723Y10713396D01*
X9411131Y10712927D01*
X9412892Y10712457D01*
X9414769Y10712340D01*
X9415473D01*
X9416177Y10712457D01*
X9417233Y10712575D01*
X9418290Y10712809D01*
X9419463Y10713044D01*
X9420636Y10713513D01*
X9421810Y10714100D01*
X9421927Y10714218D01*
X9422279Y10714452D01*
X9422749Y10714922D01*
X9423453Y10715391D01*
X9424040Y10716213D01*
X9424744Y10717034D01*
X9425330Y10717973D01*
X9425800Y10719146D01*
Y10719264D01*
X9426034Y10719733D01*
X9426152Y10720554D01*
X9426387Y10721611D01*
X9426621Y10723019D01*
X9426739Y10724779D01*
X9426973Y10726891D01*
Y10729355D01*
Y10785330D01*
X9437769D01*
Y10729942D01*
D02*
G37*
G36*
X11120418Y10594534D02*
X11139898D01*
Y10584559D01*
X11120418D01*
Y10549237D01*
X11111265D01*
X11058693Y10586437D01*
Y10594534D01*
X11111265D01*
Y10605564D01*
X11120418D01*
Y10594534D01*
D02*
G37*
G36*
X11116663Y10539028D02*
X11117602D01*
X11119831Y10538793D01*
X11122413Y10538559D01*
X11125112Y10538089D01*
X11127576Y10537385D01*
X11129923Y10536564D01*
X11130041D01*
X11130158Y10536446D01*
X11130862Y10536094D01*
X11131801Y10535508D01*
X11133092Y10534686D01*
X11134383Y10533513D01*
X11135791Y10532222D01*
X11137199Y10530579D01*
X11138372Y10528701D01*
X11138490Y10528467D01*
X11138842Y10527763D01*
X11139311Y10526706D01*
X11139781Y10525181D01*
X11140367Y10523303D01*
X11140837Y10521191D01*
X11141189Y10518844D01*
X11141306Y10516262D01*
Y10515206D01*
X11141189Y10514502D01*
X11141071Y10513563D01*
X11140954Y10512625D01*
X11140485Y10510160D01*
X11139781Y10507579D01*
X11138724Y10504880D01*
X11138020Y10503471D01*
X11137199Y10502181D01*
X11136260Y10501007D01*
X11135204Y10499834D01*
X11135087Y10499716D01*
X11134969Y10499599D01*
X11134500Y10499364D01*
X11134031Y10499012D01*
X11133444Y10498543D01*
X11132622Y10498073D01*
X11131684Y10497604D01*
X11130627Y10497017D01*
X11129454Y10496548D01*
X11128046Y10496079D01*
X11126638Y10495609D01*
X11124995Y10495140D01*
X11123235Y10494905D01*
X11121240Y10494553D01*
X11119245Y10494436D01*
X11117015D01*
X11115607Y10504176D01*
X11115724D01*
X11115959D01*
X11116428D01*
X11117132Y10504293D01*
X11117837Y10504410D01*
X11118658D01*
X11120653Y10504762D01*
X11122765Y10505114D01*
X11124877Y10505818D01*
X11126755Y10506523D01*
X11127576Y10506992D01*
X11128281Y10507579D01*
X11128398Y10507696D01*
X11128750Y10508165D01*
X11129337Y10508870D01*
X11129923Y10509808D01*
X11130627Y10511099D01*
X11131097Y10512507D01*
X11131566Y10514268D01*
X11131684Y10516145D01*
Y10516849D01*
X11131566Y10517553D01*
X11131449Y10518609D01*
X11131214Y10519666D01*
X11130980Y10520839D01*
X11130510Y10522012D01*
X11129923Y10523186D01*
X11129806Y10523303D01*
X11129571Y10523655D01*
X11129102Y10524125D01*
X11128633Y10524829D01*
X11127811Y10525416D01*
X11126990Y10526120D01*
X11126051Y10526706D01*
X11124877Y10527176D01*
X11124760D01*
X11124291Y10527410D01*
X11123469Y10527528D01*
X11122413Y10527763D01*
X11121005Y10527997D01*
X11119245Y10528115D01*
X11117132Y10528349D01*
X11114668D01*
X11058693D01*
Y10539145D01*
X11114081D01*
X11114199D01*
X11114551D01*
X11115020D01*
X11115724D01*
X11116663Y10539028D01*
D02*
G37*
G36*
X10958137Y10352807D02*
X10894652D01*
X10894769Y10352689D01*
X10895239Y10352102D01*
X10895943Y10351398D01*
X10896764Y10350225D01*
X10897820Y10348934D01*
X10898994Y10347291D01*
X10900285Y10345414D01*
X10901576Y10343301D01*
Y10343184D01*
X10901693Y10343067D01*
X10902162Y10342363D01*
X10902749Y10341189D01*
X10903453Y10339781D01*
X10904275Y10338138D01*
X10905096Y10336378D01*
X10905917Y10334618D01*
X10906622Y10332857D01*
X10896999D01*
Y10332975D01*
X10896764Y10333209D01*
X10896647Y10333679D01*
X10896295Y10334266D01*
X10895943Y10334970D01*
X10895474Y10335791D01*
X10894300Y10337786D01*
X10893009Y10340133D01*
X10891366Y10342480D01*
X10889489Y10344944D01*
X10887494Y10347409D01*
X10887376Y10347526D01*
X10887259Y10347643D01*
X10886907Y10347995D01*
X10886555Y10348465D01*
X10885382Y10349521D01*
X10883973Y10350929D01*
X10882331Y10352337D01*
X10880453Y10353863D01*
X10878575Y10355154D01*
X10876580Y10356327D01*
Y10362781D01*
X10958137D01*
Y10352807D01*
D02*
G37*
G36*
X10964474Y10313260D02*
Y10313143D01*
X10964357Y10312908D01*
X10964122Y10312439D01*
X10963887Y10311735D01*
X10963535Y10310913D01*
X10963066Y10309975D01*
X10962597Y10308918D01*
X10962010Y10307745D01*
X10960602Y10305163D01*
X10958959Y10302230D01*
X10956847Y10299061D01*
X10954500Y10295775D01*
Y10295658D01*
X10954734Y10295423D01*
X10954969Y10294837D01*
X10955321Y10294250D01*
X10955673Y10293311D01*
X10956142Y10292372D01*
X10956494Y10291199D01*
X10956964Y10289908D01*
X10957433Y10288500D01*
X10957903Y10286974D01*
X10958724Y10283571D01*
X10959311Y10279816D01*
X10959428Y10277821D01*
X10959546Y10275826D01*
Y10274770D01*
X10959428Y10273949D01*
Y10273010D01*
X10959311Y10271836D01*
X10959076Y10270546D01*
X10958841Y10269137D01*
X10958255Y10266086D01*
X10957316Y10262683D01*
X10956025Y10259163D01*
X10955204Y10257520D01*
X10954265Y10255760D01*
X10954148Y10255642D01*
X10954030Y10255408D01*
X10953678Y10254938D01*
X10953326Y10254352D01*
X10952739Y10253530D01*
X10952035Y10252709D01*
X10950392Y10250714D01*
X10948280Y10248484D01*
X10945698Y10246255D01*
X10942765Y10244025D01*
X10939362Y10242030D01*
X10939244D01*
X10938892Y10241795D01*
X10938423Y10241561D01*
X10937719Y10241326D01*
X10936780Y10240974D01*
X10935724Y10240505D01*
X10934433Y10240035D01*
X10933025Y10239683D01*
X10931499Y10239214D01*
X10929856Y10238744D01*
X10928096Y10238392D01*
X10926101Y10237923D01*
X10921994Y10237453D01*
X10917652Y10237219D01*
X10917535D01*
X10917066D01*
X10916479D01*
X10915657Y10237336D01*
X10914601D01*
X10913310Y10237453D01*
X10911902Y10237571D01*
X10910377Y10237806D01*
X10906974Y10238392D01*
X10903336Y10239214D01*
X10899463Y10240387D01*
X10895708Y10242030D01*
X10895591Y10242147D01*
X10895239Y10242265D01*
X10894769Y10242499D01*
X10894065Y10242969D01*
X10893244Y10243438D01*
X10892305Y10244025D01*
X10890076Y10245668D01*
X10887729Y10247545D01*
X10885264Y10250010D01*
X10882800Y10252709D01*
X10880688Y10255877D01*
X10880570Y10255994D01*
X10880453Y10256347D01*
X10880218Y10256816D01*
X10879866Y10257520D01*
X10879514Y10258341D01*
X10879045Y10259280D01*
X10878575Y10260454D01*
X10878106Y10261745D01*
X10877637Y10263270D01*
X10877167Y10264796D01*
X10876346Y10268199D01*
X10875759Y10271954D01*
X10875524Y10273949D01*
Y10277117D01*
X10875642Y10277939D01*
Y10278995D01*
X10875759Y10280051D01*
X10875994Y10281459D01*
X10876228Y10282867D01*
X10876815Y10285918D01*
X10877754Y10289439D01*
X10879162Y10292842D01*
X10879984Y10294602D01*
X10880922Y10296362D01*
X10881040Y10296480D01*
X10881157Y10296714D01*
X10881509Y10297184D01*
X10881861Y10297888D01*
X10882448Y10298592D01*
X10883152Y10299531D01*
X10884795Y10301525D01*
X10886907Y10303638D01*
X10889489Y10305985D01*
X10892540Y10308214D01*
X10895943Y10310092D01*
X10896060D01*
X10896412Y10310327D01*
X10896882Y10310561D01*
X10897586Y10310796D01*
X10898525Y10311265D01*
X10899581Y10311617D01*
X10900872Y10312087D01*
X10902280Y10312556D01*
X10903805Y10312908D01*
X10905448Y10313378D01*
X10907208Y10313847D01*
X10909086Y10314199D01*
X10913193Y10314668D01*
X10917535Y10314903D01*
X10917652D01*
X10918004D01*
X10918474D01*
X10919178D01*
X10920117Y10314786D01*
X10921173D01*
X10922346Y10314668D01*
X10923520Y10314551D01*
X10926336Y10314199D01*
X10929387Y10313612D01*
X10932555Y10312908D01*
X10935607Y10311852D01*
X10935724D01*
X10935959Y10311735D01*
X10936428Y10311500D01*
X10936897Y10311265D01*
X10937601Y10310913D01*
X10938423Y10310561D01*
X10940300Y10309623D01*
X10942530Y10308332D01*
X10944877Y10306689D01*
X10947224Y10304811D01*
X10949571Y10302699D01*
Y10302816D01*
X10949806Y10303051D01*
X10950040Y10303403D01*
X10950392Y10303990D01*
X10950862Y10304577D01*
X10951331Y10305398D01*
X10952387Y10307158D01*
X10953678Y10309270D01*
X10954969Y10311617D01*
X10956025Y10314082D01*
X10957081Y10316429D01*
X10964474Y10313260D01*
D02*
G37*
G36*
X10302378Y10153743D02*
X10238893D01*
X10239010Y10153625D01*
X10239480Y10153039D01*
X10240184Y10152335D01*
X10241005Y10151161D01*
X10242061Y10149870D01*
X10243235Y10148227D01*
X10244526Y10146350D01*
X10245816Y10144238D01*
Y10144120D01*
X10245934Y10144003D01*
X10246403Y10143299D01*
X10246990Y10142125D01*
X10247694Y10140717D01*
X10248515Y10139074D01*
X10249337Y10137314D01*
X10250158Y10135554D01*
X10250862Y10133794D01*
X10241240D01*
Y10133911D01*
X10241005Y10134146D01*
X10240888Y10134615D01*
X10240536Y10135202D01*
X10240184Y10135906D01*
X10239714Y10136727D01*
X10238541Y10138722D01*
X10237250Y10141069D01*
X10235607Y10143416D01*
X10233730Y10145880D01*
X10231735Y10148345D01*
X10231617Y10148462D01*
X10231500Y10148579D01*
X10231148Y10148931D01*
X10230796Y10149401D01*
X10229622Y10150457D01*
X10228214Y10151865D01*
X10226571Y10153273D01*
X10224694Y10154799D01*
X10222816Y10156090D01*
X10220821Y10157263D01*
Y10163717D01*
X10302378D01*
Y10153743D01*
D02*
G37*
G36*
Y10106451D02*
X10285480Y10095773D01*
X10285363D01*
X10285128Y10095538D01*
X10284776Y10095303D01*
X10284307Y10094951D01*
X10283016Y10094130D01*
X10281373Y10093074D01*
X10279613Y10091783D01*
X10277735Y10090492D01*
X10275975Y10089201D01*
X10274332Y10088028D01*
X10274215Y10087910D01*
X10273745Y10087558D01*
X10273041Y10086972D01*
X10272220Y10086150D01*
X10270460Y10084390D01*
X10269638Y10083451D01*
X10268934Y10082512D01*
X10268817Y10082395D01*
X10268699Y10082160D01*
X10268465Y10081691D01*
X10268113Y10080987D01*
X10267761Y10080283D01*
X10267408Y10079461D01*
X10266822Y10077584D01*
Y10077467D01*
X10266704Y10077232D01*
Y10076762D01*
X10266587Y10076176D01*
X10266470Y10075354D01*
Y10074415D01*
X10266352Y10073125D01*
Y10059278D01*
X10302378D01*
Y10048482D01*
X10221173D01*
Y10086150D01*
X10221291Y10087089D01*
Y10088145D01*
X10221408Y10090609D01*
X10221760Y10093191D01*
X10222112Y10096007D01*
X10222699Y10098589D01*
X10223051Y10099880D01*
X10223403Y10100936D01*
Y10101053D01*
X10223520Y10101171D01*
X10223872Y10101875D01*
X10224342Y10102931D01*
X10225163Y10104222D01*
X10226219Y10105630D01*
X10227627Y10107156D01*
X10229270Y10108564D01*
X10231148Y10109972D01*
X10231265D01*
X10231383Y10110089D01*
X10232087Y10110559D01*
X10233260Y10111028D01*
X10234786Y10111732D01*
X10236546Y10112319D01*
X10238658Y10112906D01*
X10240888Y10113258D01*
X10243352Y10113375D01*
X10243469D01*
X10243704D01*
X10244174D01*
X10244760Y10113258D01*
X10245582D01*
X10246403Y10113140D01*
X10248398Y10112671D01*
X10250745Y10111967D01*
X10253209Y10111028D01*
X10255674Y10109620D01*
X10256847Y10108681D01*
X10258021Y10107742D01*
X10258138Y10107625D01*
X10258255Y10107508D01*
X10258607Y10107156D01*
X10258959Y10106686D01*
X10259429Y10106099D01*
X10259898Y10105395D01*
X10260485Y10104457D01*
X10261189Y10103518D01*
X10261776Y10102344D01*
X10262363Y10101053D01*
X10263067Y10099645D01*
X10263653Y10098120D01*
X10264123Y10096360D01*
X10264709Y10094599D01*
X10265062Y10092604D01*
X10265414Y10090492D01*
X10265531Y10090727D01*
X10265766Y10091196D01*
X10266235Y10091900D01*
X10266704Y10092839D01*
X10267995Y10094951D01*
X10268817Y10096007D01*
X10269521Y10096946D01*
X10269755Y10097181D01*
X10270342Y10097768D01*
X10271281Y10098706D01*
X10272454Y10099880D01*
X10274097Y10101171D01*
X10275858Y10102696D01*
X10277970Y10104222D01*
X10280317Y10105865D01*
X10302378Y10119829D01*
Y10106451D01*
D02*
G37*
G36*
X9578478Y10412507D02*
X9578361D01*
X9577891D01*
X9577187D01*
X9576248Y10412624D01*
X9575192Y10412741D01*
X9574019Y10412976D01*
X9572845Y10413211D01*
X9571554Y10413680D01*
X9571437D01*
X9571320Y10413798D01*
X9570616Y10414032D01*
X9569559Y10414502D01*
X9568151Y10415206D01*
X9566508Y10416145D01*
X9564631Y10417318D01*
X9562753Y10418609D01*
X9560758Y10420252D01*
X9560641D01*
X9560524Y10420486D01*
X9559820Y10421073D01*
X9558763Y10422129D01*
X9557238Y10423655D01*
X9555478Y10425415D01*
X9553365Y10427645D01*
X9551018Y10430344D01*
X9548554Y10433277D01*
X9548437Y10433395D01*
X9548085Y10433864D01*
X9547498Y10434568D01*
X9546794Y10435390D01*
X9545855Y10436446D01*
X9544799Y10437737D01*
X9543626Y10439027D01*
X9542335Y10440553D01*
X9539518Y10443487D01*
X9536702Y10446420D01*
X9535294Y10447828D01*
X9533886Y10449119D01*
X9532595Y10450293D01*
X9531304Y10451232D01*
X9531187D01*
X9531069Y10451466D01*
X9530717Y10451701D01*
X9530248Y10451936D01*
X9528957Y10452757D01*
X9527432Y10453696D01*
X9525554Y10454517D01*
X9523559Y10455339D01*
X9521329Y10455808D01*
X9519217Y10456043D01*
X9519100D01*
X9518982D01*
X9518278Y10455925D01*
X9517105Y10455808D01*
X9515814Y10455456D01*
X9514171Y10454987D01*
X9512528Y10454165D01*
X9510885Y10453109D01*
X9509243Y10451701D01*
X9509008Y10451466D01*
X9508539Y10450880D01*
X9507952Y10450058D01*
X9507130Y10448767D01*
X9506426Y10447124D01*
X9505722Y10445247D01*
X9505253Y10443017D01*
X9505135Y10440553D01*
Y10439849D01*
X9505253Y10439379D01*
X9505370Y10437971D01*
X9505722Y10436328D01*
X9506192Y10434568D01*
X9507013Y10432573D01*
X9508069Y10430696D01*
X9509477Y10428935D01*
X9509712Y10428701D01*
X9510299Y10428231D01*
X9511238Y10427527D01*
X9512646Y10426823D01*
X9514289Y10426002D01*
X9516401Y10425298D01*
X9518748Y10424828D01*
X9521447Y10424594D01*
X9520391Y10414384D01*
X9520273D01*
X9519921Y10414502D01*
X9519335D01*
X9518513Y10414619D01*
X9517574Y10414854D01*
X9516518Y10415088D01*
X9515227Y10415440D01*
X9513937Y10415792D01*
X9511120Y10416731D01*
X9508304Y10418139D01*
X9506896Y10418961D01*
X9505487Y10420017D01*
X9504197Y10421073D01*
X9503023Y10422247D01*
X9502906Y10422364D01*
X9502788Y10422599D01*
X9502436Y10422951D01*
X9502084Y10423537D01*
X9501615Y10424242D01*
X9501146Y10425063D01*
X9500559Y10426002D01*
X9499972Y10427175D01*
X9499385Y10428466D01*
X9498799Y10429874D01*
X9498329Y10431400D01*
X9497860Y10433043D01*
X9497508Y10434803D01*
X9497156Y10436680D01*
X9497038Y10438675D01*
X9496921Y10440788D01*
Y10441961D01*
X9497038Y10442783D01*
X9497156Y10443721D01*
X9497273Y10444895D01*
X9497508Y10446186D01*
X9497742Y10447476D01*
X9498564Y10450527D01*
X9499737Y10453579D01*
X9500442Y10455104D01*
X9501263Y10456630D01*
X9502319Y10458038D01*
X9503493Y10459329D01*
X9503610Y10459446D01*
X9503727Y10459681D01*
X9504197Y10459915D01*
X9504666Y10460385D01*
X9505253Y10460971D01*
X9506074Y10461558D01*
X9506896Y10462145D01*
X9507952Y10462849D01*
X9510181Y10464023D01*
X9512998Y10465196D01*
X9514406Y10465665D01*
X9516049Y10465900D01*
X9517692Y10466135D01*
X9519452Y10466252D01*
X9519687D01*
X9520273D01*
X9521212Y10466135D01*
X9522503Y10466017D01*
X9523911Y10465783D01*
X9525554Y10465313D01*
X9527314Y10464844D01*
X9529074Y10464140D01*
X9529309Y10464023D01*
X9529896Y10463788D01*
X9530835Y10463318D01*
X9532125Y10462614D01*
X9533534Y10461676D01*
X9535294Y10460502D01*
X9537054Y10459094D01*
X9539049Y10457451D01*
X9539284Y10457216D01*
X9539988Y10456630D01*
X9540575Y10456043D01*
X9541161Y10455456D01*
X9541865Y10454752D01*
X9542804Y10453813D01*
X9543743Y10452874D01*
X9544799Y10451701D01*
X9545973Y10450527D01*
X9547263Y10449119D01*
X9548554Y10447594D01*
X9550080Y10445951D01*
X9551605Y10444073D01*
X9553248Y10442196D01*
X9553365Y10442078D01*
X9553600Y10441844D01*
X9553952Y10441374D01*
X9554422Y10440788D01*
X9555126Y10440084D01*
X9555830Y10439262D01*
X9557355Y10437385D01*
X9559116Y10435390D01*
X9560876Y10433512D01*
X9562401Y10431869D01*
X9562988Y10431165D01*
X9563575Y10430578D01*
X9563692Y10430461D01*
X9564044Y10430109D01*
X9564514Y10429640D01*
X9565218Y10429053D01*
X9566039Y10428466D01*
X9566860Y10427762D01*
X9568855Y10426354D01*
Y10466369D01*
X9578478D01*
Y10412507D01*
D02*
G37*
G36*
Y10394200D02*
X9561580Y10383522D01*
X9561462D01*
X9561228Y10383287D01*
X9560876Y10383052D01*
X9560406Y10382700D01*
X9559116Y10381879D01*
X9557473Y10380823D01*
X9555712Y10379532D01*
X9553835Y10378241D01*
X9552075Y10376950D01*
X9550432Y10375777D01*
X9550314Y10375659D01*
X9549845Y10375307D01*
X9549141Y10374721D01*
X9548319Y10373899D01*
X9546559Y10372139D01*
X9545738Y10371200D01*
X9545034Y10370261D01*
X9544916Y10370144D01*
X9544799Y10369909D01*
X9544564Y10369440D01*
X9544212Y10368736D01*
X9543860Y10368032D01*
X9543508Y10367210D01*
X9542921Y10365333D01*
Y10365215D01*
X9542804Y10364981D01*
Y10364511D01*
X9542687Y10363925D01*
X9542569Y10363103D01*
Y10362164D01*
X9542452Y10360874D01*
Y10347027D01*
X9578478D01*
Y10336231D01*
X9497273D01*
Y10373899D01*
X9497390Y10374838D01*
Y10375894D01*
X9497508Y10378358D01*
X9497860Y10380940D01*
X9498212Y10383756D01*
X9498799Y10386338D01*
X9499151Y10387629D01*
X9499503Y10388685D01*
Y10388802D01*
X9499620Y10388920D01*
X9499972Y10389624D01*
X9500442Y10390680D01*
X9501263Y10391971D01*
X9502319Y10393379D01*
X9503727Y10394905D01*
X9505370Y10396313D01*
X9507248Y10397721D01*
X9507365D01*
X9507482Y10397838D01*
X9508186Y10398308D01*
X9509360Y10398777D01*
X9510885Y10399481D01*
X9512646Y10400068D01*
X9514758Y10400655D01*
X9516988Y10401007D01*
X9519452Y10401124D01*
X9519569D01*
X9519804D01*
X9520273D01*
X9520860Y10401007D01*
X9521681D01*
X9522503Y10400889D01*
X9524498Y10400420D01*
X9526845Y10399716D01*
X9529309Y10398777D01*
X9531773Y10397369D01*
X9532947Y10396430D01*
X9534120Y10395491D01*
X9534238Y10395374D01*
X9534355Y10395257D01*
X9534707Y10394905D01*
X9535059Y10394435D01*
X9535529Y10393848D01*
X9535998Y10393144D01*
X9536585Y10392206D01*
X9537289Y10391267D01*
X9537876Y10390093D01*
X9538462Y10388802D01*
X9539166Y10387394D01*
X9539753Y10385869D01*
X9540222Y10384109D01*
X9540809Y10382348D01*
X9541161Y10380353D01*
X9541513Y10378241D01*
X9541631Y10378476D01*
X9541865Y10378945D01*
X9542335Y10379649D01*
X9542804Y10380588D01*
X9544095Y10382700D01*
X9544916Y10383756D01*
X9545620Y10384695D01*
X9545855Y10384930D01*
X9546442Y10385517D01*
X9547381Y10386455D01*
X9548554Y10387629D01*
X9550197Y10388920D01*
X9551957Y10390445D01*
X9554070Y10391971D01*
X9556416Y10393614D01*
X9578478Y10407578D01*
Y10394200D01*
D02*
G37*
G36*
X10279495Y10466663D02*
X10280434Y10466545D01*
X10281490Y10466311D01*
X10282664Y10466076D01*
X10283955Y10465841D01*
X10286771Y10464902D01*
X10288296Y10464198D01*
X10289705Y10463494D01*
X10291230Y10462555D01*
X10292756Y10461499D01*
X10294281Y10460326D01*
X10295689Y10458918D01*
X10295807Y10458800D01*
X10296041Y10458566D01*
X10296393Y10458096D01*
X10296863Y10457509D01*
X10297450Y10456805D01*
X10298036Y10455867D01*
X10298740Y10454810D01*
X10299327Y10453520D01*
X10300031Y10452229D01*
X10300735Y10450703D01*
X10301322Y10449178D01*
X10301909Y10447418D01*
X10302378Y10445540D01*
X10302730Y10443545D01*
X10302965Y10441550D01*
X10303082Y10439320D01*
Y10438264D01*
X10302965Y10437560D01*
X10302848Y10436621D01*
X10302730Y10435565D01*
X10302496Y10434392D01*
X10302261Y10433101D01*
X10301557Y10430285D01*
X10300383Y10427351D01*
X10299679Y10425825D01*
X10298858Y10424417D01*
X10297802Y10423009D01*
X10296745Y10421601D01*
X10296628Y10421484D01*
X10296393Y10421249D01*
X10296041Y10420897D01*
X10295572Y10420545D01*
X10294985Y10419958D01*
X10294164Y10419371D01*
X10293342Y10418667D01*
X10292286Y10417963D01*
X10291113Y10417259D01*
X10289939Y10416555D01*
X10287123Y10415264D01*
X10283837Y10414208D01*
X10282077Y10413856D01*
X10280199Y10413621D01*
X10278909Y10423596D01*
X10279026D01*
X10279261Y10423713D01*
X10279730Y10423831D01*
X10280317Y10423948D01*
X10281021Y10424065D01*
X10281842Y10424300D01*
X10283602Y10424887D01*
X10285715Y10425708D01*
X10287710Y10426764D01*
X10289587Y10427938D01*
X10291230Y10429346D01*
X10291347Y10429581D01*
X10291817Y10430050D01*
X10292404Y10430989D01*
X10292990Y10432162D01*
X10293694Y10433570D01*
X10294281Y10435331D01*
X10294751Y10437326D01*
X10294868Y10439438D01*
Y10440142D01*
X10294751Y10440611D01*
X10294633Y10441902D01*
X10294281Y10443545D01*
X10293694Y10445423D01*
X10292873Y10447418D01*
X10291700Y10449412D01*
X10290057Y10451290D01*
X10289822Y10451525D01*
X10289118Y10452111D01*
X10288062Y10452816D01*
X10286654Y10453754D01*
X10284893Y10454693D01*
X10282898Y10455397D01*
X10280551Y10455984D01*
X10277970Y10456219D01*
X10277852D01*
X10277618D01*
X10277266D01*
X10276796Y10456101D01*
X10275505Y10455984D01*
X10273980Y10455632D01*
X10272102Y10455162D01*
X10270225Y10454341D01*
X10268347Y10453168D01*
X10266587Y10451642D01*
X10266352Y10451407D01*
X10265883Y10450821D01*
X10265179Y10449882D01*
X10264357Y10448591D01*
X10263536Y10446948D01*
X10262832Y10444953D01*
X10262363Y10442724D01*
X10262128Y10440259D01*
Y10439203D01*
X10262245Y10438382D01*
X10262363Y10437326D01*
X10262597Y10436152D01*
X10262832Y10434744D01*
X10263184Y10433218D01*
X10254383Y10434392D01*
Y10434979D01*
X10254500Y10435448D01*
Y10436974D01*
X10254265Y10438264D01*
X10254031Y10439790D01*
X10253679Y10441550D01*
X10253092Y10443545D01*
X10252271Y10445423D01*
X10251214Y10447418D01*
Y10447535D01*
X10251097Y10447652D01*
X10250628Y10448239D01*
X10249806Y10449060D01*
X10248750Y10449999D01*
X10247225Y10450938D01*
X10245464Y10451759D01*
X10243469Y10452346D01*
X10242296Y10452581D01*
X10241005D01*
X10240888D01*
X10240770D01*
X10240066D01*
X10239128Y10452346D01*
X10237837Y10452111D01*
X10236429Y10451642D01*
X10234903Y10451055D01*
X10233378Y10450117D01*
X10231969Y10448826D01*
X10231852Y10448708D01*
X10231383Y10448122D01*
X10230796Y10447300D01*
X10230092Y10446244D01*
X10229505Y10444836D01*
X10228918Y10443193D01*
X10228449Y10441315D01*
X10228332Y10439203D01*
Y10438264D01*
X10228566Y10437208D01*
X10228801Y10435800D01*
X10229270Y10434275D01*
X10229857Y10432749D01*
X10230796Y10431106D01*
X10231969Y10429581D01*
X10232087Y10429463D01*
X10232673Y10428994D01*
X10233495Y10428290D01*
X10234668Y10427468D01*
X10236194Y10426647D01*
X10238071Y10425825D01*
X10240301Y10425121D01*
X10242883Y10424652D01*
X10241123Y10414677D01*
X10241005D01*
X10240653Y10414795D01*
X10240184Y10414912D01*
X10239480Y10415029D01*
X10238658Y10415264D01*
X10237719Y10415616D01*
X10235490Y10416320D01*
X10232908Y10417494D01*
X10230327Y10418902D01*
X10227862Y10420662D01*
X10225633Y10422892D01*
X10225515Y10423009D01*
X10225398Y10423244D01*
X10225163Y10423596D01*
X10224811Y10424065D01*
X10224342Y10424652D01*
X10223872Y10425473D01*
X10223403Y10426295D01*
X10222816Y10427351D01*
X10221877Y10429698D01*
X10220939Y10432397D01*
X10220352Y10435565D01*
X10220117Y10437208D01*
Y10440142D01*
X10220235Y10441433D01*
X10220469Y10442958D01*
X10220821Y10444836D01*
X10221408Y10446948D01*
X10222112Y10449060D01*
X10223051Y10451173D01*
Y10451290D01*
X10223168Y10451407D01*
X10223520Y10452111D01*
X10224224Y10453168D01*
X10225046Y10454341D01*
X10226219Y10455749D01*
X10227510Y10457157D01*
X10229036Y10458566D01*
X10230796Y10459739D01*
X10231031Y10459856D01*
X10231617Y10460208D01*
X10232673Y10460678D01*
X10233964Y10461265D01*
X10235490Y10461851D01*
X10237250Y10462321D01*
X10239245Y10462673D01*
X10241240Y10462790D01*
X10241475D01*
X10242179D01*
X10243117Y10462673D01*
X10244408Y10462438D01*
X10245934Y10462086D01*
X10247577Y10461499D01*
X10249220Y10460795D01*
X10250862Y10459856D01*
X10251097Y10459739D01*
X10251566Y10459387D01*
X10252388Y10458683D01*
X10253327Y10457744D01*
X10254383Y10456571D01*
X10255556Y10455162D01*
X10256612Y10453520D01*
X10257669Y10451525D01*
Y10451642D01*
X10257786Y10451877D01*
X10257903Y10452229D01*
X10258021Y10452698D01*
X10258490Y10453989D01*
X10259194Y10455632D01*
X10260133Y10457509D01*
X10261306Y10459387D01*
X10262832Y10461147D01*
X10264592Y10462790D01*
X10264827Y10462907D01*
X10265531Y10463377D01*
X10266704Y10464081D01*
X10268230Y10464785D01*
X10270107Y10465489D01*
X10272337Y10466193D01*
X10274919Y10466663D01*
X10277735Y10466780D01*
X10277852D01*
X10278204D01*
X10278791D01*
X10279495Y10466663D01*
D02*
G37*
G36*
X10301674Y10393789D02*
X10284776Y10383111D01*
X10284659D01*
X10284424Y10382876D01*
X10284072Y10382641D01*
X10283602Y10382289D01*
X10282312Y10381468D01*
X10280669Y10380412D01*
X10278909Y10379121D01*
X10277031Y10377830D01*
X10275271Y10376539D01*
X10273628Y10375366D01*
X10273511Y10375248D01*
X10273041Y10374896D01*
X10272337Y10374310D01*
X10271516Y10373488D01*
X10269755Y10371728D01*
X10268934Y10370789D01*
X10268230Y10369850D01*
X10268113Y10369733D01*
X10267995Y10369498D01*
X10267761Y10369029D01*
X10267408Y10368325D01*
X10267056Y10367621D01*
X10266704Y10366799D01*
X10266118Y10364922D01*
Y10364805D01*
X10266000Y10364570D01*
Y10364100D01*
X10265883Y10363514D01*
X10265766Y10362692D01*
Y10361753D01*
X10265648Y10360463D01*
Y10346616D01*
X10301674D01*
Y10335820D01*
X10220469D01*
Y10373488D01*
X10220587Y10374427D01*
Y10375483D01*
X10220704Y10377947D01*
X10221056Y10380529D01*
X10221408Y10383346D01*
X10221995Y10385927D01*
X10222347Y10387218D01*
X10222699Y10388274D01*
Y10388391D01*
X10222816Y10388509D01*
X10223168Y10389213D01*
X10223638Y10390269D01*
X10224459Y10391560D01*
X10225515Y10392968D01*
X10226923Y10394494D01*
X10228566Y10395902D01*
X10230444Y10397310D01*
X10230561D01*
X10230679Y10397427D01*
X10231383Y10397897D01*
X10232556Y10398366D01*
X10234082Y10399070D01*
X10235842Y10399657D01*
X10237954Y10400244D01*
X10240184Y10400596D01*
X10242648Y10400713D01*
X10242765D01*
X10243000D01*
X10243469D01*
X10244056Y10400596D01*
X10244878D01*
X10245699Y10400478D01*
X10247694Y10400009D01*
X10250041Y10399305D01*
X10252505Y10398366D01*
X10254970Y10396958D01*
X10256143Y10396019D01*
X10257317Y10395080D01*
X10257434Y10394963D01*
X10257551Y10394846D01*
X10257903Y10394494D01*
X10258255Y10394024D01*
X10258725Y10393437D01*
X10259194Y10392733D01*
X10259781Y10391795D01*
X10260485Y10390856D01*
X10261072Y10389682D01*
X10261658Y10388391D01*
X10262363Y10386983D01*
X10262949Y10385458D01*
X10263419Y10383698D01*
X10264005Y10381937D01*
X10264357Y10379942D01*
X10264709Y10377830D01*
X10264827Y10378065D01*
X10265062Y10378534D01*
X10265531Y10379238D01*
X10266000Y10380177D01*
X10267291Y10382289D01*
X10268113Y10383346D01*
X10268817Y10384284D01*
X10269051Y10384519D01*
X10269638Y10385106D01*
X10270577Y10386045D01*
X10271750Y10387218D01*
X10273393Y10388509D01*
X10275153Y10390034D01*
X10277266Y10391560D01*
X10279613Y10393203D01*
X10301674Y10407167D01*
Y10393789D01*
D02*
G37*
G36*
X10941122Y10854273D02*
X10960602D01*
Y10844299D01*
X10941122D01*
Y10808977D01*
X10931969D01*
X10879397Y10846176D01*
Y10854273D01*
X10931969D01*
Y10865304D01*
X10941122D01*
Y10854273D01*
D02*
G37*
G36*
X10960602Y10792665D02*
X10943704Y10781987D01*
X10943586D01*
X10943352Y10781752D01*
X10943000Y10781517D01*
X10942530Y10781165D01*
X10941239Y10780344D01*
X10939597Y10779288D01*
X10937836Y10777997D01*
X10935959Y10776706D01*
X10934199Y10775415D01*
X10932556Y10774242D01*
X10932438Y10774125D01*
X10931969Y10773772D01*
X10931265Y10773186D01*
X10930443Y10772364D01*
X10928683Y10770604D01*
X10927862Y10769665D01*
X10927158Y10768726D01*
X10927040Y10768609D01*
X10926923Y10768374D01*
X10926688Y10767905D01*
X10926336Y10767201D01*
X10925984Y10766497D01*
X10925632Y10765675D01*
X10925045Y10763798D01*
Y10763681D01*
X10924928Y10763446D01*
Y10762976D01*
X10924811Y10762390D01*
X10924693Y10761568D01*
Y10760629D01*
X10924576Y10759339D01*
Y10745492D01*
X10960602D01*
Y10734696D01*
X10879397D01*
Y10772364D01*
X10879514Y10773303D01*
Y10774359D01*
X10879632Y10776824D01*
X10879984Y10779405D01*
X10880336Y10782222D01*
X10880923Y10784803D01*
X10881275Y10786094D01*
X10881627Y10787150D01*
Y10787267D01*
X10881744Y10787385D01*
X10882096Y10788089D01*
X10882565Y10789145D01*
X10883387Y10790436D01*
X10884443Y10791844D01*
X10885851Y10793370D01*
X10887494Y10794778D01*
X10889372Y10796186D01*
X10889489D01*
X10889606Y10796303D01*
X10890310Y10796773D01*
X10891484Y10797242D01*
X10893009Y10797946D01*
X10894770Y10798533D01*
X10896882Y10799120D01*
X10899112Y10799472D01*
X10901576Y10799589D01*
X10901693D01*
X10901928D01*
X10902397D01*
X10902984Y10799472D01*
X10903805D01*
X10904627Y10799354D01*
X10906622Y10798885D01*
X10908969Y10798181D01*
X10911433Y10797242D01*
X10913897Y10795834D01*
X10915071Y10794895D01*
X10916244Y10793956D01*
X10916362Y10793839D01*
X10916479Y10793722D01*
X10916831Y10793370D01*
X10917183Y10792900D01*
X10917653Y10792313D01*
X10918122Y10791609D01*
X10918709Y10790671D01*
X10919413Y10789732D01*
X10919999Y10788558D01*
X10920586Y10787267D01*
X10921290Y10785859D01*
X10921877Y10784334D01*
X10922346Y10782574D01*
X10922933Y10780813D01*
X10923285Y10778818D01*
X10923637Y10776706D01*
X10923755Y10776941D01*
X10923989Y10777410D01*
X10924459Y10778114D01*
X10924928Y10779053D01*
X10926219Y10781165D01*
X10927040Y10782222D01*
X10927744Y10783160D01*
X10927979Y10783395D01*
X10928566Y10783982D01*
X10929505Y10784921D01*
X10930678Y10786094D01*
X10932321Y10787385D01*
X10934081Y10788910D01*
X10936194Y10790436D01*
X10938540Y10792079D01*
X10960602Y10806043D01*
Y10792665D01*
D02*
G37*
G36*
X10934316Y9465656D02*
X10935254Y9465539D01*
X10936311Y9465422D01*
X10937601Y9465187D01*
X10938892Y9464952D01*
X10941943Y9464248D01*
X10945112Y9463075D01*
X10946755Y9462370D01*
X10948280Y9461432D01*
X10949923Y9460493D01*
X10951449Y9459319D01*
X10951566Y9459202D01*
X10951918Y9458967D01*
X10952387Y9458498D01*
X10952974Y9457911D01*
X10953678Y9457090D01*
X10954617Y9456151D01*
X10955438Y9454978D01*
X10956377Y9453687D01*
X10957316Y9452279D01*
X10958137Y9450636D01*
X10958959Y9448875D01*
X10959780Y9446998D01*
X10960367Y9445003D01*
X10960836Y9442773D01*
X10961188Y9440426D01*
X10961306Y9437962D01*
Y9436906D01*
X10961188Y9436085D01*
X10961071Y9435146D01*
X10960954Y9434090D01*
X10960836Y9432799D01*
X10960484Y9431508D01*
X10959780Y9428574D01*
X10958724Y9425641D01*
X10958020Y9424115D01*
X10957199Y9422589D01*
X10956260Y9421181D01*
X10955204Y9419773D01*
X10955086Y9419656D01*
X10954969Y9419421D01*
X10954500Y9419186D01*
X10954030Y9418717D01*
X10953443Y9418130D01*
X10952739Y9417544D01*
X10951801Y9416839D01*
X10950744Y9416253D01*
X10949688Y9415549D01*
X10948397Y9414845D01*
X10945581Y9413554D01*
X10942295Y9412498D01*
X10940535Y9412146D01*
X10938658Y9411911D01*
X10937836Y9422355D01*
X10937953D01*
X10938188D01*
X10938540Y9422472D01*
X10939127Y9422589D01*
X10940418Y9422942D01*
X10942178Y9423411D01*
X10943938Y9424115D01*
X10945933Y9425054D01*
X10947693Y9426227D01*
X10949336Y9427635D01*
X10949454Y9427870D01*
X10949923Y9428340D01*
X10950510Y9429278D01*
X10951214Y9430569D01*
X10951918Y9431977D01*
X10952505Y9433738D01*
X10952974Y9435732D01*
X10953091Y9437962D01*
Y9438666D01*
X10952974Y9439136D01*
X10952857Y9440544D01*
X10952387Y9442187D01*
X10951801Y9444182D01*
X10950862Y9446176D01*
X10949454Y9448289D01*
X10948632Y9449227D01*
X10947693Y9450166D01*
X10947576Y9450284D01*
X10947459Y9450401D01*
X10947107Y9450636D01*
X10946755Y9450988D01*
X10945464Y9451809D01*
X10943821Y9452748D01*
X10941826Y9453569D01*
X10939362Y9454391D01*
X10936428Y9454978D01*
X10934902Y9455212D01*
X10933260D01*
X10933142D01*
X10932908D01*
X10932438D01*
X10931851Y9455095D01*
X10931147D01*
X10930326Y9454978D01*
X10928448Y9454625D01*
X10926219Y9454039D01*
X10923989Y9453217D01*
X10921877Y9452044D01*
X10919882Y9450401D01*
X10919765D01*
X10919647Y9450166D01*
X10919060Y9449580D01*
X10918239Y9448523D01*
X10917300Y9447115D01*
X10916479Y9445238D01*
X10915657Y9443125D01*
X10915071Y9440661D01*
X10914836Y9439253D01*
Y9437023D01*
X10914953Y9436085D01*
X10915071Y9434911D01*
X10915423Y9433503D01*
X10915775Y9432095D01*
X10916361Y9430569D01*
X10917066Y9429044D01*
X10917183Y9428926D01*
X10917418Y9428457D01*
X10918004Y9427753D01*
X10918591Y9426814D01*
X10919413Y9425875D01*
X10920469Y9424936D01*
X10921525Y9423880D01*
X10922816Y9423059D01*
X10921525Y9413671D01*
X10879749Y9421533D01*
Y9461901D01*
X10889254D01*
Y9429396D01*
X10911198Y9425054D01*
X10911081Y9425171D01*
X10910963Y9425406D01*
X10910729Y9425758D01*
X10910377Y9426345D01*
X10910025Y9427049D01*
X10909555Y9427870D01*
X10908616Y9429748D01*
X10907678Y9432095D01*
X10906856Y9434676D01*
X10906270Y9437493D01*
X10906035Y9438901D01*
Y9441483D01*
X10906152Y9442187D01*
X10906270Y9443125D01*
X10906387Y9444182D01*
X10906622Y9445355D01*
X10906974Y9446646D01*
X10907795Y9449462D01*
X10908382Y9450988D01*
X10909203Y9452513D01*
X10910025Y9454039D01*
X10910963Y9455564D01*
X10912137Y9456972D01*
X10913428Y9458381D01*
X10913545Y9458498D01*
X10913780Y9458733D01*
X10914132Y9459085D01*
X10914719Y9459554D01*
X10915540Y9460141D01*
X10916361Y9460728D01*
X10917418Y9461432D01*
X10918591Y9462136D01*
X10919882Y9462723D01*
X10921290Y9463427D01*
X10922933Y9464013D01*
X10924576Y9464600D01*
X10926336Y9465069D01*
X10928331Y9465422D01*
X10930326Y9465656D01*
X10932438Y9465774D01*
X10932555D01*
X10932908D01*
X10933494D01*
X10934316Y9465656D01*
D02*
G37*
G36*
X10959898Y9392196D02*
X10942999Y9381518D01*
X10942882D01*
X10942647Y9381283D01*
X10942295Y9381048D01*
X10941826Y9380696D01*
X10940535Y9379875D01*
X10938892Y9378819D01*
X10937132Y9377528D01*
X10935254Y9376237D01*
X10933494Y9374946D01*
X10931851Y9373773D01*
X10931734Y9373655D01*
X10931265Y9373303D01*
X10930561Y9372717D01*
X10929739Y9371895D01*
X10927979Y9370135D01*
X10927157Y9369196D01*
X10926453Y9368257D01*
X10926336Y9368140D01*
X10926219Y9367905D01*
X10925984Y9367436D01*
X10925632Y9366732D01*
X10925280Y9366028D01*
X10924928Y9365206D01*
X10924341Y9363329D01*
Y9363211D01*
X10924224Y9362977D01*
Y9362507D01*
X10924106Y9361921D01*
X10923989Y9361099D01*
Y9360160D01*
X10923872Y9358870D01*
Y9345022D01*
X10959898D01*
Y9334226D01*
X10878693D01*
Y9371895D01*
X10878810Y9372834D01*
Y9373890D01*
X10878927Y9376354D01*
X10879279Y9378936D01*
X10879632Y9381752D01*
X10880218Y9384334D01*
X10880570Y9385625D01*
X10880922Y9386681D01*
Y9386798D01*
X10881040Y9386916D01*
X10881392Y9387620D01*
X10881861Y9388676D01*
X10882683Y9389967D01*
X10883739Y9391375D01*
X10885147Y9392900D01*
X10886790Y9394309D01*
X10888667Y9395717D01*
X10888785D01*
X10888902Y9395834D01*
X10889606Y9396304D01*
X10890780Y9396773D01*
X10892305Y9397477D01*
X10894065Y9398064D01*
X10896178Y9398650D01*
X10898407Y9399003D01*
X10900872Y9399120D01*
X10900989D01*
X10901224D01*
X10901693D01*
X10902280Y9399003D01*
X10903101D01*
X10903923Y9398885D01*
X10905917Y9398416D01*
X10908264Y9397712D01*
X10910729Y9396773D01*
X10913193Y9395365D01*
X10914367Y9394426D01*
X10915540Y9393487D01*
X10915657Y9393370D01*
X10915775Y9393252D01*
X10916127Y9392900D01*
X10916479Y9392431D01*
X10916948Y9391844D01*
X10917418Y9391140D01*
X10918004Y9390201D01*
X10918708Y9389263D01*
X10919295Y9388089D01*
X10919882Y9386798D01*
X10920586Y9385390D01*
X10921173Y9383865D01*
X10921642Y9382104D01*
X10922229Y9380344D01*
X10922581Y9378349D01*
X10922933Y9376237D01*
X10923050Y9376472D01*
X10923285Y9376941D01*
X10923754Y9377645D01*
X10924224Y9378584D01*
X10925515Y9380696D01*
X10926336Y9381752D01*
X10927040Y9382691D01*
X10927275Y9382926D01*
X10927862Y9383513D01*
X10928800Y9384451D01*
X10929974Y9385625D01*
X10931617Y9386916D01*
X10933377Y9388441D01*
X10935489Y9389967D01*
X10937836Y9391610D01*
X10959898Y9405574D01*
Y9392196D01*
D02*
G37*
G36*
X10935783Y10665363D02*
X10936487D01*
X10938365Y10665011D01*
X10940594Y10664659D01*
X10942941Y10664072D01*
X10945523Y10663251D01*
X10947987Y10662077D01*
X10948105D01*
X10948222Y10661960D01*
X10948574Y10661725D01*
X10949043Y10661490D01*
X10950217Y10660786D01*
X10951742Y10659730D01*
X10953385Y10658439D01*
X10955028Y10656914D01*
X10956671Y10655036D01*
X10958079Y10653041D01*
Y10652924D01*
X10958197Y10652807D01*
X10958431Y10652455D01*
X10958549Y10651985D01*
X10959135Y10650812D01*
X10959722Y10649286D01*
X10960426Y10647291D01*
X10960896Y10645062D01*
X10961365Y10642597D01*
X10961482Y10639898D01*
Y10639312D01*
X10961365Y10638725D01*
Y10637786D01*
X10961248Y10636730D01*
X10961013Y10635557D01*
X10960661Y10634148D01*
X10960309Y10632740D01*
X10959839Y10631097D01*
X10959253Y10629454D01*
X10958549Y10627812D01*
X10957610Y10626051D01*
X10956554Y10624409D01*
X10955380Y10622766D01*
X10953972Y10621123D01*
X10952329Y10619597D01*
X10952212Y10619480D01*
X10951860Y10619245D01*
X10951390Y10618893D01*
X10950569Y10618424D01*
X10949513Y10617720D01*
X10948339Y10617133D01*
X10946814Y10616429D01*
X10945171Y10615725D01*
X10943176Y10614903D01*
X10940946Y10614199D01*
X10938482Y10613613D01*
X10935783Y10613026D01*
X10932732Y10612439D01*
X10929446Y10612087D01*
X10925926Y10611852D01*
X10922171Y10611735D01*
X10922053D01*
X10921936D01*
X10921584D01*
X10921115D01*
X10919941Y10611852D01*
X10918298D01*
X10916421Y10611970D01*
X10914191Y10612204D01*
X10911727Y10612439D01*
X10909028Y10612791D01*
X10906329Y10613260D01*
X10903395Y10613847D01*
X10900579Y10614551D01*
X10897762Y10615373D01*
X10895063Y10616429D01*
X10892482Y10617602D01*
X10890017Y10618893D01*
X10887905Y10620419D01*
X10887788Y10620536D01*
X10887553Y10620771D01*
X10887084Y10621240D01*
X10886380Y10621827D01*
X10885675Y10622531D01*
X10884971Y10623470D01*
X10884033Y10624643D01*
X10883211Y10625817D01*
X10882390Y10627225D01*
X10881451Y10628750D01*
X10880747Y10630511D01*
X10879925Y10632271D01*
X10879339Y10634266D01*
X10878869Y10636378D01*
X10878635Y10638608D01*
X10878517Y10640955D01*
Y10641893D01*
X10878635Y10642597D01*
Y10643419D01*
X10878752Y10644358D01*
X10879221Y10646587D01*
X10879808Y10649052D01*
X10880747Y10651633D01*
X10882155Y10654215D01*
X10882976Y10655506D01*
X10883915Y10656679D01*
X10884033Y10656797D01*
X10884150Y10656914D01*
X10884502Y10657266D01*
X10884854Y10657618D01*
X10885441Y10658205D01*
X10886145Y10658674D01*
X10887788Y10659965D01*
X10889900Y10661256D01*
X10892482Y10662429D01*
X10895415Y10663485D01*
X10898701Y10664189D01*
X10899523Y10654215D01*
X10899405D01*
X10899288Y10654098D01*
X10898584Y10653980D01*
X10897528Y10653628D01*
X10896237Y10653159D01*
X10894829Y10652689D01*
X10893420Y10651985D01*
X10892130Y10651164D01*
X10891073Y10650342D01*
X10890839Y10650108D01*
X10890369Y10649638D01*
X10889665Y10648817D01*
X10888844Y10647643D01*
X10888140Y10646118D01*
X10887436Y10644475D01*
X10886966Y10642480D01*
X10886732Y10640368D01*
Y10639546D01*
X10886849Y10638608D01*
X10887084Y10637551D01*
X10887436Y10636143D01*
X10887905Y10634735D01*
X10888492Y10633327D01*
X10889431Y10631919D01*
X10889548Y10631684D01*
X10890017Y10631097D01*
X10890839Y10630276D01*
X10892012Y10629220D01*
X10893420Y10628046D01*
X10895063Y10626755D01*
X10897176Y10625582D01*
X10899523Y10624409D01*
X10899640D01*
X10899875Y10624291D01*
X10900227Y10624174D01*
X10900696Y10623939D01*
X10901400Y10623822D01*
X10902222Y10623587D01*
X10903160Y10623352D01*
X10904334Y10623118D01*
X10905625Y10622766D01*
X10907033Y10622531D01*
X10908558Y10622296D01*
X10910201Y10622179D01*
X10912079Y10621944D01*
X10913956Y10621827D01*
X10916069Y10621710D01*
X10918181D01*
X10918064Y10621827D01*
X10917359Y10622296D01*
X10916421Y10623118D01*
X10915247Y10624174D01*
X10913839Y10625347D01*
X10912548Y10626873D01*
X10911257Y10628516D01*
X10910084Y10630393D01*
Y10630511D01*
X10909966Y10630628D01*
X10909614Y10631332D01*
X10909262Y10632388D01*
X10908676Y10633796D01*
X10908206Y10635439D01*
X10907854Y10637317D01*
X10907502Y10639312D01*
X10907385Y10641424D01*
Y10642363D01*
X10907502Y10643067D01*
X10907620Y10644006D01*
X10907737Y10644944D01*
X10907972Y10646118D01*
X10908324Y10647291D01*
X10909145Y10649990D01*
X10909732Y10651399D01*
X10910553Y10652807D01*
X10911375Y10654215D01*
X10912313Y10655740D01*
X10913487Y10657149D01*
X10914778Y10658439D01*
X10914895Y10658557D01*
X10915130Y10658791D01*
X10915482Y10659144D01*
X10916069Y10659496D01*
X10916890Y10660082D01*
X10917711Y10660669D01*
X10918768Y10661256D01*
X10919941Y10661960D01*
X10921232Y10662664D01*
X10922640Y10663251D01*
X10924283Y10663837D01*
X10925926Y10664424D01*
X10927686Y10664776D01*
X10929681Y10665128D01*
X10931676Y10665363D01*
X10933788Y10665480D01*
X10933905D01*
X10934140D01*
X10934492D01*
X10935079D01*
X10935783Y10665363D01*
D02*
G37*
G36*
X10960074Y10592490D02*
X10943176Y10581811D01*
X10943059D01*
X10942824Y10581576D01*
X10942472Y10581342D01*
X10942002Y10580990D01*
X10940712Y10580168D01*
X10939069Y10579112D01*
X10937309Y10577821D01*
X10935431Y10576531D01*
X10933671Y10575240D01*
X10932028Y10574066D01*
X10931911Y10573949D01*
X10931441Y10573597D01*
X10930737Y10573010D01*
X10929916Y10572189D01*
X10928155Y10570428D01*
X10927334Y10569490D01*
X10926630Y10568551D01*
X10926513Y10568434D01*
X10926395Y10568199D01*
X10926161Y10567729D01*
X10925808Y10567025D01*
X10925456Y10566321D01*
X10925104Y10565500D01*
X10924518Y10563622D01*
Y10563505D01*
X10924400Y10563270D01*
Y10562801D01*
X10924283Y10562214D01*
X10924166Y10561393D01*
Y10560454D01*
X10924048Y10559163D01*
Y10545316D01*
X10960074D01*
Y10534520D01*
X10878869D01*
Y10572189D01*
X10878987Y10573127D01*
Y10574184D01*
X10879104Y10576648D01*
X10879456Y10579230D01*
X10879808Y10582046D01*
X10880395Y10584628D01*
X10880747Y10585918D01*
X10881099Y10586975D01*
Y10587092D01*
X10881216Y10587209D01*
X10881568Y10587913D01*
X10882038Y10588969D01*
X10882859Y10590260D01*
X10883915Y10591668D01*
X10885323Y10593194D01*
X10886966Y10594602D01*
X10888844Y10596010D01*
X10888961D01*
X10889079Y10596128D01*
X10889783Y10596597D01*
X10890956Y10597066D01*
X10892482Y10597771D01*
X10894242Y10598357D01*
X10896354Y10598944D01*
X10898584Y10599296D01*
X10901048Y10599413D01*
X10901165D01*
X10901400D01*
X10901869D01*
X10902456Y10599296D01*
X10903278D01*
X10904099Y10599179D01*
X10906094Y10598709D01*
X10908441Y10598005D01*
X10910905Y10597066D01*
X10913370Y10595658D01*
X10914543Y10594719D01*
X10915717Y10593781D01*
X10915834Y10593663D01*
X10915951Y10593546D01*
X10916303Y10593194D01*
X10916655Y10592725D01*
X10917125Y10592138D01*
X10917594Y10591434D01*
X10918181Y10590495D01*
X10918885Y10589556D01*
X10919472Y10588383D01*
X10920058Y10587092D01*
X10920763Y10585684D01*
X10921349Y10584158D01*
X10921819Y10582398D01*
X10922405Y10580638D01*
X10922757Y10578643D01*
X10923109Y10576531D01*
X10923227Y10576765D01*
X10923462Y10577235D01*
X10923931Y10577939D01*
X10924400Y10578877D01*
X10925691Y10580990D01*
X10926513Y10582046D01*
X10927217Y10582985D01*
X10927451Y10583219D01*
X10928038Y10583806D01*
X10928977Y10584745D01*
X10930150Y10585918D01*
X10931793Y10587209D01*
X10933553Y10588735D01*
X10935666Y10590260D01*
X10938013Y10591903D01*
X10960074Y10605868D01*
Y10592490D01*
D02*
G37*
%LPC*%
G36*
X10917652Y9896421D02*
X10917535D01*
X10917183D01*
X10916713D01*
X10916009D01*
X10915071Y9896304D01*
X10914132D01*
X10912958Y9896186D01*
X10911785Y9895952D01*
X10909086Y9895599D01*
X10906152Y9895013D01*
X10903218Y9894191D01*
X10900402Y9893018D01*
X10900285D01*
X10900050Y9892900D01*
X10899698Y9892666D01*
X10899229Y9892431D01*
X10897820Y9891610D01*
X10896178Y9890553D01*
X10894300Y9889145D01*
X10892422Y9887385D01*
X10890545Y9885390D01*
X10888902Y9883161D01*
Y9883043D01*
X10888667Y9882926D01*
X10888550Y9882574D01*
X10888198Y9881987D01*
X10887963Y9881400D01*
X10887611Y9880696D01*
X10886790Y9878936D01*
X10886086Y9876824D01*
X10885382Y9874359D01*
X10884912Y9871543D01*
X10884795Y9868609D01*
Y9867436D01*
X10884912Y9866615D01*
X10885030Y9865558D01*
X10885264Y9864385D01*
X10885499Y9863094D01*
X10885851Y9861686D01*
X10886320Y9860043D01*
X10886790Y9858517D01*
X10887494Y9856875D01*
X10888315Y9855114D01*
X10889254Y9853472D01*
X10890428Y9851829D01*
X10891601Y9850186D01*
X10893127Y9848660D01*
X10893244Y9848543D01*
X10893479Y9848308D01*
X10893948Y9847956D01*
X10894652Y9847487D01*
X10895474Y9846783D01*
X10896530Y9846196D01*
X10897820Y9845492D01*
X10899229Y9844788D01*
X10900872Y9843966D01*
X10902749Y9843262D01*
X10904744Y9842676D01*
X10906974Y9842089D01*
X10909321Y9841502D01*
X10911902Y9841150D01*
X10914719Y9840915D01*
X10917652Y9840798D01*
X10917887D01*
X10918356D01*
X10919178D01*
X10920234Y9840915D01*
X10921525Y9841033D01*
X10923050Y9841267D01*
X10924811Y9841502D01*
X10926571Y9841737D01*
X10930561Y9842676D01*
X10932555Y9843262D01*
X10934550Y9844084D01*
X10936545Y9844905D01*
X10938423Y9845961D01*
X10940300Y9847135D01*
X10941943Y9848543D01*
X10942061Y9848660D01*
X10942295Y9848895D01*
X10942765Y9849364D01*
X10943234Y9849951D01*
X10943938Y9850773D01*
X10944642Y9851711D01*
X10945346Y9852767D01*
X10946168Y9854058D01*
X10946989Y9855349D01*
X10947693Y9856875D01*
X10948397Y9858517D01*
X10949102Y9860278D01*
X10949571Y9862273D01*
X10950040Y9864268D01*
X10950275Y9866380D01*
X10950392Y9868609D01*
Y9869666D01*
X10950275Y9870722D01*
X10950158Y9872130D01*
X10949923Y9873890D01*
X10949454Y9875650D01*
X10948984Y9877645D01*
X10948280Y9879523D01*
X10948163Y9879288D01*
X10947693Y9878701D01*
X10947107Y9877645D01*
X10946403Y9876354D01*
X10945698Y9874712D01*
X10944877Y9872951D01*
X10944173Y9870956D01*
X10943586Y9868844D01*
X10935841Y9871543D01*
Y9871660D01*
X10935959Y9872013D01*
X10936076Y9872482D01*
X10936311Y9873069D01*
X10936545Y9873890D01*
X10936897Y9874829D01*
X10937719Y9876941D01*
X10938892Y9879405D01*
X10940183Y9881987D01*
X10941709Y9884451D01*
X10943586Y9886916D01*
X10943469Y9887033D01*
X10943234Y9887385D01*
X10942647Y9887854D01*
X10941943Y9888441D01*
X10941005Y9889145D01*
X10939948Y9889967D01*
X10938658Y9890788D01*
X10937132Y9891727D01*
X10935372Y9892548D01*
X10933377Y9893370D01*
X10931265Y9894191D01*
X10929035Y9894895D01*
X10926453Y9895599D01*
X10923754Y9896069D01*
X10920821Y9896304D01*
X10917652Y9896421D01*
D02*
G37*
G36*
X10901693Y9588382D02*
X10901576D01*
X10901459D01*
X10900754Y9588265D01*
X10899698Y9588148D01*
X10898290Y9587913D01*
X10896882Y9587326D01*
X10895239Y9586622D01*
X10893714Y9585566D01*
X10892188Y9584158D01*
X10892071Y9583923D01*
X10891601Y9583336D01*
X10891015Y9582398D01*
X10890310Y9580872D01*
X10889606Y9579112D01*
X10889020Y9576765D01*
X10888550Y9574066D01*
X10888433Y9570898D01*
Y9545316D01*
X10915306D01*
Y9569489D01*
X10915188Y9570898D01*
X10915071Y9572540D01*
X10914954Y9574418D01*
X10914719Y9576296D01*
X10914367Y9578173D01*
X10913897Y9579816D01*
X10913780Y9580051D01*
X10913545Y9580520D01*
X10913193Y9581224D01*
X10912724Y9582163D01*
X10912020Y9583219D01*
X10911198Y9584275D01*
X10910142Y9585331D01*
X10908969Y9586153D01*
X10908851Y9586270D01*
X10908382Y9586505D01*
X10907678Y9586857D01*
X10906739Y9587326D01*
X10905683Y9587678D01*
X10904510Y9588030D01*
X10903101Y9588265D01*
X10901693Y9588382D01*
D02*
G37*
G36*
X8958009Y8870531D02*
X8932427Y8834153D01*
X8958009D01*
Y8870531D01*
D02*
G37*
G36*
X9832003Y10150313D02*
X9831886D01*
X9831651D01*
X9831182D01*
X9830595Y10150196D01*
X9829891D01*
X9829069Y10150079D01*
X9827192Y10149727D01*
X9825080Y10149257D01*
X9822850Y10148436D01*
X9820738Y10147262D01*
X9818743Y10145737D01*
X9818508Y10145502D01*
X9817921Y10144915D01*
X9817217Y10143977D01*
X9816279Y10142686D01*
X9815340Y10141043D01*
X9814636Y10139165D01*
X9814049Y10136936D01*
X9813814Y10134471D01*
Y10133767D01*
X9813932Y10133298D01*
X9814049Y10132125D01*
X9814401Y10130482D01*
X9814988Y10128721D01*
X9815927Y10126727D01*
X9817100Y10124849D01*
X9818743Y10122971D01*
X9818978Y10122737D01*
X9819564Y10122267D01*
X9820620Y10121446D01*
X9822146Y10120624D01*
X9823906Y10119803D01*
X9826136Y10118982D01*
X9828600Y10118512D01*
X9831416Y10118277D01*
X9831651D01*
X9832238D01*
X9833294Y10118395D01*
X9834585Y10118512D01*
X9836110Y10118747D01*
X9837753Y10119216D01*
X9839513Y10119686D01*
X9841274Y10120390D01*
X9841508Y10120507D01*
X9842095Y10120859D01*
X9842917Y10121328D01*
X9843973Y10122033D01*
X9845029Y10122854D01*
X9846320Y10123910D01*
X9847376Y10125084D01*
X9848432Y10126492D01*
X9848549Y10126727D01*
X9848784Y10127196D01*
X9849253Y10128017D01*
X9849605Y10129073D01*
X9850075Y10130247D01*
X9850544Y10131655D01*
X9850779Y10133181D01*
X9850896Y10134824D01*
Y10135410D01*
X9850779Y10135880D01*
X9850662Y10137053D01*
X9850309Y10138579D01*
X9849605Y10140222D01*
X9848784Y10142099D01*
X9847493Y10143977D01*
X9846789Y10144915D01*
X9845850Y10145737D01*
X9845733D01*
X9845616Y10145972D01*
X9844911Y10146441D01*
X9843738Y10147145D01*
X9842212Y10148084D01*
X9840218Y10148905D01*
X9837871Y10149609D01*
X9835172Y10150079D01*
X9832003Y10150313D01*
D02*
G37*
G36*
X9340426Y9623240D02*
X9339488D01*
X9338431Y9623005D01*
X9337023Y9622770D01*
X9335498Y9622301D01*
X9333855Y9621714D01*
X9332329Y9620776D01*
X9330804Y9619485D01*
X9330686Y9619367D01*
X9330217Y9618898D01*
X9329630Y9618077D01*
X9329044Y9617020D01*
X9328339Y9615730D01*
X9327753Y9614204D01*
X9327283Y9612561D01*
X9327166Y9610684D01*
Y9610566D01*
Y9610449D01*
X9327283Y9609745D01*
X9327401Y9608689D01*
X9327635Y9607398D01*
X9328105Y9605872D01*
X9328692Y9604347D01*
X9329630Y9602704D01*
X9330804Y9601296D01*
X9330921Y9601178D01*
X9331508Y9600709D01*
X9332329Y9600122D01*
X9333385Y9599536D01*
X9334794Y9598831D01*
X9336436Y9598245D01*
X9338314Y9597775D01*
X9340426Y9597658D01*
X9340661D01*
X9341365Y9597775D01*
X9342421Y9597893D01*
X9343829Y9598127D01*
X9345355Y9598597D01*
X9346880Y9599183D01*
X9348523Y9600122D01*
X9349932Y9601296D01*
X9350049Y9601413D01*
X9350518Y9602000D01*
X9351105Y9602704D01*
X9351809Y9603760D01*
X9352513Y9605051D01*
X9353100Y9606576D01*
X9353569Y9608337D01*
X9353687Y9610214D01*
Y9610332D01*
Y9610449D01*
Y9611153D01*
X9353452Y9612209D01*
X9353217Y9613500D01*
X9352748Y9614908D01*
X9352044Y9616434D01*
X9351105Y9617959D01*
X9349814Y9619485D01*
X9349697Y9619602D01*
X9349110Y9620071D01*
X9348289Y9620658D01*
X9347233Y9621362D01*
X9345824Y9622066D01*
X9344299Y9622653D01*
X9342421Y9623122D01*
X9340426Y9623240D01*
D02*
G37*
G36*
X9340074Y9589561D02*
X9339370D01*
X9338901Y9589444D01*
X9337610Y9589326D01*
X9335967Y9588974D01*
X9334090Y9588387D01*
X9332212Y9587566D01*
X9330217Y9586393D01*
X9328457Y9584867D01*
X9328222Y9584632D01*
X9327753Y9584046D01*
X9327049Y9582989D01*
X9326227Y9581699D01*
X9325288Y9579938D01*
X9324584Y9577944D01*
X9324115Y9575714D01*
X9323880Y9573250D01*
Y9573015D01*
Y9572545D01*
X9323998Y9571724D01*
X9324115Y9570668D01*
X9324350Y9569377D01*
X9324702Y9567969D01*
X9325171Y9566561D01*
X9325758Y9565035D01*
X9325875Y9564918D01*
X9326110Y9564331D01*
X9326579Y9563627D01*
X9327283Y9562806D01*
X9328105Y9561749D01*
X9329161Y9560693D01*
X9330334Y9559755D01*
X9331743Y9558816D01*
X9331977Y9558698D01*
X9332447Y9558464D01*
X9333268Y9558112D01*
X9334324Y9557760D01*
X9335615Y9557408D01*
X9337141Y9557056D01*
X9338783Y9556821D01*
X9340426Y9556704D01*
X9341130D01*
X9341600Y9556821D01*
X9343008Y9556938D01*
X9344651Y9557290D01*
X9346528Y9557877D01*
X9348523Y9558581D01*
X9350401Y9559755D01*
X9352278Y9561280D01*
X9352513Y9561515D01*
X9352983Y9562102D01*
X9353804Y9563158D01*
X9354625Y9564448D01*
X9355447Y9566091D01*
X9356268Y9568086D01*
X9356738Y9570433D01*
X9356972Y9572898D01*
Y9573015D01*
Y9573250D01*
Y9573602D01*
X9356855Y9574071D01*
X9356738Y9575362D01*
X9356386Y9577122D01*
X9355799Y9578882D01*
X9354977Y9580877D01*
X9353804Y9582872D01*
X9352161Y9584750D01*
X9351926Y9584984D01*
X9351340Y9585454D01*
X9350284Y9586275D01*
X9348875Y9587214D01*
X9347115Y9588035D01*
X9345003Y9588857D01*
X9342656Y9589326D01*
X9340074Y9589561D01*
D02*
G37*
G36*
X10906035Y9256151D02*
X10905917D01*
X10905683D01*
X10905213D01*
X10904627Y9256034D01*
X10903805D01*
X10902984Y9255916D01*
X10901106Y9255564D01*
X10898877Y9255095D01*
X10896530Y9254273D01*
X10894300Y9253100D01*
X10892305Y9251574D01*
X10892188D01*
X10892070Y9251340D01*
X10891484Y9250753D01*
X10890662Y9249814D01*
X10889723Y9248523D01*
X10888902Y9246880D01*
X10888081Y9245003D01*
X10887494Y9242891D01*
X10887259Y9241717D01*
Y9239840D01*
X10887376Y9239370D01*
X10887494Y9238079D01*
X10887963Y9236554D01*
X10888550Y9234676D01*
X10889606Y9232681D01*
X10890897Y9230686D01*
X10891836Y9229748D01*
X10892775Y9228809D01*
X10892892D01*
X10893009Y9228574D01*
X10893361Y9228339D01*
X10893713Y9228105D01*
X10894887Y9227283D01*
X10896530Y9226462D01*
X10898525Y9225523D01*
X10900989Y9224702D01*
X10903805Y9224232D01*
X10906856Y9223998D01*
X10906974D01*
X10907208D01*
X10907560D01*
X10908147Y9224115D01*
X10908851D01*
X10909555Y9224232D01*
X10911315Y9224584D01*
X10913310Y9225171D01*
X10915423Y9225875D01*
X10917535Y9227049D01*
X10919413Y9228574D01*
X10919647Y9228809D01*
X10920117Y9229396D01*
X10920938Y9230452D01*
X10921759Y9231743D01*
X10922698Y9233503D01*
X10923520Y9235498D01*
X10923989Y9237727D01*
X10924224Y9240192D01*
Y9240896D01*
X10924106Y9241365D01*
X10923989Y9242656D01*
X10923637Y9244181D01*
X10923050Y9246059D01*
X10922229Y9247937D01*
X10921055Y9249814D01*
X10919413Y9251574D01*
X10919178Y9251809D01*
X10918474Y9252278D01*
X10917418Y9252983D01*
X10915892Y9253921D01*
X10914014Y9254743D01*
X10911785Y9255447D01*
X10909086Y9255916D01*
X10906035Y9256151D01*
D02*
G37*
G36*
X11111265Y10584559D02*
X11074887D01*
X11111265Y10558977D01*
Y10584559D01*
D02*
G37*
G36*
X10917652Y10303872D02*
X10917535D01*
X10917183D01*
X10916713D01*
X10916009D01*
X10915071Y10303755D01*
X10914132D01*
X10912958Y10303638D01*
X10911785Y10303403D01*
X10909086Y10303051D01*
X10906152Y10302464D01*
X10903218Y10301643D01*
X10900402Y10300469D01*
X10900285D01*
X10900050Y10300352D01*
X10899698Y10300117D01*
X10899229Y10299883D01*
X10897820Y10299061D01*
X10896178Y10298005D01*
X10894300Y10296597D01*
X10892422Y10294837D01*
X10890545Y10292842D01*
X10888902Y10290612D01*
Y10290495D01*
X10888667Y10290377D01*
X10888550Y10290025D01*
X10888198Y10289439D01*
X10887963Y10288852D01*
X10887611Y10288148D01*
X10886790Y10286388D01*
X10886086Y10284275D01*
X10885382Y10281811D01*
X10884912Y10278995D01*
X10884795Y10276061D01*
Y10274888D01*
X10884912Y10274066D01*
X10885030Y10273010D01*
X10885264Y10271836D01*
X10885499Y10270546D01*
X10885851Y10269137D01*
X10886320Y10267495D01*
X10886790Y10265969D01*
X10887494Y10264326D01*
X10888315Y10262566D01*
X10889254Y10260923D01*
X10890428Y10259280D01*
X10891601Y10257637D01*
X10893127Y10256112D01*
X10893244Y10255994D01*
X10893479Y10255760D01*
X10893948Y10255408D01*
X10894652Y10254938D01*
X10895474Y10254234D01*
X10896530Y10253648D01*
X10897820Y10252943D01*
X10899229Y10252239D01*
X10900872Y10251418D01*
X10902749Y10250714D01*
X10904744Y10250127D01*
X10906974Y10249540D01*
X10909321Y10248954D01*
X10911902Y10248602D01*
X10914719Y10248367D01*
X10917652Y10248250D01*
X10917887D01*
X10918356D01*
X10919178D01*
X10920234Y10248367D01*
X10921525Y10248484D01*
X10923050Y10248719D01*
X10924811Y10248954D01*
X10926571Y10249188D01*
X10930561Y10250127D01*
X10932555Y10250714D01*
X10934550Y10251535D01*
X10936545Y10252357D01*
X10938423Y10253413D01*
X10940300Y10254586D01*
X10941943Y10255994D01*
X10942061Y10256112D01*
X10942295Y10256347D01*
X10942765Y10256816D01*
X10943234Y10257403D01*
X10943938Y10258224D01*
X10944642Y10259163D01*
X10945346Y10260219D01*
X10946168Y10261510D01*
X10946989Y10262801D01*
X10947693Y10264326D01*
X10948397Y10265969D01*
X10949102Y10267729D01*
X10949571Y10269724D01*
X10950040Y10271719D01*
X10950275Y10273831D01*
X10950392Y10276061D01*
Y10277117D01*
X10950275Y10278173D01*
X10950158Y10279581D01*
X10949923Y10281342D01*
X10949454Y10283102D01*
X10948984Y10285097D01*
X10948280Y10286974D01*
X10948163Y10286740D01*
X10947693Y10286153D01*
X10947107Y10285097D01*
X10946403Y10283806D01*
X10945698Y10282163D01*
X10944877Y10280403D01*
X10944173Y10278408D01*
X10943586Y10276296D01*
X10935841Y10278995D01*
Y10279112D01*
X10935959Y10279464D01*
X10936076Y10279933D01*
X10936311Y10280520D01*
X10936545Y10281342D01*
X10936897Y10282280D01*
X10937719Y10284393D01*
X10938892Y10286857D01*
X10940183Y10289439D01*
X10941709Y10291903D01*
X10943586Y10294367D01*
X10943469Y10294485D01*
X10943234Y10294837D01*
X10942647Y10295306D01*
X10941943Y10295893D01*
X10941005Y10296597D01*
X10939948Y10297418D01*
X10938658Y10298240D01*
X10937132Y10299179D01*
X10935372Y10300000D01*
X10933377Y10300821D01*
X10931265Y10301643D01*
X10929035Y10302347D01*
X10926453Y10303051D01*
X10923754Y10303520D01*
X10920821Y10303755D01*
X10917652Y10303872D01*
D02*
G37*
G36*
X10243469Y10102344D02*
X10243352D01*
X10243235D01*
X10242531Y10102227D01*
X10241475Y10102110D01*
X10240066Y10101875D01*
X10238658Y10101288D01*
X10237015Y10100584D01*
X10235490Y10099528D01*
X10233964Y10098120D01*
X10233847Y10097885D01*
X10233378Y10097298D01*
X10232791Y10096360D01*
X10232087Y10094834D01*
X10231383Y10093074D01*
X10230796Y10090727D01*
X10230327Y10088028D01*
X10230209Y10084859D01*
Y10059278D01*
X10257082D01*
Y10083451D01*
X10256964Y10084859D01*
X10256847Y10086502D01*
X10256730Y10088380D01*
X10256495Y10090257D01*
X10256143Y10092135D01*
X10255674Y10093778D01*
X10255556Y10094013D01*
X10255322Y10094482D01*
X10254970Y10095186D01*
X10254500Y10096125D01*
X10253796Y10097181D01*
X10252975Y10098237D01*
X10251919Y10099293D01*
X10250745Y10100115D01*
X10250628Y10100232D01*
X10250158Y10100467D01*
X10249454Y10100819D01*
X10248515Y10101288D01*
X10247459Y10101640D01*
X10246286Y10101992D01*
X10244878Y10102227D01*
X10243469Y10102344D01*
D02*
G37*
G36*
X9519569Y10390093D02*
X9519452D01*
X9519335D01*
X9518630Y10389976D01*
X9517574Y10389859D01*
X9516166Y10389624D01*
X9514758Y10389037D01*
X9513115Y10388333D01*
X9511590Y10387277D01*
X9510064Y10385869D01*
X9509947Y10385634D01*
X9509477Y10385047D01*
X9508891Y10384109D01*
X9508186Y10382583D01*
X9507482Y10380823D01*
X9506896Y10378476D01*
X9506426Y10375777D01*
X9506309Y10372608D01*
Y10347027D01*
X9533182D01*
Y10371200D01*
X9533064Y10372608D01*
X9532947Y10374251D01*
X9532830Y10376129D01*
X9532595Y10378006D01*
X9532243Y10379884D01*
X9531773Y10381527D01*
X9531656Y10381762D01*
X9531421Y10382231D01*
X9531069Y10382935D01*
X9530600Y10383874D01*
X9529896Y10384930D01*
X9529074Y10385986D01*
X9528018Y10387042D01*
X9526845Y10387864D01*
X9526727Y10387981D01*
X9526258Y10388216D01*
X9525554Y10388568D01*
X9524615Y10389037D01*
X9523559Y10389389D01*
X9522386Y10389741D01*
X9520977Y10389976D01*
X9519569Y10390093D01*
D02*
G37*
G36*
X10242765Y10389682D02*
X10242648D01*
X10242531D01*
X10241827Y10389565D01*
X10240770Y10389448D01*
X10239362Y10389213D01*
X10237954Y10388626D01*
X10236311Y10387922D01*
X10234786Y10386866D01*
X10233260Y10385458D01*
X10233143Y10385223D01*
X10232673Y10384636D01*
X10232087Y10383698D01*
X10231383Y10382172D01*
X10230679Y10380412D01*
X10230092Y10378065D01*
X10229622Y10375366D01*
X10229505Y10372197D01*
Y10346616D01*
X10256378D01*
Y10370789D01*
X10256260Y10372197D01*
X10256143Y10373840D01*
X10256026Y10375718D01*
X10255791Y10377595D01*
X10255439Y10379473D01*
X10254970Y10381116D01*
X10254852Y10381351D01*
X10254618Y10381820D01*
X10254265Y10382524D01*
X10253796Y10383463D01*
X10253092Y10384519D01*
X10252271Y10385575D01*
X10251214Y10386631D01*
X10250041Y10387453D01*
X10249924Y10387570D01*
X10249454Y10387805D01*
X10248750Y10388157D01*
X10247811Y10388626D01*
X10246755Y10388978D01*
X10245582Y10389330D01*
X10244174Y10389565D01*
X10242765Y10389682D01*
D02*
G37*
G36*
X10931969Y10844299D02*
X10895591D01*
X10931969Y10818717D01*
Y10844299D01*
D02*
G37*
G36*
X10901693Y10788558D02*
X10901576D01*
X10901459D01*
X10900754Y10788441D01*
X10899698Y10788324D01*
X10898290Y10788089D01*
X10896882Y10787502D01*
X10895239Y10786798D01*
X10893714Y10785742D01*
X10892188Y10784334D01*
X10892071Y10784099D01*
X10891601Y10783512D01*
X10891015Y10782574D01*
X10890310Y10781048D01*
X10889606Y10779288D01*
X10889020Y10776941D01*
X10888550Y10774242D01*
X10888433Y10771073D01*
Y10745492D01*
X10915306D01*
Y10769665D01*
X10915188Y10771073D01*
X10915071Y10772716D01*
X10914954Y10774594D01*
X10914719Y10776471D01*
X10914367Y10778349D01*
X10913897Y10779992D01*
X10913780Y10780227D01*
X10913545Y10780696D01*
X10913193Y10781400D01*
X10912724Y10782339D01*
X10912020Y10783395D01*
X10911198Y10784451D01*
X10910142Y10785507D01*
X10908969Y10786329D01*
X10908851Y10786446D01*
X10908382Y10786681D01*
X10907678Y10787033D01*
X10906739Y10787502D01*
X10905683Y10787854D01*
X10904510Y10788206D01*
X10903101Y10788441D01*
X10901693Y10788558D01*
D02*
G37*
G36*
X10900989Y9388089D02*
X10900872D01*
X10900754D01*
X10900050Y9387972D01*
X10898994Y9387854D01*
X10897586Y9387620D01*
X10896178Y9387033D01*
X10894535Y9386329D01*
X10893009Y9385273D01*
X10891484Y9383865D01*
X10891366Y9383630D01*
X10890897Y9383043D01*
X10890310Y9382104D01*
X10889606Y9380579D01*
X10888902Y9378819D01*
X10888315Y9376472D01*
X10887846Y9373773D01*
X10887729Y9370604D01*
Y9345022D01*
X10914601D01*
Y9369196D01*
X10914484Y9370604D01*
X10914367Y9372247D01*
X10914249Y9374125D01*
X10914014Y9376002D01*
X10913662Y9377880D01*
X10913193Y9379523D01*
X10913076Y9379757D01*
X10912841Y9380227D01*
X10912489Y9380931D01*
X10912020Y9381870D01*
X10911315Y9382926D01*
X10910494Y9383982D01*
X10909438Y9385038D01*
X10908264Y9385860D01*
X10908147Y9385977D01*
X10907678Y9386212D01*
X10906974Y9386564D01*
X10906035Y9387033D01*
X10904979Y9387385D01*
X10903805Y9387737D01*
X10902397Y9387972D01*
X10900989Y9388089D01*
D02*
G37*
G36*
X10934375Y10655271D02*
X10934258D01*
X10934023D01*
X10933553D01*
X10932967Y10655154D01*
X10932263D01*
X10931441Y10655036D01*
X10929564Y10654684D01*
X10927451Y10654215D01*
X10925222Y10653393D01*
X10923109Y10652220D01*
X10921115Y10650694D01*
X10920880Y10650460D01*
X10920293Y10649873D01*
X10919589Y10648934D01*
X10918650Y10647643D01*
X10917711Y10646001D01*
X10917007Y10644123D01*
X10916421Y10641893D01*
X10916186Y10639429D01*
Y10638725D01*
X10916303Y10638256D01*
X10916421Y10637082D01*
X10916773Y10635439D01*
X10917359Y10633679D01*
X10918298Y10631684D01*
X10919472Y10629807D01*
X10921115Y10627929D01*
X10921349Y10627694D01*
X10921936Y10627225D01*
X10922992Y10626403D01*
X10924518Y10625582D01*
X10926278Y10624761D01*
X10928507Y10623939D01*
X10930972Y10623470D01*
X10933788Y10623235D01*
X10934023D01*
X10934610D01*
X10935666Y10623352D01*
X10936957Y10623470D01*
X10938482Y10623704D01*
X10940125Y10624174D01*
X10941885Y10624643D01*
X10943645Y10625347D01*
X10943880Y10625465D01*
X10944467Y10625817D01*
X10945288Y10626286D01*
X10946344Y10626990D01*
X10947401Y10627812D01*
X10948691Y10628868D01*
X10949747Y10630041D01*
X10950804Y10631449D01*
X10950921Y10631684D01*
X10951156Y10632153D01*
X10951625Y10632975D01*
X10951977Y10634031D01*
X10952446Y10635205D01*
X10952916Y10636613D01*
X10953151Y10638138D01*
X10953268Y10639781D01*
Y10640368D01*
X10953151Y10640837D01*
X10953033Y10642011D01*
X10952681Y10643536D01*
X10951977Y10645179D01*
X10951156Y10647057D01*
X10949865Y10648934D01*
X10949161Y10649873D01*
X10948222Y10650694D01*
X10948105D01*
X10947987Y10650929D01*
X10947283Y10651399D01*
X10946110Y10652103D01*
X10944584Y10653041D01*
X10942589Y10653863D01*
X10940242Y10654567D01*
X10937543Y10655036D01*
X10934375Y10655271D01*
D02*
G37*
G36*
X10901165Y10588383D02*
X10901048D01*
X10900931D01*
X10900227Y10588265D01*
X10899170Y10588148D01*
X10897762Y10587913D01*
X10896354Y10587327D01*
X10894711Y10586622D01*
X10893186Y10585566D01*
X10891660Y10584158D01*
X10891543Y10583923D01*
X10891073Y10583337D01*
X10890487Y10582398D01*
X10889783Y10580872D01*
X10889079Y10579112D01*
X10888492Y10576765D01*
X10888022Y10574066D01*
X10887905Y10570898D01*
Y10545316D01*
X10914778D01*
Y10569490D01*
X10914660Y10570898D01*
X10914543Y10572541D01*
X10914426Y10574418D01*
X10914191Y10576296D01*
X10913839Y10578173D01*
X10913370Y10579816D01*
X10913252Y10580051D01*
X10913018Y10580520D01*
X10912665Y10581224D01*
X10912196Y10582163D01*
X10911492Y10583219D01*
X10910671Y10584276D01*
X10909614Y10585332D01*
X10908441Y10586153D01*
X10908324Y10586270D01*
X10907854Y10586505D01*
X10907150Y10586857D01*
X10906211Y10587327D01*
X10905155Y10587679D01*
X10903982Y10588031D01*
X10902574Y10588265D01*
X10901165Y10588383D01*
D02*
G37*
%LPD*%
D30*
X9760000Y9650000D02*
G03*
X9760000Y9650000I-10000J0D01*
G01*
D31*
X9700000Y9100000D02*
Y9700000D01*
Y9100000D02*
X10300000D01*
Y9700000D01*
X9700000D02*
X10300000D01*
X10688000Y9530000D02*
X10712000D01*
X10688000Y9670000D02*
X10712000D01*
X10400000Y8259500D02*
Y8319500D01*
X9600000Y8259500D02*
X10400000D01*
X9600000D02*
Y8319500D01*
Y8589500D02*
X10400000D01*
X11490000Y9105000D02*
X11550000D01*
Y8497200D02*
Y9105000D01*
X11490000Y8497200D02*
X11550000D01*
X11220000D02*
Y9105000D01*
X8858500Y10160000D02*
Y10240000D01*
X8998500Y10160000D02*
Y10240000D01*
X8630000Y10160000D02*
Y10240000D01*
X8770000Y10160000D02*
Y10240000D01*
X8401500Y10160000D02*
Y10240000D01*
X8541500Y10160000D02*
Y10240000D01*
X8998500Y8560000D02*
Y8640000D01*
X8858500Y8560000D02*
Y8640000D01*
X8770000Y8560000D02*
Y8640000D01*
X8630000Y8560000D02*
Y8640000D01*
X9890000Y10060000D02*
Y10140000D01*
X10030000Y10060000D02*
Y10140000D01*
X9260000Y9210000D02*
X9340000D01*
X9260000Y9350000D02*
X9340000D01*
X9260000Y9370000D02*
X9340000D01*
X9260000Y9510000D02*
X9340000D01*
X10660000Y9270000D02*
X10740000D01*
X10660000Y9130000D02*
X10740000D01*
X8395000Y11090000D02*
Y11150000D01*
X9002800D01*
Y11090000D02*
Y11150000D01*
X8395000Y10820000D02*
X9002800D01*
X9595000Y11090000D02*
Y11150000D01*
X10202800D01*
Y11090000D02*
Y11150000D01*
X9595000Y10820000D02*
X10202800D01*
X11490000Y10405000D02*
X11550000D01*
Y9797200D02*
Y10405000D01*
X11490000Y9797200D02*
X11550000D01*
X11220000D02*
Y10405000D01*
X10050000Y10088000D02*
Y10112000D01*
X10190000Y10088000D02*
Y10112000D01*
X9732000Y10330000D02*
X9756000D01*
X9732000Y10470000D02*
X9756000D01*
X10044000D02*
X10068000D01*
X10044000Y10330000D02*
X10068000D01*
X10688000Y10730000D02*
X10712000D01*
X10688000Y10870000D02*
X10712000D01*
X10687999Y9470000D02*
X10711999D01*
X10687999Y9330000D02*
X10711999D01*
X10688000Y10670000D02*
X10712000D01*
X10688000Y10530000D02*
X10712000D01*
D32*
X9050000Y9513600D02*
Y9650000D01*
X8350000Y9513600D02*
Y9650000D01*
X9050000D01*
%TF.MD5,38f86fad0e1a530c9fabd74038187b1f*%
M02*
