%TF.GenerationSoftware,Altium Limited,Altium Designer,23.11.1 (41)*%
G04 Layer_Color=8421504*
%FSLAX45Y45*%
%MOMM*%
%TF.SameCoordinates,EE14C10C-1293-43E7-8F5D-FAE76E51A431*%
%TF.FilePolarity,Positive*%
%TF.FileFunction,Paste,Top*%
%TF.Part,Single*%
G01*
G75*
%TA.AperFunction,SMDPad,CuDef*%
%ADD10R,0.50000X1.20000*%
%ADD11R,1.20000X0.50000*%
%ADD12R,1.00000X1.75000*%
%ADD13R,5.50000X5.70000*%
%ADD14R,0.60000X0.80000*%
%ADD15R,0.70000X1.40000*%
%ADD16R,2.00000X3.00000*%
%ADD17R,0.75000X1.50000*%
%ADD18R,3.00000X2.00000*%
%ADD19R,1.50000X0.75000*%
%ADD20R,1.20000X0.75000*%
%ADD21R,0.75000X1.20000*%
%ADD22R,1.40000X0.70000*%
D10*
X9720000Y9825000D02*
D03*
X9800000D02*
D03*
X9880000D02*
D03*
X9960000D02*
D03*
X10040000D02*
D03*
X10120000D02*
D03*
X10200000D02*
D03*
X10280000D02*
D03*
Y8975000D02*
D03*
X10200000D02*
D03*
X10120000D02*
D03*
X10040000D02*
D03*
X9960000D02*
D03*
X9880000D02*
D03*
X9800000D02*
D03*
X9720000D02*
D03*
D11*
X10425000Y9680000D02*
D03*
Y9600000D02*
D03*
Y9520000D02*
D03*
Y9440000D02*
D03*
Y9360000D02*
D03*
Y9280000D02*
D03*
Y9200000D02*
D03*
Y9120000D02*
D03*
X9575000D02*
D03*
Y9200000D02*
D03*
Y9280000D02*
D03*
Y9360000D02*
D03*
Y9440000D02*
D03*
Y9520000D02*
D03*
Y9600000D02*
D03*
Y9680000D02*
D03*
D12*
X8928500Y9866500D02*
D03*
X8471500D02*
D03*
D13*
X8700000Y9200000D02*
D03*
D14*
X10800000Y9770000D02*
D03*
X10600000D02*
D03*
X10700000Y10030000D02*
D03*
X10600000Y10430000D02*
D03*
X10800000D02*
D03*
X10700000Y10170000D02*
D03*
D15*
X10793500Y9600000D02*
D03*
X10606500D02*
D03*
X9837500Y10400000D02*
D03*
X9650500D02*
D03*
X9962500D02*
D03*
X10149500D02*
D03*
X10793500Y10800000D02*
D03*
X10606500D02*
D03*
X10606499Y9400000D02*
D03*
X10793499D02*
D03*
X10606500Y10600000D02*
D03*
X10793500D02*
D03*
D16*
X10568960Y8419501D02*
D03*
X9433960D02*
D03*
X9142500Y10990000D02*
D03*
X8257500D02*
D03*
X10342500D02*
D03*
X9457500D02*
D03*
D17*
X10313960Y8709501D02*
D03*
X10063960D02*
D03*
X10188960D02*
D03*
X9938960D02*
D03*
X9688960D02*
D03*
X9813960D02*
D03*
X8762500Y10700000D02*
D03*
X8887500D02*
D03*
X8637500D02*
D03*
X8512500D02*
D03*
X9962500D02*
D03*
X10087500D02*
D03*
X9837500D02*
D03*
X9712500D02*
D03*
D18*
X11390000Y8357500D02*
D03*
Y9242500D02*
D03*
Y9657500D02*
D03*
Y10542500D02*
D03*
D19*
X11100000Y8737500D02*
D03*
Y8612500D02*
D03*
Y8862500D02*
D03*
Y8987500D02*
D03*
Y10037500D02*
D03*
Y9912500D02*
D03*
Y10162500D02*
D03*
Y10287500D02*
D03*
D20*
X8928500Y10100000D02*
D03*
Y10300000D02*
D03*
X8700000Y10100000D02*
D03*
Y10300000D02*
D03*
X8471500Y10100000D02*
D03*
Y10300000D02*
D03*
X8928500Y8700000D02*
D03*
Y8500000D02*
D03*
X8700000Y8700000D02*
D03*
Y8500000D02*
D03*
X9960000Y10000000D02*
D03*
Y10200000D02*
D03*
D21*
X9400000Y9280000D02*
D03*
X9200000D02*
D03*
X9400000Y9440000D02*
D03*
X9200000D02*
D03*
X10600000Y9200000D02*
D03*
X10800000D02*
D03*
D22*
X10120000Y10006500D02*
D03*
Y10193500D02*
D03*
%TF.MD5,5456f3506cd1f9112cb680e53415e66c*%
M02*
