M48
;Layer_Color=9474304
;FILE_FORMAT=4:4
METRIC,LZ
;TYPE=PLATED
T01F00S00C0.5000
T02F00S00C3.0000
%
T01
X0091417Y0087
X0094Y0090668
Y0096532
X0098Y0094975
X0100584
X00996Y0096118
X0102
X01004Y0093025
X00988Y0091882
X00981396Y0084963
X00993896Y008382
X01031396Y0084963
X010425Y0089068
X0106Y0089868
X0108868Y0088625
Y0087375
X0111Y0083993
X0110067Y0094
X0111Y0096993
X0103627Y0104
X0106065Y0110132
X01009083Y01102417
X0099625Y0109132
X0098375Y0110275
X0098Y0100382
X0094373Y0104
X0084715Y0096533
T02
X0082Y0084
X0116Y011
M30
